<?xml version="1.0" encoding="UTF-8" standalone="no"?>
<!DOCTYPE svg PUBLIC "-//W3C//DTD SVG 1.1//EN" "http://www.w3.org/Graphics/SVG/1.1/DTD/svg11.dtd">
<svg width="100%" height="100%" viewBox="0 0 745 1040" version="1.1" xmlns="http://www.w3.org/2000/svg" xmlns:xlink="http://www.w3.org/1999/xlink" xml:space="preserve" xmlns:serif="http://www.serif.com/" style="fill-rule:evenodd;clip-rule:evenodd;stroke-linecap:round;stroke-linejoin:round;stroke-miterlimit:3;">
    <g id="Card-Body" serif:id="Card Body" transform="matrix(3.22119,0,0,3.57172,-628.132,-346.457)">
        <path d="M426,113.534L426,371.466C426,380.591 417.785,388 407.667,388L213.333,388C203.215,388 195,380.591 195,371.466L195,113.534C195,104.409 203.215,97 213.333,97L407.667,97C417.785,97 426,104.409 426,113.534Z" style="fill:rgb(242,242,242);stroke:rgb(30,30,30);stroke-width:0.25px;"/>
    </g>
    <g id="_9" serif:id="9">
        <g id="Top-L" serif:id="Top L">
            <g transform="matrix(2.74142,0,0,2.74142,21.3872,118.811)">
                <path d="M30,18C29.999,21.839 26.839,24.997 23,24.997C21.731,24.997 20.487,24.653 19.399,24L18.844,24L19.958,27.712C19.985,27.806 20,27.903 20,28C20,28.548 19.548,29 19,29L13,29C12.452,29 12,28.548 12,28C12,27.903 12.015,27.806 12.043,27.712L13.156,24L12.601,24C11.512,24.654 10.266,25 8.996,25C5.156,25 1.996,21.84 1.996,18C1.996,14.16 5.156,11 8.996,11C8.997,11 9.194,11 9.291,11C9.098,10.352 9,9.678 9,9.002C9,5.162 12.16,2.002 16,2.002C19.84,2.002 23,5.162 23,9.002C23,9.678 22.902,10.352 22.709,11L23,11C26.839,11.004 29.996,14.161 30,18Z" style="fill:rgb(30,30,30);fill-rule:nonzero;"/>
            </g>
            <g transform="matrix(1,0,0,1,-34,-77)">
                <g transform="matrix(83.3333,0,0,83.3333,122.202,179.483)">
                </g>
                <text x="76.286px" y="179.483px" style="font-family:'LobsterTwo-Bold', 'Lobster Two';font-weight:700;font-size:83.333px;fill:rgb(30,30,30);">9</text>
            </g>
        </g>
        <g id="Bottom-R" serif:id="Bottom R">
            <g transform="matrix(2.74142,0,0,2.74142,634.899,836.199)">
                <path d="M30,18C29.999,21.839 26.839,24.997 23,24.997C21.731,24.997 20.487,24.653 19.399,24L18.844,24L19.958,27.712C19.985,27.806 20,27.903 20,28C20,28.548 19.548,29 19,29L13,29C12.452,29 12,28.548 12,28C12,27.903 12.015,27.806 12.043,27.712L13.156,24L12.601,24C11.512,24.654 10.266,25 8.996,25C5.156,25 1.996,21.84 1.996,18C1.996,14.16 5.156,11 8.996,11C8.997,11 9.194,11 9.291,11C9.098,10.352 9,9.678 9,9.002C9,5.162 12.16,2.002 16,2.002C19.84,2.002 23,5.162 23,9.002C23,9.678 22.902,10.352 22.709,11L23,11C26.839,11.004 29.996,14.161 30,18Z" style="fill:rgb(30,30,30);fill-rule:nonzero;"/>
            </g>
            <g transform="matrix(1,0,0,1,579.512,820.701)">
                <g transform="matrix(83.3333,0,0,83.3333,122.202,179.483)">
                </g>
                <text x="76.286px" y="179.483px" style="font-family:'LobsterTwo-Bold', 'Lobster Two';font-weight:700;font-size:83.333px;fill:rgb(30,30,30);">9</text>
            </g>
        </g>
        <g id="Title" transform="matrix(1,0,0,1,-33.9055,604.89)">
            <g transform="matrix(66.6667,0,0,66.6667,613.386,181.788)">
            </g>
            <text x="198.519px" y="181.788px" style="font-family:'MarkerFelt-Thin', 'Marker Felt';font-size:66.667px;fill:rgb(30,30,30);">BUST A R<tspan x="446.719px 480.053px 521.319px 584.719px " y="181.788px 181.788px 181.788px 181.788px ">HYME</tspan></text>
        </g>
        <g transform="matrix(0.144071,0,0,0.144071,318.446,338.105)">
            <g transform="matrix(4.16667,0,0,4.16667,-8817.26,-4060.24)">
                <path d="M1947.32,820.884C1953.67,823.373 1963.72,820.257 1966.54,813.836C1966.8,813.253 1967.01,812.663 1967.2,812.068C1970.18,806.672 1967.42,800.286 1963.83,795.897C1959.55,790.66 1952.36,789.284 1946.47,792.46C1941.39,795.2 1938.89,801.122 1938.34,806.579C1937.7,813.021 1941.43,818.574 1947.32,820.884Z" style="fill:rgb(30,30,30);fill-rule:nonzero;"/>
            </g>
            <g transform="matrix(4.16667,0,0,4.16667,-8817.26,-4060.24)">
                <path d="M2438.85,787.117C2433.61,787.51 2428.96,790.092 2426.39,794.798C2423.48,800.124 2423.9,806.204 2424.92,811.964C2425.36,814.475 2427.11,816.411 2429.32,817.551C2431.41,820.001 2434.25,821.795 2437.4,822.276C2449,824.043 2461.44,812.429 2457.71,800.512C2455.31,792.842 2447.07,786.498 2438.85,787.117Z" style="fill:rgb(30,30,30);fill-rule:nonzero;"/>
            </g>
            <g transform="matrix(4.16667,0,0,4.16667,-8817.26,-4060.24)">
                <path d="M2485.21,1278.13C2496.8,1279.89 2509.24,1268.28 2505.51,1256.36C2503.11,1248.69 2494.88,1242.35 2486.65,1242.97C2481.42,1243.36 2476.76,1245.94 2474.2,1250.65C2471.29,1255.97 2471.71,1262.05 2472.72,1267.81C2473.16,1270.32 2474.92,1272.26 2477.13,1273.4C2479.21,1275.85 2482.05,1277.64 2485.21,1278.13Z" style="fill:rgb(30,30,30);fill-rule:nonzero;"/>
            </g>
            <g transform="matrix(4.16667,0,0,4.16667,-8817.26,-4060.24)">
                <path d="M2469.81,1403.34C2470.39,1406.1 2472.44,1408.19 2474.95,1409.27C2477.57,1411.82 2481.11,1413.35 2485.01,1413.87C2495.97,1415.32 2509.92,1403.2 2505.29,1391.67C2502.07,1383.62 2493.32,1377.57 2484.42,1378.4C2478.91,1378.92 2474.44,1381.35 2471.41,1386.06C2468.14,1391.13 2468.65,1397.75 2469.81,1403.34Z" style="fill:rgb(30,30,30);fill-rule:nonzero;"/>
            </g>
            <g transform="matrix(4.16667,0,0,4.16667,-8817.26,-4060.24)">
                <path d="M1981.71,1295.85C1964.25,1294.36 1949.85,1308.43 1948.76,1325.36C1948.21,1333.95 1951.99,1343.11 1958.71,1348.42C1963.57,1353.2 1969.93,1356.37 1976.92,1356.71C1992.41,1357.45 2004.45,1343.05 2006.38,1328.7C2008.55,1312.65 1998.69,1297.3 1981.71,1295.85Z" style="fill:rgb(30,30,30);fill-rule:nonzero;"/>
            </g>
            <g transform="matrix(4.16667,0,0,4.16667,-8817.26,-4060.24)">
                <path d="M2462.49,1342.14C2476.2,1326.79 2476.21,1304.77 2462.81,1289.39C2449.72,1274.38 2425.71,1276.14 2410.33,1285.96C2382.44,1303.74 2389.04,1348.82 2416.63,1355.32C2432.22,1363.22 2451.82,1354.09 2462.49,1342.14Z" style="fill:rgb(30,30,30);fill-rule:nonzero;"/>
            </g>
            <g transform="matrix(4.16667,0,0,4.16667,-8817.26,-4060.24)">
                <path d="M2154.36,1054.07C2150.42,1042.95 2145.55,1032.03 2138.17,1022.59C2129.07,1011.01 2117.2,1008.51 2103.46,1010.51C2100.69,1010.8 2100.05,1012.19 2100.86,1014.54C2101.05,1015.44 2101.24,1016.34 2101.44,1017.25L2101.57,1017.85C2108.13,1042.58 2114.1,1067.43 2118.85,1092.55C2121.44,1104.58 2123.73,1116.69 2126.54,1128.37C2130.13,1143.66 2134.03,1158.88 2138.23,1174.03C2140.01,1180.89 2140.98,1181 2146.96,1176.58C2154.85,1170.79 2160.41,1162.98 2163.05,1153.28C2167.6,1136.25 2169.23,1118.89 2166.67,1101.18C2164.45,1084.97 2159.83,1069.28 2154.36,1054.07Z" style="fill:rgb(30,30,30);fill-rule:nonzero;"/>
            </g>
            <g transform="matrix(4.16667,0,0,4.16667,-8817.26,-4060.24)">
                <path d="M2334.43,1028.98L2334.13,1029.05C2330.43,1019.13 2326.42,1009.29 2322.42,999.441C2321.82,999.571 2321.22,999.7 2320.62,999.829C2322.64,1028.37 2323.46,1057.15 2327.12,1085.97C2334.96,1084.28 2341.19,1081.07 2347.48,1078.14C2351.21,1076.39 2351.79,1074.7 2350.35,1070.91C2344.84,1056.98 2339.93,1042.92 2334.43,1028.98Z" style="fill:rgb(30,30,30);fill-rule:nonzero;"/>
            </g>
            <g transform="matrix(4.16667,0,0,4.16667,-8817.26,-4060.24)">
                <path d="M2383.96,1224.7C2383.38,1224.79 2383.03,1224.13 2383.44,1223.71C2395.78,1211.06 2412.77,1203.44 2425.86,1191.31C2437.45,1180.58 2448.06,1168.82 2459.03,1157.48C2460.19,1156.26 2461.85,1157.94 2461.14,1159.26C2447.02,1185.44 2414.93,1220.1 2383.96,1224.7ZM2380.57,1145.68C2378.78,1143.22 2377.53,1140.34 2376.59,1137.4C2372.67,1125.01 2367.6,1113.19 2362.85,1101.29C2361.47,1097.81 2360.18,1096.2 2356.23,1098.31C2349.39,1101.66 2342.13,1104.48 2334.65,1106.4C2330.81,1107.54 2329.99,1109.61 2330.16,1113.34C2330.77,1122.04 2332.64,1130.76 2333.55,1139.38C2333.96,1142.75 2334.67,1146.07 2334.41,1149.27C2334.07,1155.01 2330.2,1158.99 2324.71,1159.86C2319.23,1160.71 2314.84,1157.88 2313.01,1152.29C2312.27,1150.25 2312.11,1148.07 2311.65,1145.96C2311.21,1143.86 2310.75,1141.74 2310.3,1139.64C2306.66,1116.81 2304.9,1093.89 2302.83,1071.03C2299.44,1036.17 2299.2,1001.27 2298.96,966.374C2298.9,958.829 2303.93,955.86 2309.33,953.126C2313.83,950.59 2318.26,952.155 2322.11,955.421C2325.16,957.921 2327.14,961.274 2329.12,964.625C2340.67,983.246 2349.64,1003.05 2357.17,1023.47C2367.72,1052.07 2379.18,1080.47 2390.92,1108.82C2394.22,1116.92 2396.94,1125.15 2399.96,1133.32C2401.65,1138.31 2401.42,1143.09 2397.24,1147.13C2392.54,1151.6 2384.87,1151.05 2380.57,1145.68ZM2317.9,1303.84C2309.66,1325.99 2290.91,1347.09 2268.68,1355.87C2267.58,1356.31 2266.4,1354.94 2267.42,1354.08C2276.87,1346.1 2286.59,1338.06 2294.64,1328.63C2301.99,1320.03 2308.56,1311.08 2316.26,1302.78C2316.96,1302.03 2318.24,1302.92 2317.9,1303.84ZM2245.71,1174.61C2242.7,1175.25 2239.56,1175.29 2236.3,1174.73C2228.19,1173.64 2222.81,1169.12 2220.53,1161.42C2205.73,1112.95 2192.36,1063.86 2185.62,1013.36C2184.81,1006.61 2184.29,999.79 2183.17,993.104C2181.98,986.112 2184.28,982.158 2190.64,979.532C2192.68,978.78 2194.8,978.327 2196.9,977.876C2211.95,974.646 2227,971.416 2242.05,968.188C2245.06,967.543 2248.07,966.899 2251.11,967.822C2255.77,969.03 2258.66,972.185 2259.32,976.767C2259.99,981.343 2258.23,984.868 2254.39,987.585C2251.65,989.432 2248.64,990.079 2245.63,990.724C2234.96,992.384 2224.36,994.343 2213.76,996.301C2205.56,997.744 2205.56,997.744 2207.08,1006.24C2208.26,1013.22 2209.44,1020.21 2210.93,1027.14C2215.25,1047.31 2219.88,1067.41 2224.51,1087.51L2222.28,1087.36C2222.8,1089.77 2223.07,1092.54 2225.16,1094.93C2236.81,1090.54 2248.7,1085.79 2260.86,1082.24C2264.1,1081.23 2267.35,1080.22 2270.72,1079.8C2278.38,1078.79 2283.8,1082.04 2285.16,1088.36C2286.51,1094.68 2282.96,1100.16 2275.44,1101.78C2261.59,1104.75 2248.37,1109.17 2235.13,1113.58C2231.36,1115.02 2230.17,1116.84 2231.31,1120.69C2234.35,1130.43 2237.08,1140.24 2239.81,1150.04C2240.82,1153.29 2242.6,1154.17 2245.78,1152.86C2253.88,1149.55 2261.99,1146.23 2270.09,1142.92C2273.27,1141.6 2276.52,1140.6 2280.09,1141.1C2284.68,1141.99 2287.75,1144.48 2289.01,1148.93C2290.28,1153.39 2288.88,1157.15 2285.42,1160.1C2284.59,1160.59 2283.75,1161.08 2282.91,1161.58C2270.72,1166.4 2258.66,1171.83 2245.71,1174.61ZM2184.54,1160.96C2179.23,1178.79 2167.81,1191.62 2151.45,1200.48C2141.26,1205.83 2132.58,1202.02 2123.92,1196.94C2121.06,1195.36 2119.99,1191.8 2118.99,1188.56L2118.68,1188.63C2110.79,1159.14 2103.19,1129.6 2096.65,1093.22C2091.8,1070.64 2085.67,1042.04 2079.54,1013.44C2076.89,1001.1 2080.84,994.583 2093.28,990.974C2102.79,988.3 2112.68,987.44 2122.35,988.51C2139.47,990.509 2151.39,1000.55 2160.57,1014.01C2168.4,1025.55 2173.66,1038.28 2178,1051.21C2182.54,1065.03 2186.79,1078.92 2188.91,1093.27C2192.56,1116.1 2191.12,1138.76 2184.54,1160.96ZM2174.51,1270.05C2171.66,1269.86 2168.53,1270.04 2166.13,1268.28C2165.6,1267.9 2165.66,1267.2 2166.19,1266.87C2168.94,1265.13 2172.8,1265.57 2175.92,1265.68C2177.39,1265.72 2180.38,1265.87 2180.26,1268.08C2180.1,1270.72 2176.15,1270.16 2174.51,1270.05ZM2157.19,1267.89C2117.63,1274.99 2054.55,1257.66 2030.83,1223.39C2030.61,1223.07 2031.08,1222.66 2031.37,1222.89C2051.57,1238.15 2072.32,1249.47 2097.16,1255.4C2117.05,1260.15 2137.58,1260.37 2157.33,1265.19C2158.7,1265.53 2158.51,1267.65 2157.19,1267.89ZM2083.16,1105.25C2091.8,1139.61 2098.77,1167.7 2105.74,1195.8C2106.06,1197.32 2106.39,1198.81 2106.42,1200.38C2106.38,1206.07 2102.7,1210.95 2097.58,1212.04C2092.76,1213.07 2087.53,1210.74 2085.23,1205.87C2084.1,1203.59 2083.53,1200.89 2083.01,1198.48C2075.65,1168.57 2068.59,1138.6 2060.63,1108.81C2053.74,1082.58 2049.94,1056 2044.61,1029.75C2044.1,1027.34 2043.58,1024.93 2044.04,1022.63C2044.64,1018.1 2047.43,1014.97 2051.65,1014.07C2055.86,1013.17 2059.99,1014.8 2062.39,1018.69C2064.31,1021.75 2065.09,1025.36 2065.86,1028.97L2065.5,1028.74C2071.74,1056.36 2077.38,1084.13 2083.16,1105.25ZM1999.85,1034.54C1999.26,1035.68 1997.71,1034.72 1997.95,1033.63C2007.31,992.344 2045.74,959.538 2079.19,936.897C2115.97,912.011 2158.64,887.676 2203.49,882.258C2204.55,882.132 2204.83,883.516 2203.83,883.856C2121.75,912.224 2041.24,954.715 1999.85,1034.54ZM2376.82,947.783C2377.4,941.675 2381.33,937.997 2387.02,938.039C2392.02,937.907 2395.94,941.472 2396.87,947.263C2397.58,950.571 2397.69,954.014 2398.39,957.326C2404.78,989.965 2411.44,1022.54 2420.22,1054.67C2423.29,1065.97 2424.83,1077.61 2429.39,1088.59C2431.52,1094.12 2428.58,1099.47 2423.12,1101.91L2422.03,1101.2C2416.86,1103.57 2410.13,1101.53 2407.16,1096.51C2406.04,1094.23 2405.46,1091.52 2404.95,1089.11C2399.72,1069.14 2394.48,1049.17 2390.45,1033.34C2384.09,1005.11 2379.52,980.896 2377.06,956.232C2376.78,953.453 2376.51,950.682 2376.82,947.783ZM2436.16,1123.05C2437.68,1128.7 2436.35,1132.76 2432.16,1135.24C2428.19,1137.34 2422.69,1136.64 2419.38,1132.94C2414.42,1127.39 2412.03,1120.65 2413.25,1113.16C2414.09,1108.26 2417.55,1105.3 2422.19,1104.93C2426.53,1104.63 2430.13,1106.7 2432,1111.02L2431.63,1110.79C2433.44,1114.82 2434.66,1118.95 2436.16,1123.05ZM2423.25,902.774C2463.36,931.002 2501.89,997.404 2495.18,1047.47C2494.98,1048.89 2492.72,1049.27 2492.51,1047.67C2485.21,991.514 2458.88,946.022 2422.7,903.429C2422.39,903.063 2422.84,902.48 2423.25,902.774ZM2474.73,1135.45C2473.47,1140.86 2470.93,1145 2467.16,1148.96C2466.03,1150.15 2463.94,1148.75 2464.5,1147.24C2466.33,1142.41 2467.81,1137.88 2470.94,1133.64C2472.41,1131.66 2475.27,1133.11 2474.73,1135.45ZM2471.68,1176.1C2566.87,1070.48 2495.34,901.534 2380.93,866.371C2318.37,847.143 2249.57,850.602 2186.8,866.612C2107.99,886.722 2027.28,940.001 1989.74,1001.03C1956.09,1055.74 1960.2,1125.98 1982.9,1183.7C2005.64,1241.48 2062.01,1277.47 2121.89,1284.82C2161.58,1289.69 2204.38,1289.22 2246.4,1283.76C2246.77,1298.93 2242.86,1323.63 2230.89,1346.61C2220.81,1365.96 2220.54,1384.56 2251.85,1376.1C2303.77,1362.04 2347.22,1308.49 2358.22,1255.82C2358.53,1255.71 2358.84,1255.6 2359.14,1255.47C2399.19,1239.69 2439.78,1211.49 2471.68,1176.1Z" style="fill:rgb(30,30,30);fill-rule:nonzero;"/>
            </g>
            <g transform="matrix(4.16667,0,0,4.16667,-8817.26,-4060.24)">
                <path d="M2533.09,1070.6C2533.04,1069.66 2531.72,1069.67 2531.65,1070.6C2525.06,1153.74 2467.31,1226.24 2389.38,1255.03C2388.86,1255.21 2389.07,1256.01 2389.61,1255.86C2465.72,1234.27 2537.32,1152.14 2533.09,1070.6Z" style="fill:rgb(30,30,30);fill-rule:nonzero;"/>
            </g>
            <g transform="matrix(4.16667,0,0,4.16667,-8817.26,-4060.24)">
                <path d="M2054.09,908.234C2054.51,907.835 2053.98,907.143 2053.48,907.441C2021.69,926.537 1995.6,957.407 1975.66,988.279C1956.92,1017.3 1941.98,1055.07 1947.61,1090.11C1947.69,1090.65 1948.47,1090.48 1948.5,1089.99C1950.74,1051.39 1960.63,1018.71 1981.76,986.079C2001.47,955.646 2028.35,933.123 2054.09,908.234Z" style="fill:rgb(30,30,30);fill-rule:nonzero;"/>
            </g>
            <g transform="matrix(4.16667,0,0,4.16667,-8817.26,-4060.24)">
                <path d="M2059.84,906.1C2063.66,903.811 2067.58,901.392 2070.9,898.393C2071.35,897.982 2070.87,897.311 2070.34,897.428C2065.77,898.429 2062.23,901.876 2059.11,905.157C2058.65,905.647 2059.24,906.459 2059.84,906.1Z" style="fill:rgb(30,30,30);fill-rule:nonzero;"/>
            </g>
            <g transform="matrix(4.16667,0,0,4.16667,-8817.26,-4060.24)">
                <path d="M2228.54,1300.43C2228.46,1300.11 2227.89,1300.07 2227.84,1300.43C2225,1320.01 2215.95,1334.46 2207.08,1351.7C2206.67,1352.48 2207.75,1353.45 2208.35,1352.69C2218.9,1339.4 2232.92,1318.4 2228.54,1300.43Z" style="fill:rgb(30,30,30);fill-rule:nonzero;"/>
            </g>
            <g transform="matrix(4.16667,0,0,4.16667,-8817.26,-4060.24)">
                <path d="M2372.61,845.064C2428.14,862.615 2466.94,895.915 2495.34,946.587C2495.72,947.263 2496.91,946.801 2496.62,946.05C2477.87,897.11 2425.5,851.212 2372.72,844.31C2372.28,844.253 2372.22,844.941 2372.61,845.064Z" style="fill:rgb(30,30,30);fill-rule:nonzero;"/>
            </g>
            <g transform="matrix(4.16667,0,0,4.16667,-8817.26,-4060.24)">
                <path d="M2265.34,800.407C2253.69,794.433 2242.01,788.718 2229.54,784.629C2226.05,783.481 2223.4,786.465 2223.03,789.593C2222.68,792.446 2222.5,795.298 2222.42,798.148C2106.76,792.258 1992.26,846 1924.83,940.719C1892.76,985.76 1880.63,1038.5 1878.05,1092.9C1876.62,1123.01 1878.22,1157.63 1888.1,1188.36C1883.47,1202.09 1880.43,1215.83 1879.63,1230.3C1879.12,1231.41 1879.06,1232.68 1879.71,1233.99C1880.01,1234.97 1880.6,1235.71 1881.38,1236.23C1891.43,1248.72 1901.48,1261.19 1911.54,1273.67C1914.94,1277.88 1921.16,1275.81 1921.28,1270.39C1921.52,1260.68 1923.64,1251.12 1924.82,1241.46C1935.92,1242.85 1947.09,1243.78 1958.07,1245.98C1963.68,1247.11 1969.18,1240.32 1965.27,1235.34C1957.61,1225.61 1949.9,1215.9 1942.21,1206.19C1932.29,1193.65 1916.71,1190.6 1902.92,1183.57C1877.74,1108.24 1899.18,1010.98 1940.59,949.928C2000.66,861.34 2114.99,813.117 2219.87,812.204C2219.51,814.808 2219.2,817.37 2218.86,819.805C2218.53,822.213 2219.79,824.244 2222.36,824.397C2237.86,825.319 2255.4,818.859 2266.28,807.738C2268.29,805.68 2268.06,801.801 2265.34,800.407Z" style="fill:rgb(30,30,30);fill-rule:nonzero;"/>
            </g>
            <g transform="matrix(4.16667,0,0,4.16667,-8817.26,-4060.24)">
                <path d="M1985.21,919.499C1922.7,982.885 1889.12,1077.74 1909.16,1165.85C1909.28,1166.35 1910.07,1166.24 1910.06,1165.73C1908.88,1118.52 1907.22,1073.26 1922.8,1027.77C1936.01,989.198 1960.45,951.837 1986.03,920.316C1986.48,919.752 1985.74,918.959 1985.21,919.499Z" style="fill:rgb(30,30,30);fill-rule:nonzero;"/>
            </g>
            <g transform="matrix(4.16667,0,0,4.16667,-8817.26,-4060.24)">
                <path d="M1999.22,905.635C1995.52,907.969 1991.62,910.845 1989.44,914.73C1989.18,915.209 1989.74,915.866 1990.23,915.521C1993.86,913.006 1996.98,909.701 1999.68,906.242C1999.94,905.921 1999.62,905.385 1999.22,905.635Z" style="fill:rgb(30,30,30);fill-rule:nonzero;"/>
            </g>
            <g transform="matrix(4.16667,0,0,4.16667,-8817.26,-4060.24)">
                <path d="M1911.03,939.788C1949.32,874.517 2012.23,835.815 2080.64,807.868C2081.2,807.642 2081,806.757 2080.39,806.943C2009.82,828.351 1945.07,873.147 1910,939.18C1909.63,939.862 1910.64,940.457 1911.03,939.788Z" style="fill:rgb(30,30,30);fill-rule:nonzero;"/>
            </g>
        </g>
    </g>
</svg>
