<?xml version="1.0" encoding="UTF-8" standalone="no"?>
<!DOCTYPE svg PUBLIC "-//W3C//DTD SVG 1.1//EN" "http://www.w3.org/Graphics/SVG/1.1/DTD/svg11.dtd">
<svg width="100%" height="100%" viewBox="0 0 745 1040" version="1.1" xmlns="http://www.w3.org/2000/svg" xmlns:xlink="http://www.w3.org/1999/xlink" xml:space="preserve" xmlns:serif="http://www.serif.com/" style="fill-rule:evenodd;clip-rule:evenodd;stroke-linecap:round;stroke-linejoin:round;stroke-miterlimit:3;">
    <g id="Card-Body" serif:id="Card Body" transform="matrix(3.22119,0,0,3.57172,-628.132,-346.457)">
        <path d="M426,113.534L426,371.466C426,380.591 417.785,388 407.667,388L213.333,388C203.215,388 195,380.591 195,371.466L195,113.534C195,104.409 203.215,97 213.333,97L407.667,97C417.785,97 426,104.409 426,113.534Z" style="fill:rgb(242,242,242);stroke:rgb(30,30,30);stroke-width:0.25px;"/>
    </g>
    <g id="J">
        <g id="Top-L" serif:id="Top L">
            <g transform="matrix(2.74142,0,0,2.74142,21.3872,118.811)">
                <path d="M30,18C29.999,21.839 26.839,24.997 23,24.997C21.731,24.997 20.487,24.653 19.399,24L18.844,24L19.958,27.712C19.985,27.806 20,27.903 20,28C20,28.548 19.548,29 19,29L13,29C12.452,29 12,28.548 12,28C12,27.903 12.015,27.806 12.043,27.712L13.156,24L12.601,24C11.512,24.654 10.266,25 8.996,25C5.156,25 1.996,21.84 1.996,18C1.996,14.16 5.156,11 8.996,11C8.997,11 9.194,11 9.291,11C9.098,10.352 9,9.678 9,9.002C9,5.162 12.16,2.002 16,2.002C19.84,2.002 23,5.162 23,9.002C23,9.678 22.902,10.352 22.709,11L23,11C26.839,11.004 29.996,14.161 30,18Z" style="fill:rgb(30,30,30);fill-rule:nonzero;"/>
            </g>
            <g transform="matrix(1,0,0,1,-34,-77)">
                <g transform="matrix(83.3333,0,0,83.3333,117.327,179.483)">
                </g>
                <text x="81.161px" y="179.483px" style="font-family:'LobsterTwo-Bold', 'Lobster Two';font-weight:700;font-size:83.333px;fill:rgb(30,30,30);">J</text>
            </g>
        </g>
        <g id="Bottom-R" serif:id="Bottom R">
            <g transform="matrix(2.74142,0,0,2.74142,634.899,836.199)">
                <path d="M30,18C29.999,21.839 26.839,24.997 23,24.997C21.731,24.997 20.487,24.653 19.399,24L18.844,24L19.958,27.712C19.985,27.806 20,27.903 20,28C20,28.548 19.548,29 19,29L13,29C12.452,29 12,28.548 12,28C12,27.903 12.015,27.806 12.043,27.712L13.156,24L12.601,24C11.512,24.654 10.266,25 8.996,25C5.156,25 1.996,21.84 1.996,18C1.996,14.16 5.156,11 8.996,11C8.997,11 9.194,11 9.291,11C9.098,10.352 9,9.678 9,9.002C9,5.162 12.16,2.002 16,2.002C19.84,2.002 23,5.162 23,9.002C23,9.678 22.902,10.352 22.709,11L23,11C26.839,11.004 29.996,14.161 30,18Z" style="fill:rgb(30,30,30);fill-rule:nonzero;"/>
            </g>
            <g transform="matrix(1,0,0,1,579.512,820.701)">
                <g transform="matrix(83.3333,0,0,83.3333,117.327,179.483)">
                </g>
                <text x="81.161px" y="179.483px" style="font-family:'LobsterTwo-Bold', 'Lobster Two';font-weight:700;font-size:83.333px;fill:rgb(30,30,30);">J</text>
            </g>
        </g>
        <g id="Title" transform="matrix(1,0,0,1,-33.9055,604.89)">
            <g transform="matrix(66.6667,0,0,66.6667,596.586,181.788)">
            </g>
            <text x="215.319px" y="181.788px" style="font-family:'MarkerFelt-Thin', 'Marker Felt';font-size:66.667px;fill:rgb(30,30,30);">M<tspan x="279.053px 320.386px 360.186px 388.853px " y="181.788px 181.788px 181.788px 181.788px ">AKE </tspan>A RU<tspan x="539.919px 567.919px " y="181.788px 181.788px ">LE</tspan></text>
        </g>
        <g transform="matrix(1.10116,0,0,1.10116,-19.5945,-42.6184)">
            <g transform="matrix(0.728272,0,0,0.728272,-1352.2,-990.087)">
                <path d="M2309.45,1939.15C2310.01,1940.57 2310.68,1941.93 2311.14,1942.99C2312.28,1945.63 2313.69,1948.16 2315.23,1950.6C2311.08,1951.07 2306.94,1951.54 2302.8,1952C2303.95,1947.84 2305.09,1943.68 2306.22,1939.51C2307.29,1939.39 2308.37,1939.27 2309.45,1939.15ZM2321.05,1949.95C2319.25,1947.32 2317.43,1944.73 2315.77,1942C2315.1,1940.9 2314.48,1939.79 2313.89,1938.65C2318.6,1938.12 2323.32,1937.6 2328.04,1937.07C2326.81,1941.24 2325.59,1945.42 2324.33,1949.58C2323.24,1949.7 2322.14,1949.83 2321.05,1949.95ZM2321.63,1742.62C2327.5,1742.19 2333.36,1741.77 2339.23,1741.34C2379.79,1738.41 2420.36,1735.48 2460.92,1732.55C2441.59,1784.22 2420.73,1835.32 2401.97,1887.2C2400.43,1891.45 2404.47,1896.79 2408.98,1896.41C2425.75,1895.02 2442.52,1893.62 2459.29,1892.23C2401.27,1963.49 2345.14,2036.36 2289.19,2109.27C2308,2049.62 2328.39,1990.47 2345.76,1930.37C2347.01,1926.04 2343.41,1920.27 2338.49,1920.82C2318.96,1923 2299.43,1925.18 2279.91,1927.39C2290.39,1889.03 2299.8,1850.42 2309.17,1811.78C2310.77,1805.17 2326.85,1742.24 2321.63,1742.62ZM2424.59,1867.82C2425.97,1870.03 2427.52,1872.14 2429.03,1874.12C2430.13,1875.56 2431.47,1877.77 2433,1879.8C2428.58,1880.18 2424.16,1880.56 2419.75,1880.93C2421.35,1876.56 2422.97,1872.19 2424.59,1867.82ZM2431.88,1848.15C2433.2,1850.68 2434.65,1853.13 2436.09,1855.59C2437.81,1858.55 2439.39,1863.12 2441.77,1866.31C2440.38,1869.9 2438.98,1873.5 2437.6,1877.09C2436.24,1875.51 2434.71,1874.03 2433.69,1872.76C2431.16,1869.6 2428.88,1866.17 2426.4,1862.93C2428.24,1858.01 2430.02,1853.07 2431.88,1848.15ZM2438.86,1829.84C2440.55,1833.12 2442.58,1836.26 2444.36,1839.47C2445.98,1842.37 2447.39,1845.39 2448.65,1848.47C2447.2,1852.21 2445.76,1855.96 2444.31,1859.7C2443.24,1858.02 2442.05,1856.43 2441.15,1854.99C2438.78,1851.17 2436.33,1847.3 2433.58,1843.7C2435.33,1839.08 2437.09,1834.46 2438.86,1829.84ZM2444.91,1813.96C2445.93,1816.07 2447.1,1818.12 2448.35,1820.19C2450.08,1823.05 2451.79,1825.91 2453.4,1828.85C2453.99,1829.94 2454.48,1831.08 2454.99,1832.2C2453.75,1835.38 2452.52,1838.55 2451.28,1841.72C2450.64,1840.68 2450.02,1839.7 2449.56,1838.91C2446.83,1834.26 2443.9,1829.53 2440.66,1825.11C2442.08,1821.39 2443.48,1817.68 2444.91,1813.96ZM2451.15,1797.46C2452.33,1799.47 2453.52,1801.47 2454.61,1803.42C2456.85,1807.43 2458.89,1812.01 2461.18,1816.31C2459.96,1819.42 2458.76,1822.54 2457.54,1825.65C2456.5,1824.07 2455.42,1822.56 2454.53,1821.23C2451.92,1817.35 2449.29,1813.46 2446.55,1809.66C2448.1,1805.6 2449.61,1801.52 2451.15,1797.46ZM2457.68,1780.19C2459.37,1782.99 2461.27,1785.68 2463.11,1788.45C2465.06,1791.36 2466.83,1794.37 2468.46,1797.45C2466.97,1801.32 2465.48,1805.2 2463.98,1809.06C2462.71,1807.02 2461.39,1805.04 2460.24,1803.16C2458.03,1799.58 2455.72,1795.7 2453.21,1792.01C2454.71,1788.07 2456.2,1784.13 2457.68,1780.19ZM2468.24,1758.29C2473.42,1757.91 2478.6,1757.55 2483.78,1757.18C2482.07,1761.78 2480.34,1766.37 2478.59,1770.95C2475.89,1766.68 2471.81,1761.98 2468.24,1758.29ZM2464.68,1761.29C2466.86,1764.67 2469.47,1767.87 2471.54,1770.93C2472.16,1771.85 2473.82,1775.74 2475.73,1778.57C2474.17,1782.66 2472.6,1786.75 2471.02,1790.83C2470.19,1789.73 2469.38,1788.68 2468.72,1787.77C2465.76,1783.69 2462.58,1779.74 2459.29,1775.92C2461.11,1771.05 2462.89,1766.17 2464.68,1761.29ZM2467.06,1924.15C2466.02,1922.24 2464.96,1920.28 2463.85,1918.36C2469.95,1917.85 2476.06,1917.35 2482.16,1916.84C2478.43,1921.41 2474.75,1926.03 2471.04,1930.62C2469.88,1928.28 2468.08,1926.02 2467.06,1924.15ZM2456.41,1938.33C2454.15,1934.92 2452.15,1930.98 2449.84,1927.4C2452.09,1924.58 2454.36,1921.78 2456.62,1918.96C2457.42,1918.9 2458.23,1918.83 2459.05,1918.76C2459.96,1921.55 2461.18,1924.26 2462.45,1926.84C2463.68,1929.32 2465.05,1933.08 2467.31,1935.25C2465.06,1938.04 2462.8,1940.83 2460.55,1943.62C2459.07,1941.73 2457.47,1939.94 2456.41,1938.33ZM2444.78,1950.81C2442.84,1947.5 2440.91,1944.25 2438.84,1941.09C2441.51,1937.73 2444.23,1934.39 2446.92,1931.03C2448.32,1934.54 2450.4,1937.92 2452.09,1940.86C2453.24,1942.86 2454.81,1945.86 2456.74,1948.36C2454.24,1951.48 2451.7,1954.57 2449.2,1957.7C2447.71,1955.27 2446.02,1952.94 2444.78,1950.81ZM2433.94,1963.22C2432.17,1960 2430.61,1956.72 2428.79,1953.59C2431.22,1950.53 2433.7,1947.51 2436.14,1944.46C2437.47,1947.43 2438.97,1950.34 2440.54,1953.29C2442.01,1956.06 2443.39,1959.58 2445.19,1962.68C2443.04,1965.38 2440.86,1968.06 2438.71,1970.77C2437.1,1968.12 2435.22,1965.56 2433.94,1963.22ZM2421.65,1976.83C2419.9,1974.26 2418.4,1971.55 2416.8,1968.9C2419.82,1965.06 2422.81,1961.2 2425.84,1957.36C2426.95,1960.23 2428.19,1963.04 2429.42,1965.86C2430.72,1968.85 2432.35,1972.84 2434.67,1975.92C2432.32,1978.88 2430,1981.88 2427.65,1984.85C2425.79,1981.96 2423.26,1979.19 2421.65,1976.83ZM2412.18,1992.44C2410.56,1989.21 2408.74,1985.37 2406.5,1982.03C2408.97,1978.88 2411.44,1975.72 2413.92,1972.57C2414.99,1974.84 2416.2,1977.07 2417.43,1979.3C2419.04,1982.21 2421.2,1986.57 2423.98,1989.53C2421.26,1992.98 2418.54,1996.45 2415.83,1999.91C2415.01,1997.29 2413.34,1994.74 2412.18,1992.44ZM2402.48,2005.07C2400.53,2001.63 2398.56,1998.24 2396.29,1995.07C2398.64,1992.06 2401,1989.05 2403.36,1986.04C2404.23,1987.82 2405.17,1989.58 2406,1991.3C2407.79,1995.04 2409.41,2000.86 2412.58,2004.05C2410.54,2006.66 2408.49,2009.25 2406.46,2011.85C2405.25,2009.42 2403.63,2007.09 2402.48,2005.07ZM2390.15,2018.94C2388.48,2015.97 2387.04,2012.39 2385.23,2009.17C2387.95,2005.68 2390.7,2002.21 2393.42,1998.72C2394.77,2001.8 2396.24,2004.82 2397.64,2007.89C2398.94,2010.75 2400.17,2014.49 2402.22,2017.24C2399.76,2020.4 2397.27,2023.53 2394.81,2026.69C2393.43,2023.96 2391.52,2021.37 2390.15,2018.94ZM2379.72,2035.36C2377.88,2031.85 2376.21,2027.43 2373.69,2023.98C2376.28,2020.64 2378.88,2017.31 2381.47,2013.98C2382.32,2016.11 2383.35,2018.17 2384.22,2020.06C2385.9,2023.7 2387.76,2028.57 2390.77,2031.82C2388.29,2035.01 2385.82,2038.21 2383.35,2041.4C2382.16,2039.31 2380.73,2037.3 2379.72,2035.36ZM2367.79,2050.71C2365.79,2046.82 2364.1,2042.91 2361.92,2039.23C2364.75,2035.57 2367.57,2031.89 2370.41,2028.23C2371.52,2031.05 2372.95,2033.81 2374.09,2036.34C2375.45,2039.35 2376.87,2043.7 2379.24,2046.72C2376.62,2050.09 2374.02,2053.48 2371.4,2056.86C2370.29,2054.71 2368.79,2052.66 2367.79,2050.71ZM2357.81,2067.82C2355.55,2063.73 2353.63,2058.07 2350.77,2053.67C2353.55,2050.07 2356.33,2046.47 2359.12,2042.86C2360.2,2046.45 2361.58,2049.93 2363.12,2053.45C2364.29,2056.13 2365.53,2059.5 2367.64,2061.73C2365.12,2064.99 2362.6,2068.25 2360.08,2071.52C2359.09,2069.79 2358.08,2068.31 2357.81,2067.82ZM2336.73,2090.07C2334.65,2086.72 2332.5,2083.56 2329.92,2080.69C2332.18,2077.74 2334.46,2074.82 2336.72,2071.87C2337.75,2074.63 2338.9,2077.35 2340.01,2080.04C2341.51,2083.7 2343.06,2087.38 2345.35,2090.59C2343.84,2092.55 2342.32,2094.5 2340.82,2096.46C2339.62,2094.12 2337.85,2091.88 2336.73,2090.07ZM2323.03,2104.34C2324.35,2107.58 2325.83,2110.68 2327.64,2113.6C2322.49,2120.3 2317.35,2126.99 2312.22,2133.69C2315.52,2123.3 2318.87,2112.91 2322.23,2102.54C2322.53,2103.19 2322.8,2103.81 2323.03,2104.34ZM2331.58,2108.46C2330.09,2105.95 2328.72,2103.37 2327.46,2100.78C2326.65,2099.14 2325.86,2096.76 2324.77,2094.7C2325.83,2091.44 2326.87,2088.18 2327.94,2084.92C2329.11,2087.62 2330.48,2090.24 2331.92,2092.89C2333.32,2095.46 2334.54,2099.37 2336.72,2101.78C2335,2104.01 2333.3,2106.23 2331.58,2108.46ZM2350,2084.56C2348.43,2081.64 2346.8,2078.75 2345.32,2075.79C2343.84,2072.81 2342.34,2069.79 2340.45,2067.04C2342.59,2064.26 2344.74,2061.48 2346.89,2058.7C2347.92,2061.93 2349.42,2065.08 2350.61,2067.69C2351.59,2069.86 2353.26,2074.42 2355.65,2077.26C2353.77,2079.7 2351.88,2082.12 2350,2084.56ZM2498.6,1900.75C2488.81,1901.59 2479.02,1902.42 2469.23,1903.27C2473.15,1898.43 2477,1893.52 2480.93,1888.7C2484.54,1884.28 2482.81,1875.53 2475.73,1876.13C2468.12,1876.79 2460.51,1877.44 2452.9,1878.09C2468.77,1836.02 2485.23,1794.17 2499.88,1751.65C2501.2,1747.81 2497.66,1742.98 2493.53,1743.32C2485.87,1743.96 2478.2,1744.46 2470.54,1745C2472.68,1739.01 2474.91,1733.04 2476.98,1727.03C2477.89,1724.41 2477.16,1722.3 2475.69,1720.92C2474.65,1719.51 2473.02,1718.55 2470.66,1718.72C2420.87,1722.31 2371.09,1725.89 2321.31,1729.47C2318.37,1729.68 2315.75,1731.32 2314.96,1734.31C2297.27,1800.82 2281.28,1867.83 2262.51,1934.05C2261.28,1938.37 2264.83,1944.12 2269.76,1943.58C2276.58,1942.83 2283.4,1942.05 2290.22,1941.29C2288.62,1947.09 2287.04,1952.89 2285.39,1958.67C2284.15,1962.99 2287.72,1968.73 2292.64,1968.19C2301.61,1967.21 2310.58,1966.2 2319.55,1965.2C2301.02,2025.23 2280.46,2084.62 2262.52,2144.83C2259.89,2153.65 2271.41,2156.92 2276.24,2150.62C2284.68,2139.62 2293.13,2128.62 2301.56,2117.62C2296.02,2134.85 2290.57,2152.11 2285.39,2169.44C2282.76,2178.27 2294.28,2181.53 2299.12,2175.23C2366.56,2087.36 2433.76,1999.13 2503.81,1913.31C2507.42,1908.89 2505.67,1900.15 2498.6,1900.75Z" style="fill:rgb(30,30,30);fill-rule:nonzero;"/>
            </g>
            <g transform="matrix(0.728272,0,0,0.728272,-1352.2,-990.087)">
                <path d="M2488.57,1945.09C2458.02,1979.32 2431.4,2017.89 2402.81,2053.82C2376.55,2086.82 2349.56,2119.29 2324.35,2153.11C2324.01,2153.57 2324.78,2154.15 2325.14,2153.72C2352.51,2121.76 2378.5,2088.63 2404.72,2055.72C2433.19,2019.97 2465.02,1984.45 2489.29,1945.64C2489.56,1945.21 2488.92,1944.7 2488.57,1945.09Z" style="fill:rgb(30,30,30);fill-rule:nonzero;"/>
            </g>
            <g transform="matrix(0.728272,0,0,0.728272,-1352.2,-990.087)">
                <path d="M2259,1908.21C2266.43,1882.24 2272.72,1855.95 2279.02,1829.68C2285.62,1802.21 2295.03,1772.61 2295.84,1744.26C2295.86,1743.92 2295.37,1743.88 2295.28,1744.18C2286.82,1771.53 2283.19,1801.08 2276.52,1828.99C2270.23,1855.27 2262.88,1881.37 2258.26,1908.01C2258.18,1908.49 2258.87,1908.7 2259,1908.21Z" style="fill:rgb(30,30,30);fill-rule:nonzero;"/>
            </g>
            <g transform="matrix(0.728272,0,0,0.728272,-1352.2,-990.087)">
                <path d="M2256.68,1914.91C2255.86,1917.74 2254.81,1921.31 2255.19,1924.26C2255.24,1924.61 2255.64,1924.75 2255.87,1924.44C2257.67,1921.89 2258.19,1917.94 2257.51,1914.91C2257.41,1914.48 2256.79,1914.52 2256.68,1914.91Z" style="fill:rgb(30,30,30);fill-rule:nonzero;"/>
            </g>
            <g transform="matrix(0.728272,0,0,0.728272,-1352.2,-990.087)">
                <path d="M2302.23,1979.57C2285.17,2024.31 2271.79,2071.06 2258.31,2116.99C2258.18,2117.41 2258.81,2117.56 2258.96,2117.17C2275.72,2072.32 2289.49,2025.72 2302.73,1979.71C2302.83,1979.38 2302.34,1979.26 2302.23,1979.57Z" style="fill:rgb(30,30,30);fill-rule:nonzero;"/>
            </g>
            <g transform="matrix(0.728272,0,0,0.728272,-1352.2,-990.087)">
                <path d="M2470.84,1861.42C2485.69,1832.06 2501.38,1799.34 2509.66,1767.41C2509.74,1767.12 2509.31,1766.92 2509.18,1767.2C2495.1,1797.61 2480.71,1829.29 2469.96,1861.05C2469.79,1861.57 2470.6,1861.91 2470.84,1861.42Z" style="fill:rgb(30,30,30);fill-rule:nonzero;"/>
            </g>
            <g transform="matrix(0.728272,0,0,0.728272,-1352.2,-990.087)">
                <path d="M2216.71,1721.53C2211.64,1724.28 2209.14,1730.2 2208.58,1735.66C2207.93,1742.1 2211.67,1747.65 2217.56,1749.96C2223.91,1752.45 2233.96,1749.34 2236.78,1742.92C2237.03,1742.36 2237.13,1741.79 2237.31,1741.22C2240.37,1735.81 2237.67,1729.39 2234.06,1724.97C2229.79,1719.74 2222.6,1718.36 2216.71,1721.53Z" style="fill:rgb(30,30,30);fill-rule:nonzero;"/>
            </g>
            <g transform="matrix(0.728272,0,0,0.728272,-1352.2,-990.087)">
                <path d="M2163.37,1694.5C2157.07,1690.57 2149.35,1691.36 2143.68,1695.86C2138.73,1699.8 2135.74,1707.77 2136.36,1714.03C2137.02,1720.86 2140.85,1725.35 2147.07,1727.91C2156.43,1731.75 2169.1,1726.25 2172.68,1717.02C2173.78,1714.17 2173.67,1711.2 2172.77,1708.43C2172.26,1702.65 2168.13,1697.47 2163.37,1694.5Z" style="fill:rgb(30,30,30);fill-rule:nonzero;"/>
            </g>
            <g transform="matrix(0.728272,0,0,0.728272,-1352.2,-990.087)">
                <path d="M2461.73,2100.6C2440.3,2110.96 2438.94,2134.99 2450.62,2150.79C2453.23,2154.82 2456.78,2158.44 2460.56,2161.11C2475.4,2171.61 2494.66,2167.76 2505.38,2153.64C2515.22,2140.69 2515.31,2122.57 2505.9,2109.34C2495.27,2094.4 2477.28,2093.08 2461.73,2100.6Z" style="fill:rgb(30,30,30);fill-rule:nonzero;"/>
            </g>
            <g transform="matrix(0.728272,0,0,0.728272,-1352.2,-990.087)">
                <path d="M2206.59,1776.2C2187.34,1774.38 2174.38,1790.58 2175.5,1806.67C2174.52,1814.63 2177.89,1823.63 2183.91,1829.59C2194.36,1839.93 2210.69,1838.07 2221.44,1829.61C2230.25,1822.68 2236.6,1810.6 2235.14,1799.22C2233.19,1784.1 2220.59,1777.52 2206.59,1776.2Z" style="fill:rgb(30,30,30);fill-rule:nonzero;"/>
            </g>
            <g transform="matrix(0.728272,0,0,0.728272,-1352.2,-990.087)">
                <path d="M2504.37,2037.12C2498.29,2032.99 2489.43,2034.75 2483.86,2038.81C2477.38,2043.53 2473.53,2050.05 2472.75,2058.04C2471.84,2067.29 2478.92,2075.03 2487.03,2078.01C2497.62,2081.91 2507.82,2074.48 2511.48,2064.86C2511.99,2063.49 2512.35,2062.09 2512.63,2060.68C2512.76,2060.3 2512.92,2059.94 2513.04,2059.56C2515.5,2051.13 2511.43,2041.91 2504.37,2037.12Z" style="fill:rgb(30,30,30);fill-rule:nonzero;"/>
            </g>
        </g>
    </g>
</svg>
