<?xml version="1.0" encoding="UTF-8" standalone="no"?>
<!DOCTYPE svg PUBLIC "-//W3C//DTD SVG 1.1//EN" "http://www.w3.org/Graphics/SVG/1.1/DTD/svg11.dtd">
<svg width="100%" height="100%" viewBox="0 0 745 1040" version="1.1" xmlns="http://www.w3.org/2000/svg" xmlns:xlink="http://www.w3.org/1999/xlink" xml:space="preserve" xmlns:serif="http://www.serif.com/" style="fill-rule:evenodd;clip-rule:evenodd;stroke-linecap:round;stroke-linejoin:round;stroke-miterlimit:3;">
    <g id="Card-Body" serif:id="Card Body" transform="matrix(3.22119,0,0,3.57172,-628.132,-346.457)">
        <path d="M426,113.534L426,371.466C426,380.591 417.785,388 407.667,388L213.333,388C203.215,388 195,380.591 195,371.466L195,113.534C195,104.409 203.215,97 213.333,97L407.667,97C417.785,97 426,104.409 426,113.534Z" style="fill:rgb(242,242,242);stroke:rgb(30,30,30);stroke-width:0.25px;"/>
    </g>
    <g id="_8" serif:id="8">
        <g id="Top-L" serif:id="Top L">
            <g transform="matrix(2.74142,0,0,2.74142,21.3872,118.811)">
                <path d="M30,18C29.999,21.839 26.839,24.997 23,24.997C21.731,24.997 20.487,24.653 19.399,24L18.844,24L19.958,27.712C19.985,27.806 20,27.903 20,28C20,28.548 19.548,29 19,29L13,29C12.452,29 12,28.548 12,28C12,27.903 12.015,27.806 12.043,27.712L13.156,24L12.601,24C11.512,24.654 10.266,25 8.996,25C5.156,25 1.996,21.84 1.996,18C1.996,14.16 5.156,11 8.996,11C8.997,11 9.194,11 9.291,11C9.098,10.352 9,9.678 9,9.002C9,5.162 12.16,2.002 16,2.002C19.84,2.002 23,5.162 23,9.002C23,9.678 22.902,10.352 22.709,11L23,11C26.839,11.004 29.996,14.161 30,18Z" style="fill:rgb(30,30,30);fill-rule:nonzero;"/>
            </g>
            <g transform="matrix(1,0,0,1,-34,-77)">
                <g transform="matrix(83.3333,0,0,83.3333,122.202,179.483)">
                </g>
                <text x="76.286px" y="179.483px" style="font-family:'LobsterTwo-Bold', 'Lobster Two';font-weight:700;font-size:83.333px;fill:rgb(30,30,30);">8</text>
            </g>
        </g>
        <g id="Bottom-R" serif:id="Bottom R">
            <g transform="matrix(2.74142,0,0,2.74142,634.899,836.199)">
                <path d="M30,18C29.999,21.839 26.839,24.997 23,24.997C21.731,24.997 20.487,24.653 19.399,24L18.844,24L19.958,27.712C19.985,27.806 20,27.903 20,28C20,28.548 19.548,29 19,29L13,29C12.452,29 12,28.548 12,28C12,27.903 12.015,27.806 12.043,27.712L13.156,24L12.601,24C11.512,24.654 10.266,25 8.996,25C5.156,25 1.996,21.84 1.996,18C1.996,14.16 5.156,11 8.996,11C8.997,11 9.194,11 9.291,11C9.098,10.352 9,9.678 9,9.002C9,5.162 12.16,2.002 16,2.002C19.84,2.002 23,5.162 23,9.002C23,9.678 22.902,10.352 22.709,11L23,11C26.839,11.004 29.996,14.161 30,18Z" style="fill:rgb(30,30,30);fill-rule:nonzero;"/>
            </g>
            <g transform="matrix(1,0,0,1,579.512,820.701)">
                <g transform="matrix(83.3333,0,0,83.3333,122.202,179.483)">
                </g>
                <text x="76.286px" y="179.483px" style="font-family:'LobsterTwo-Bold', 'Lobster Two';font-weight:700;font-size:83.333px;fill:rgb(30,30,30);">8</text>
            </g>
        </g>
        <g id="Title" transform="matrix(1,0,0,1,-34.0945,604.89)">
            <g transform="matrix(66.6667,0,0,66.6667,486.381,181.788)">
            </g>
            <text x="325.714px" y="181.788px" style="font-family:'MarkerFelt-Thin', 'Marker Felt';font-size:66.667px;fill:rgb(30,30,30);">M<tspan x="389.447px 425.714px 457.714px " y="181.788px 181.788px 181.788px ">ATE</tspan></text>
        </g>
        <g>
            <g transform="matrix(-2.12302,0.383682,0.383682,2.12302,118.029,442.519)">
                <path d="M0,32.933C-0.226,35.934 -0.574,38.928 -0.95,41.914C-1.144,43.45 -1.45,44.977 -1.818,46.481C-2.39,48.817 -3.861,50.393 -6.107,51.279C-7.775,51.938 -9.495,52.403 -11.271,52.564C-14.953,52.897 -18.639,53.191 -22.338,52.721C-23.14,52.62 -23.965,52.703 -24.938,52.7C-24.825,50.03 -24.719,47.537 -24.61,44.992C-23.285,44.995 -22.021,45.04 -20.759,44.993C-17.251,44.86 -14.554,43.278 -12.768,40.262C-12.217,39.332 -11.747,38.297 -11.508,37.249C-10.962,34.851 -10.494,32.428 -10.157,29.993C-9.808,27.464 -9.577,24.913 -9.426,22.366C-9.152,17.792 -9.709,13.332 -11.75,9.168C-12.369,7.906 -13.098,6.672 -13.943,5.551C-15.879,2.988 -18.546,1.754 -21.737,1.629C-22.412,1.603 -23.09,1.622 -23.736,1.621C-23.958,0.749 -24.164,-7.013 -24.03,-8.92C-23.712,-8.983 -23.369,-9.104 -23.023,-9.113C-20.47,-9.173 -17.91,-9.346 -15.364,-9.225C-11.475,-9.041 -8.157,-7.374 -5.318,-4.755C-3.846,-3.397 -2.891,-1.686 -2.205,0.179C-1.316,2.594 -0.805,5.109 -0.613,7.656C-0.202,13.115 0.178,18.579 0.366,24.05C0.468,27.004 0.223,29.978 0,32.933M-25.715,-24.687C-29.011,-24.032 -31.952,-24.785 -34.687,-26.612C-35.255,-26.992 -35.794,-27.415 -36.352,-27.812C-38.07,-29.038 -39.952,-28.449 -40.422,-26.293C-40.529,-25.803 -40.622,-25.306 -40.779,-24.832C-41.008,-24.142 -41.224,-23.435 -41.559,-22.795C-42.554,-20.899 -44.18,-19.946 -46.299,-19.798C-47.922,-19.686 -49.504,-19.936 -50.987,-20.562C-52.537,-21.215 -54.031,-22.005 -55.538,-22.758C-56.19,-23.084 -56.795,-23.506 -57.451,-23.821C-58.946,-24.54 -60.364,-24.442 -61.647,-23.313C-62.127,-22.891 -62.615,-22.478 -63.093,-22.055C-67.129,-18.476 -71.803,-17.499 -76.995,-18.655C-79.395,-19.189 -81.557,-20.211 -83.456,-21.792C-84.12,-22.344 -84.828,-22.857 -85.571,-23.296C-86.979,-24.13 -88.433,-24.123 -89.867,-23.323C-90.583,-22.923 -91.275,-22.476 -92,-22.091C-96.453,-19.726 -101.105,-19.303 -105.91,-20.791C-106.854,-21.084 -107.775,-21.55 -108.605,-22.092C-110.604,-23.397 -111.899,-26.044 -110.277,-28.929C-109.769,-29.832 -109.078,-30.644 -108.403,-31.44C-107.874,-32.063 -107.252,-32.61 -106.649,-33.168C-105.351,-34.368 -104.928,-35.784 -105.43,-37.505C-105.83,-38.878 -105.887,-40.279 -105.616,-41.702C-105.28,-43.463 -104.526,-45.009 -103.242,-46.237C-99.958,-49.377 -96.12,-50.738 -91.585,-49.66C-89.892,-49.257 -88.287,-48.611 -86.726,-47.845C-85.867,-47.423 -85,-47.014 -84.119,-46.638C-82.5,-45.947 -80.92,-46.04 -79.398,-46.947C-78.458,-47.508 -77.506,-48.049 -76.575,-48.626C-72.904,-50.899 -68.971,-51.305 -64.858,-50.219C-63.496,-49.859 -62.179,-49.33 -60.848,-48.856C-59.945,-48.535 -59.057,-48.195 -58.075,-48.167C-56.868,-48.133 -55.839,-48.521 -54.957,-49.33C-54.789,-49.484 -54.618,-49.638 -54.471,-49.811C-52.111,-52.583 -49.001,-53.463 -45.512,-53.321C-43.958,-53.259 -42.432,-52.97 -40.956,-52.456C-39.221,-51.851 -36.608,-50.349 -34.972,-49C-34.973,-48.812 -34.975,-48.675 -34.973,-48.54C-34.959,-47.209 -34.651,-46.898 -33.329,-46.696C-32.318,-46.542 -31.34,-46.691 -30.34,-46.801C-26.517,-47.222 -23.201,-46.258 -20.755,-43.09C-19.205,-41.083 -18.335,-38.82 -18.214,-36.279C-18.131,-34.537 -18.309,-32.828 -18.729,-31.128C-19.646,-27.426 -22.039,-25.419 -25.715,-24.687M-103.033,-12.11C-103.422,-12.935 -103.509,-14.114 -103.342,-16.051C-102.408,-16.406 -101.406,-16.138 -100.437,-16.242C-99.452,-16.348 -98.463,-16.42 -97.476,-16.507C-97.445,-16.435 -97.413,-16.363 -97.382,-16.291C-99.261,-14.9 -101.141,-13.509 -103.033,-12.11M-90.993,-14.095C-92.323,-13.056 -93.674,-12.046 -95.02,-11.028C-96.33,-10.038 -97.638,-9.046 -98.958,-8.069C-100.301,-7.078 -101.577,-5.991 -103.143,-5.009C-103.138,-6.799 -103.134,-8.422 -103.129,-10.158C-102.806,-10.422 -102.435,-10.754 -102.037,-11.046C-99.247,-13.103 -96.456,-15.158 -93.656,-17.201C-92.202,-18.263 -90.469,-18.444 -88.71,-18.796C-88.092,-18.247 -87.586,-17.798 -86.974,-17.255C-88.285,-16.052 -89.678,-15.12 -90.993,-14.095M-102.645,2.248C-102.741,2.321 -102.887,2.325 -103.095,2.385C-103.09,0.566 -103.086,-1.196 -103.081,-3.133C-97.308,-7.446 -91.434,-11.835 -85.617,-16.18C-83.927,-15.513 -82.325,-14.882 -80.556,-14.185C-88.009,-8.638 -95.325,-3.192 -102.645,2.248M-67.161,-15.293C-72.533,-10.906 -77.928,-6.547 -83.286,-2.144C-89.313,2.811 -95.332,7.776 -101.643,12.371C-102.035,12.657 -102.392,13.016 -102.892,13.14C-103.235,12.051 -103.34,6.704 -103.073,4.156C-102.638,3.806 -102.162,3.384 -101.647,3.015C-97.01,-0.304 -92.366,-3.614 -87.725,-6.927C-84.828,-8.996 -81.935,-11.067 -79.039,-13.135C-78.669,-13.399 -78.294,-13.655 -77.913,-13.92C-75.924,-13.799 -73.959,-13.894 -72.048,-14.345C-70.502,-14.711 -69.001,-15.273 -67.483,-15.758C-67.069,-15.89 -66.666,-16.057 -66.258,-16.21C-66.556,-15.9 -66.831,-15.563 -67.161,-15.293M-53.9,-15.338C-60.329,-10.47 -66.763,-5.608 -73.198,-0.747C-73.34,-0.639 -73.502,-0.557 -73.708,-0.43C-77.021,-2.946 -76.413,-2.436 -79.746,-2.755C-79.53,-3.005 -79.396,-3.218 -79.209,-3.368C-72.86,-8.415 -66.508,-13.456 -60.152,-18.493C-59.908,-18.686 -59.626,-18.83 -59.334,-19.015C-58.395,-18.397 -57.521,-17.742 -56.573,-17.22C-55.622,-16.696 -54.598,-16.305 -53.505,-15.809C-53.646,-15.637 -53.748,-15.454 -53.9,-15.338M-36.493,-20.295C-47.942,-12.396 -59.015,-3.988 -70.024,4.505C-70.338,4.747 -70.678,4.955 -71.033,5.198C-71.545,3.74 -72.023,2.373 -72.55,0.873C-65.458,-4.544 -58.271,-9.908 -51.104,-15.268C-50.565,-15.267 -50.066,-15.249 -49.569,-15.268C-48.523,-15.307 -47.462,-15.266 -46.436,-15.433C-43.337,-15.937 -40.968,-17.596 -39.274,-20.225C-38.786,-20.985 -38.342,-21.774 -37.839,-22.613C-37.152,-22.047 -36.527,-21.532 -35.813,-20.943C-36.069,-20.695 -36.256,-20.459 -36.493,-20.295M-28.79,-16.137C-34.914,-11.705 -41.076,-7.244 -47.036,-2.93C-48.764,-2.797 -50.259,-2.714 -51.747,-2.561C-55.886,-2.131 -58.901,-0.013 -60.768,3.675C-61.296,4.72 -61.563,5.9 -61.929,7.025C-62.069,7.456 -62.151,7.908 -62.291,8.479C-64.822,10.409 -67.425,12.393 -70.185,14.497C-70.645,12.056 -70.498,9.744 -70.806,7.521C-69.243,5.619 -37.711,-17.91 -34.116,-19.88C-32.342,-19.427 -30.715,-19.011 -29.012,-18.576C-28.685,-17.871 -28.756,-17.056 -28.79,-16.137M-41.145,25.425C-41.406,24.57 -41.655,19.836 -41.555,17.621C-40.761,16.815 -29.965,9.316 -28.842,8.818C-28.762,11.665 -28.926,14.46 -29.052,17.207C-29.891,18.009 -39.943,24.829 -41.145,25.425M-29.326,27.959C-33.416,30.796 -37.42,33.577 -41.428,36.35C-41.529,36.42 -41.679,36.421 -41.898,36.479C-41.678,33.623 -41.461,30.825 -41.233,27.877C-37.335,25.224 -33.354,22.514 -29.221,19.701C-29.013,20.543 -29.116,21.213 -29.113,21.87C-29.109,22.554 -29.133,23.239 -29.146,23.922C-29.16,24.606 -29.165,25.29 -29.195,25.974C-29.226,26.652 -29.283,27.329 -29.326,27.959M-45.696,-1.421C-44.879,-2.365 -30.955,-12.538 -28.795,-13.764C-28.801,-11.205 -28.808,-8.801 -28.813,-6.324C-33.555,-2.936 -38.322,0.471 -43.255,3.996C-43.65,1.863 -44.55,0.14 -45.696,-1.421M-44.779,17.724C-44.642,18.993 -44.613,20.274 -44.543,21.549C-44.319,25.603 -43.993,29.657 -44.478,33.714C-44.689,35.483 -44.949,37.241 -45.554,38.929C-46.053,40.323 -46.765,41.585 -47.853,42.609C-50.295,44.906 -53.533,44.594 -55.377,41.806C-56.024,40.828 -56.523,39.725 -56.928,38.62C-57.934,35.867 -58.518,33.003 -58.86,30.096C-59.433,25.244 -59.658,20.368 -59.741,15.693C-59.774,12.559 -59.656,9.652 -59.092,6.765C-58.453,3.497 -56.559,1.295 -53.626,-0.142C-52.268,-0.807 -50.876,-0.756 -49.482,-0.439C-48.673,-0.255 -48.001,0.234 -47.525,0.964C-46.894,1.936 -46.445,2.967 -46.313,4.128C-45.801,8.66 -45.271,13.19 -44.779,17.724M-70.095,37.685C-69.05,36.644 -63.506,32.731 -62.446,32.308C-62.069,33.431 -61.993,34.614 -61.698,35.743C-61.397,36.888 -61.087,38.032 -60.764,39.24C-60.888,39.379 -61.012,39.573 -61.184,39.705C-64.538,42.304 -67.897,44.897 -71.259,47.486C-71.43,47.617 -71.627,47.711 -71.814,47.821C-71.023,45.778 -70.556,43.663 -70.4,41.478C-70.31,40.204 -70.196,38.934 -70.095,37.685M-62.754,29.82C-63.626,30.735 -68.945,34.604 -69.902,35.034C-70.102,34.133 -70.161,28.603 -69.977,26.783C-67.83,25.123 -65.61,23.407 -63.441,21.729C-63.272,21.81 -63.223,21.821 -63.193,21.851C-63.164,21.881 -63.146,21.93 -63.14,21.973C-63.12,22.107 -63.1,22.242 -63.094,22.377C-62.979,24.872 -62.865,27.369 -62.754,29.82M-63.046,15.118C-63.049,16.392 -63.113,17.666 -63.152,19.001C-65.376,20.736 -67.594,22.464 -70.057,24.384C-70.116,21.617 -70.168,19.204 -70.22,16.827C-69.223,15.798 -63.864,11.798 -62.804,11.308C-62.682,12.617 -63.043,13.859 -63.046,15.118M-95.229,68.392C-90.397,64.653 -85.562,60.916 -80.718,57.19C-74.284,52.241 -67.843,47.301 -61.403,42.359C-60.973,42.028 -60.531,41.711 -60.01,41.326C-59.317,42.337 -58.737,43.36 -57.986,44.238C-57.257,45.09 -56.354,45.793 -55.521,46.567C-55.544,46.635 -55.544,46.751 -55.601,46.796C-66.146,55.145 -76.695,63.49 -87.227,71.82C-90.092,72.132 -94.431,71.036 -96.38,69.493C-96.149,68.973 -95.647,68.715 -95.229,68.392M-85.711,49.123C-82.846,51.273 -79.792,52.271 -76.235,51.427C-83.313,57.074 -90.391,62.72 -97.544,68.427C-98.421,67.783 -98.795,67.002 -99.051,66.178C-99.637,64.295 -99.79,62.348 -99.878,60.291C-95.175,56.548 -90.499,52.789 -85.711,49.123M-88.127,16.204C-87.914,12.645 -87.42,9.121 -86.22,5.737C-85.917,4.88 -85.575,4.025 -85.141,3.228C-83.626,0.445 -81.105,-0.543 -78.082,-0.687C-77.448,-0.102 -76.93,0.344 -76.448,0.827C-75.456,1.82 -74.837,3.026 -74.511,4.385C-74.029,6.39 -73.859,8.434 -73.729,10.485C-73.319,16.957 -73.424,23.439 -73.393,29.918C-73.377,33.156 -73.413,36.397 -73.533,39.632C-73.59,41.174 -73.864,42.712 -74.105,44.242C-74.204,44.864 -74.427,45.481 -74.682,46.061C-75.336,47.552 -76.533,48.347 -78.14,48.28C-80.891,48.163 -83.197,47.15 -84.623,44.63C-85.44,43.186 -85.909,41.614 -86.291,40.012C-87.01,36.988 -87.396,33.913 -87.723,30.827C-88.238,25.96 -88.42,21.085 -88.127,16.204M-100.555,51.288C-96.925,48.377 -93.233,45.414 -89.465,42.392C-88.825,43.31 -88.734,44.38 -88.265,45.283C-87.805,46.166 -87.33,47.043 -86.823,47.995C-91.158,51.452 -95.49,54.907 -99.855,58.388C-100.27,57.303 -100.658,53.245 -100.555,51.288M-91.174,32.479C-91.012,32.579 -90.969,32.597 -90.936,32.628C-90.905,32.658 -90.869,32.697 -90.864,32.736C-90.535,35.261 -90.208,37.787 -89.866,40.432C-93.411,43.421 -97.004,46.4 -100.79,49.556C-101.231,46.295 -101.42,43.316 -101.654,40.287C-98.054,37.605 -94.593,35.026 -91.174,32.479M-91.395,23.849C-91.23,24.591 -91.322,25.307 -91.284,26.008C-91.242,26.782 -91.223,27.557 -91.178,28.33C-91.136,29.052 -91.073,29.773 -91.025,30.407C-92.402,31.777 -100.701,38.036 -101.768,38.488C-101.995,36.468 -101.893,34.469 -102.144,32.57C-101.403,31.661 -92.696,24.595 -91.395,23.849M-102.473,21.779C-102.841,20.286 -103.059,16.507 -102.876,14.892C-98.125,11.321 -93.337,7.722 -88.467,4.062C-89.202,6.919 -89.903,9.642 -90.632,12.473C-94.507,15.518 -98.475,18.636 -102.473,21.779M-102.36,23.615C-100.715,21.974 -92.154,15.39 -90.986,14.897C-90.877,16.01 -91.087,17.079 -91.165,18.156C-91.243,19.245 -91.275,20.339 -91.334,21.574C-94.799,24.475 -98.323,27.426 -101.96,30.472C-102.416,29.268 -102.248,28.13 -102.346,27.04C-102.448,25.914 -102.364,24.772 -102.36,23.615M-75.408,72.397C-78.577,72.304 -81.757,72.21 -84.919,72.118C-84.942,71.995 -84.963,71.949 -84.957,71.907C-84.951,71.864 -84.93,71.811 -84.897,71.785C-83.935,71.017 -82.977,70.243 -82.004,69.487C-72.49,62.098 -62.975,54.711 -53.459,47.325C-53.39,47.362 -53.321,47.398 -53.252,47.435C-52.706,47.437 -52.159,47.426 -51.613,47.441C-49.395,47.501 -47.509,46.722 -45.918,45.196C-44.646,43.976 -43.699,42.538 -43.074,40.891C-42.896,40.423 -42.742,39.947 -42.592,39.515C-41.129,38.152 -30.578,30.783 -29.486,30.353C-29.242,31.392 -29.245,35.42 -29.505,37.66C-45.399,48.325 -60.638,59.995 -75.408,72.397M-62.736,72.126C-66.009,72.194 -69.194,72.259 -72.482,72.328C-72.319,71.747 -71.851,71.527 -71.494,71.245C-67.023,67.704 -62.567,64.145 -58.057,60.656C-49.144,53.759 -40.045,47.111 -30.807,40.657C-30.445,40.405 -30.06,40.189 -29.536,39.864C-29.622,42.221 -29.701,44.39 -29.784,46.673C-41.295,54.483 -52.07,63.272 -62.736,72.126M-31.081,59.475C-31.194,61.58 -31.737,63.58 -32.639,65.476C-33.162,66.576 -34.023,67.408 -35.085,67.975C-36.003,68.465 -36.966,68.891 -37.947,69.239C-40.184,70.03 -42.516,70.448 -44.849,70.841C-45.067,70.878 -45.294,70.868 -45.701,70.889C-45.479,70.615 -45.383,70.436 -45.235,70.322C-40.751,66.824 -36.264,63.331 -31.771,59.845C-31.567,59.688 -31.313,59.595 -31.081,59.475M-49.476,71.353C-52.311,71.825 -57.94,72.112 -59.346,71.825C-59.281,71.703 -59.25,71.559 -59.16,71.485C-49.842,63.783 -40.313,56.351 -30.55,49.219C-30.416,49.121 -30.233,49.087 -29.957,48.977C-29.916,51.682 -30.187,54.248 -30.555,56.747C-36.86,61.615 -43.101,66.432 -49.476,71.353M-28.727,6.259C-29.833,7.025 -30.914,7.772 -31.994,8.518C-33.043,9.244 -34.092,9.968 -35.141,10.693C-36.227,11.444 -37.311,12.197 -38.4,12.944C-39.434,13.653 -40.448,14.395 -41.451,15.027C-41.633,14.893 -41.692,14.872 -41.701,14.839C-41.749,14.665 -41.801,14.491 -41.82,14.312C-42.111,11.65 -42.398,8.987 -42.7,6.191C-38.171,2.926 -33.604,-0.366 -28.869,-3.78C-28.604,-1.961 -28.747,-0.346 -28.721,1.257C-28.694,2.894 -28.723,4.532 -28.727,6.259M-26.341,72.156C-25.655,73.223 -25.636,74.328 -26.33,75.376C-26.882,76.209 -27.466,77.043 -28.16,77.755C-30.135,79.784 -32.477,81.293 -35.198,82.087C-40.5,83.631 -45.851,84.942 -51.34,85.701C-56.548,86.42 -61.77,86.875 -67.017,86.995C-71.991,87.108 -76.973,87.025 -81.929,86.593C-84.463,86.372 -86.959,85.732 -89.477,85.304C-93.014,84.704 -96.375,83.575 -99.571,81.956C-100.465,81.504 -101.378,81.059 -102.19,80.482C-102.963,79.933 -103.681,79.274 -104.306,78.56C-105.313,77.41 -105.728,76.019 -105.527,74.488C-105.271,72.525 -104.716,70.653 -103.707,68.934C-103.618,68.783 -103.485,68.657 -103.354,68.496C-103.212,68.583 -103.063,68.624 -103.007,68.72C-100.655,72.736 -97.04,74.877 -92.583,75.795C-90.25,76.276 -87.886,76.481 -85.516,76.564C-80.089,76.754 -74.661,77.077 -69.229,76.854C-63.85,76.632 -58.469,76.406 -53.097,76.057C-47.994,75.726 -42.939,74.957 -37.918,73.993C-35.89,73.603 -33.902,73.04 -32.167,71.894C-30.997,71.121 -29.945,70.17 -28.728,69.211C-27.772,70.043 -27.032,71.08 -26.341,72.156M-23.86,4.651C-21.038,3.808 -17.722,4.955 -16.003,7.392C-14.634,9.332 -13.926,11.536 -13.471,13.839C-13.04,16.013 -13.031,18.21 -13.275,20.386C-13.83,25.329 -14.622,30.239 -15.729,35.092C-15.912,35.889 -16.168,36.675 -16.458,37.441C-17.059,39.023 -18.23,39.954 -19.891,40.245C-20.607,40.371 -21.335,40.448 -22.062,40.513C-22.829,40.582 -23.6,40.614 -24.468,40.667C-24.717,39.267 -24.147,6.366 -23.86,4.651M5.016,19.143C4.728,15.183 4.482,11.222 3.903,7.29C3.382,3.748 2.456,0.326 0.918,-2.919C-0.24,-5.361 -1.916,-7.375 -4.095,-8.971C-7.783,-11.674 -11.914,-13.114 -16.485,-13.054C-18.759,-13.025 -21.027,-12.692 -23.299,-12.5C-23.598,-12.474 -23.897,-12.463 -24.177,-12.447C-24.576,-14.079 -24.641,-17.948 -24.303,-19.355C-23.911,-19.516 -23.494,-19.696 -23.07,-19.86C-18.942,-21.462 -16.375,-24.464 -15.13,-28.67C-14.423,-31.061 -14.214,-33.503 -14.31,-35.982C-14.44,-39.398 -15.483,-42.521 -17.348,-45.37C-18.825,-47.629 -20.855,-49.199 -23.434,-50.004C-24.65,-50.384 -25.9,-50.661 -27.146,-50.94C-28.504,-51.243 -29.865,-51.171 -31.22,-50.866C-31.568,-50.787 -31.929,-50.761 -32.298,-50.709C-32.643,-51.071 -32.947,-51.407 -33.269,-51.727C-33.979,-52.435 -34.656,-53.185 -35.421,-53.831C-39.458,-57.241 -44.135,-58.47 -49.338,-57.788C-52.024,-57.437 -54.262,-56.21 -56.09,-54.212C-56.764,-53.476 -57.401,-52.695 -58.288,-52.15C-59.098,-52.189 -59.789,-52.553 -60.492,-52.865C-62.586,-53.796 -64.745,-54.504 -67.008,-54.898C-71.503,-55.681 -75.609,-54.622 -79.453,-52.299C-80.116,-51.899 -80.775,-51.486 -81.408,-51.038C-82.148,-50.513 -82.91,-50.434 -83.735,-50.781C-84.534,-51.118 -85.337,-51.442 -86.133,-51.785C-87.013,-52.164 -87.875,-52.585 -88.764,-52.941C-90.603,-53.679 -92.517,-54.136 -94.501,-54.077C-98.824,-53.948 -102.63,-52.436 -105.77,-49.458C-108.943,-46.447 -110.284,-42.786 -109.3,-38.409C-109.162,-37.792 -109.011,-37.159 -109.271,-36.429C-109.713,-36.024 -110.22,-35.567 -110.72,-35.103C-111.997,-33.916 -113.144,-32.625 -113.968,-31.07C-116.468,-26.35 -114.969,-20.958 -110.366,-18.252C-109.585,-17.792 -108.717,-17.481 -107.886,-17.106C-107.562,-16.96 -107.231,-16.827 -106.883,-16.679C-106.866,-16.402 -106.839,-16.178 -106.841,-15.954C-106.895,-9.337 -106.915,-2.717 -107.018,3.9C-107.109,9.743 -107.202,15.581 -106.936,21.423C-106.743,25.663 -106.714,29.911 -106.556,34.152C-106.417,37.846 -106.214,41.537 -106.014,45.229C-105.809,49.01 -105.561,52.79 -105.352,56.572C-105.208,59.17 -105.082,61.768 -104.565,64.328C-104.512,64.589 -104.521,64.863 -104.498,65.165C-106.746,66.696 -107.617,69.041 -108.318,71.478C-108.507,72.132 -108.584,72.819 -108.708,73.492C-109.193,76.126 -108.459,78.454 -106.918,80.579C-105.854,82.047 -104.475,83.159 -102.926,84.068C-99.993,85.788 -96.857,87.009 -93.566,87.85C-85.976,89.789 -78.258,90.828 -70.436,91.123C-63.023,91.403 -55.657,90.999 -48.36,89.587C-42.978,88.545 -37.691,87.125 -32.456,85.52C-28.484,84.302 -25.324,81.904 -22.919,78.517C-22.198,77.503 -21.659,76.406 -21.366,75.189C-20.927,73.366 -21.166,71.659 -22.172,70.066C-22.81,69.055 -23.549,68.125 -24.483,67.378C-25.259,66.759 -26.081,66.198 -26.875,65.617C-26.367,63.076 -25.86,60.538 -25.329,57.879C-24.262,57.706 -23.269,57.853 -22.275,57.965C-21.687,58.031 -21.099,58.121 -20.509,58.162C-17.589,58.365 -14.667,58.339 -11.751,58.153C-9.098,57.982 -6.498,57.494 -4.01,56.525C-0.711,55.243 1.581,52.946 2.707,49.582C3.183,48.161 3.547,46.687 3.807,45.21C4.66,40.347 4.986,35.426 5.187,30.501C5.34,26.715 5.291,22.929 5.016,19.143" style="fill:rgb(30,30,30);fill-rule:nonzero;"/>
            </g>
            <g transform="matrix(2.12302,0.383682,-0.383682,2.12302,632.148,442.519)">
                <path d="M0,32.933C-0.226,35.934 -0.574,38.928 -0.95,41.914C-1.144,43.45 -1.45,44.977 -1.818,46.481C-2.39,48.817 -3.861,50.393 -6.107,51.279C-7.775,51.938 -9.495,52.403 -11.271,52.564C-14.953,52.897 -18.639,53.191 -22.338,52.721C-23.14,52.62 -23.965,52.703 -24.938,52.7C-24.825,50.03 -24.719,47.537 -24.61,44.992C-23.285,44.995 -22.021,45.04 -20.759,44.993C-17.251,44.86 -14.554,43.278 -12.768,40.262C-12.217,39.332 -11.747,38.297 -11.508,37.249C-10.962,34.851 -10.494,32.428 -10.157,29.993C-9.808,27.464 -9.577,24.913 -9.426,22.366C-9.152,17.792 -9.709,13.332 -11.75,9.168C-12.369,7.906 -13.098,6.672 -13.943,5.551C-15.879,2.988 -18.546,1.754 -21.737,1.629C-22.412,1.603 -23.09,1.622 -23.736,1.621C-23.958,0.749 -24.164,-7.013 -24.03,-8.92C-23.712,-8.983 -23.369,-9.104 -23.023,-9.113C-20.47,-9.173 -17.91,-9.346 -15.364,-9.225C-11.475,-9.041 -8.157,-7.374 -5.318,-4.755C-3.846,-3.397 -2.891,-1.686 -2.205,0.179C-1.316,2.594 -0.805,5.109 -0.613,7.656C-0.202,13.115 0.178,18.579 0.366,24.05C0.468,27.004 0.223,29.978 0,32.933M-25.715,-24.687C-29.011,-24.032 -31.952,-24.785 -34.687,-26.612C-35.255,-26.992 -35.794,-27.415 -36.352,-27.812C-38.07,-29.038 -39.952,-28.449 -40.422,-26.293C-40.529,-25.803 -40.622,-25.306 -40.779,-24.832C-41.008,-24.142 -41.224,-23.435 -41.559,-22.795C-42.554,-20.899 -44.18,-19.946 -46.299,-19.798C-47.922,-19.686 -49.504,-19.936 -50.987,-20.562C-52.537,-21.215 -54.031,-22.005 -55.538,-22.758C-56.19,-23.084 -56.795,-23.506 -57.451,-23.821C-58.946,-24.54 -60.364,-24.442 -61.647,-23.313C-62.127,-22.891 -62.615,-22.478 -63.093,-22.055C-67.129,-18.476 -71.803,-17.499 -76.995,-18.655C-79.395,-19.189 -81.557,-20.211 -83.456,-21.792C-84.12,-22.344 -84.828,-22.857 -85.571,-23.296C-86.979,-24.13 -88.433,-24.123 -89.867,-23.323C-90.583,-22.923 -91.275,-22.476 -92,-22.091C-96.453,-19.726 -101.105,-19.303 -105.91,-20.791C-106.854,-21.084 -107.775,-21.55 -108.605,-22.092C-110.604,-23.397 -111.899,-26.044 -110.277,-28.929C-109.769,-29.832 -109.078,-30.644 -108.403,-31.44C-107.874,-32.063 -107.252,-32.61 -106.649,-33.168C-105.351,-34.368 -104.928,-35.784 -105.43,-37.505C-105.83,-38.878 -105.887,-40.279 -105.616,-41.702C-105.28,-43.463 -104.526,-45.009 -103.242,-46.237C-99.958,-49.377 -96.12,-50.738 -91.585,-49.66C-89.892,-49.257 -88.287,-48.611 -86.726,-47.845C-85.867,-47.423 -85,-47.014 -84.119,-46.638C-82.5,-45.947 -80.92,-46.04 -79.398,-46.947C-78.458,-47.508 -77.506,-48.049 -76.575,-48.626C-72.904,-50.899 -68.971,-51.305 -64.858,-50.219C-63.496,-49.859 -62.179,-49.33 -60.848,-48.856C-59.945,-48.535 -59.057,-48.195 -58.075,-48.167C-56.868,-48.133 -55.839,-48.521 -54.957,-49.33C-54.789,-49.484 -54.618,-49.638 -54.471,-49.811C-52.111,-52.583 -49.001,-53.463 -45.512,-53.321C-43.958,-53.259 -42.432,-52.97 -40.956,-52.456C-39.221,-51.851 -36.608,-50.349 -34.972,-49C-34.973,-48.812 -34.975,-48.675 -34.973,-48.54C-34.959,-47.209 -34.651,-46.898 -33.329,-46.696C-32.318,-46.542 -31.34,-46.691 -30.34,-46.801C-26.517,-47.222 -23.201,-46.258 -20.755,-43.09C-19.205,-41.083 -18.335,-38.82 -18.214,-36.279C-18.131,-34.537 -18.309,-32.828 -18.729,-31.128C-19.646,-27.426 -22.039,-25.419 -25.715,-24.687M-103.033,-12.11C-103.422,-12.935 -103.509,-14.114 -103.342,-16.051C-102.408,-16.406 -101.406,-16.138 -100.437,-16.242C-99.452,-16.348 -98.463,-16.42 -97.476,-16.507C-97.445,-16.435 -97.413,-16.363 -97.382,-16.291C-99.261,-14.9 -101.141,-13.509 -103.033,-12.11M-90.993,-14.095C-92.323,-13.056 -93.674,-12.046 -95.02,-11.028C-96.33,-10.038 -97.638,-9.046 -98.958,-8.069C-100.301,-7.078 -101.577,-5.991 -103.143,-5.009C-103.138,-6.799 -103.134,-8.422 -103.129,-10.158C-102.806,-10.422 -102.435,-10.754 -102.037,-11.046C-99.247,-13.103 -96.456,-15.158 -93.656,-17.201C-92.202,-18.263 -90.469,-18.444 -88.71,-18.796C-88.092,-18.247 -87.586,-17.798 -86.974,-17.255C-88.285,-16.052 -89.678,-15.12 -90.993,-14.095M-102.645,2.248C-102.741,2.321 -102.887,2.325 -103.095,2.385C-103.09,0.566 -103.086,-1.196 -103.081,-3.133C-97.308,-7.446 -91.434,-11.835 -85.617,-16.18C-83.927,-15.513 -82.325,-14.882 -80.556,-14.185C-88.009,-8.638 -95.325,-3.192 -102.645,2.248M-67.161,-15.293C-72.533,-10.906 -77.928,-6.547 -83.286,-2.144C-89.313,2.811 -95.332,7.776 -101.643,12.371C-102.035,12.657 -102.392,13.016 -102.892,13.14C-103.235,12.051 -103.34,6.704 -103.073,4.156C-102.638,3.806 -102.162,3.384 -101.647,3.015C-97.01,-0.304 -92.366,-3.614 -87.725,-6.927C-84.828,-8.996 -81.935,-11.067 -79.039,-13.135C-78.669,-13.399 -78.294,-13.655 -77.913,-13.92C-75.924,-13.799 -73.959,-13.894 -72.048,-14.345C-70.502,-14.711 -69.001,-15.273 -67.483,-15.758C-67.069,-15.89 -66.666,-16.057 -66.258,-16.21C-66.556,-15.9 -66.831,-15.563 -67.161,-15.293M-53.9,-15.338C-60.329,-10.47 -66.763,-5.608 -73.198,-0.747C-73.34,-0.639 -73.502,-0.557 -73.708,-0.43C-77.021,-2.946 -76.413,-2.436 -79.746,-2.755C-79.53,-3.005 -79.396,-3.218 -79.209,-3.368C-72.86,-8.415 -66.508,-13.456 -60.152,-18.493C-59.908,-18.686 -59.626,-18.83 -59.334,-19.015C-58.395,-18.397 -57.521,-17.742 -56.573,-17.22C-55.622,-16.696 -54.598,-16.305 -53.505,-15.809C-53.646,-15.637 -53.748,-15.454 -53.9,-15.338M-36.493,-20.295C-47.942,-12.396 -59.015,-3.988 -70.024,4.505C-70.338,4.747 -70.678,4.955 -71.033,5.198C-71.545,3.74 -72.023,2.373 -72.55,0.873C-65.458,-4.544 -58.271,-9.908 -51.104,-15.268C-50.565,-15.267 -50.066,-15.249 -49.569,-15.268C-48.523,-15.307 -47.462,-15.266 -46.436,-15.433C-43.337,-15.937 -40.968,-17.596 -39.274,-20.225C-38.786,-20.985 -38.342,-21.774 -37.839,-22.613C-37.152,-22.047 -36.527,-21.532 -35.813,-20.943C-36.069,-20.695 -36.256,-20.459 -36.493,-20.295M-28.79,-16.137C-34.914,-11.705 -41.076,-7.244 -47.036,-2.93C-48.764,-2.797 -50.259,-2.714 -51.747,-2.561C-55.886,-2.131 -58.901,-0.013 -60.768,3.675C-61.296,4.72 -61.563,5.9 -61.929,7.025C-62.069,7.456 -62.151,7.908 -62.291,8.479C-64.822,10.409 -67.425,12.393 -70.185,14.497C-70.645,12.056 -70.498,9.744 -70.806,7.521C-69.243,5.619 -37.711,-17.91 -34.116,-19.88C-32.342,-19.427 -30.715,-19.011 -29.012,-18.576C-28.685,-17.871 -28.756,-17.056 -28.79,-16.137M-41.145,25.425C-41.406,24.57 -41.655,19.836 -41.555,17.621C-40.761,16.815 -29.965,9.316 -28.842,8.818C-28.762,11.665 -28.926,14.46 -29.052,17.207C-29.891,18.009 -39.943,24.829 -41.145,25.425M-29.326,27.959C-33.416,30.796 -37.42,33.577 -41.428,36.35C-41.529,36.42 -41.679,36.421 -41.898,36.479C-41.678,33.623 -41.461,30.825 -41.233,27.877C-37.335,25.224 -33.354,22.514 -29.221,19.701C-29.013,20.543 -29.116,21.213 -29.113,21.87C-29.109,22.554 -29.133,23.239 -29.146,23.922C-29.16,24.606 -29.165,25.29 -29.195,25.974C-29.226,26.652 -29.283,27.329 -29.326,27.959M-45.696,-1.421C-44.879,-2.365 -30.955,-12.538 -28.795,-13.764C-28.801,-11.205 -28.808,-8.801 -28.813,-6.324C-33.555,-2.936 -38.322,0.471 -43.255,3.996C-43.65,1.863 -44.55,0.14 -45.696,-1.421M-44.779,17.724C-44.642,18.993 -44.613,20.274 -44.543,21.549C-44.319,25.603 -43.993,29.657 -44.478,33.714C-44.689,35.483 -44.949,37.241 -45.554,38.929C-46.053,40.323 -46.765,41.585 -47.853,42.609C-50.295,44.906 -53.533,44.594 -55.377,41.806C-56.024,40.828 -56.523,39.725 -56.928,38.62C-57.934,35.867 -58.518,33.003 -58.86,30.096C-59.433,25.244 -59.658,20.368 -59.741,15.693C-59.774,12.559 -59.656,9.652 -59.092,6.765C-58.453,3.497 -56.559,1.295 -53.626,-0.142C-52.268,-0.807 -50.876,-0.756 -49.482,-0.439C-48.673,-0.255 -48.001,0.234 -47.525,0.964C-46.894,1.936 -46.445,2.967 -46.313,4.128C-45.801,8.66 -45.271,13.19 -44.779,17.724M-70.095,37.685C-69.05,36.644 -63.506,32.731 -62.446,32.308C-62.069,33.431 -61.993,34.614 -61.698,35.743C-61.397,36.888 -61.087,38.032 -60.764,39.24C-60.888,39.379 -61.012,39.573 -61.184,39.705C-64.538,42.304 -67.897,44.897 -71.259,47.486C-71.43,47.617 -71.627,47.711 -71.814,47.821C-71.023,45.778 -70.556,43.663 -70.4,41.478C-70.31,40.204 -70.196,38.934 -70.095,37.685M-62.754,29.82C-63.626,30.735 -68.945,34.604 -69.902,35.034C-70.102,34.133 -70.161,28.603 -69.977,26.783C-67.83,25.123 -65.61,23.407 -63.441,21.729C-63.272,21.81 -63.223,21.821 -63.193,21.851C-63.164,21.881 -63.146,21.93 -63.14,21.973C-63.12,22.107 -63.1,22.242 -63.094,22.377C-62.979,24.872 -62.865,27.369 -62.754,29.82M-63.046,15.118C-63.049,16.392 -63.113,17.666 -63.152,19.001C-65.376,20.736 -67.594,22.464 -70.057,24.384C-70.116,21.617 -70.168,19.204 -70.22,16.827C-69.223,15.798 -63.864,11.798 -62.804,11.308C-62.682,12.617 -63.043,13.859 -63.046,15.118M-95.229,68.392C-90.397,64.653 -85.562,60.916 -80.718,57.19C-74.284,52.241 -67.843,47.301 -61.403,42.359C-60.973,42.028 -60.531,41.711 -60.01,41.326C-59.317,42.337 -58.737,43.36 -57.986,44.238C-57.257,45.09 -56.354,45.793 -55.521,46.567C-55.544,46.635 -55.544,46.751 -55.601,46.796C-66.146,55.145 -76.695,63.49 -87.227,71.82C-90.092,72.132 -94.431,71.036 -96.38,69.493C-96.149,68.973 -95.647,68.715 -95.229,68.392M-85.711,49.123C-82.846,51.273 -79.792,52.271 -76.235,51.427C-83.313,57.074 -90.391,62.72 -97.544,68.427C-98.421,67.783 -98.795,67.002 -99.051,66.178C-99.637,64.295 -99.79,62.348 -99.878,60.291C-95.175,56.548 -90.499,52.789 -85.711,49.123M-88.127,16.204C-87.914,12.645 -87.42,9.121 -86.22,5.737C-85.917,4.88 -85.575,4.025 -85.141,3.228C-83.626,0.445 -81.105,-0.543 -78.082,-0.687C-77.448,-0.102 -76.93,0.344 -76.448,0.827C-75.456,1.82 -74.837,3.026 -74.511,4.385C-74.029,6.39 -73.859,8.434 -73.729,10.485C-73.319,16.957 -73.424,23.439 -73.393,29.918C-73.377,33.156 -73.413,36.397 -73.533,39.632C-73.59,41.174 -73.864,42.712 -74.105,44.242C-74.204,44.864 -74.427,45.481 -74.682,46.061C-75.336,47.552 -76.533,48.347 -78.14,48.28C-80.891,48.163 -83.197,47.15 -84.623,44.63C-85.44,43.186 -85.909,41.614 -86.291,40.012C-87.01,36.988 -87.396,33.913 -87.723,30.827C-88.238,25.96 -88.42,21.085 -88.127,16.204M-100.555,51.288C-96.925,48.377 -93.233,45.414 -89.465,42.392C-88.825,43.31 -88.734,44.38 -88.265,45.283C-87.805,46.166 -87.33,47.043 -86.823,47.995C-91.158,51.452 -95.49,54.907 -99.855,58.388C-100.27,57.303 -100.658,53.245 -100.555,51.288M-91.174,32.479C-91.012,32.579 -90.969,32.597 -90.936,32.628C-90.905,32.658 -90.869,32.697 -90.864,32.736C-90.535,35.261 -90.208,37.787 -89.866,40.432C-93.411,43.421 -97.004,46.4 -100.79,49.556C-101.231,46.295 -101.42,43.316 -101.654,40.287C-98.054,37.605 -94.593,35.026 -91.174,32.479M-91.395,23.849C-91.23,24.591 -91.322,25.307 -91.284,26.008C-91.242,26.782 -91.223,27.557 -91.178,28.33C-91.136,29.052 -91.073,29.773 -91.025,30.407C-92.402,31.777 -100.701,38.036 -101.768,38.488C-101.995,36.468 -101.893,34.469 -102.144,32.57C-101.403,31.661 -92.696,24.595 -91.395,23.849M-102.473,21.779C-102.841,20.286 -103.059,16.507 -102.876,14.892C-98.125,11.321 -93.337,7.722 -88.467,4.062C-89.202,6.919 -89.903,9.642 -90.632,12.473C-94.507,15.518 -98.475,18.636 -102.473,21.779M-102.36,23.615C-100.715,21.974 -92.154,15.39 -90.986,14.897C-90.877,16.01 -91.087,17.079 -91.165,18.156C-91.243,19.245 -91.275,20.339 -91.334,21.574C-94.799,24.475 -98.323,27.426 -101.96,30.472C-102.416,29.268 -102.248,28.13 -102.346,27.04C-102.448,25.914 -102.364,24.772 -102.36,23.615M-75.408,72.397C-78.577,72.304 -81.757,72.21 -84.919,72.118C-84.942,71.995 -84.963,71.949 -84.957,71.907C-84.951,71.864 -84.93,71.811 -84.897,71.785C-83.935,71.017 -82.977,70.243 -82.004,69.487C-72.49,62.098 -62.975,54.711 -53.459,47.325C-53.39,47.362 -53.321,47.398 -53.252,47.435C-52.706,47.437 -52.159,47.426 -51.613,47.441C-49.395,47.501 -47.509,46.722 -45.918,45.196C-44.646,43.976 -43.699,42.538 -43.074,40.891C-42.896,40.423 -42.742,39.947 -42.592,39.515C-41.129,38.152 -30.578,30.783 -29.486,30.353C-29.242,31.392 -29.245,35.42 -29.505,37.66C-45.399,48.325 -60.638,59.995 -75.408,72.397M-62.736,72.126C-66.009,72.194 -69.194,72.259 -72.482,72.328C-72.319,71.747 -71.851,71.527 -71.494,71.245C-67.023,67.704 -62.567,64.145 -58.057,60.656C-49.144,53.759 -40.045,47.111 -30.807,40.657C-30.445,40.405 -30.06,40.189 -29.536,39.864C-29.622,42.221 -29.701,44.39 -29.784,46.673C-41.295,54.483 -52.07,63.272 -62.736,72.126M-31.081,59.475C-31.194,61.58 -31.737,63.58 -32.639,65.476C-33.162,66.576 -34.023,67.408 -35.085,67.975C-36.003,68.465 -36.966,68.891 -37.947,69.239C-40.184,70.03 -42.516,70.448 -44.849,70.841C-45.067,70.878 -45.294,70.868 -45.701,70.889C-45.479,70.615 -45.383,70.436 -45.235,70.322C-40.751,66.824 -36.264,63.331 -31.771,59.845C-31.567,59.688 -31.313,59.595 -31.081,59.475M-49.476,71.353C-52.311,71.825 -57.94,72.112 -59.346,71.825C-59.281,71.703 -59.25,71.559 -59.16,71.485C-49.842,63.783 -40.313,56.351 -30.55,49.219C-30.416,49.121 -30.233,49.087 -29.957,48.977C-29.916,51.682 -30.187,54.248 -30.555,56.747C-36.86,61.615 -43.101,66.432 -49.476,71.353M-28.727,6.259C-29.833,7.025 -30.914,7.772 -31.994,8.518C-33.043,9.244 -34.092,9.968 -35.141,10.693C-36.227,11.444 -37.311,12.197 -38.4,12.944C-39.434,13.653 -40.448,14.395 -41.451,15.027C-41.633,14.893 -41.692,14.872 -41.701,14.839C-41.749,14.665 -41.801,14.491 -41.82,14.312C-42.111,11.65 -42.398,8.987 -42.7,6.191C-38.171,2.926 -33.604,-0.366 -28.869,-3.78C-28.604,-1.961 -28.747,-0.346 -28.721,1.257C-28.694,2.894 -28.723,4.532 -28.727,6.259M-26.341,72.156C-25.655,73.223 -25.636,74.328 -26.33,75.376C-26.882,76.209 -27.466,77.043 -28.16,77.755C-30.135,79.784 -32.477,81.293 -35.198,82.087C-40.5,83.631 -45.851,84.942 -51.34,85.701C-56.548,86.42 -61.77,86.875 -67.017,86.995C-71.991,87.108 -76.973,87.025 -81.929,86.593C-84.463,86.372 -86.959,85.732 -89.477,85.304C-93.014,84.704 -96.375,83.575 -99.571,81.956C-100.465,81.504 -101.378,81.059 -102.19,80.482C-102.963,79.933 -103.681,79.274 -104.306,78.56C-105.313,77.41 -105.728,76.019 -105.527,74.488C-105.271,72.525 -104.716,70.653 -103.707,68.934C-103.618,68.783 -103.485,68.657 -103.354,68.496C-103.212,68.583 -103.063,68.624 -103.007,68.72C-100.655,72.736 -97.04,74.877 -92.583,75.795C-90.25,76.276 -87.886,76.481 -85.516,76.564C-80.089,76.754 -74.661,77.077 -69.229,76.854C-63.85,76.632 -58.469,76.406 -53.097,76.057C-47.994,75.726 -42.939,74.957 -37.918,73.993C-35.89,73.603 -33.902,73.04 -32.167,71.894C-30.997,71.121 -29.945,70.17 -28.728,69.211C-27.772,70.043 -27.032,71.08 -26.341,72.156M-23.86,4.651C-21.038,3.808 -17.722,4.955 -16.003,7.392C-14.634,9.332 -13.926,11.536 -13.471,13.839C-13.04,16.013 -13.031,18.21 -13.275,20.386C-13.83,25.329 -14.622,30.239 -15.729,35.092C-15.912,35.889 -16.168,36.675 -16.458,37.441C-17.059,39.023 -18.23,39.954 -19.891,40.245C-20.607,40.371 -21.335,40.448 -22.062,40.513C-22.829,40.582 -23.6,40.614 -24.468,40.667C-24.717,39.267 -24.147,6.366 -23.86,4.651M5.016,19.143C4.728,15.183 4.482,11.222 3.903,7.29C3.382,3.748 2.456,0.326 0.918,-2.919C-0.24,-5.361 -1.916,-7.375 -4.095,-8.971C-7.783,-11.674 -11.914,-13.114 -16.485,-13.054C-18.759,-13.025 -21.027,-12.692 -23.299,-12.5C-23.598,-12.474 -23.897,-12.463 -24.177,-12.447C-24.576,-14.079 -24.641,-17.948 -24.303,-19.355C-23.911,-19.516 -23.494,-19.696 -23.07,-19.86C-18.942,-21.462 -16.375,-24.464 -15.13,-28.67C-14.423,-31.061 -14.214,-33.503 -14.31,-35.982C-14.44,-39.398 -15.483,-42.521 -17.348,-45.37C-18.825,-47.629 -20.855,-49.199 -23.434,-50.004C-24.65,-50.384 -25.9,-50.661 -27.146,-50.94C-28.504,-51.243 -29.865,-51.171 -31.22,-50.866C-31.568,-50.787 -31.929,-50.761 -32.298,-50.709C-32.643,-51.071 -32.947,-51.407 -33.269,-51.727C-33.979,-52.435 -34.656,-53.185 -35.421,-53.831C-39.458,-57.241 -44.135,-58.47 -49.338,-57.788C-52.024,-57.437 -54.262,-56.21 -56.09,-54.212C-56.764,-53.476 -57.401,-52.695 -58.288,-52.15C-59.098,-52.189 -59.789,-52.553 -60.492,-52.865C-62.586,-53.796 -64.745,-54.504 -67.008,-54.898C-71.503,-55.681 -75.609,-54.622 -79.453,-52.299C-80.116,-51.899 -80.775,-51.486 -81.408,-51.038C-82.148,-50.513 -82.91,-50.434 -83.735,-50.781C-84.534,-51.118 -85.337,-51.442 -86.133,-51.785C-87.013,-52.164 -87.875,-52.585 -88.764,-52.941C-90.603,-53.679 -92.517,-54.136 -94.501,-54.077C-98.824,-53.948 -102.63,-52.436 -105.77,-49.458C-108.943,-46.447 -110.284,-42.786 -109.3,-38.409C-109.162,-37.792 -109.011,-37.159 -109.271,-36.429C-109.713,-36.024 -110.22,-35.567 -110.72,-35.103C-111.997,-33.916 -113.144,-32.625 -113.968,-31.07C-116.468,-26.35 -114.969,-20.958 -110.366,-18.252C-109.585,-17.792 -108.717,-17.481 -107.886,-17.106C-107.562,-16.96 -107.231,-16.827 -106.883,-16.679C-106.866,-16.402 -106.839,-16.178 -106.841,-15.954C-106.895,-9.337 -106.915,-2.717 -107.018,3.9C-107.109,9.743 -107.202,15.581 -106.936,21.423C-106.743,25.663 -106.714,29.911 -106.556,34.152C-106.417,37.846 -106.214,41.537 -106.014,45.229C-105.809,49.01 -105.561,52.79 -105.352,56.572C-105.208,59.17 -105.082,61.768 -104.565,64.328C-104.512,64.589 -104.521,64.863 -104.498,65.165C-106.746,66.696 -107.617,69.041 -108.318,71.478C-108.507,72.132 -108.584,72.819 -108.708,73.492C-109.193,76.126 -108.459,78.454 -106.918,80.579C-105.854,82.047 -104.475,83.159 -102.926,84.068C-99.993,85.788 -96.857,87.009 -93.566,87.85C-85.976,89.789 -78.258,90.828 -70.436,91.123C-63.023,91.403 -55.657,90.999 -48.36,89.587C-42.978,88.545 -37.691,87.125 -32.456,85.52C-28.484,84.302 -25.324,81.904 -22.919,78.517C-22.198,77.503 -21.659,76.406 -21.366,75.189C-20.927,73.366 -21.166,71.659 -22.172,70.066C-22.81,69.055 -23.549,68.125 -24.483,67.378C-25.259,66.759 -26.081,66.198 -26.875,65.617C-26.367,63.076 -25.86,60.538 -25.329,57.879C-24.262,57.706 -23.269,57.853 -22.275,57.965C-21.687,58.031 -21.099,58.121 -20.509,58.162C-17.589,58.365 -14.667,58.339 -11.751,58.153C-9.098,57.982 -6.498,57.494 -4.01,56.525C-0.711,55.243 1.581,52.946 2.707,49.582C3.183,48.161 3.547,46.687 3.807,45.21C4.66,40.347 4.986,35.426 5.187,30.501C5.34,26.715 5.291,22.929 5.016,19.143" style="fill:rgb(30,30,30);fill-rule:nonzero;"/>
            </g>
            <g>
                <g transform="matrix(-0.569793,0.0116747,0.0116747,0.569793,874.058,-538.801)">
                    <path d="M919.666,1469.05C914.584,1471.8 912.084,1477.72 911.535,1483.17C910.886,1489.62 914.624,1495.17 920.513,1497.48C926.863,1499.97 936.911,1496.85 939.732,1490.43C939.976,1489.88 940.084,1489.31 940.261,1488.75C943.33,1483.33 940.625,1476.91 937.019,1472.49C932.746,1467.26 925.552,1465.88 919.666,1469.05Z" style="fill:rgb(30,30,30);fill-rule:nonzero;"/>
                </g>
                <g transform="matrix(-0.569793,0.0116747,0.0116747,0.569793,874.058,-538.801)">
                    <path d="M939.654,1442.66C940.82,1443.81 942.067,1444.85 943.375,1445.75C954.261,1453.25 968.688,1451.19 977.173,1441.37C995.768,1419.83 972.756,1384.18 945.67,1397.69C934.285,1403.37 927.752,1413.91 929.513,1426.59C930.42,1433.13 934.501,1438.61 939.654,1442.66Z" style="fill:rgb(30,30,30);fill-rule:nonzero;"/>
                </g>
                <g transform="matrix(0.780651,0.164899,-0.164899,0.780651,-77.3592,-1043.22)">
                    <path d="M919.666,1469.05C914.584,1471.8 912.084,1477.72 911.535,1483.17C910.886,1489.62 914.624,1495.17 920.513,1497.48C926.863,1499.97 936.911,1496.85 939.732,1490.43C939.976,1489.88 940.084,1489.31 940.261,1488.75C943.33,1483.33 940.625,1476.91 937.019,1472.49C932.746,1467.26 925.552,1465.88 919.666,1469.05Z" style="fill:rgb(30,30,30);fill-rule:nonzero;"/>
                </g>
                <g transform="matrix(0.780651,0.164899,-0.164899,0.780651,-77.3592,-1043.22)">
                    <path d="M939.654,1442.66C940.82,1443.81 942.067,1444.85 943.375,1445.75C954.261,1453.25 968.688,1451.19 977.173,1441.37C995.768,1419.83 972.756,1384.18 945.67,1397.69C934.285,1403.37 927.752,1413.91 929.513,1426.59C930.42,1433.13 934.501,1438.61 939.654,1442.66Z" style="fill:rgb(30,30,30);fill-rule:nonzero;"/>
                </g>
            </g>
        </g>
    </g>
</svg>
