<?xml version="1.0" encoding="UTF-8" standalone="no"?>
<!DOCTYPE svg PUBLIC "-//W3C//DTD SVG 1.1//EN" "http://www.w3.org/Graphics/SVG/1.1/DTD/svg11.dtd">
<svg width="100%" height="100%" viewBox="0 0 745 1040" version="1.1" xmlns="http://www.w3.org/2000/svg" xmlns:xlink="http://www.w3.org/1999/xlink" xml:space="preserve" xmlns:serif="http://www.serif.com/" style="fill-rule:evenodd;clip-rule:evenodd;stroke-linecap:round;stroke-linejoin:round;stroke-miterlimit:3;">
    <g id="Card-Body" serif:id="Card Body" transform="matrix(3.22119,0,0,3.57172,-628.132,-346.457)">
        <path d="M426,113.534L426,371.466C426,380.591 417.785,388 407.667,388L213.333,388C203.215,388 195,380.591 195,371.466L195,113.534C195,104.409 203.215,97 213.333,97L407.667,97C417.785,97 426,104.409 426,113.534Z" style="fill:rgb(242,242,242);stroke:rgb(30,30,30);stroke-width:0.25px;"/>
    </g>
    <g id="A">
        <g id="Top-L" serif:id="Top L">
            <g transform="matrix(1,0,0,1,-34,-77)">
                <g transform="matrix(83.3333,0,0,83.3333,124.369,179.483)">
                </g>
                <text x="74.119px" y="179.483px" style="font-family:'LobsterTwo-Bold', 'Lobster Two';font-weight:700;font-size:83.333px;fill:rgb(252,26,77);">A</text>
            </g>
            <g transform="matrix(2.74304,0,0,2.74304,21.3386,118.8)">
                <path d="M30,16C30.001,16.529 29.791,17.037 29.416,17.41L17.41,29.418C16.635,30.188 15.365,30.188 14.59,29.418L2.59,17.41C1.82,16.635 1.82,15.365 2.59,14.59L14.596,2.582C15.371,1.812 16.641,1.812 17.416,2.582L29.423,14.59C29.795,14.964 30.003,15.472 30,16Z" style="fill:rgb(252,26,77);fill-rule:nonzero;"/>
            </g>
        </g>
        <g id="Bottom-R" serif:id="Bottom R">
            <g transform="matrix(1,0,0,1,579.512,820.701)">
                <g transform="matrix(83.3333,0,0,83.3333,124.369,179.483)">
                </g>
                <text x="74.119px" y="179.483px" style="font-family:'LobsterTwo-Bold', 'Lobster Two';font-weight:700;font-size:83.333px;fill:rgb(252,26,77);">A</text>
            </g>
            <g transform="matrix(2.74304,0,0,2.74304,634.85,833.423)">
                <path d="M30,16C30.001,16.529 29.791,17.037 29.416,17.41L17.41,29.418C16.635,30.188 15.365,30.188 14.59,29.418L2.59,17.41C1.82,16.635 1.82,15.365 2.59,14.59L14.596,2.582C15.371,1.812 16.641,1.812 17.416,2.582L29.423,14.59C29.795,14.964 30.003,15.472 30,16Z" style="fill:rgb(252,26,77);fill-rule:nonzero;"/>
            </g>
        </g>
        <g id="Title" transform="matrix(1,0,0,1,-34.0945,604.89)">
            <g transform="matrix(66.6667,0,0,66.6667,580.814,181.788)">
            </g>
            <text x="231.281px" y="181.788px" style="font-family:'MarkerFelt-Thin', 'Marker Felt';font-size:66.667px;fill:rgb(252,26,77);">SET TH<tspan x="408.281px 436.947px 453.614px 477.281px 520.281px 552.147px " y="181.788px 181.788px 181.788px 181.788px 181.788px 181.788px ">E PACE</tspan></text>
        </g>
        <g transform="matrix(1.07595,0,0,1.07595,-45.8109,-35.9919)">
            <g transform="matrix(0.521139,0.0557401,-0.0557401,0.521139,-267.315,-623.597)">
                <path d="M1573.02,2140.8C1562.1,2144.27 1549.12,2144.29 1537.67,2145.2C1514.92,2147.02 1492.13,2148.17 1469.32,2148.95C1442.29,2149.86 1415.27,2149.71 1388.23,2148.81C1374.64,2148.35 1361.05,2147.32 1347.49,2146.28C1338.07,2145.56 1281.8,2134.22 1316.66,2118.58C1323.23,2126.44 1334.57,2130.16 1344.92,2131.52C1382.19,2136.38 1418.83,2138.72 1456.46,2138.24C1486.5,2137.86 1517.06,2136.41 1546.85,2132.41C1560.12,2130.63 1574.12,2125.19 1580.84,2113.6C1600.46,2122.85 1590.86,2135.13 1573.02,2140.8ZM1357.56,1938.54C1378.26,1905.18 1411.87,1890.18 1418.75,1848.83C1426.05,1804.98 1401.33,1787.65 1368.6,1765.32C1319.48,1731.81 1323.13,1649.76 1320.46,1594.74C1325.32,1595.64 1330.01,1596.2 1333.99,1596.55C1334.53,1596.82 1335.04,1597.11 1335.72,1597.21C1376.86,1603.13 1418.06,1604.43 1459.58,1603.81C1494.79,1603.29 1533.82,1603.99 1568.46,1596.74C1570.57,1596.3 1572.78,1595.78 1575.04,1595.2C1572.53,1647.62 1575.66,1721.42 1535.64,1758.64C1502.82,1789.16 1471.7,1794.65 1476.47,1846.51C1480.14,1886.38 1512.27,1902.31 1533.56,1931.96C1571.16,1984.29 1566.55,2041.19 1568.23,2101.84C1568,2102.28 1567.79,2102.74 1567.63,2103.27C1560.49,2126.55 1475.17,2121.31 1456.46,2121.82C1434.86,2122.41 1332.91,2130.96 1327.98,2103.15C1327.84,2102.36 1327.6,2101.68 1327.32,2101.05C1328.91,2042.76 1325.23,1990.62 1357.56,1938.54ZM1323.88,1554.24C1341.59,1548.47 1361.58,1547.56 1380,1545.71C1432.21,1540.48 1484.94,1539.68 1537.25,1543.81C1554.16,1545.14 1571.05,1546.79 1586.5,1554.22C1617.29,1569.03 1559.45,1581.45 1557.06,1581.76C1537.3,1584.26 1517.1,1584.91 1497.23,1585.98C1444.06,1588.85 1390.6,1588.62 1337.58,1583.47C1337.21,1583.43 1336.91,1583.57 1336.56,1583.6C1315.68,1577.84 1288.36,1565.82 1323.88,1554.24ZM1584.14,2097.28C1590.23,2053.37 1587.69,2003.81 1570.48,1963.12C1561.64,1942.23 1549.93,1922.74 1535.19,1905.46C1521.32,1889.2 1504.19,1880.27 1496.71,1858.91C1475.12,1797.32 1542.19,1791.54 1565.06,1748.97C1589.29,1703.87 1591.52,1641 1588.92,1590.55C1601.53,1585.12 1612.19,1576.26 1611.31,1561.22C1609.98,1538.62 1575.46,1531.64 1558.91,1529.69C1481.81,1520.6 1395.47,1519.01 1319.36,1537.81C1302.67,1541.94 1283.59,1552.16 1286.88,1571.71C1288.51,1581.42 1296.77,1587.33 1306.59,1590.99C1304.14,1639.55 1306.69,1697.17 1327.12,1741.64C1335.85,1760.68 1348.25,1772.36 1365.33,1784.09C1395.07,1804.53 1408.47,1820.68 1398.82,1858.91C1394.1,1877.64 1377.36,1888.89 1364.19,1901.43C1348.5,1916.38 1337.06,1936.93 1327.93,1956.3C1307.34,1999.95 1304.79,2054.85 1312.13,2102.2C1285.6,2114 1276.09,2136.05 1306.47,2152.51C1325.93,2163.05 1356.35,2162.15 1377.93,2163.86C1408.31,2166.26 1438.88,2166.15 1469.32,2165.39C1508.64,2164.4 1563.54,2168.82 1598.36,2147.44C1626.15,2130.38 1604.53,2106.31 1584.14,2097.28Z" style="fill:rgb(252,26,77);fill-rule:nonzero;"/>
            </g>
            <g transform="matrix(0.521139,0.0557401,-0.0557401,0.521139,-267.315,-623.597)">
                <path d="M1408.43,1752.68C1408.35,1752.23 1408.77,1751.85 1409.2,1752.08C1421.37,1758.47 1429.68,1766.99 1444.68,1766.14C1455.26,1765.55 1465.27,1761.7 1475.86,1761.63C1476.69,1761.62 1477.04,1762.61 1476.51,1763.18C1461.09,1780 1413.39,1780.42 1408.43,1752.68ZM1482.25,1759.92C1483.78,1757.3 1485.56,1756.18 1488.25,1754.62C1489.36,1753.99 1491.8,1753.64 1492.27,1755.33C1492.89,1757.58 1490.32,1758.74 1488.77,1759.68C1486.52,1761.03 1485.09,1761.61 1482.62,1760.83C1482.24,1760.71 1482.04,1760.27 1482.25,1759.92ZM1452.98,1792.78C1482.1,1788.27 1521.71,1759.61 1522.19,1727C1522.81,1684.24 1469.79,1684.25 1439.12,1685.92C1423.69,1686.76 1397.96,1687.06 1386.58,1699.04C1372.68,1713.67 1376.5,1735.04 1385.68,1751.63C1398.16,1776.79 1425.89,1796.98 1452.98,1792.78Z" style="fill:rgb(252,26,77);fill-rule:nonzero;"/>
            </g>
            <g transform="matrix(0.521139,0.0557401,-0.0557401,0.521139,-267.315,-623.597)">
                <path d="M1363.55,2077.97C1386.41,2079.46 1408.65,2084.86 1431.71,2084.92C1452.05,2084.97 1472.96,2081.99 1493.05,2085.46C1494.06,2085.63 1493.85,2087.02 1493.05,2087.31C1457.28,2100.12 1396.72,2098.41 1363.19,2079.32C1362.59,2078.98 1362.82,2077.92 1363.55,2077.97ZM1500.47,2084.29C1502.82,2082.52 1506.17,2082.48 1508.99,2081.99C1511.43,2081.56 1514.14,2081.08 1516.35,2082.48C1516.91,2082.83 1516.94,2083.5 1516.54,2083.99C1514.86,2086.05 1512.1,2086.37 1509.63,2086.7C1506.78,2087.08 1503.64,2088.03 1500.84,2087.1C1499.49,2086.65 1499.42,2085.09 1500.47,2084.29ZM1527.55,2097.81C1549.67,2088.18 1550.54,2074.83 1546.92,2053.6C1544.02,2036.63 1540.89,2022.23 1523.81,2017.01C1503.83,2010.9 1480.89,2011.19 1460.24,2010.65C1434.73,2009.99 1408.99,2010.71 1383.64,2013.72C1360.52,2016.47 1353.13,2019.65 1348,2042.02C1344.17,2058.73 1343.22,2076.81 1354.26,2090.11C1372.56,2112.14 1503.73,2108.19 1527.55,2097.81Z" style="fill:rgb(252,26,77);fill-rule:nonzero;"/>
            </g>
            <g transform="matrix(0.521139,0.0557401,-0.0557401,0.521139,-267.315,-623.597)">
                <path d="M1363.1,1990.86C1370.93,1978.82 1374.27,1964.7 1380.18,1951.67C1386.08,1938.67 1395.93,1927.9 1401.79,1915.16C1402.05,1914.58 1401.52,1914.03 1400.93,1914.31C1377.89,1925.16 1360.19,1965.96 1360.76,1990.23C1360.79,1991.51 1362.42,1991.9 1363.1,1990.86Z" style="fill:rgb(252,26,77);fill-rule:nonzero;"/>
            </g>
            <g transform="matrix(0.521139,0.0557401,-0.0557401,0.521139,-267.315,-623.597)">
                <path d="M1537.95,1726.93C1560.12,1700.28 1566.09,1646.91 1559.5,1613.92C1559.39,1613.37 1558.5,1613.37 1558.38,1613.92C1554.44,1632.09 1554.53,1651.2 1551.6,1669.61C1548.52,1689.11 1542.02,1707.28 1536.66,1726.18C1536.46,1726.88 1537.44,1727.54 1537.95,1726.93Z" style="fill:rgb(252,26,77);fill-rule:nonzero;"/>
            </g>
            <g transform="matrix(0.521139,0.0557401,-0.0557401,0.521139,-267.315,-623.597)">
                <path d="M1405.19,1909.07C1407.51,1908.25 1408.39,1907.98 1410.02,1905.89C1411.43,1904.1 1411.92,1902.49 1411.92,1900.23C1411.92,1899.76 1411.33,1899.34 1410.9,1899.65C1409.63,1900.58 1408.59,1901.5 1407.68,1902.8C1407.11,1903.61 1406.67,1904.56 1406.12,1905.4C1405.49,1906.36 1405.41,1907.58 1404.76,1908.5C1404.57,1908.77 1404.89,1909.17 1405.19,1909.07Z" style="fill:rgb(252,26,77);fill-rule:nonzero;"/>
            </g>
            <g transform="matrix(0.521139,0.0557401,-0.0557401,0.521139,-267.315,-623.597)">
                <path d="M1337.19,1614.69C1337.02,1614.19 1336.19,1614.1 1336.07,1614.69C1331.43,1637.63 1333.42,1676.02 1346.61,1696.08C1347.07,1696.78 1348.4,1696.58 1348.31,1695.62C1347.1,1681.32 1343.38,1667.35 1341.92,1653.04C1340.62,1640.33 1341.11,1626.93 1337.19,1614.69Z" style="fill:rgb(252,26,77);fill-rule:nonzero;"/>
            </g>
            <g transform="matrix(0.521139,0.0557401,-0.0557401,0.521139,-267.315,-623.597)">
                <path d="M1544.27,1999.18C1544.69,2000.12 1546,1999.55 1546.06,1998.69C1547.48,1978.19 1537.18,1946.34 1519.98,1933.62C1519.61,1933.35 1519.05,1933.8 1519.2,1934.22C1523.31,1945.59 1529.8,1955.95 1533.88,1967.45C1537.65,1978.06 1539.58,1988.9 1544.27,1999.18Z" style="fill:rgb(252,26,77);fill-rule:nonzero;"/>
            </g>
            <g transform="matrix(0.521139,0.0557401,-0.0557401,0.521139,-267.315,-623.597)">
                <path d="M1600.22,2064.98C1606.95,2025.11 1600.82,1983.34 1585.55,1946.05C1574.41,1918.87 1553.6,1886.26 1525.19,1874.52C1524.88,1874.4 1524.6,1874.88 1524.86,1875.09C1551.53,1896.57 1570.58,1918.84 1583.41,1951.16C1597.8,1987.44 1599.61,2026.31 1599.19,2064.85C1599.18,2065.43 1600.12,2065.59 1600.22,2064.98Z" style="fill:rgb(252,26,77);fill-rule:nonzero;"/>
            </g>
            <g transform="matrix(0.521139,0.0557401,-0.0557401,0.521139,-267.315,-623.597)">
                <path d="M1366.97,1806.04C1352.53,1793.28 1337.41,1783.07 1325.5,1767.58C1312.36,1750.48 1307.6,1731.49 1303.04,1710.93C1302.97,1710.62 1302.54,1710.72 1302.52,1711C1300.02,1749.31 1331.63,1792.78 1366.5,1806.85C1366.95,1807.03 1367.31,1806.35 1366.97,1806.04Z" style="fill:rgb(252,26,77);fill-rule:nonzero;"/>
            </g>
            <g transform="matrix(0.521139,0.0557401,-0.0557401,0.521139,-267.315,-623.597)">
                <path d="M1297.07,2027.27C1302.7,2006.95 1304.75,1985.89 1310.86,1965.67C1318.63,1939.98 1334.08,1919.66 1349.33,1898.15C1349.65,1897.71 1348.99,1897.28 1348.61,1897.6C1312.05,1929.22 1299.9,1981.13 1296.17,2027.15C1296.13,2027.68 1296.94,2027.76 1297.07,2027.27Z" style="fill:rgb(252,26,77);fill-rule:nonzero;"/>
            </g>
            <g transform="matrix(0.521139,0.0557401,-0.0557401,0.521139,-267.315,-623.597)">
                <path d="M1463.19,1510.6C1494.47,1510.62 1524.89,1514.41 1555.72,1519.23C1556.42,1519.33 1556.7,1518.4 1556.01,1518.16C1528.62,1508.31 1496.62,1508.04 1467.88,1507.56C1435.89,1507.04 1399.35,1507.54 1368.85,1518.39C1368.55,1518.5 1368.57,1519.05 1368.94,1519C1400.53,1514.77 1431.2,1510.57 1463.19,1510.6Z" style="fill:rgb(252,26,77);fill-rule:nonzero;"/>
            </g>
            <g transform="matrix(0.521139,0.0557401,-0.0557401,0.521139,-267.315,-623.597)">
                <path d="M1603.16,1662.43C1596.87,1682.34 1594.68,1703.5 1589.02,1723.65C1582.61,1746.46 1570.51,1764.69 1552.31,1779.76C1551.71,1780.26 1552.48,1781.19 1553.13,1780.81C1592.18,1758.22 1600.02,1703.49 1603.97,1662.54C1604.02,1662.06 1603.3,1662.01 1603.16,1662.43Z" style="fill:rgb(252,26,77);fill-rule:nonzero;"/>
            </g>
            <g transform="matrix(0.521139,0.0557401,-0.0557401,0.521139,-267.315,-623.597)">
                <path d="M1546.12,2173.26C1524.01,2174.43 1502.06,2177.43 1479.92,2178.46C1455.27,2179.61 1430.71,2177.38 1406.12,2178.07C1405.62,2178.08 1405.47,2178.87 1406,2178.96C1450.53,2186.8 1502.14,2183.9 1546.3,2174.53C1547.01,2174.38 1546.85,2173.22 1546.12,2173.26Z" style="fill:rgb(252,26,77);fill-rule:nonzero;"/>
            </g>
            <g transform="matrix(0.521139,0.0557401,-0.0557401,0.521139,-267.315,-623.597)">
                <path d="M1671.58,1597.98C1677.93,1600.48 1687.97,1597.36 1690.8,1590.94C1691.04,1590.39 1691.15,1589.82 1691.32,1589.26C1694.4,1583.84 1691.69,1577.42 1688.09,1573C1683.81,1567.76 1676.61,1566.38 1670.73,1569.56C1665.65,1572.3 1663.15,1578.22 1662.6,1583.68C1661.95,1590.12 1665.69,1595.68 1671.58,1597.98Z" style="fill:rgb(252,26,77);fill-rule:nonzero;"/>
            </g>
            <g transform="matrix(0.521139,0.0557401,-0.0557401,0.521139,-267.315,-623.597)">
                <path d="M1656.52,1943.7C1651.44,1946.45 1648.94,1952.37 1648.39,1957.83C1647.74,1964.27 1651.48,1969.82 1657.37,1972.13C1663.72,1974.62 1673.77,1971.51 1676.59,1965.09C1676.83,1964.54 1676.94,1963.97 1677.11,1963.41C1680.19,1957.99 1677.48,1951.57 1673.88,1947.14C1669.6,1941.91 1662.41,1940.53 1656.52,1943.7Z" style="fill:rgb(252,26,77);fill-rule:nonzero;"/>
            </g>
            <g transform="matrix(0.521139,0.0557401,-0.0557401,0.521139,-267.315,-623.597)">
                <path d="M1589.38,1823.58C1582.95,1817.15 1569.75,1822.37 1570.77,1831.94C1571.36,1837.47 1575.53,1842.18 1581.41,1842.18C1586.2,1842.18 1591.3,1838.6 1592.11,1833.72C1592.32,1832.47 1592.28,1831.25 1592.12,1830.08C1591.99,1827.71 1591.19,1825.39 1589.38,1823.58Z" style="fill:rgb(252,26,77);fill-rule:nonzero;"/>
            </g>
            <g transform="matrix(0.521139,0.0557401,-0.0557401,0.521139,-267.315,-623.597)">
                <path d="M1750.99,2073.21C1744.57,2066.79 1731.34,2072 1732.39,2081.57C1732.99,2087.09 1737.14,2091.81 1743.03,2091.81C1747.81,2091.81 1752.91,2088.23 1753.73,2083.34C1753.93,2082.09 1753.89,2080.88 1753.73,2079.71C1753.6,2077.34 1752.79,2075.02 1750.99,2073.21Z" style="fill:rgb(252,26,77);fill-rule:nonzero;"/>
            </g>
            <g transform="matrix(0.521139,0.0557401,-0.0557401,0.521139,-267.315,-623.597)">
                <path d="M1730.34,2113.79C1725.11,2114.18 1720.45,2116.76 1717.88,2121.47C1714.97,2126.79 1715.4,2132.87 1716.41,2138.63C1716.86,2141.16 1718.64,2143.1 1720.86,2144.24C1722.95,2146.67 1725.76,2148.47 1728.89,2148.95C1740.49,2150.72 1752.93,2139.1 1749.2,2127.18C1746.8,2119.52 1738.56,2113.17 1730.34,2113.79Z" style="fill:rgb(252,26,77);fill-rule:nonzero;"/>
            </g>
            <g transform="matrix(0.521139,0.0557401,-0.0557401,0.521139,-267.315,-623.597)">
                <path d="M1654.44,2049.77C1633.01,2060.13 1631.65,2084.17 1643.35,2099.96C1645.95,2103.99 1649.49,2107.61 1653.27,2110.28C1668.12,2120.78 1687.38,2116.92 1698.09,2102.82C1707.94,2089.86 1708.03,2071.73 1698.62,2058.51C1687.99,2043.57 1670,2042.25 1654.44,2049.77Z" style="fill:rgb(252,26,77);fill-rule:nonzero;"/>
            </g>
            <g transform="matrix(0.333623,-0.404213,0.404213,0.333623,-1133.93,409.123)">
                <path d="M1750.99,2073.21C1744.57,2066.79 1731.34,2072 1732.39,2081.57C1732.99,2087.09 1737.14,2091.81 1743.03,2091.81C1747.81,2091.81 1752.91,2088.23 1753.73,2083.34C1753.93,2082.09 1753.89,2080.88 1753.73,2079.71C1753.6,2077.34 1752.79,2075.02 1750.99,2073.21Z" style="fill:rgb(252,26,77);fill-rule:nonzero;"/>
            </g>
            <g transform="matrix(0.333623,-0.404213,0.404213,0.333623,-1133.93,409.123)">
                <path d="M1730.34,2113.79C1725.11,2114.18 1720.45,2116.76 1717.88,2121.47C1714.97,2126.79 1715.4,2132.87 1716.41,2138.63C1716.86,2141.16 1718.64,2143.1 1720.86,2144.24C1722.95,2146.67 1725.76,2148.47 1728.89,2148.95C1740.49,2150.72 1752.93,2139.1 1749.2,2127.18C1746.8,2119.52 1738.56,2113.17 1730.34,2113.79Z" style="fill:rgb(252,26,77);fill-rule:nonzero;"/>
            </g>
            <g transform="matrix(0.333623,-0.404213,0.404213,0.333623,-1133.93,409.123)">
                <path d="M1654.44,2049.77C1633.01,2060.13 1631.65,2084.17 1643.35,2099.96C1645.95,2103.99 1649.49,2107.61 1653.27,2110.28C1668.12,2120.78 1687.38,2116.92 1698.09,2102.82C1707.94,2089.86 1708.03,2071.73 1698.62,2058.51C1687.99,2043.57 1670,2042.25 1654.44,2049.77Z" style="fill:rgb(252,26,77);fill-rule:nonzero;"/>
            </g>
        </g>
    </g>
</svg>
