<?xml version="1.0" encoding="UTF-8" standalone="no"?>
<!DOCTYPE svg PUBLIC "-//W3C//DTD SVG 1.1//EN" "http://www.w3.org/Graphics/SVG/1.1/DTD/svg11.dtd">
<svg width="100%" height="100%" viewBox="0 0 745 1040" version="1.1" xmlns="http://www.w3.org/2000/svg" xmlns:xlink="http://www.w3.org/1999/xlink" xml:space="preserve" xmlns:serif="http://www.serif.com/" style="fill-rule:evenodd;clip-rule:evenodd;stroke-linecap:round;stroke-linejoin:round;stroke-miterlimit:3;">
    <g id="Card-Body" serif:id="Card Body" transform="matrix(3.22119,0,0,3.57172,-628.132,-346.457)">
        <path d="M426,113.534L426,371.466C426,380.591 417.785,388 407.667,388L213.333,388C203.215,388 195,380.591 195,371.466L195,113.534C195,104.409 203.215,97 213.333,97L407.667,97C417.785,97 426,104.409 426,113.534Z" style="fill:rgb(242,242,242);stroke:rgb(30,30,30);stroke-width:0.25px;"/>
    </g>
    <g id="_4" serif:id="4">
        <g id="Top-L" serif:id="Top L">
            <g transform="matrix(1,0,0,1,-34,-77)">
                <g transform="matrix(83.3333,0,0,83.3333,120.619,179.483)">
                </g>
                <text x="77.869px" y="179.483px" style="font-family:'LobsterTwo-Bold', 'Lobster Two';font-weight:700;font-size:83.333px;fill:rgb(252,26,77);">4</text>
            </g>
            <g transform="matrix(2.74304,0,0,2.74304,21.3386,118.8)">
                <path d="M30,16C30.001,16.529 29.791,17.037 29.416,17.41L17.41,29.418C16.635,30.188 15.365,30.188 14.59,29.418L2.59,17.41C1.82,16.635 1.82,15.365 2.59,14.59L14.596,2.582C15.371,1.812 16.641,1.812 17.416,2.582L29.423,14.59C29.795,14.964 30.003,15.472 30,16Z" style="fill:rgb(252,26,77);fill-rule:nonzero;"/>
            </g>
        </g>
        <g id="Bottom-R" serif:id="Bottom R">
            <g transform="matrix(1,0,0,1,579.512,820.701)">
                <g transform="matrix(83.3333,0,0,83.3333,120.619,179.483)">
                </g>
                <text x="77.869px" y="179.483px" style="font-family:'LobsterTwo-Bold', 'Lobster Two';font-weight:700;font-size:83.333px;fill:rgb(252,26,77);">4</text>
            </g>
            <g transform="matrix(2.74304,0,0,2.74304,634.85,833.423)">
                <path d="M30,16C30.001,16.529 29.791,17.037 29.416,17.41L17.41,29.418C16.635,30.188 15.365,30.188 14.59,29.418L2.59,17.41C1.82,16.635 1.82,15.365 2.59,14.59L14.596,2.582C15.371,1.812 16.641,1.812 17.416,2.582L29.423,14.59C29.795,14.964 30.003,15.472 30,16Z" style="fill:rgb(252,26,77);fill-rule:nonzero;"/>
            </g>
        </g>
        <g id="Title" transform="matrix(1,0,0,1,-34,604.89)">
            <g transform="matrix(66.6667,0,0,66.6667,672.586,181.788)">
            </g>
            <text x="139.319px" y="181.788px" style="font-family:'MarkerFelt-Thin', 'Marker Felt';font-size:66.667px;fill:rgb(252,26,77);">D<tspan x="173.519px 215.186px 231.186px 273.319px 310.653px " y="181.788px 181.788px 181.788px 181.788px 181.788px ">RINK </tspan>SOM<tspan x="459.386px 488.053px " y="181.788px 181.788px ">E </tspan>MOR<tspan x="643.919px " y="181.788px ">E</tspan></text>
        </g>
        <g transform="matrix(12.8835,0,0,12.8835,165.817,226.056)">
            <path d="M21.566,6.133C20.035,4.364 18.313,2.771 16.43,1.382C16.172,1.202 15.828,1.202 15.57,1.383C13.687,2.771 11.965,4.364 10.434,6.133C7.043,10.033 5.25,14.136 5.25,18C5.25,23.897 10.103,28.75 16,28.75C21.897,28.75 26.75,23.897 26.75,18C26.75,14.136 24.958,10.033 21.566,6.133ZM16,27.25C10.928,27.244 6.756,23.072 6.75,18C6.75,10.548 14.125,4.384 16,2.936C17.875,4.384 25.25,10.548 25.25,18C25.244,23.072 21.072,27.244 16,27.25ZM22.74,19.125C22.229,21.981 19.981,24.229 17.125,24.74C17.084,24.746 17.042,24.75 17,24.75C16.999,24.75 16.998,24.75 16.997,24.75C16.586,24.75 16.247,24.411 16.247,24C16.247,23.634 16.514,23.319 16.875,23.26C19.048,22.895 20.891,21.05 21.26,18.875C21.321,18.515 21.635,18.25 22,18.25C22.412,18.25 22.75,18.588 22.75,19C22.75,19.042 22.747,19.084 22.74,19.125Z" style="fill:rgb(252,26,77);fill-rule:nonzero;"/>
        </g>
    </g>
</svg>
