<?xml version="1.0" encoding="UTF-8" standalone="no"?>
<!DOCTYPE svg PUBLIC "-//W3C//DTD SVG 1.1//EN" "http://www.w3.org/Graphics/SVG/1.1/DTD/svg11.dtd">
<svg width="100%" height="100%" viewBox="0 0 745 1040" version="1.1" xmlns="http://www.w3.org/2000/svg" xmlns:xlink="http://www.w3.org/1999/xlink" xml:space="preserve" xmlns:serif="http://www.serif.com/" style="fill-rule:evenodd;clip-rule:evenodd;stroke-linecap:round;stroke-linejoin:round;stroke-miterlimit:3;">
    <g id="Card-Body" serif:id="Card Body" transform="matrix(3.22119,0,0,3.57172,-628.132,-346.457)">
        <path d="M426,113.534L426,371.466C426,380.591 417.785,388 407.667,388L213.333,388C203.215,388 195,380.591 195,371.466L195,113.534C195,104.409 203.215,97 213.333,97L407.667,97C417.785,97 426,104.409 426,113.534Z" style="fill:rgb(242,242,242);stroke:rgb(30,30,30);stroke-width:0.25px;"/>
    </g>
    <g id="Q">
        <g id="Top-L" serif:id="Top L">
            <g transform="matrix(1,0,0,1,-34,-77)">
                <g transform="matrix(83.3333,0,0,83.3333,128.286,179.483)">
                </g>
                <text x="70.202px" y="179.483px" style="font-family:'LobsterTwo-Bold', 'Lobster Two';font-weight:700;font-size:83.333px;fill:rgb(252,26,77);">Q</text>
            </g>
            <g transform="matrix(2.74304,0,0,2.74304,21.3386,118.8)">
                <path d="M30,16C30.001,16.529 29.791,17.037 29.416,17.41L17.41,29.418C16.635,30.188 15.365,30.188 14.59,29.418L2.59,17.41C1.82,16.635 1.82,15.365 2.59,14.59L14.596,2.582C15.371,1.812 16.641,1.812 17.416,2.582L29.423,14.59C29.795,14.964 30.003,15.472 30,16Z" style="fill:rgb(252,26,77);fill-rule:nonzero;"/>
            </g>
        </g>
        <g id="Bottom-R" serif:id="Bottom R">
            <g transform="matrix(1,0,0,1,579.512,820.701)">
                <g transform="matrix(83.3333,0,0,83.3333,128.286,179.483)">
                </g>
                <text x="70.202px" y="179.483px" style="font-family:'LobsterTwo-Bold', 'Lobster Two';font-weight:700;font-size:83.333px;fill:rgb(252,26,77);">Q</text>
            </g>
            <g transform="matrix(2.74304,0,0,2.74304,634.85,833.423)">
                <path d="M30,16C30.001,16.529 29.791,17.037 29.416,17.41L17.41,29.418C16.635,30.188 15.365,30.188 14.59,29.418L2.59,17.41C1.82,16.635 1.82,15.365 2.59,14.59L14.596,2.582C15.371,1.812 16.641,1.812 17.416,2.582L29.423,14.59C29.795,14.964 30.003,15.472 30,16Z" style="fill:rgb(252,26,77);fill-rule:nonzero;"/>
            </g>
        </g>
        <g id="Title" transform="matrix(1,0,0,1,60.4882,604.89)">
            <g transform="matrix(58.3333,0,0,58.3333,538.505,178.322)">
            </g>
            <text x="84.613px" y="178.322px" style="font-family:'MarkerFelt-Thin', 'Marker Felt';font-size:58.333px;fill:rgb(252,26,77);">QUEST<tspan x="233.363px 247.363px " y="178.322px 178.322px ">IO</tspan>N M<tspan x="384.213px 421.663px 450.247px 478.247px 505.255px " y="178.322px 178.322px 178.322px 178.322px 178.322px ">ASTER</tspan></text>
        </g>
        <g id="Icon" transform="matrix(16.9463,0,0,16.9463,100.907,139.678)">
            <path d="M24,12C24,15.564 20.941,18.514 17,18.945L17,20C17,20.549 16.549,21 16,21C15.451,21 15,20.549 15,20L15,18C15,17.451 15.451,17 16,17C19.309,17 22,14.758 22,12C22,9.243 19.309,7 16,7C12.691,7 10,9.243 10,12C10,12.549 9.549,13 9,13C8.451,13 8,12.549 8,12C8,8.14 11.589,5 16,5C20.411,5 24,8.14 24,12ZM16,24C14.903,24 14,24.903 14,26C14,27.097 14.903,28 16,28C17.097,28 18,27.097 18,26C18,24.903 17.097,24 16,24Z" style="fill:rgb(252,26,77);fill-rule:nonzero;"/>
        </g>
    </g>
</svg>
