<?xml version="1.0" encoding="UTF-8" standalone="no"?>
<!DOCTYPE svg PUBLIC "-//W3C//DTD SVG 1.1//EN" "http://www.w3.org/Graphics/SVG/1.1/DTD/svg11.dtd">
<svg width="100%" height="100%" viewBox="0 0 745 1040" version="1.1" xmlns="http://www.w3.org/2000/svg" xmlns:xlink="http://www.w3.org/1999/xlink" xml:space="preserve" xmlns:serif="http://www.serif.com/" style="fill-rule:evenodd;clip-rule:evenodd;stroke-linecap:round;stroke-linejoin:round;stroke-miterlimit:3;">
    <g id="Card-Body" serif:id="Card Body" transform="matrix(3.22119,0,0,3.57172,-628.132,-346.457)">
        <path d="M426,113.534L426,371.466C426,380.591 417.785,388 407.667,388L213.333,388C203.215,388 195,380.591 195,371.466L195,113.534C195,104.409 203.215,97 213.333,97L407.667,97C417.785,97 426,104.409 426,113.534Z" style="fill:rgb(242,242,242);stroke:rgb(30,30,30);stroke-width:0.25px;"/>
    </g>
    <g id="_6" serif:id="6">
        <g id="Top-L" serif:id="Top L">
            <g transform="matrix(1,0,0,1,-34,-77)">
                <g transform="matrix(83.3333,0,0,83.3333,122.244,179.483)">
                </g>
                <text x="76.244px" y="179.483px" style="font-family:'LobsterTwo-Bold', 'Lobster Two';font-weight:700;font-size:83.333px;fill:rgb(252,26,77);">6</text>
            </g>
            <g transform="matrix(2.74304,0,0,2.74304,21.3386,118.8)">
                <path d="M30,16C30.001,16.529 29.791,17.037 29.416,17.41L17.41,29.418C16.635,30.188 15.365,30.188 14.59,29.418L2.59,17.41C1.82,16.635 1.82,15.365 2.59,14.59L14.596,2.582C15.371,1.812 16.641,1.812 17.416,2.582L29.423,14.59C29.795,14.964 30.003,15.472 30,16Z" style="fill:rgb(252,26,77);fill-rule:nonzero;"/>
            </g>
        </g>
        <g id="Bottom-R" serif:id="Bottom R">
            <g transform="matrix(1,0,0,1,579.512,820.701)">
                <g transform="matrix(83.3333,0,0,83.3333,122.244,179.483)">
                </g>
                <text x="76.244px" y="179.483px" style="font-family:'LobsterTwo-Bold', 'Lobster Two';font-weight:700;font-size:83.333px;fill:rgb(252,26,77);">6</text>
            </g>
            <g transform="matrix(2.74304,0,0,2.74304,634.85,833.423)">
                <path d="M30,16C30.001,16.529 29.791,17.037 29.416,17.41L17.41,29.418C16.635,30.188 15.365,30.188 14.59,29.418L2.59,17.41C1.82,16.635 1.82,15.365 2.59,14.59L14.596,2.582C15.371,1.812 16.641,1.812 17.416,2.582L29.423,14.59C29.795,14.964 30.003,15.472 30,16Z" style="fill:rgb(252,26,77);fill-rule:nonzero;"/>
            </g>
        </g>
        <g id="Title" transform="matrix(1,0,0,1,-34.0945,604.89)">
            <g transform="matrix(66.6667,0,0,66.6667,542.747,181.788)">
            </g>
            <text x="269.347px" y="181.788px" style="font-family:'MarkerFelt-Thin', 'Marker Felt';font-size:66.667px;fill:rgb(252,26,77);">M<tspan x="333.614px 352.881px 393.547px " y="181.788px 181.788px 181.788px ">IX </tspan>IT U<tspan x="512.747px " y="181.788px ">P</tspan></text>
        </g>
        <g>
            <g transform="matrix(-0.604776,0.116517,-0.11822,-0.613618,1307.85,485.472)">
                <path d="M1154.53,253.083C1165.26,263.378 1175.96,273.717 1186.33,284.363C1189.63,287.743 1195.11,286.749 1197.52,282.921C1263.3,178.615 1384.59,120.85 1502.54,97.839C1508.22,131.196 1513.9,164.552 1519.58,197.909C1418.95,209.228 1309.16,238.528 1237.97,314.153C1235.5,316.77 1234.27,321.517 1236.61,324.678C1243.7,334.243 1250.79,343.81 1257.88,353.378C1219.13,363.864 1180.73,374.742 1141.31,382.536C1144.06,339.207 1150.87,296.313 1154.53,253.083ZM1566.85,143.582C1564.9,132.068 1562.95,120.553 1560.99,109.038C1558.61,95.075 1525.07,84.748 1514.26,79.642C1513.8,79.429 1513.36,79.303 1512.91,79.162C1512.77,79.117 1512.64,79.053 1512.49,79.015C1512.32,78.969 1512.16,78.943 1511.98,78.909C1510.46,78.552 1508.85,78.486 1507.39,78.747C1386.97,100.303 1254.6,158.831 1189.66,268.092C1177.96,257.44 1166.46,246.548 1155.02,235.607C1154.19,233.87 1152.57,232.909 1150.73,232.629C1148.7,232.1 1146.65,232.722 1145.09,233.985C1144.97,234.074 1144.86,234.174 1144.75,234.27C1144.28,234.703 1143.87,235.189 1143.52,235.721C1143.39,235.931 1143.25,236.136 1143.14,236.367C1142.84,236.959 1142.66,237.596 1142.56,238.248C1142.52,238.453 1142.41,238.6 1142.38,238.816C1136.87,290.228 1127.17,340.905 1124.24,392.614C1124.09,395.175 1125.19,397.152 1126.84,398.531C1126.86,398.546 1126.88,398.561 1126.9,398.576C1127.29,398.894 1127.7,399.177 1128.15,399.423C1128.23,399.474 1128.3,399.537 1128.39,399.589C1142.55,407.296 1157.08,413.558 1170.66,422.329C1179.26,427.882 1200.24,419.021 1209.32,417.227C1245.72,410.03 1281.15,398.774 1316.98,389.315C1321.96,387.999 1325.49,381.163 1322.15,376.623C1314.07,365.679 1306.01,354.738 1297.94,343.795C1368.48,273.414 1475.99,246.791 1572.26,237.082C1578.38,236.464 1581.86,231.911 1580.83,225.836C1576.17,198.417 1571.52,171.001 1566.85,143.582Z" style="fill:rgb(252,26,77);fill-rule:nonzero;"/>
            </g>
            <g transform="matrix(-0.604776,0.116517,-0.11822,-0.613618,1307.85,485.472)">
                <path d="M1533.46,258.161C1497.47,260.622 1461.87,269.571 1427.92,281.503C1392.23,294.045 1356.32,311.581 1329.59,338.819C1329.18,339.228 1329.77,339.766 1330.2,339.432C1390.03,292.512 1460.18,273.212 1533.65,259.576C1534.45,259.429 1534.27,258.107 1533.46,258.161Z" style="fill:rgb(252,26,77);fill-rule:nonzero;"/>
            </g>
            <g transform="matrix(-0.604776,0.116517,-0.11822,-0.613618,1307.85,485.472)">
                <path d="M1541.05,256.848C1540.79,256.959 1540.94,257.332 1541.18,257.341C1546.27,257.563 1551.94,257.353 1556.66,255.373C1557.02,255.219 1557,254.678 1556.56,254.664C1551.52,254.498 1545.76,254.802 1541.05,256.848Z" style="fill:rgb(252,26,77);fill-rule:nonzero;"/>
            </g>
            <g transform="matrix(-0.604776,0.116517,-0.11822,-0.613618,1307.85,485.472)">
                <path d="M1239.94,190.715C1259.1,172.879 1278.61,156.548 1301.01,142.849C1323.67,128.99 1348.17,119.147 1372.34,108.353C1373.19,107.975 1372.57,106.697 1371.73,106.902C1344.15,113.614 1318.39,126.962 1294.44,141.938C1273.94,154.748 1253.37,170.349 1239.26,190.189C1238.96,190.607 1239.59,191.037 1239.94,190.715Z" style="fill:rgb(252,26,77);fill-rule:nonzero;"/>
            </g>
            <g transform="matrix(-0.604776,0.116517,-0.11822,-0.613618,1307.85,485.472)">
                <path d="M1318.96,118.188C1319.55,117.761 1319.21,116.607 1318.42,116.914C1306.34,121.619 1292.96,128.837 1284.47,138.837C1284.18,139.177 1284.55,139.736 1284.97,139.477C1296.24,132.485 1308.23,125.968 1318.96,118.188Z" style="fill:rgb(252,26,77);fill-rule:nonzero;"/>
            </g>
            <g transform="matrix(-0.604776,0.116517,-0.11822,-0.613618,1307.85,485.472)">
                <path d="M1143.16,414.796C1132.6,409.048 1114.25,406.5 1114.68,392.545C1115.46,366.77 1123.23,338.993 1118.83,313.423C1118.79,313.188 1118.42,313.194 1118.37,313.423C1115.81,326.346 1115.75,339.835 1114.33,352.942C1112.5,369.844 1110.66,386.725 1110.46,403.741C1110.45,404.655 1111.08,405.382 1111.92,405.655C1132.04,412.251 1149.79,423.258 1168.61,432.68C1169.09,432.924 1169.69,432.263 1169.22,431.887C1160.98,425.361 1152.41,419.826 1143.16,414.796Z" style="fill:rgb(252,26,77);fill-rule:nonzero;"/>
            </g>
            <g transform="matrix(-0.604776,0.116517,-0.11822,-0.613618,1307.85,485.472)">
                <path d="M1210.8,426.914C1210.26,427.086 1210.48,427.858 1211.03,427.75C1243.34,421.31 1276.83,412.738 1306.97,399.279C1307.43,399.074 1307.1,398.363 1306.64,398.488C1274.58,407.236 1242.46,416.815 1210.8,426.914Z" style="fill:rgb(252,26,77);fill-rule:nonzero;"/>
            </g>
            <g transform="matrix(-0.604776,0.116517,-0.11822,-0.613618,1307.85,485.472)">
                <path d="M1583.22,162.371C1581.56,146.632 1580.28,130.171 1575.72,114.972C1575.66,114.772 1575.33,114.802 1575.34,115.024C1576.28,132.56 1579.26,150.126 1580.92,167.633C1582.49,184.243 1583.66,200.98 1587.24,217.299C1587.39,217.987 1588.5,217.837 1588.47,217.134C1587.56,198.846 1585.14,180.577 1583.22,162.371Z" style="fill:rgb(252,26,77);fill-rule:nonzero;"/>
            </g>
            <g transform="matrix(-0.43047,0.082935,-0.0822776,-0.427058,915.353,531.383)">
                <path d="M1437.84,311.391C1426.46,317.064 1419.92,327.611 1421.69,340.292C1422.59,346.821 1426.67,352.296 1431.81,356.349C1432.98,357.494 1434.23,358.546 1435.54,359.45C1446.43,366.95 1460.86,364.889 1469.34,355.063C1487.94,333.531 1464.93,297.882 1437.84,311.391Z" style="fill:rgb(252,26,77);fill-rule:nonzero;"/>
            </g>
            <g transform="matrix(-0.479176,0.0923186,-0.0971529,-0.504268,994.876,544.111)">
                <path d="M1572.99,307.912C1562.36,292.972 1544.38,291.653 1528.81,299.177C1507.39,309.531 1506.03,333.552 1517.7,349.351C1520.31,353.386 1523.86,357.008 1527.65,359.685C1542.49,370.183 1561.75,366.325 1572.47,352.218C1582.31,339.264 1582.41,321.139 1572.99,307.912Z" style="fill:rgb(252,26,77);fill-rule:nonzero;"/>
            </g>
            <g transform="matrix(-0.604776,0.116517,-0.11822,-0.613618,1307.85,485.472)">
                <path d="M1228.71,132.845C1230.89,116.697 1220.98,101.268 1203.9,99.814C1186.35,98.318 1171.89,112.458 1170.8,129.465C1170.23,138.281 1174.24,147.647 1181.27,152.933C1186.1,157.515 1192.26,160.622 1199.1,160.953C1214.65,161.704 1226.76,147.254 1228.71,132.845Z" style="fill:rgb(252,26,77);fill-rule:nonzero;"/>
            </g>
            <g transform="matrix(0.604776,-0.116517,0.11822,0.613618,-526.619,353.111)">
                <path d="M1154.53,253.083C1165.26,263.378 1175.96,273.717 1186.33,284.363C1189.63,287.743 1195.11,286.749 1197.52,282.921C1263.3,178.615 1384.59,120.85 1502.54,97.839C1508.22,131.196 1513.9,164.552 1519.58,197.909C1418.95,209.228 1309.16,238.528 1237.97,314.153C1235.5,316.77 1234.27,321.517 1236.61,324.678C1243.7,334.243 1250.79,343.81 1257.88,353.378C1219.13,363.864 1180.73,374.742 1141.31,382.536C1144.06,339.207 1150.87,296.313 1154.53,253.083ZM1566.85,143.582C1564.9,132.068 1562.95,120.553 1560.99,109.038C1558.61,95.075 1525.07,84.748 1514.26,79.642C1513.8,79.429 1513.36,79.303 1512.91,79.162C1512.77,79.117 1512.64,79.053 1512.49,79.015C1512.32,78.969 1512.16,78.943 1511.98,78.909C1510.46,78.552 1508.85,78.486 1507.39,78.747C1386.97,100.303 1254.6,158.831 1189.66,268.092C1177.96,257.44 1166.46,246.548 1155.02,235.607C1154.19,233.87 1152.57,232.909 1150.73,232.629C1148.7,232.1 1146.65,232.722 1145.09,233.985C1144.97,234.074 1144.86,234.174 1144.75,234.27C1144.28,234.703 1143.87,235.189 1143.52,235.721C1143.39,235.931 1143.25,236.136 1143.14,236.367C1142.84,236.959 1142.66,237.596 1142.56,238.248C1142.52,238.453 1142.41,238.6 1142.38,238.816C1136.87,290.228 1127.17,340.905 1124.24,392.614C1124.09,395.175 1125.19,397.152 1126.84,398.531C1126.86,398.546 1126.88,398.561 1126.9,398.576C1127.29,398.894 1127.7,399.177 1128.15,399.423C1128.23,399.474 1128.3,399.537 1128.39,399.589C1142.55,407.296 1157.08,413.558 1170.66,422.329C1179.26,427.882 1200.24,419.021 1209.32,417.227C1245.72,410.03 1281.15,398.774 1316.98,389.315C1321.96,387.999 1325.49,381.163 1322.15,376.623C1314.07,365.679 1306.01,354.738 1297.94,343.795C1368.48,273.414 1475.99,246.791 1572.26,237.082C1578.38,236.464 1581.86,231.911 1580.83,225.836C1576.17,198.417 1571.52,171.001 1566.85,143.582Z" style="fill:rgb(252,26,77);fill-rule:nonzero;"/>
            </g>
            <g transform="matrix(0.604776,-0.116517,0.11822,0.613618,-526.619,353.111)">
                <path d="M1533.46,258.161C1497.47,260.622 1461.87,269.571 1427.92,281.503C1392.23,294.045 1356.32,311.581 1329.59,338.819C1329.18,339.228 1329.77,339.766 1330.2,339.432C1390.03,292.512 1460.18,273.212 1533.65,259.576C1534.45,259.429 1534.27,258.107 1533.46,258.161Z" style="fill:rgb(252,26,77);fill-rule:nonzero;"/>
            </g>
            <g transform="matrix(0.604776,-0.116517,0.11822,0.613618,-526.619,353.111)">
                <path d="M1541.05,256.848C1540.79,256.959 1540.94,257.332 1541.18,257.341C1546.27,257.563 1551.94,257.353 1556.66,255.373C1557.02,255.219 1557,254.678 1556.56,254.664C1551.52,254.498 1545.76,254.802 1541.05,256.848Z" style="fill:rgb(252,26,77);fill-rule:nonzero;"/>
            </g>
            <g transform="matrix(0.604776,-0.116517,0.11822,0.613618,-526.619,353.111)">
                <path d="M1239.94,190.715C1259.1,172.879 1278.61,156.548 1301.01,142.849C1323.67,128.99 1348.17,119.147 1372.34,108.353C1373.19,107.975 1372.57,106.697 1371.73,106.902C1344.15,113.614 1318.39,126.962 1294.44,141.938C1273.94,154.748 1253.37,170.349 1239.26,190.189C1238.96,190.607 1239.59,191.037 1239.94,190.715Z" style="fill:rgb(252,26,77);fill-rule:nonzero;"/>
            </g>
            <g transform="matrix(0.604776,-0.116517,0.11822,0.613618,-526.619,353.111)">
                <path d="M1318.96,118.188C1319.55,117.761 1319.21,116.607 1318.42,116.914C1306.34,121.619 1292.96,128.837 1284.47,138.837C1284.18,139.177 1284.55,139.736 1284.97,139.477C1296.24,132.485 1308.23,125.968 1318.96,118.188Z" style="fill:rgb(252,26,77);fill-rule:nonzero;"/>
            </g>
            <g transform="matrix(0.604776,-0.116517,0.11822,0.613618,-526.619,353.111)">
                <path d="M1143.16,414.796C1132.6,409.048 1114.25,406.5 1114.68,392.545C1115.46,366.77 1123.23,338.993 1118.83,313.423C1118.79,313.188 1118.42,313.194 1118.37,313.423C1115.81,326.346 1115.75,339.835 1114.33,352.942C1112.5,369.844 1110.66,386.725 1110.46,403.741C1110.45,404.655 1111.08,405.382 1111.92,405.655C1132.04,412.251 1149.79,423.258 1168.61,432.68C1169.09,432.924 1169.69,432.263 1169.22,431.887C1160.98,425.361 1152.41,419.826 1143.16,414.796Z" style="fill:rgb(252,26,77);fill-rule:nonzero;"/>
            </g>
            <g transform="matrix(0.604776,-0.116517,0.11822,0.613618,-526.619,353.111)">
                <path d="M1210.8,426.914C1210.26,427.086 1210.48,427.858 1211.03,427.75C1243.34,421.31 1276.83,412.738 1306.97,399.279C1307.43,399.074 1307.1,398.363 1306.64,398.488C1274.58,407.236 1242.46,416.815 1210.8,426.914Z" style="fill:rgb(252,26,77);fill-rule:nonzero;"/>
            </g>
            <g transform="matrix(0.604776,-0.116517,0.11822,0.613618,-526.619,353.111)">
                <path d="M1583.22,162.371C1581.56,146.632 1580.28,130.171 1575.72,114.972C1575.66,114.772 1575.33,114.802 1575.34,115.024C1576.28,132.56 1579.26,150.126 1580.92,167.633C1582.49,184.243 1583.66,200.98 1587.24,217.299C1587.39,217.987 1588.5,217.837 1588.47,217.134C1587.56,198.846 1585.14,180.577 1583.22,162.371Z" style="fill:rgb(252,26,77);fill-rule:nonzero;"/>
            </g>
            <g transform="matrix(0.604776,-0.116517,0.11822,0.613618,-423.677,285.026)">
                <path d="M1437.84,311.391C1426.46,317.064 1419.92,327.611 1421.69,340.292C1422.59,346.821 1426.67,352.296 1431.81,356.349C1432.98,357.494 1434.23,358.546 1435.54,359.45C1446.43,366.95 1460.86,364.889 1469.34,355.063C1487.94,333.531 1464.93,297.882 1437.84,311.391Z" style="fill:rgb(252,26,77);fill-rule:nonzero;"/>
            </g>
            <g transform="matrix(0.604776,-0.116517,0.11822,0.613618,-423.677,285.026)">
                <path d="M1572.99,307.912C1562.36,292.972 1544.38,291.653 1528.81,299.177C1507.39,309.531 1506.03,333.552 1517.7,349.351C1520.31,353.386 1523.86,357.008 1527.65,359.685C1542.49,370.183 1561.75,366.325 1572.47,352.218C1582.31,339.264 1582.41,321.139 1572.99,307.912Z" style="fill:rgb(252,26,77);fill-rule:nonzero;"/>
            </g>
            <g transform="matrix(0.604776,-0.116517,0.11822,0.613618,-526.619,353.111)">
                <path d="M1228.71,132.845C1230.89,116.697 1220.98,101.268 1203.9,99.814C1186.35,98.318 1171.89,112.458 1170.8,129.465C1170.23,138.281 1174.24,147.647 1181.27,152.933C1186.1,157.515 1192.26,160.622 1199.1,160.953C1214.65,161.704 1226.76,147.254 1228.71,132.845Z" style="fill:rgb(252,26,77);fill-rule:nonzero;"/>
            </g>
        </g>
    </g>
</svg>
