<?xml version="1.0" encoding="UTF-8" standalone="no"?>
<!DOCTYPE svg PUBLIC "-//W3C//DTD SVG 1.1//EN" "http://www.w3.org/Graphics/SVG/1.1/DTD/svg11.dtd">
<svg width="100%" height="100%" viewBox="0 0 745 1040" version="1.1" xmlns="http://www.w3.org/2000/svg" xmlns:xlink="http://www.w3.org/1999/xlink" xml:space="preserve" xmlns:serif="http://www.serif.com/" style="fill-rule:evenodd;clip-rule:evenodd;stroke-linecap:round;stroke-linejoin:round;stroke-miterlimit:3;">
    <g id="Card-Body" serif:id="Card Body" transform="matrix(3.22119,0,0,3.57172,-628.132,-346.457)">
        <path d="M426,113.534L426,371.466C426,380.591 417.785,388 407.667,388L213.333,388C203.215,388 195,380.591 195,371.466L195,113.534C195,104.409 203.215,97 213.333,97L407.667,97C417.785,97 426,104.409 426,113.534Z" style="fill:rgb(242,242,242);stroke:rgb(30,30,30);stroke-width:0.25px;"/>
    </g>
    <g id="_10" serif:id="10">
        <g id="Top-L" serif:id="Top L">
            <g transform="matrix(1,0,0,1,-34,-77)">
                <g transform="matrix(83.3333,0,0,83.3333,137.994,179.483)">
                </g>
                <text x="60.494px" y="179.483px" style="font-family:'LobsterTwo-Bold', 'Lobster Two';font-weight:700;font-size:83.333px;fill:rgb(252,26,77);">10</text>
            </g>
            <g transform="matrix(2.74304,0,0,2.74304,21.3386,118.8)">
                <path d="M30,16C30.001,16.529 29.791,17.037 29.416,17.41L17.41,29.418C16.635,30.188 15.365,30.188 14.59,29.418L2.59,17.41C1.82,16.635 1.82,15.365 2.59,14.59L14.596,2.582C15.371,1.812 16.641,1.812 17.416,2.582L29.423,14.59C29.795,14.964 30.003,15.472 30,16Z" style="fill:rgb(252,26,77);fill-rule:nonzero;"/>
            </g>
        </g>
        <g id="Bottom-R" serif:id="Bottom R">
            <g transform="matrix(1,0,0,1,579.512,820.701)">
                <g transform="matrix(83.3333,0,0,83.3333,137.994,179.483)">
                </g>
                <text x="60.494px" y="179.483px" style="font-family:'LobsterTwo-Bold', 'Lobster Two';font-weight:700;font-size:83.333px;fill:rgb(252,26,77);">10</text>
            </g>
            <g transform="matrix(2.74304,0,0,2.74304,634.85,833.423)">
                <path d="M30,16C30.001,16.529 29.791,17.037 29.416,17.41L17.41,29.418C16.635,30.188 15.365,30.188 14.59,29.418L2.59,17.41C1.82,16.635 1.82,15.365 2.59,14.59L14.596,2.582C15.371,1.812 16.641,1.812 17.416,2.582L29.423,14.59C29.795,14.964 30.003,15.472 30,16Z" style="fill:rgb(252,26,77);fill-rule:nonzero;"/>
            </g>
        </g>
        <g id="Title" transform="matrix(1,0,0,1,-33.9055,604.89)">
            <g transform="matrix(66.6667,0,0,66.6667,564.653,181.788)">
            </g>
            <text x="247.253px" y="181.788px" style="font-family:'MarkerFelt-Thin', 'Marker Felt';font-size:66.667px;fill:rgb(252,26,77);">CA<tspan x="313.519px 345.519px 374.186px 409.653px 445.653px 487.319px 503.319px " y="181.788px 181.788px 181.788px 181.788px 181.788px 181.788px 181.788px ">TEGORIE</tspan>S</text>
        </g>
        <g transform="matrix(0.1122,-0.0221307,0.0221307,0.1122,288.249,214.314)">
            <g transform="matrix(4.16667,0,0,4.16667,-8290.51,0)">
                <path d="M2373.55,798.585C2368.47,801.326 2365.97,807.251 2365.42,812.708C2364.77,819.151 2368.5,824.703 2374.4,827.011C2380.75,829.499 2390.8,826.386 2393.61,819.968C2393.87,819.386 2394.09,818.796 2394.27,818.202C2397.26,812.804 2394.49,806.412 2390.91,802.023C2386.63,796.782 2379.44,795.412 2373.55,798.585Z" style="fill:rgb(252,26,77);fill-rule:nonzero;"/>
            </g>
            <g transform="matrix(4.16667,0,0,4.16667,-8290.51,0)">
                <path d="M2426.69,758.153C2421.45,758.537 2416.8,761.121 2414.23,765.833C2411.32,771.157 2411.74,777.239 2412.76,782.996C2413.2,785.512 2414.95,787.447 2417.16,788.585C2419.25,791.034 2422.09,792.827 2425.24,793.309C2436.84,795.076 2449.28,783.465 2445.55,771.542C2443.15,763.874 2434.91,757.528 2426.69,758.153Z" style="fill:rgb(252,26,77);fill-rule:nonzero;"/>
            </g>
            <g transform="matrix(-4.16244,-0.187702,0.187702,-4.16244,9796.17,6525.16)">
                <path d="M2373.55,798.585C2368.47,801.326 2365.97,807.251 2365.42,812.708C2364.77,819.151 2368.5,824.703 2374.4,827.011C2380.75,829.499 2390.8,826.386 2393.61,819.968C2393.87,819.386 2394.09,818.796 2394.27,818.202C2397.26,812.804 2394.49,806.412 2390.91,802.023C2386.63,796.782 2379.44,795.412 2373.55,798.585Z" style="fill:rgb(252,26,77);fill-rule:nonzero;"/>
            </g>
            <g transform="matrix(-4.16244,-0.187702,0.187702,-4.16244,9796.17,6525.16)">
                <path d="M2426.69,758.153C2421.45,758.537 2416.8,761.121 2414.23,765.833C2411.32,771.157 2411.74,777.239 2412.76,782.996C2413.2,785.512 2414.95,787.447 2417.16,788.585C2419.25,791.034 2422.09,792.827 2425.24,793.309C2436.84,795.076 2449.28,783.465 2445.55,771.542C2443.15,763.874 2434.91,757.528 2426.69,758.153Z" style="fill:rgb(252,26,77);fill-rule:nonzero;"/>
            </g>
            <g transform="matrix(-8.1428,3.55068,-3.55068,-8.1428,22024,700.308)">
                <path d="M2373.55,798.585C2368.47,801.326 2365.97,807.251 2365.42,812.708C2364.77,819.151 2368.5,824.703 2374.4,827.011C2380.75,829.499 2390.8,826.386 2393.61,819.968C2393.87,819.386 2394.09,818.796 2394.27,818.202C2397.26,812.804 2394.49,806.412 2390.91,802.023C2386.63,796.782 2379.44,795.412 2373.55,798.585Z" style="fill:rgb(252,26,77);fill-rule:nonzero;"/>
            </g>
            <g transform="matrix(-8.1428,3.55068,-3.55068,-8.1428,21705.9,-2115.17)">
                <path d="M2426.69,758.153C2421.45,758.537 2416.8,761.121 2414.23,765.833C2411.32,771.157 2411.74,777.239 2412.76,782.996C2413.2,785.512 2414.95,787.447 2417.16,788.585C2419.25,791.034 2422.09,792.827 2425.24,793.309C2436.84,795.076 2449.28,783.465 2445.55,771.542C2443.15,763.874 2434.91,757.528 2426.69,758.153Z" style="fill:rgb(252,26,77);fill-rule:nonzero;"/>
            </g>
            <g transform="matrix(4.16667,0,0,4.16667,-8290.51,0)">
                <path d="M2481.32,472.017C2492.2,479.517 2506.63,477.45 2515.12,467.631C2533.71,446.092 2510.7,410.444 2483.62,423.953C2472.23,429.626 2465.7,440.178 2467.46,452.859C2468.37,459.404 2472.45,464.905 2477.62,468.959C2478.77,470.09 2480.02,471.122 2481.32,472.017Z" style="fill:rgb(252,26,77);fill-rule:nonzero;"/>
            </g>
            <g transform="matrix(4.16667,0,0,4.16667,-8290.51,0)">
                <path d="M2512.66,320.666C2511.99,359.887 2483.9,360.666 2451.73,364.419C2348.24,376.492 2244.97,390.636 2141.66,404.088C2112.96,407.823 2059.96,423.58 2040.17,397.012C2026.17,378.214 2024.37,349.304 2021,326.621C2016.27,294.749 2012.41,262.637 2010.68,230.452C2009.66,211.42 2009.31,188.89 2021.58,173.07C2037.03,153.145 2074.9,150.077 2098.28,146.309C2098.28,146.309 2098.28,146.312 2098.29,146.312C2205.09,136.093 2311.14,118.707 2418.07,109.47C2438.57,107.7 2463.83,104.167 2480.12,119.11C2499.96,137.298 2499.38,187.559 2503.03,212.583C2508.25,248.286 2513.28,284.506 2512.66,320.666ZM2471.76,519.785C2495.67,541.125 2516.47,563.559 2496.89,596.9C2478.36,628.46 2451.16,657.324 2427.76,685.329C2409.85,706.777 2374.68,759.727 2342.45,744.439C2320.12,733.85 2300.06,711.326 2280.89,695.449C2201.67,629.812 2121.8,564.977 2042.24,499.761C2030.31,489.989 2017.91,480.401 2008.52,468.057C1992.68,447.261 2008.73,420.951 2024.93,399.986C2034.51,415.684 2049.13,426.261 2072.39,427.129C2065.63,442.594 2071.88,457.098 2082.87,465.262C2099.07,477.285 2116.89,471.846 2127.26,459.977C2136.26,449.695 2139.64,434.597 2131.52,421.859C2146.05,419.663 2160.51,417.209 2174.71,415.353C2183.29,414.234 2191.87,413.152 2200.46,412.085C2190.93,428.876 2197.34,445.037 2209.18,453.835C2225.38,465.863 2243.21,460.422 2253.57,448.55C2263.71,436.941 2266.71,419.2 2254.1,405.65C2278.17,402.841 2302.27,400.082 2326.36,397.222C2375.31,437.51 2424.47,477.563 2471.76,519.785ZM1846.03,538.52C1837.36,545.118 1828.72,551.735 1819.86,558.087C1783.82,583.959 1758.74,564.761 1733.44,534.051C1715.94,512.826 1699.4,490.782 1683.31,468.472C1667.45,446.459 1647.32,421.324 1644.17,393.46C1640.9,364.554 1677.97,339.181 1697.77,323.1C1697.79,323.091 1697.8,323.093 1697.81,323.085C1785.34,261.032 1868.64,193.136 1956.77,131.877C1976.56,118.118 2000.27,100.225 2024.41,113.761C2034.87,119.623 2044.8,129.221 2054.16,140.265C2035.62,144.849 2019.21,152.53 2008.37,166.92C2001.56,166.379 1994.26,168.247 1987.17,173.485C1973.61,183.503 1967.15,203.538 1980.71,220.161C1984.73,225.081 1989.12,228.501 1993.62,230.674C1993.67,251.766 1996.33,273.499 1999.68,294.816C1990.5,290.83 1979.48,291.193 1968.93,298.989C1955.37,309.013 1948.91,329.049 1962.47,345.66C1977.19,363.661 1996.7,361.788 2009.15,351.442C2011.16,363.142 2013.77,374.473 2017.59,384.655C2016.02,386.741 2014.46,388.82 2012.9,390.882C2003.25,403.665 1996.4,415.596 1992.58,426.966C1943.69,464.105 1894.89,501.356 1846.03,538.52ZM2525.42,272.123C2522.52,240.579 2517.7,209.155 2512.82,177.868C2509.05,153.689 2506.78,128.046 2490.69,108.542C2475.11,89.654 2443.8,92.56 2422.1,94.212C2389.14,96.728 2356.27,100.783 2323.44,104.593C2247.81,113.377 2171.84,121.79 2096.63,133.746C2087.25,134.707 2077.78,135.772 2068.6,137.314C2044.54,107.088 2017.23,82.59 1975.35,102.551C1927.71,125.26 1884.37,165.594 1842.44,196.973C1791.39,235.17 1739.79,272.91 1690.18,312.952C1650.7,341.417 1612.9,373.241 1637.33,424.84C1658.48,469.53 1693.47,510.028 1724.78,548.006C1759.27,589.836 1791.61,598.76 1835.31,566.08C1864.9,543.952 1894.13,521.329 1923.52,498.934C1945.37,482.285 1967.23,465.655 1989.09,449.02C1989.73,467.509 1999.96,484.879 2021.21,502.558C2049.61,526.191 2078.4,549.37 2107.01,572.751C2152.26,609.719 2197.47,646.717 2242.67,683.721C2259.25,697.3 2275.82,710.894 2292.34,724.56C2309.49,738.754 2327.85,758.931 2350.81,762.729C2371.57,766.163 2389.95,747.384 2403.42,734.532C2430.56,708.64 2453.6,677.853 2476.73,648.442C2493.33,627.321 2512.56,606.357 2520.82,580.407C2528.11,557.501 2509.9,535.629 2494.96,520.9C2456.05,482.543 2411.96,448.626 2369.96,413.776C2362.32,407.442 2354.7,401.085 2347.07,394.732C2393.61,389.062 2440.04,382.829 2486.02,374.863C2536.54,366.113 2529.07,311.793 2525.42,272.123Z" style="fill:rgb(252,26,77);fill-rule:nonzero;"/>
            </g>
            <g transform="matrix(4.16667,0,0,4.16667,-8290.51,0)">
                <path d="M2252.32,143.22C2252.02,142.46 2250.98,142.577 2250.91,143.413C2246.94,187.76 2259.94,236.726 2265.61,280.744C2269.58,311.588 2273.99,342.195 2280.57,372.601C2280.95,374.365 2283.74,373.956 2283.69,372.18C2282.84,339.034 2279.36,306.342 2274.99,273.484C2269.37,231.14 2268.14,182.97 2252.32,143.22Z" style="fill:rgb(252,26,77);fill-rule:nonzero;"/>
            </g>
            <g transform="matrix(4.16667,0,0,4.16667,-8290.51,0)">
                <path d="M2391.68,167.658C2355,171.898 2320.74,202.18 2328.25,247.255C2336.41,296.267 2375.68,313.319 2410.72,307.144C2454.24,299.476 2472.47,263.812 2469.25,230.389C2465.85,195.062 2438.47,162.243 2391.68,167.658Z" style="fill:rgb(252,26,77);fill-rule:nonzero;"/>
            </g>
            <g transform="matrix(4.16667,0,0,4.16667,-8290.51,0)">
                <path d="M2083.44,308.704C2069.59,310.305 2056.66,321.738 2059.49,338.758C2062.57,357.259 2077.4,363.697 2090.63,361.366C2107.06,358.469 2113.94,345.005 2112.72,332.39C2111.44,319.049 2101.11,306.657 2083.44,308.704Z" style="fill:rgb(252,26,77);fill-rule:nonzero;"/>
            </g>
            <g transform="matrix(4.16667,0,0,4.16667,-8290.51,0)">
                <path d="M2137.21,246.799C2123.36,248.397 2110.44,259.83 2113.26,276.85C2116.34,295.353 2131.17,301.793 2144.4,299.461C2160.83,296.564 2167.71,283.1 2166.5,270.483C2165.21,257.144 2154.88,244.752 2137.21,246.799Z" style="fill:rgb(252,26,77);fill-rule:nonzero;"/>
            </g>
            <g transform="matrix(4.16667,0,0,4.16667,-8290.51,0)">
                <path d="M2190.99,184.891C2177.14,186.492 2164.2,197.926 2167.03,214.945C2170.12,233.448 2184.95,239.887 2198.18,237.553C2214.61,234.656 2221.49,221.192 2220.27,208.577C2218.98,195.236 2208.65,182.848 2190.99,184.891Z" style="fill:rgb(252,26,77);fill-rule:nonzero;"/>
            </g>
            <g transform="matrix(4.16667,0,0,4.16667,-8290.51,0)">
                <path d="M1866.5,403.1C1855.29,411.375 1850.06,428.124 1861.51,442.174C1873.96,457.432 1890.27,455.96 1900.56,447.318C1913.34,436.585 1912.22,420.985 1904.5,410.131C1896.34,398.665 1880.8,392.523 1866.5,403.1Z" style="fill:rgb(252,26,77);fill-rule:nonzero;"/>
            </g>
            <g transform="matrix(4.16667,0,0,4.16667,-8290.51,0)">
                <path d="M1783.22,393.076C1772,401.363 1766.78,418.112 1778.23,432.156C1790.69,447.42 1806.98,445.942 1817.28,437.3C1830.06,426.573 1828.94,410.967 1821.22,400.119C1813.06,388.653 1797.52,382.511 1783.22,393.076Z" style="fill:rgb(252,26,77);fill-rule:nonzero;"/>
            </g>
            <g transform="matrix(4.16667,0,0,4.16667,-8290.51,0)">
                <path d="M1914.32,345.347C1888.3,311.375 1863.32,270.335 1829.8,243.718C1829.15,243.205 1828.31,243.827 1828.66,244.593C1847.38,285.161 1882.85,320.828 1909.83,356.384C1928.63,381.144 1947.68,405.47 1968.53,428.548C1969.75,429.9 1971.95,428.154 1971.02,426.627C1953.77,398.295 1934.48,371.673 1914.32,345.347Z" style="fill:rgb(252,26,77);fill-rule:nonzero;"/>
            </g>
            <g transform="matrix(4.16667,0,0,4.16667,-8290.51,0)">
                <path d="M1769.07,475.761C1757.86,484.037 1752.64,500.791 1764.09,514.83C1776.53,530.094 1792.85,528.622 1803.14,519.98C1815.91,509.253 1814.8,493.64 1807.07,482.805C1798.91,471.332 1783.38,465.191 1769.07,475.761Z" style="fill:rgb(252,26,77);fill-rule:nonzero;"/>
            </g>
            <g transform="matrix(4.16667,0,0,4.16667,-8290.51,0)">
                <path d="M1797.37,310.395C1786.14,318.683 1780.93,335.431 1792.37,349.47C1804.82,364.74 1821.13,363.268 1831.42,354.62C1844.2,343.893 1843.08,328.28 1835.36,317.445C1827.2,305.978 1811.67,299.824 1797.37,310.395Z" style="fill:rgb(252,26,77);fill-rule:nonzero;"/>
            </g>
            <g transform="matrix(4.16667,0,0,4.16667,-8290.51,0)">
                <path d="M1699.94,383.058C1688.72,391.345 1683.49,408.1 1694.94,422.144C1707.39,437.402 1723.71,435.936 1733.99,427.282C1746.77,416.561 1745.65,400.948 1737.94,390.107C1729.78,378.641 1714.23,372.493 1699.94,383.058Z" style="fill:rgb(252,26,77);fill-rule:nonzero;"/>
            </g>
            <g transform="matrix(4.16667,0,0,4.16667,-8290.51,0)">
                <path d="M2396.61,610.241C2412.8,622.27 2430.63,616.828 2441,604.959C2451.96,592.408 2454.59,572.685 2438.15,558.844C2425.26,547.982 2404.26,546.35 2391.26,563.405C2377.12,581.957 2383.56,600.56 2396.61,610.241Z" style="fill:rgb(252,26,77);fill-rule:nonzero;"/>
            </g>
            <g transform="matrix(4.16667,0,0,4.16667,-8290.51,0)">
                <path d="M2380.68,627.715C2367.78,616.855 2346.79,615.224 2333.77,632.276C2319.64,650.827 2326.09,669.43 2339.13,679.112C2355.32,691.137 2373.16,685.698 2383.52,673.832C2394.48,661.275 2397.11,641.555 2380.68,627.715Z" style="fill:rgb(252,26,77);fill-rule:nonzero;"/>
            </g>
            <g transform="matrix(4.16667,0,0,4.16667,-8290.51,0)">
                <path d="M2322.42,505.963C2308.28,524.509 2314.73,543.114 2327.77,552.796C2343.96,564.824 2361.79,559.379 2372.16,547.507C2383.13,534.965 2385.76,515.244 2369.31,501.399C2356.42,490.536 2335.43,488.905 2322.42,505.963Z" style="fill:rgb(252,26,77);fill-rule:nonzero;"/>
            </g>
            <g transform="matrix(4.16667,0,0,4.16667,-8290.51,0)">
                <path d="M2185.8,600.088C2184.76,601.606 2187.05,603.249 2188.3,602.009C2211.85,578.628 2233.29,553.652 2254.22,527.91C2281.15,494.815 2315.29,460.951 2333.37,422.159C2333.72,421.393 2332.88,420.777 2332.23,421.285C2297.11,448.959 2270.64,491.708 2242.29,526.275C2222.59,550.296 2203.39,574.469 2185.8,600.088Z" style="fill:rgb(252,26,77);fill-rule:nonzero;"/>
            </g>
            <g transform="matrix(4.16667,0,0,4.16667,-8290.51,0)">
                <path d="M2311.84,570.266C2298.94,559.406 2277.95,557.775 2264.94,574.836C2250.8,593.382 2257.25,611.988 2270.29,621.669C2286.49,633.694 2304.31,628.253 2314.68,616.384C2325.65,603.835 2328.29,584.115 2311.84,570.266Z" style="fill:rgb(252,26,77);fill-rule:nonzero;"/>
            </g>
            <g transform="matrix(4.16667,0,0,4.16667,-8290.51,0)">
                <path d="M1637.8,341.411C1671.43,315.927 1702.28,286.315 1734.97,259.596C1770.13,230.867 1806.24,203.337 1842.82,176.447C1843.31,176.09 1842.87,175.278 1842.34,175.618C1806.57,198.187 1773.48,224.861 1740.65,251.447C1705.72,279.746 1668.13,307.97 1637.45,340.957C1637.24,341.186 1637.53,341.615 1637.8,341.411Z" style="fill:rgb(252,26,77);fill-rule:nonzero;"/>
            </g>
            <g transform="matrix(4.16667,0,0,4.16667,-8290.51,0)">
                <path d="M1850.23,170.336C1854.79,168.076 1859.7,163.984 1862.69,159.867C1862.93,159.533 1862.53,159.014 1862.15,159.16C1857.34,161.003 1852.93,165.726 1849.59,169.507C1849.19,169.963 1849.69,170.603 1850.23,170.336Z" style="fill:rgb(252,26,77);fill-rule:nonzero;"/>
            </g>
            <g transform="matrix(4.16667,0,0,4.16667,-8290.51,0)">
                <path d="M2441.5,393.953C2423.15,396.384 2404.74,396.414 2386.39,398.286C2386.06,398.319 2385.93,398.848 2386.31,398.899C2419.54,403.574 2458.87,395.924 2491.14,387.778C2491.66,387.649 2491.56,386.775 2491.01,386.835C2474.43,388.68 2458.03,391.759 2441.5,393.953Z" style="fill:rgb(252,26,77);fill-rule:nonzero;"/>
            </g>
            <g transform="matrix(4.16667,0,0,4.16667,-8290.51,0)">
                <path d="M2497.91,385.248C2496.59,385.756 2497.11,387.538 2498.48,387.334C2502.93,386.678 2508.74,384.908 2511.92,381.552C2512.22,381.234 2512.04,380.555 2511.53,380.609C2506.93,381.084 2502.2,383.587 2497.91,385.248Z" style="fill:rgb(252,26,77);fill-rule:nonzero;"/>
            </g>
            <g transform="matrix(4.16667,0,0,4.16667,-8290.51,0)">
                <path d="M2109.03,590.921C2084.71,571.363 2060.41,551.771 2036.19,532.09C2015.5,515.28 1997.15,499.541 1982.86,476.206C1982.4,475.455 1981.33,476.11 1981.69,476.885C1992.37,499.944 2011.54,515.626 2030.63,531.35C2054.97,551.399 2079.62,571.071 2104.2,590.84C2154.49,631.29 2205.08,671.365 2255.44,711.725C2255.87,712.068 2256.48,711.485 2256.06,711.113C2208.27,669.602 2158.34,630.575 2109.03,590.921Z" style="fill:rgb(252,26,77);fill-rule:nonzero;"/>
            </g>
            <g transform="matrix(4.16667,0,0,4.16667,-8290.51,0)">
                <path d="M2261.66,714.839C2260.89,714.472 2260,715.437 2260.7,716.086C2264.34,719.466 2268.54,722.961 2273.45,724.169C2273.87,724.271 2274.25,723.718 2273.89,723.405C2270.2,720.175 2266.11,716.948 2261.66,714.839Z" style="fill:rgb(252,26,77);fill-rule:nonzero;"/>
            </g>
            <g transform="matrix(4.16667,0,0,4.16667,-8290.51,0)">
                <path d="M2503.93,633.892C2477.65,672.095 2446.27,704.193 2415.89,738.856C2415.57,739.207 2416.03,739.664 2416.39,739.366C2451.04,710.151 2482.39,673.832 2504.84,634.427C2505.19,633.826 2504.31,633.337 2503.93,633.892Z" style="fill:rgb(252,26,77);fill-rule:nonzero;"/>
            </g>
            <g transform="matrix(4.16667,0,0,4.16667,-8290.51,0)">
                <path d="M2517.37,614.704C2513.71,618.694 2511.52,623.37 2509.16,628.159C2508.98,628.523 2509.43,628.889 2509.73,628.598C2513.71,624.806 2516.3,620.35 2518.09,615.124C2518.24,614.716 2517.66,614.391 2517.37,614.704Z" style="fill:rgb(252,26,77);fill-rule:nonzero;"/>
            </g>
            <g transform="matrix(4.16667,0,0,4.16667,-8290.51,0)">
                <path d="M1844.53,575.491C1817.73,593.252 1788.19,608.703 1756.71,592.084C1734.73,580.485 1724.45,555.019 1704.46,540.933C1704.21,540.756 1703.93,541.14 1704.14,541.347C1722.9,560.019 1737.41,590.103 1763.84,599.142C1792.91,609.085 1823.81,596.948 1845.28,576.477C1845.79,575.99 1845.12,575.1 1844.53,575.491Z" style="fill:rgb(252,26,77);fill-rule:nonzero;"/>
            </g>
            <g transform="matrix(4.16667,0,0,4.16667,-8290.51,0)">
                <path d="M1871.22,552.155C1865,557.913 1857.59,562.414 1851.75,568.583C1851.5,568.842 1851.74,569.373 1852.12,569.223C1860.2,566.077 1867.06,559.755 1871.86,552.652C1872.13,552.252 1871.55,551.852 1871.22,552.155Z" style="fill:rgb(252,26,77);fill-rule:nonzero;"/>
            </g>
            <g transform="matrix(4.16667,0,0,4.16667,-8290.51,0)">
                <path d="M2512.16,119.365C2506.64,102.238 2497.25,89.693 2479.79,84.543C2479.52,84.462 2479.43,84.858 2479.67,84.958C2498.26,92.445 2506.61,108.996 2511.62,127.361C2521.43,163.364 2522.13,201.369 2527.72,238.106C2527.78,238.511 2528.44,238.409 2528.43,238.009C2527.1,199.218 2524.17,156.622 2512.16,119.365Z" style="fill:rgb(252,26,77);fill-rule:nonzero;"/>
            </g>
            <g transform="matrix(4.16667,0,0,4.16667,-8290.51,0)">
                <path d="M2116.64,119.936C2210.62,109.969 2305,98.762 2398.54,85.213C2399.07,85.135 2398.95,84.212 2398.41,84.27C2304.58,94.053 2209.38,102.283 2116.56,119.323C2116.22,119.386 2116.29,119.972 2116.64,119.936Z" style="fill:rgb(252,26,77);fill-rule:nonzero;"/>
            </g>
        </g>
    </g>
</svg>
