<?xml version="1.0" encoding="UTF-8" standalone="no"?>
<!DOCTYPE svg PUBLIC "-//W3C//DTD SVG 1.1//EN" "http://www.w3.org/Graphics/SVG/1.1/DTD/svg11.dtd">
<svg width="100%" height="100%" viewBox="0 0 745 1040" version="1.1" xmlns="http://www.w3.org/2000/svg" xmlns:xlink="http://www.w3.org/1999/xlink" xml:space="preserve" xmlns:serif="http://www.serif.com/" style="fill-rule:evenodd;clip-rule:evenodd;stroke-linecap:round;stroke-linejoin:round;stroke-miterlimit:3;">
    <g id="Card-Body" serif:id="Card Body" transform="matrix(3.22119,0,0,3.57172,-628.132,-346.457)">
        <path d="M426,113.534L426,371.466C426,380.591 417.785,388 407.667,388L213.333,388C203.215,388 195,380.591 195,371.466L195,113.534C195,104.409 203.215,97 213.333,97L407.667,97C417.785,97 426,104.409 426,113.534Z" style="fill:rgb(242,242,242);stroke:rgb(30,30,30);stroke-width:0.25px;"/>
    </g>
    <g id="_3" serif:id="3">
        <g id="Top-L" serif:id="Top L">
            <g transform="matrix(1,0,0,1,-34,-77)">
                <g transform="matrix(83.3333,0,0,83.3333,121.536,179.483)">
                </g>
                <text x="76.952px" y="179.483px" style="font-family:'LobsterTwo-Bold', 'Lobster Two';font-weight:700;font-size:83.333px;fill:rgb(252,26,77);">3</text>
            </g>
            <g transform="matrix(2.74304,0,0,2.74304,21.3386,118.8)">
                <path d="M30,16C30.001,16.529 29.791,17.037 29.416,17.41L17.41,29.418C16.635,30.188 15.365,30.188 14.59,29.418L2.59,17.41C1.82,16.635 1.82,15.365 2.59,14.59L14.596,2.582C15.371,1.812 16.641,1.812 17.416,2.582L29.423,14.59C29.795,14.964 30.003,15.472 30,16Z" style="fill:rgb(252,26,77);fill-rule:nonzero;"/>
            </g>
        </g>
        <g id="Bottom-R" serif:id="Bottom R">
            <g transform="matrix(1,0,0,1,579.512,820.701)">
                <g transform="matrix(83.3333,0,0,83.3333,121.536,179.483)">
                </g>
                <text x="76.952px" y="179.483px" style="font-family:'LobsterTwo-Bold', 'Lobster Two';font-weight:700;font-size:83.333px;fill:rgb(252,26,77);">3</text>
            </g>
            <g transform="matrix(2.74304,0,0,2.74304,634.85,833.423)">
                <path d="M30,16C30.001,16.529 29.791,17.037 29.416,17.41L17.41,29.418C16.635,30.188 15.365,30.188 14.59,29.418L2.59,17.41C1.82,16.635 1.82,15.365 2.59,14.59L14.596,2.582C15.371,1.812 16.641,1.812 17.416,2.582L29.423,14.59C29.795,14.964 30.003,15.472 30,16Z" style="fill:rgb(252,26,77);fill-rule:nonzero;"/>
            </g>
        </g>
        <g id="Title" transform="matrix(1,0,0,1,-33.9055,604.89)">
            <g transform="matrix(66.6667,0,0,66.6667,451.986,181.788)">
            </g>
            <text x="359.919px" y="181.788px" style="font-family:'MarkerFelt-Thin', 'Marker Felt';font-size:66.667px;fill:rgb(252,26,77);">M<tspan x="423.319px " y="181.788px ">E</tspan></text>
        </g>
        <g transform="matrix(0.207167,0.0209176,-0.0209176,0.207167,128.491,325.312)">
            <g transform="matrix(-1.14915,1.32667,-1.32667,-1.14915,6003.41,-1688.95)">
                <path d="M2438.85,787.117C2433.61,787.51 2428.96,790.092 2426.39,794.798C2423.48,800.124 2423.9,806.204 2424.92,811.964C2425.36,814.475 2427.11,816.411 2429.32,817.551C2431.41,820.001 2434.25,821.795 2437.4,822.276C2449,824.043 2461.44,812.429 2457.71,800.512C2455.31,792.842 2447.07,786.498 2438.85,787.117Z" style="fill:rgb(252,26,77);fill-rule:nonzero;"/>
            </g>
            <g transform="matrix(-1.14915,1.32667,-1.32667,-1.14915,6003.41,-1688.95)">
                <path d="M2428.01,722.991C2438,741.975 2464.44,742.243 2479.61,730.233C2495.96,717.295 2504.59,692.306 2490.7,674.452C2478.42,658.674 2457.29,657.205 2440.79,667.108C2424.31,676.998 2419.73,697.55 2424.65,713.619C2425.33,716.857 2426.45,720.024 2428.01,722.991Z" style="fill:rgb(252,26,77);fill-rule:nonzero;"/>
            </g>
            <g transform="matrix(-1.14915,1.32667,-1.32667,-1.14915,6003.41,-1688.95)">
                <path d="M2519.19,766.14C2519.85,764.205 2519.61,762.106 2518.78,760.259C2518.71,759.285 2518.55,758.322 2518.29,757.393C2516.8,752.177 2512.14,748.343 2506.96,747.141C2494.57,744.268 2483.3,754.98 2487.82,767.529C2490.64,775.365 2497.07,780.058 2505.47,778.85C2511.95,777.926 2517.19,772.006 2519.19,766.14Z" style="fill:rgb(252,26,77);fill-rule:nonzero;"/>
            </g>
            <g transform="matrix(4.16667,0,0,4.16667,-193.916,-6073.41)">
                <path d="M152.754,1708.16C140.776,1705.89 128.065,1711.77 122.146,1722.46C117.478,1730.89 118.548,1740.39 123.319,1747.87C123.547,1748.63 123.804,1749.4 124.123,1750.15C127.206,1757.45 134.947,1760.53 142.297,1761.24C158.409,1762.8 174.394,1748.8 172.255,1732.25C170.794,1720.94 164.719,1710.42 152.754,1708.16Z" style="fill:rgb(252,26,77);fill-rule:nonzero;"/>
            </g>
            <g transform="matrix(4.16667,0,0,4.16667,-193.916,-6073.41)">
                <path d="M201.324,1710.55C201.58,1709.96 201.796,1709.37 201.98,1708.78C204.962,1703.38 202.198,1696.99 198.614,1692.6C194.334,1687.37 187.141,1685.99 181.257,1689.16C176.173,1691.91 173.673,1697.83 173.126,1703.29C172.477,1709.73 176.215,1715.28 182.105,1717.59C188.451,1720.08 198.5,1716.97 201.324,1710.55Z" style="fill:rgb(252,26,77);fill-rule:nonzero;"/>
            </g>
            <g transform="matrix(4.16667,0,0,4.16667,-193.916,-6073.41)">
                <path d="M204.798,1738.74C198.367,1732.31 185.164,1737.53 186.186,1747.1C186.78,1752.63 190.945,1757.34 196.829,1757.34C201.619,1757.34 206.715,1753.76 207.526,1748.88C207.715,1747.75 207.744,1746.63 207.63,1745.56C207.564,1743.08 206.682,1740.63 204.798,1738.74Z" style="fill:rgb(252,26,77);fill-rule:nonzero;"/>
            </g>
            <g transform="matrix(4.16667,0,0,4.16667,0,-6010.93)">
                <path d="M131.073,1314.92C131.517,1313.74 131.869,1312.54 132.134,1311.32C132.345,1310.77 132.541,1310.21 132.708,1309.64C135.172,1301.22 131.104,1291.98 124.042,1287.2C117.987,1283.1 109.096,1284.9 103.585,1288.98C97.172,1293.71 93.344,1300.17 92.535,1308.11C91.595,1317.33 98.662,1325.04 106.713,1328.03C117.254,1331.95 127.453,1324.5 131.073,1314.92Z" style="fill:rgb(252,26,77);fill-rule:nonzero;"/>
            </g>
            <g transform="matrix(4.16667,0,0,4.16667,0,-6010.93)">
                <path d="M319.857,1606.08C263.412,1622.01 176.609,1631.56 134.754,1580.16C134.759,1580.01 134.768,1579.86 134.764,1579.71C132.753,1504.74 176.744,1417.07 251.253,1392.56C343.969,1362.04 418.136,1416.68 477.86,1480.68C458.579,1550.53 384.659,1587.79 319.857,1606.08ZM491.393,1475.22C434.722,1395.15 343.938,1350.66 246.872,1376.67C166.146,1398.3 114.123,1501.08 121.542,1579.71C121.649,1580.84 121.983,1581.82 122.469,1582.66C121.995,1584.26 122.134,1586.02 123.228,1587.68C162.651,1647.53 258.312,1637.16 317.639,1622.93C387.443,1606.17 479.986,1560.62 491.895,1481.29C492.802,1479.47 492.852,1477.29 491.393,1475.22Z" style="fill:rgb(252,26,77);fill-rule:nonzero;"/>
            </g>
            <g transform="matrix(4.16667,0,0,4.16667,0,-6010.93)">
                <path d="M246.768,1541.08C246.484,1524.77 252.671,1511.04 269.222,1505.45C285.782,1499.85 301.801,1508.31 307.3,1524.56C313.298,1542.27 302.291,1557.39 285.524,1562.46C266.55,1568.21 253.975,1557.12 246.768,1541.08ZM319.989,1489.83C301.012,1495.58 288.441,1484.49 281.234,1468.45C280.95,1452.14 287.137,1438.41 303.688,1432.81C320.245,1427.22 336.264,1435.67 341.766,1451.92C347.763,1469.64 336.753,1484.76 319.989,1489.83ZM206.648,1520.59C206.611,1521.23 206.647,1521.91 206.787,1522.63C228.614,1635.23 404.363,1591.65 382.821,1480.66C360.491,1365.58 179.208,1408.45 206.648,1520.59Z" style="fill:rgb(252,26,77);fill-rule:nonzero;"/>
            </g>
            <g transform="matrix(4.16667,0,0,4.16667,0,-6010.93)">
                <path d="M185.6,1460.94C158.322,1487.75 140.383,1535.52 144.19,1573.78C144.28,1574.7 145.479,1574.89 145.794,1574C151.594,1557.54 153.872,1540.01 158.986,1523.29C165.608,1501.64 176.688,1482.09 187.261,1462.22C187.82,1461.17 186.474,1460.08 185.6,1460.94Z" style="fill:rgb(252,26,77);fill-rule:nonzero;"/>
            </g>
            <g transform="matrix(4.16667,0,0,4.16667,0,-6010.93)">
                <path d="M197.634,1443.7C193.646,1445.42 191.787,1449.21 190.756,1453.17C190.509,1454.11 191.724,1454.52 192.25,1453.8C194.398,1450.85 197.328,1448.47 199.278,1445.35C199.984,1444.22 198.65,1443.27 197.634,1443.7Z" style="fill:rgb(252,26,77);fill-rule:nonzero;"/>
            </g>
            <g transform="matrix(4.16667,0,0,4.16667,0,-6010.93)">
                <path d="M174.755,1514.15C169.634,1525.16 165.308,1536.35 161.441,1547.87C158.316,1557.18 154.244,1570.28 158.941,1579.51C159.223,1580.06 160.062,1580.02 160.353,1579.51C165.295,1570.83 165.223,1559.27 167.681,1549.59C170.632,1537.99 174.416,1526.71 176.6,1514.93C176.796,1513.88 175.269,1513.04 174.755,1514.15Z" style="fill:rgb(252,26,77);fill-rule:nonzero;"/>
            </g>
            <g transform="matrix(4.16667,0,0,4.16667,0,-6010.93)">
                <path d="M178.1,1551.88C174.188,1556.81 173.382,1562.33 172.159,1568.41C170.876,1574.77 168.202,1582.21 169.596,1588.69C169.71,1589.23 170.479,1589.59 170.936,1589.24C175.458,1585.77 176.245,1580.37 177.373,1575.01C178.872,1567.88 180.312,1559.88 179.825,1552.6C179.773,1551.82 178.701,1551.13 178.1,1551.88Z" style="fill:rgb(252,26,77);fill-rule:nonzero;"/>
            </g>
            <g transform="matrix(4.16667,0,0,4.16667,0,-6010.93)">
                <path d="M464.806,1480.55C457.967,1464.05 441.994,1453.01 428.177,1442.44C410.142,1428.63 387.885,1413.11 365.312,1408.35C364.93,1408.26 364.524,1408.78 364.891,1409.07C379.96,1421.03 398.014,1429.45 413.892,1440.44C431.569,1452.67 445.325,1470.37 463.322,1481.69C464.019,1482.13 465.154,1481.39 464.806,1480.55Z" style="fill:rgb(252,26,77);fill-rule:nonzero;"/>
            </g>
            <g transform="matrix(4.16667,0,0,4.16667,0,-6010.93)">
                <path d="M434.439,1465.93C426.419,1457.68 417.08,1449.95 405.286,1448.9C404.859,1448.86 404.823,1449.41 405.09,1449.61C413.711,1456.17 422.432,1462.59 429.989,1470.38C437.639,1478.26 443.627,1487.43 451.422,1495.16C452.008,1495.75 452.991,1495.16 452.787,1494.37C449.845,1483.01 442.516,1474.24 434.439,1465.93Z" style="fill:rgb(252,26,77);fill-rule:nonzero;"/>
            </g>
            <g transform="matrix(4.16667,0,0,4.16667,0,-6010.93)">
                <path d="M412.792,1470.93C412.401,1470.86 412.233,1471.32 412.531,1471.55C420.355,1477.47 427.074,1484.91 432.979,1492.68C438.231,1499.59 441.581,1508.1 447.85,1514.17C448.363,1514.66 449.379,1514.33 449.328,1513.55C448.685,1503.95 441.647,1495.33 436.004,1487.98C429.986,1480.14 422.678,1472.97 412.792,1470.93Z" style="fill:rgb(252,26,77);fill-rule:nonzero;"/>
            </g>
            <g transform="matrix(4.16667,0,0,4.16667,0,-6010.93)">
                <path d="M418.366,1494.69C417.93,1494.53 417.567,1495.01 417.657,1495.4C418.85,1500.66 422.822,1504.99 425.476,1509.6C427.964,1513.91 429.86,1521.39 434.31,1523.91C434.764,1524.17 435.527,1524.06 435.758,1523.53C437.907,1518.52 433.583,1512.71 431.152,1508.48C428.234,1503.4 424.024,1496.86 418.366,1494.69Z" style="fill:rgb(252,26,77);fill-rule:nonzero;"/>
            </g>
            <g transform="matrix(4.16667,0,0,4.16667,0,-6010.93)">
                <path d="M417.582,1513.61C416.815,1513.02 415.731,1514.17 416.266,1514.93C418.48,1518.1 420.175,1521.63 421.53,1525.25C422.921,1528.97 423.39,1532.27 426.59,1534.81C426.96,1535.1 427.633,1535.17 427.874,1534.65C431.338,1527.04 423.273,1517.98 417.582,1513.61Z" style="fill:rgb(252,26,77);fill-rule:nonzero;"/>
            </g>
            <g transform="matrix(4.16667,0,0,4.16667,0,-6010.93)">
                <path d="M402.043,1461.21C400.58,1461.03 400.129,1463.25 401.316,1463.9C403.714,1465.21 405.247,1467.38 407.813,1468.54C408.732,1468.95 409.883,1468.28 409.58,1467.18C408.576,1463.55 405.701,1461.66 402.043,1461.21Z" style="fill:rgb(252,26,77);fill-rule:nonzero;"/>
            </g>
            <g transform="matrix(4.16667,0,0,4.16667,0,-6010.93)">
                <path d="M483.196,1546.06C451.936,1588.92 395.247,1616.84 346.922,1634.28C289.848,1654.89 236.415,1657.98 178.352,1641.73C177.646,1641.53 176.994,1642.5 177.604,1643.02C220.05,1678.64 294.914,1661.59 342.123,1647.1C396.548,1630.4 458.847,1599.99 485.852,1547.61C486.778,1545.82 484.35,1544.49 483.196,1546.06Z" style="fill:rgb(252,26,77);fill-rule:nonzero;"/>
            </g>
            <g transform="matrix(4.16667,0,0,4.16667,0,-6010.93)">
                <path d="M432.254,1618.7C411.248,1629.86 390.276,1640.5 367.797,1648.42C347.541,1655.55 325.137,1658.58 306.008,1668.35C305.524,1668.6 305.77,1669.33 306.275,1669.34C347.833,1670.07 403.495,1649.37 433.712,1620.59C434.73,1619.62 433.436,1618.08 432.254,1618.7Z" style="fill:rgb(252,26,77);fill-rule:nonzero;"/>
            </g>
            <g transform="matrix(4.16667,0,0,4.16667,0,-6010.93)">
                <path d="M514.609,1418.03C508.626,1419.91 504.287,1424.09 499.687,1428.14C495.97,1431.42 492.375,1435.1 489.524,1438.59C485.215,1443.86 489.119,1452.04 496.33,1450.28C506.282,1447.85 519.695,1437.55 523.245,1426.66C524.879,1421.64 519.594,1416.46 514.609,1418.03Z" style="fill:rgb(252,26,77);fill-rule:nonzero;"/>
            </g>
            <g transform="matrix(4.16667,0,0,4.16667,0,-6010.93)">
                <path d="M473.923,1419.7C479.422,1416.77 483.932,1412.16 488.292,1407.79C492.953,1403.11 495.804,1398.72 498.545,1392.77C501.213,1387 495.366,1378.98 489.007,1383.24C479.061,1389.9 469.349,1398.31 462.753,1408.53C458.102,1415.74 467.033,1423.37 473.923,1419.7Z" style="fill:rgb(252,26,77);fill-rule:nonzero;"/>
            </g>
            <g transform="matrix(4.16667,0,0,4.16667,0,-6010.93)">
                <path d="M443.838,1391.29C448.162,1389.23 451.831,1385.15 454.998,1381.63C459.238,1376.92 461.137,1372.68 461.669,1366.38C462.237,1359.63 453.913,1357.99 449.686,1361.42C448.165,1362.66 446.53,1363.69 445.118,1365.07C443.471,1366.67 442.144,1368.85 440.638,1370.61C437.422,1374.36 434.223,1377.82 432.291,1382.42C431.245,1384.91 432.525,1388.28 434.313,1390.07C436.969,1392.72 440.611,1392.83 443.838,1391.29Z" style="fill:rgb(252,26,77);fill-rule:nonzero;"/>
            </g>
            <g transform="matrix(4.16667,0,0,4.16667,0,-6010.93)">
                <path d="M403.853,1369.31C409.889,1365.76 414.339,1359.05 417.81,1353.13C421.891,1346.17 424.824,1340.01 424.072,1331.83C423.588,1326.56 416.62,1321.95 412.417,1327.01C407.954,1332.38 405.054,1337.58 401.68,1343.7C398.666,1349.17 394.679,1355.04 393.293,1361.19C391.941,1367.21 398.207,1372.63 403.853,1369.31Z" style="fill:rgb(252,26,77);fill-rule:nonzero;"/>
            </g>
            <g transform="matrix(4.16667,0,0,4.16667,0,-6010.93)">
                <path d="M364.161,1353.1C370.294,1342.72 379.39,1330 372.502,1317.86C369.314,1312.24 361.649,1314.06 359.672,1319.53C358.109,1323.87 357.37,1328.4 355.925,1332.78C354.287,1337.74 352.388,1342.59 351.507,1347.77C350.242,1355.21 359.945,1360.24 364.161,1353.1Z" style="fill:rgb(252,26,77);fill-rule:nonzero;"/>
            </g>
            <g transform="matrix(4.16667,0,0,4.16667,0,-6010.93)">
                <path d="M322.339,1345.74C329.434,1333.58 333.445,1311.35 323.484,1300.05C320.104,1296.22 312.657,1298.06 311.672,1303.17C310.434,1309.59 311.008,1315.89 310.449,1322.36C309.827,1329.59 308.156,1336.99 310.037,1344.13C311.527,1349.79 319.424,1350.73 322.339,1345.74Z" style="fill:rgb(252,26,77);fill-rule:nonzero;"/>
            </g>
            <g transform="matrix(4.16667,0,0,4.16667,0,-6010.93)">
                <path d="M266.65,1347.78C268.044,1353.18 276.38,1354.73 278.997,1349.39C281.804,1343.67 282.843,1337.63 283.436,1331.33C283.697,1328.53 283.472,1325.68 283.102,1322.91C282.534,1318.67 280.791,1316.63 278.652,1313.16C275.184,1307.53 265.67,1309.6 265.884,1316.61C265.947,1318.67 265.277,1320.81 265.286,1322.91C265.304,1325.72 265.67,1328.5 265.638,1331.33C265.568,1336.84 265.265,1342.39 266.65,1347.78Z" style="fill:rgb(252,26,77);fill-rule:nonzero;"/>
            </g>
            <g transform="matrix(4.16667,0,0,4.16667,0,-6010.93)">
                <path d="M218.329,1361.79C221.388,1366.8 229.768,1366.21 231.202,1360.1C232.836,1353.13 231.069,1346.29 229.309,1339.5C227.343,1331.92 225.627,1324.45 220.39,1318.46C216.865,1314.43 209.783,1316.64 208.536,1321.59C206.682,1328.95 208.993,1335.04 211.201,1342.04C213.269,1348.6 214.732,1355.88 218.329,1361.79Z" style="fill:rgb(252,26,77);fill-rule:nonzero;"/>
            </g>
            <g transform="matrix(4.16667,0,0,4.16667,0,-6010.93)">
                <path d="M179.052,1388.7C184.235,1391.14 191.678,1387.12 189.503,1380.67C187.838,1375.72 184.869,1371.46 182.093,1367.08C178.685,1361.71 176.035,1355.97 170.242,1352.76C165.686,1350.23 159.458,1353.37 159.608,1358.86C159.791,1365.54 163.288,1370.61 166.819,1376.01C169.983,1380.85 173.665,1386.18 179.052,1388.7Z" style="fill:rgb(252,26,77);fill-rule:nonzero;"/>
            </g>
            <g transform="matrix(4.16667,0,0,4.16667,0,-6010.93)">
                <path d="M151.798,1425.71C156.185,1424.96 157.303,1419.65 155.647,1416.24C154.064,1412.99 150.765,1410.28 148.123,1407.38C145.037,1403.99 142.188,1400.49 139.301,1397.13C132.801,1389.6 120.082,1399.49 125.554,1407.74C130.977,1415.93 140.866,1427.57 151.798,1425.71Z" style="fill:rgb(252,26,77);fill-rule:nonzero;"/>
            </g>
            <g transform="matrix(4.16667,0,0,4.16667,0,-6010.93)">
                <path d="M127.119,1462.66C129.649,1460.13 129.55,1456.92 128.255,1453.86C126.614,1449.98 122.972,1446.89 119.925,1444.09C116.473,1440.91 113.36,1436.46 109.243,1434.19C102.993,1430.75 94.915,1436.39 97.024,1443.58C98.518,1448.67 102.846,1452.29 106.725,1455.66C110.736,1459.15 114.958,1462.8 120.058,1464.53C122.471,1465.34 125.37,1464.41 127.119,1462.66Z" style="fill:rgb(252,26,77);fill-rule:nonzero;"/>
            </g>
            <g transform="matrix(4.16667,0,0,4.16667,0,-6010.93)">
                <path d="M112.143,1494.71C106.965,1490.76 101.049,1486.89 95.039,1484.4C92.256,1483.24 89.107,1484.77 87.033,1486.52C85.939,1487.44 85.275,1488.79 84.918,1490.15C84.2,1492.85 84.858,1496.23 87.033,1498.15C92.731,1503.17 101.034,1507.27 108.72,1507.35C111.731,1507.38 114.462,1505.25 115.256,1502.37C116.139,1499.16 114.601,1496.59 112.143,1494.71Z" style="fill:rgb(252,26,77);fill-rule:nonzero;"/>
            </g>
            <g transform="matrix(4.16667,0,0,4.16667,0,-6010.93)">
                <path d="M102.028,1532.13C98.209,1529.26 93.302,1525.6 88.253,1527.38C85.462,1528.36 82.655,1531 82.995,1534.28C83.608,1540.22 87.947,1543.13 92.644,1546.08C96.736,1548.65 101.19,1551.3 106.136,1551.47C112.717,1551.68 115.168,1543.67 111.202,1539.24C108.648,1536.39 105.075,1534.42 102.028,1532.13Z" style="fill:rgb(252,26,77);fill-rule:nonzero;"/>
            </g>
        </g>
    </g>
</svg>
