<?xml version="1.0" encoding="UTF-8" standalone="no"?>
<!DOCTYPE svg PUBLIC "-//W3C//DTD SVG 1.1//EN" "http://www.w3.org/Graphics/SVG/1.1/DTD/svg11.dtd">
<svg width="100%" height="100%" viewBox="0 0 745 1040" version="1.1" xmlns="http://www.w3.org/2000/svg" xmlns:xlink="http://www.w3.org/1999/xlink" xml:space="preserve" xmlns:serif="http://www.serif.com/" style="fill-rule:evenodd;clip-rule:evenodd;stroke-linecap:round;stroke-linejoin:round;stroke-miterlimit:3;">
    <g id="Card-Body" serif:id="Card Body" transform="matrix(3.22119,0,0,3.57172,-628.132,-346.457)">
        <path d="M426,113.534L426,371.466C426,380.591 417.785,388 407.667,388L213.333,388C203.215,388 195,380.591 195,371.466L195,113.534C195,104.409 203.215,97 213.333,97L407.667,97C417.785,97 426,104.409 426,113.534Z" style="fill:rgb(242,242,242);stroke:rgb(30,30,30);stroke-width:0.25px;"/>
    </g>
    <g id="_7" serif:id="7">
        <g id="Top-L" serif:id="Top L">
            <g transform="matrix(1,0,0,1,-34,-77)">
                <g transform="matrix(83.3333,0,0,83.3333,118.952,179.483)">
                </g>
                <text x="79.536px" y="179.483px" style="font-family:'LobsterTwo-Bold', 'Lobster Two';font-weight:700;font-size:83.333px;fill:rgb(252,26,77);">7</text>
            </g>
            <g transform="matrix(2.74304,0,0,2.74304,21.3386,118.8)">
                <path d="M30,16C30.001,16.529 29.791,17.037 29.416,17.41L17.41,29.418C16.635,30.188 15.365,30.188 14.59,29.418L2.59,17.41C1.82,16.635 1.82,15.365 2.59,14.59L14.596,2.582C15.371,1.812 16.641,1.812 17.416,2.582L29.423,14.59C29.795,14.964 30.003,15.472 30,16Z" style="fill:rgb(252,26,77);fill-rule:nonzero;"/>
            </g>
        </g>
        <g id="Bottom-R" serif:id="Bottom R">
            <g transform="matrix(1,0,0,1,579.512,820.701)">
                <g transform="matrix(83.3333,0,0,83.3333,118.952,179.483)">
                </g>
                <text x="79.536px" y="179.483px" style="font-family:'LobsterTwo-Bold', 'Lobster Two';font-weight:700;font-size:83.333px;fill:rgb(252,26,77);">7</text>
            </g>
            <g transform="matrix(2.74304,0,0,2.74304,634.85,833.423)">
                <path d="M30,16C30.001,16.529 29.791,17.037 29.416,17.41L17.41,29.418C16.635,30.188 15.365,30.188 14.59,29.418L2.59,17.41C1.82,16.635 1.82,15.365 2.59,14.59L14.596,2.582C15.371,1.812 16.641,1.812 17.416,2.582L29.423,14.59C29.795,14.964 30.003,15.472 30,16Z" style="fill:rgb(252,26,77);fill-rule:nonzero;"/>
            </g>
        </g>
        <g id="Title" transform="matrix(1,0,0,1,-33.9055,604.89)">
            <g transform="matrix(66.6667,0,0,66.6667,649.919,181.788)">
            </g>
            <text x="161.986px" y="181.788px" style="font-family:'MarkerFelt-Thin', 'Marker Felt';font-size:66.667px;fill:rgb(252,26,77);">HANDS TO H<tspan x="478.319px 506.986px 543.653px 581.253px 609.919px " y="181.788px 181.788px 181.788px 181.788px 181.788px ">EAVEN</tspan></text>
        </g>
        <g transform="matrix(0.181292,0,0,0.181292,290.635,160.618)">
            <g transform="matrix(4.16667,0,0,4.16667,-6652.67,0)">
                <path d="M1929.04,127.261C1935.39,129.75 1945.43,126.634 1948.26,120.213C1948.51,119.632 1948.73,119.042 1948.91,118.449C1951.9,113.052 1949.13,106.664 1945.55,102.274C1941.27,97.037 1934.08,95.66 1928.19,98.837C1923.11,101.577 1920.61,107.499 1920.06,112.956C1919.41,119.398 1923.15,124.951 1929.04,127.261Z" style="fill:rgb(252,26,77);fill-rule:nonzero;"/>
            </g>
            <g transform="matrix(4.16667,0,0,4.16667,-6840.21,1511.3)">
                <path d="M1929.04,127.261C1935.39,129.75 1945.43,126.634 1948.26,120.213C1948.51,119.632 1948.73,119.042 1948.91,118.449C1951.9,113.052 1949.13,106.664 1945.55,102.274C1941.27,97.037 1934.08,95.66 1928.19,98.837C1923.11,101.577 1920.61,107.499 1920.06,112.956C1919.41,119.398 1923.15,124.951 1929.04,127.261Z" style="fill:rgb(252,26,77);fill-rule:nonzero;"/>
            </g>
            <g transform="matrix(4.16667,0,0,4.16667,-6652.67,0)">
                <path d="M2016.43,93.939C1994.63,104.472 1993.54,129.188 2005.87,144.962C2008.42,148.658 2011.74,151.959 2015.26,154.449C2030.11,164.948 2049.37,161.09 2060.08,146.979C2069.93,134.029 2070.02,115.904 2060.6,102.676C2049.97,87.736 2031.99,86.415 2016.43,93.939Z" style="fill:rgb(252,26,77);fill-rule:nonzero;"/>
            </g>
            <g transform="matrix(4.16667,0,0,4.16667,-6256.26,-31.7682)">
                <path d="M1361.27,160.894C1377.63,147.953 1386.26,122.968 1372.36,105.113C1360.07,89.311 1338.97,87.923 1322.42,97.713C1305.37,107.793 1301,129.2 1306.6,145.493C1307.29,148.308 1308.31,151.057 1309.68,153.652C1319.67,172.636 1346.11,172.905 1361.27,160.894Z" style="fill:rgb(252,26,77);fill-rule:nonzero;"/>
            </g>
            <g transform="matrix(3.12361,0,0,3.17491,-4994.4,864.975)">
                <path d="M1341.32,381.098C1340.76,389.714 1344.56,398.896 1351.3,404.231C1356.17,409.019 1362.56,412.198 1369.57,412.538C1385.1,413.289 1397.19,398.853 1399.14,384.464C1401.31,368.352 1391.41,352.946 1374.37,351.495C1356.85,350.002 1342.4,364.115 1341.32,381.098Z" style="fill:rgb(252,26,77);fill-rule:nonzero;"/>
            </g>
            <g transform="matrix(4.16667,0,0,4.16667,-6652.67,0)">
                <path d="M1902.77,378.715C1913.84,416.979 1878.74,437.594 1848.38,415.578C1842.13,411.047 1835.65,418.481 1836.73,424.53C1843.07,460.292 1813.46,482.399 1782.38,490.605C1744.58,500.583 1706.84,484.351 1685.62,452.974C1698.17,439.256 1706.89,421.865 1709.81,400.587C1714.56,365.99 1678.89,320.241 1641.32,341.413C1609.78,359.193 1602.46,401.161 1643.28,411.654C1650.36,413.472 1654.87,403.391 1648.3,399.746C1627.13,387.997 1627.06,372.174 1645.5,358.871C1663.68,345.768 1685.49,363.114 1691.44,380.404C1701.48,409.53 1677.42,439.68 1655.37,455.007C1647.26,460.639 1638.61,465.084 1629.6,468.481C1605.58,475.738 1578.46,477.204 1555.39,474.786C1539.14,472.111 1523.26,467.032 1508.67,459.967C1487.17,446.897 1471.34,426.137 1461.94,400.873C1428.25,310.305 1498.9,213.926 1597.7,245.071C1605.65,247.573 1611.39,237.027 1605.68,231.368C1580.73,206.654 1570.39,173.391 1602.96,150.381C1629.44,131.678 1665.84,138.262 1677.09,170.056C1679.18,175.954 1689,179.169 1692.1,172.018C1727.63,90.056 1838.6,117.084 1849.26,200.525C1853.41,232.961 1838.77,268.604 1805.62,278.175C1784.51,284.271 1755.09,275.951 1747.2,254.091C1737.77,227.946 1778.48,185.816 1792.02,221.624C1795.02,229.578 1807.83,226.239 1804.9,218.072C1799.23,202.282 1783.31,190.425 1765.69,195.612C1741.13,202.841 1730.3,226.02 1731.69,250.506C1734.94,307.742 1818.4,303.087 1846.71,270.008C1866.46,246.927 1870.44,216.483 1863.6,188.199C1916.56,154.169 1988.22,195.123 2002.32,251.786C2017.31,312.069 1973.71,373.857 1910.3,368.833C1905.22,368.43 1901.44,374.118 1902.77,378.715ZM2016.97,247.745C2004.26,180.586 1918.24,139.861 1859.18,173.98C1852.04,155.244 1840.18,138.291 1825.2,126.219C1778.4,88.517 1714.89,102.397 1685.14,149.99C1666.44,121.99 1630.97,117.185 1598.9,133.623C1559.63,153.764 1559.74,192.806 1578.9,223.887C1536.21,217.531 1496.17,231.558 1466.33,266.375C1431.82,306.636 1430.91,356.666 1446.28,405.191C1459.86,448.09 1493.65,477.879 1536.88,488.192C1549.67,491.245 1564.04,492.707 1578.85,492.515C1608.93,493.097 1639.15,486.287 1663.09,471.482C1666.89,469.3 1670.51,466.933 1673.94,464.399C1699.91,500.863 1742.11,515.261 1786.64,506.062C1822.34,498.69 1851.27,471.625 1853.06,436.459C1889.09,451.648 1924.92,424.392 1919.95,384.766C1990.6,384.11 2029.6,314.414 2016.97,247.745Z" style="fill:rgb(252,26,77);fill-rule:nonzero;"/>
            </g>
            <g transform="matrix(4.16667,0,0,4.16667,-6652.67,0)">
                <path d="M1925.02,356.459C1984.34,356.258 2005.81,258.655 1969.53,221.371C1969.14,220.969 1968.39,221.377 1968.57,221.933C1976.8,246.645 1983.62,266.35 1977.72,292.823C1970.72,324.235 1947.78,336.417 1924.34,353.95C1923.33,354.707 1923.57,356.465 1925.02,356.459Z" style="fill:rgb(252,26,77);fill-rule:nonzero;"/>
            </g>
            <g transform="matrix(4.16667,0,0,4.16667,-6652.67,0)">
                <path d="M1588.6,455.737C1557.44,452.162 1532.03,452.138 1506.09,431.591C1484.65,414.608 1477.43,391.615 1466.07,368.133C1465.78,367.54 1464.92,367.868 1464.9,368.448C1462.68,423.79 1536.71,480.782 1589.07,457.438C1589.99,457.026 1589.39,455.827 1588.6,455.737Z" style="fill:rgb(252,26,77);fill-rule:nonzero;"/>
            </g>
            <g transform="matrix(4.16667,0,0,4.16667,-6652.67,0)">
                <path d="M1606.42,452.258C1603.04,453.304 1600.33,453.847 1597.37,455.863C1596.77,456.275 1596.77,457.353 1597.6,457.53C1601.27,458.321 1604.09,457.967 1607.78,457.179C1611.28,456.431 1615.08,455.515 1616.29,451.807C1616.47,451.273 1616.09,450.632 1615.55,450.506C1612.28,449.742 1609.53,451.297 1606.42,452.258Z" style="fill:rgb(252,26,77);fill-rule:nonzero;"/>
            </g>
            <g transform="matrix(4.16667,0,0,4.16667,-6652.67,0)">
                <path d="M1788.92,148.022C1789.79,147.905 1790,146.634 1789.43,146.093C1771.75,129.551 1730.7,138.196 1716.3,155.63C1715.85,156.17 1716.26,157.024 1717,156.835C1730.12,153.536 1741.53,147.322 1755.29,145.988C1766.76,144.876 1777.64,149.542 1788.92,148.022Z" style="fill:rgb(252,26,77);fill-rule:nonzero;"/>
            </g>
            <g transform="matrix(4.16667,0,0,4.16667,-6652.67,0)">
                <path d="M1798.98,153.235C1800.83,154.626 1802.28,155.934 1804.66,155.491C1805.86,155.269 1806.21,153.808 1805.73,152.853C1804.83,151.087 1802.89,150.365 1801.31,149.257C1799.79,148.193 1798.57,148.13 1796.81,148.142C1796.2,148.145 1795.78,148.836 1796.11,149.371C1797.03,150.909 1797.46,152.084 1798.98,153.235Z" style="fill:rgb(252,26,77);fill-rule:nonzero;"/>
            </g>
            <g transform="matrix(4.16667,0,0,4.16667,-6652.67,0)">
                <path d="M1797.64,514.369C1753.3,522.125 1705.7,522.321 1675.39,483.715C1674.71,482.849 1673.63,483.952 1673.99,484.79C1691.79,525.8 1762.48,534.58 1798.23,515.776C1799.05,515.343 1798.45,514.229 1797.64,514.369Z" style="fill:rgb(252,26,77);fill-rule:nonzero;"/>
            </g>
            <g transform="matrix(4.16667,0,0,4.16667,-6652.67,0)">
                <path d="M1823.21,502.347C1820.33,504.187 1817.45,506.134 1814.46,507.783C1811.74,509.286 1808.33,509.854 1805.85,511.702C1805.59,511.894 1805.59,512.309 1805.94,512.405C1808.89,513.243 1812.17,511.825 1814.84,510.62C1818.71,508.883 1821.56,506.536 1823.94,503.072C1824.23,502.63 1823.65,502.068 1823.21,502.347Z" style="fill:rgb(252,26,77);fill-rule:nonzero;"/>
            </g>
            <g transform="matrix(4.16667,0,0,4.16667,-6652.67,0)">
                <path d="M1687.26,123.956C1710.1,106.631 1731.89,93.68 1761.01,90.225C1793.51,86.366 1818.41,98.479 1842.04,119.41C1842.49,119.816 1843.14,119.314 1842.87,118.77C1816.18,65.636 1714.87,78.122 1686.74,123.427C1686.55,123.737 1686.95,124.194 1687.26,123.956Z" style="fill:rgb(252,26,77);fill-rule:nonzero;"/>
            </g>
            <g transform="matrix(4.16667,0,0,4.16667,-6652.67,0)">
                <path d="M1464.5,247.901C1486.65,227.396 1513.59,220.119 1542.96,218.049C1543.5,218.009 1543.68,217.189 1543.09,217.057C1492.15,205.554 1424.92,259.218 1425.19,312.036C1425.19,312.424 1425.73,312.484 1425.85,312.126C1433.98,286.961 1444.83,266.113 1464.5,247.901Z" style="fill:rgb(252,26,77);fill-rule:nonzero;"/>
            </g>
            <g transform="matrix(4.16667,0,0,4.16667,-6652.67,0)">
                <path d="M2024.64,312.036C2024.6,311.255 2023.38,311.014 2023.22,311.843C2019.25,332.303 2012.05,350.137 1997.3,365.251C1982.05,380.888 1963.32,385.599 1943.67,392.832C1943.42,392.925 1943.46,393.286 1943.74,393.304C1985.13,396.044 2026.4,352.189 2024.64,312.036Z" style="fill:rgb(252,26,77);fill-rule:nonzero;"/>
            </g>
        </g>
    </g>
</svg>
