<?xml version="1.0" encoding="UTF-8" standalone="no"?>
<!DOCTYPE svg PUBLIC "-//W3C//DTD SVG 1.1//EN" "http://www.w3.org/Graphics/SVG/1.1/DTD/svg11.dtd">
<svg width="100%" height="100%" viewBox="0 0 745 1040" version="1.1" xmlns="http://www.w3.org/2000/svg" xmlns:xlink="http://www.w3.org/1999/xlink" xml:space="preserve" xmlns:serif="http://www.serif.com/" style="fill-rule:evenodd;clip-rule:evenodd;stroke-linecap:round;stroke-linejoin:round;stroke-miterlimit:3;">
    <g id="Card-Body" serif:id="Card Body" transform="matrix(3.22119,0,0,3.57172,-628.132,-346.457)">
        <path d="M426,113.534L426,371.466C426,380.591 417.785,388 407.667,388L213.333,388C203.215,388 195,380.591 195,371.466L195,113.534C195,104.409 203.215,97 213.333,97L407.667,97C417.785,97 426,104.409 426,113.534Z" style="fill:rgb(242,242,242);stroke:rgb(30,30,30);stroke-width:0.25px;"/>
    </g>
    <g id="_2" serif:id="2">
        <g id="Top-L" serif:id="Top L">
            <g transform="matrix(1,0,0,1,-34,-77)">
                <g transform="matrix(83.3333,0,0,83.3333,120.494,179.483)">
                </g>
                <text x="77.994px" y="179.483px" style="font-family:'LobsterTwo-Bold', 'Lobster Two';font-weight:700;font-size:83.333px;fill:rgb(252,26,77);">2</text>
            </g>
            <g transform="matrix(2.74184,0,0,2.74184,21.3746,110.59)">
                <path d="M30,12.75C30,21.5 17.026,28.583 16.474,28.875C16.178,29.034 15.822,29.034 15.526,28.875C14.974,28.583 2,21.5 2,12.75C2.005,8.5 5.5,5.005 9.75,5C12.331,5 14.591,6.11 16,7.986C17.409,6.11 19.669,5 22.25,5C26.5,5.005 29.995,8.5 30,12.75Z" style="fill:rgb(252,26,77);fill-rule:nonzero;"/>
            </g>
        </g>
        <g id="Bottom-R" serif:id="Bottom R">
            <g transform="matrix(1,0,0,1,579.512,820.701)">
                <g transform="matrix(83.3333,0,0,83.3333,120.494,179.483)">
                </g>
                <text x="77.994px" y="179.483px" style="font-family:'LobsterTwo-Bold', 'Lobster Two';font-weight:700;font-size:83.333px;fill:rgb(252,26,77);">2</text>
            </g>
            <g transform="matrix(2.74184,0,0,2.74184,634.886,836.203)">
                <path d="M30,12.75C30,21.5 17.026,28.583 16.474,28.875C16.178,29.034 15.822,29.034 15.526,28.875C14.974,28.583 2,21.5 2,12.75C2.005,8.5 5.5,5.005 9.75,5C12.331,5 14.591,6.11 16,7.986C17.409,6.11 19.669,5 22.25,5C26.5,5.005 29.995,8.5 30,12.75Z" style="fill:rgb(252,26,77);fill-rule:nonzero;"/>
            </g>
        </g>
        <g id="Title" transform="matrix(1,0,0,1,-33.9055,604.89)">
            <g transform="matrix(66.6667,0,0,66.6667,506.119,181.788)">
            </g>
            <text x="305.786px" y="181.788px" style="font-family:'MarkerFelt-Thin', 'Marker Felt';font-size:66.667px;fill:rgb(252,26,77);">CH<tspan x="371.319px 408.786px 444.786px " y="181.788px 181.788px 181.788px ">OOS</tspan>E</text>
        </g>
        <g transform="matrix(0.171662,0.0258742,-0.0258742,0.171662,321.627,308.644)">
            <g transform="matrix(4.16667,0,-2.31296e-16,4.16667,-2532.09,-3553.54)">
                <path d="M866.846,750.12C873.195,752.614 883.241,749.495 886.065,743.077C886.321,742.494 886.538,741.903 886.722,741.307C889.703,735.912 886.939,729.526 883.355,725.133C879.076,719.899 871.885,718.522 865.999,721.696C860.917,724.442 858.417,730.362 857.868,735.818C857.218,742.26 860.957,747.813 866.846,750.12Z" style="fill:rgb(252,26,77);fill-rule:nonzero;"/>
            </g>
            <g transform="matrix(4.16667,0,-2.31296e-16,4.16667,-2532.09,-3553.54)">
                <path d="M796.784,742.828C775.002,753.356 773.896,778.051 786.212,793.826C788.759,797.531 792.09,800.841 795.618,803.336C810.462,813.834 829.724,809.976 840.439,795.868C850.283,782.915 850.379,764.79 840.962,751.563C830.331,736.623 812.35,735.307 796.784,742.828Z" style="fill:rgb(252,26,77);fill-rule:nonzero;"/>
            </g>
            <g transform="matrix(4.16667,0,-2.31296e-16,4.16667,-2532.09,-3553.54)">
                <path d="M889.034,809.979C889.693,808.044 889.456,805.946 888.624,804.099C888.551,803.124 888.397,802.161 888.132,801.232C886.648,796.016 881.985,792.181 876.804,790.98C864.418,788.108 853.153,798.819 857.663,811.367C860.482,819.204 866.912,823.898 875.32,822.693C881.792,821.761 887.039,815.844 889.034,809.979Z" style="fill:rgb(252,26,77);fill-rule:nonzero;"/>
            </g>
            <g transform="matrix(4.16667,0,0,4.16667,-2835.24,-3670.96)">
                <path d="M697.767,1069.02C694.69,1062.69 691.045,1056.79 686.051,1051.81C681.054,1046.84 678.849,1047.33 676.583,1054.04C674.81,1059.37 674.254,1064.8 674.191,1070.28L674.122,1070.07C674.155,1087.87 677.539,1105.04 683.197,1121.9C684.125,1124.68 684.843,1127.52 685.991,1130.23C689.426,1139.05 693.5,1147.66 699.36,1155.2C701.427,1157.84 703.645,1160.19 706.349,1161.88C708.419,1163.09 709.913,1162.59 711.124,1160.52C712.257,1158.24 712.894,1155.89 713.528,1153.54C714.73,1147.91 715.003,1142.36 714.781,1136.73C713.952,1113.01 708.278,1090.44 697.767,1069.02Z" style="fill:rgb(252,26,77);fill-rule:nonzero;"/>
            </g>
            <g transform="matrix(4.16667,0,0,4.16667,-2835.24,-3670.96)">
                <path d="M951.439,1100.57C948.734,1102.42 944.675,1102.36 941.961,1099.94C937.893,1096.32 935.612,1091.62 935.882,1086.07C936.09,1082.44 938.365,1080.01 941.709,1079.36C944.84,1078.78 947.623,1079.99 949.338,1082.98L949.05,1082.84C950.697,1085.61 951.914,1088.53 953.341,1091.38C954.916,1095.37 954.282,1098.43 951.439,1100.57ZM930.092,1074.47C929.088,1072.9 928.445,1070.98 927.872,1069.27C922.433,1055.18 916.991,1041.09 912.769,1029.92C905.819,1009.92 900.515,992.686 896.703,974.958C896.276,972.969 895.839,970.974 895.839,968.843C895.755,964.348 898.313,961.352 902.444,960.92C906.078,960.409 909.217,962.684 910.365,966.815C911.152,969.165 911.513,971.659 912.3,974.006C919.611,997.209 927.132,1020.34 936.156,1042.98C939.305,1050.95 941.388,1059.28 945.601,1066.89C947.604,1070.74 945.904,1074.86 942.136,1077.08L941.276,1076.66C937.719,1078.8 932.662,1077.88 930.092,1074.47ZM890.603,1111.9C882.556,1111.45 875.689,1109.75 870.818,1103.02C869.511,1101.14 868.204,1099.25 867.72,1096.99C867.183,1094.04 868.033,1091.47 870.365,1089.48C872.898,1087.41 875.741,1087.16 878.788,1088.54C880.268,1089.12 881.426,1090.1 882.375,1091.16C886.38,1095.32 892.564,1096.57 896.549,1093.86C900.948,1090.99 902.262,1085.51 899.966,1079.63C899.608,1078.8 899.25,1077.98 898.896,1077.15C893.057,1064.21 884.893,1053.27 872.913,1045.43C868.057,1042.14 863.522,1038.46 858.775,1034.86C845.021,1024.61 839.451,1010.58 840.493,993.693C841.199,982.836 846.878,974.985 855.974,969.336C859.424,967.107 863.3,966.412 867.414,966.845C870.221,967.101 872.886,968.152 874.872,970.487C877.159,972.933 877.676,976.394 876.317,978.942C874.847,981.784 872.342,983.365 869.352,982.686C866.362,982.019 863.727,982.175 861.491,984.366C858.925,986.952 857.041,989.975 856.936,993.699C856.617,1004.88 859.601,1014.63 869,1021.61C875.196,1026.3 881.392,1030.99 887.585,1035.66C897.37,1042.97 904.938,1051.96 910.176,1062.94C912.619,1068.03 915.678,1072.84 917.084,1078.36C921.068,1093.82 909.827,1112.67 890.603,1111.9ZM893.646,1190.06C857.792,1226.97 797.481,1248.95 746.633,1252.08C745.965,1252.12 745.815,1251.18 746.417,1250.95C769.626,1242.08 794.275,1237.73 817.374,1228.35C843.913,1217.58 867.982,1203.44 892.384,1188.63C893.283,1188.08 894.431,1189.25 893.646,1190.06ZM713.546,1029.63C712.975,1027.92 712.188,1026.29 711.617,1024.59C709.468,1019.6 710.319,1016.46 714.444,1013.18C722.338,1006.97 731.38,1005.59 740.854,1007.64C750.052,1009.54 757.612,1014.38 764.109,1020.99L764.25,1021.41C772.102,1029.24 777.598,1038.55 781.612,1050.51C784.476,1058.34 785.78,1067.88 784.731,1077.5C783.256,1089.4 778.65,1099.74 768.403,1106.74C767.409,1107.3 766.411,1107.88 765.419,1108.45C760.792,1110.96 760.575,1111.03 762.796,1115.5C766.519,1123.05 768.737,1131.1 771.177,1139.07C771.675,1140.55 771.75,1142.2 771.753,1143.62C771.546,1147.25 769.485,1149.62 766.285,1150.69C763.082,1151.76 760.371,1150.76 758.16,1148.42C756.302,1146.43 755.443,1143.86 754.794,1141.24C753.646,1135.68 751.639,1130.41 749.205,1125.29C743.556,1113.41 739.616,1100.96 735.034,1088.71C727.729,1069.07 719.781,1049.63 713.546,1029.63ZM729.21,1159.21C728.435,1162.55 727.372,1165.76 725.743,1168.69C719.565,1180.02 708.176,1182.89 697.259,1175.86C691.487,1172.1 687.13,1166.91 683.341,1161.29C675.27,1149.27 669.621,1135.96 665.675,1122.07C660.438,1104.35 657.271,1086.41 657.95,1067.89C658.226,1062.34 658.782,1056.92 660.053,1051.5C661.042,1047.38 662.598,1043.53 665.017,1040.1C670.771,1031.75 679.955,1029.38 689.008,1033.71C694.994,1036.69 699.706,1041.53 703.633,1046.86L703.344,1046.72C711.992,1058.32 717.356,1071.48 722.014,1084.64C727.75,1103.15 731.557,1121.59 731.311,1140.68C731.25,1146.88 730.695,1153 729.21,1159.21ZM663.932,1179C663.509,1182.41 662.791,1185.7 661.468,1188.79C656.519,1200.71 645.488,1204.75 633.901,1198.91C627.766,1195.77 622.892,1191.06 618.538,1185.87C609.25,1174.75 602.237,1162.12 596.864,1148.73C589.796,1131.64 584.769,1114.13 583.504,1095.65C583.195,1090.09 583.183,1084.64 583.88,1079.13C584.433,1074.92 585.581,1070.93 587.618,1067.26C592.471,1058.36 601.356,1055.04 610.815,1058.4C617.084,1060.74 622.272,1065.05 626.735,1069.95L626.431,1069.83C636.245,1080.46 642.961,1092.99 648.968,1105.59C656.609,1123.41 662.333,1141.35 664.08,1160.35C664.671,1166.52 664.755,1172.67 663.932,1179ZM560.484,1067.98C560.018,1068.53 558.885,1068.07 559.146,1067.32C574.243,1023.76 623.276,992.548 664.052,976.448C664.984,976.081 665.588,977.446 664.813,977.99C646.774,990.691 627.167,1001.57 609.982,1015.42C590.476,1031.15 576.386,1049 560.484,1067.98ZM674.618,970.09C675.654,968.918 675.787,967.684 677.052,966.629C678.761,965.202 680.432,964 682.427,962.984C685.916,961.205 689.254,959.664 693.236,960.03C694.074,960.109 694.456,961.349 693.87,961.924C691.063,964.622 687.476,965.983 684.143,967.9C682.542,968.819 680.708,969.952 678.915,970.415C677.716,970.727 676.331,970.601 675.186,970.938C674.69,971.085 674.263,970.496 674.618,970.09ZM787.52,1022.05C789.134,1011.28 795.459,1003.94 804.997,999.08C808.624,997.145 812.539,996.784 816.604,997.557C819.378,998.047 821.95,999.33 823.735,1001.82C825.805,1004.44 826.028,1007.94 824.465,1010.37C822.761,1013.07 820.126,1014.43 817.202,1013.51C814.279,1012.59 811.643,1012.52 809.228,1014.52C806.457,1016.88 804.323,1019.73 803.903,1023.44C802.644,1034.55 804.801,1044.52 813.572,1052.27C819.357,1057.46 825.138,1062.64 830.914,1067.83C840.048,1075.93 846.833,1085.53 851.13,1096.92C853.135,1102.19 855.776,1107.24 856.716,1112.87C859.382,1128.6 846.593,1146.43 827.5,1144.04C819.522,1142.92 812.824,1140.66 808.533,1133.55C807.388,1131.55 806.25,1129.55 805.955,1127.28C805.667,1124.29 806.73,1121.8 809.218,1120.01C811.926,1118.16 814.771,1118.15 817.698,1119.78C819.123,1120.49 820.192,1121.56 821.052,1122.69C824.69,1127.18 830.746,1128.94 834.946,1126.59C839.571,1124.09 841.344,1118.74 839.546,1112.68C839.261,1111.83 838.973,1110.98 838.69,1110.13C833.963,1096.75 826.746,1085.15 815.478,1076.34C810.907,1072.64 806.697,1068.59 802.274,1064.6C789.431,1053.24 785.056,1038.78 787.52,1022.05ZM840.4,898.516C765.046,898.877 689.228,924.676 625.767,964.249C575.061,995.869 531.381,1043.06 525.904,1104.77C521.895,1149.92 542.716,1193.01 573.243,1224.99C611.906,1265.52 661.183,1271.41 714.724,1269.98C754.95,1268.92 794.849,1260.29 832.843,1247.46C849.901,1241.69 866.188,1234.01 882.239,1225.94C883.89,1225.12 894.088,1217.25 894.902,1217.61C900.651,1220.15 906.415,1222.66 912.18,1225.17C940.05,1237.31 968.438,1248.3 996.819,1259.19C997.152,1259.34 997.504,1259.39 997.858,1259.48C998.096,1259.54 998.333,1259.59 998.567,1259.62C999.28,1259.71 999.983,1259.69 1000.69,1259.54C1000.79,1259.52 1000.89,1259.52 1000.99,1259.5C1003.62,1258.88 1005.93,1256.88 1006.2,1253.95C1006.51,1252.48 1006.32,1250.98 1005.45,1249.72C995.376,1216.82 985.992,1183.68 976.914,1150.48C976.785,1150.01 987.155,1137.3 990.394,1132.05C997.44,1120.64 1002.21,1108.05 1006.38,1095.37C1021.49,1049.44 1014.12,997.121 986.536,957.591C953.533,910.289 894.445,898.26 840.4,898.516Z" style="fill:rgb(252,26,77);fill-rule:nonzero;"/>
            </g>
            <g transform="matrix(4.16667,0,0,4.16667,-2835.24,-3670.96)">
                <path d="M623.216,1092.6C619.496,1086.62 615.257,1081.14 609.77,1076.71C604.277,1072.28 602.134,1073.01 600.584,1079.92C599.382,1085.41 599.394,1090.86 599.908,1096.32L599.818,1096.12C601.714,1113.82 606.873,1130.53 614.265,1146.71C615.479,1149.38 616.495,1152.14 617.919,1154.71C622.254,1163.12 627.209,1171.25 633.827,1178.14C636.164,1180.55 638.61,1182.65 641.477,1184.05C643.658,1185.04 645.098,1184.38 646.077,1182.19C646.97,1179.82 647.354,1177.4 647.748,1175.01C648.346,1169.28 648.04,1163.72 647.228,1158.15C643.92,1134.65 635.915,1112.8 623.216,1092.6Z" style="fill:rgb(252,26,77);fill-rule:nonzero;"/>
            </g>
            <g transform="matrix(4.16667,0,0,4.16667,-2835.24,-3670.96)">
                <path d="M761.892,1091.57C764.244,1089.37 765.948,1086.66 767.003,1083.44C768.139,1079.74 768.772,1075.96 768.694,1072.19C768.52,1056.8 763.153,1043.63 752.378,1032.76C748.808,1029.21 744.74,1026.3 739.965,1024.81L740.605,1024.6C736.903,1023.46 733.125,1022.83 729.424,1024.55C728.862,1027.11 730.217,1029.03 730.929,1031.16C737.952,1050.67 746.675,1069.59 753.129,1089.53C755.281,1095.94 757.054,1096.28 761.892,1091.57Z" style="fill:rgb(252,26,77);fill-rule:nonzero;"/>
            </g>
            <g transform="matrix(4.16667,0,0,4.16667,-2835.24,-3670.96)">
                <path d="M722.663,894.871C773.475,882.059 823.212,870.111 876.097,875.4C936.402,881.427 981.839,913.891 1010.66,966.608C1010.98,967.197 1012.01,966.788 1011.76,966.145C968.495,852.581 817.217,854.754 722.434,894.035C721.933,894.243 722.107,895.012 722.663,894.871Z" style="fill:rgb(252,26,77);fill-rule:nonzero;"/>
            </g>
            <g transform="matrix(4.16667,0,0,4.16667,-2835.24,-3670.96)">
                <path d="M795.291,1270.75C747.654,1285.43 697.86,1292.3 648.709,1281.53C603.285,1271.58 568.083,1245.61 538.596,1210.73C538.269,1210.35 537.683,1210.84 537.917,1211.26C587.26,1299 712.563,1307.25 795.847,1272.07C796.607,1271.75 796.06,1270.52 795.291,1270.75Z" style="fill:rgb(252,26,77);fill-rule:nonzero;"/>
            </g>
        </g>
    </g>
</svg>
