<?xml version="1.0" encoding="UTF-8" standalone="no"?>
<!DOCTYPE svg PUBLIC "-//W3C//DTD SVG 1.1//EN" "http://www.w3.org/Graphics/SVG/1.1/DTD/svg11.dtd">
<svg width="100%" height="100%" viewBox="0 0 745 1040" version="1.1" xmlns="http://www.w3.org/2000/svg" xmlns:xlink="http://www.w3.org/1999/xlink" xml:space="preserve" xmlns:serif="http://www.serif.com/" style="fill-rule:evenodd;clip-rule:evenodd;stroke-linecap:round;stroke-linejoin:round;stroke-miterlimit:3;">
    <g id="Card-Body" serif:id="Card Body" transform="matrix(3.22119,0,0,3.57172,-628.132,-346.457)">
        <path d="M426,113.534L426,371.466C426,380.591 417.785,388 407.667,388L213.333,388C203.215,388 195,380.591 195,371.466L195,113.534C195,104.409 203.215,97 213.333,97L407.667,97C417.785,97 426,104.409 426,113.534Z" style="fill:rgb(242,242,242);stroke:rgb(30,30,30);stroke-width:0.25px;"/>
    </g>
    <g id="_5" serif:id="5">
        <g id="Top-L" serif:id="Top L">
            <g transform="matrix(1,0,0,1,-34,-77)">
                <g transform="matrix(83.3333,0,0,83.3333,120.827,179.483)">
                </g>
                <text x="77.661px" y="179.483px" style="font-family:'LobsterTwo-Bold', 'Lobster Two';font-weight:700;font-size:83.333px;fill:rgb(252,26,77);">5</text>
            </g>
            <g transform="matrix(2.74184,0,0,2.74184,21.3746,110.59)">
                <path d="M30,12.75C30,21.5 17.026,28.583 16.474,28.875C16.178,29.034 15.822,29.034 15.526,28.875C14.974,28.583 2,21.5 2,12.75C2.005,8.5 5.5,5.005 9.75,5C12.331,5 14.591,6.11 16,7.986C17.409,6.11 19.669,5 22.25,5C26.5,5.005 29.995,8.5 30,12.75Z" style="fill:rgb(252,26,77);fill-rule:nonzero;"/>
            </g>
        </g>
        <g id="Bottom-R" serif:id="Bottom R">
            <g transform="matrix(1,0,0,1,579.512,820.701)">
                <g transform="matrix(83.3333,0,0,83.3333,120.827,179.483)">
                </g>
                <text x="77.661px" y="179.483px" style="font-family:'LobsterTwo-Bold', 'Lobster Two';font-weight:700;font-size:83.333px;fill:rgb(252,26,77);">5</text>
            </g>
            <g transform="matrix(2.74184,0,0,2.74184,634.886,836.203)">
                <path d="M30,12.75C30,21.5 17.026,28.583 16.474,28.875C16.178,29.034 15.822,29.034 15.526,28.875C14.974,28.583 2,21.5 2,12.75C2.005,8.5 5.5,5.005 9.75,5C12.331,5 14.591,6.11 16,7.986C17.409,6.11 19.669,5 22.25,5C26.5,5.005 29.995,8.5 30,12.75Z" style="fill:rgb(252,26,77);fill-rule:nonzero;"/>
            </g>
        </g>
        <g id="Title" transform="matrix(1,0,0,1,-34.0945,604.89)">
            <g transform="matrix(66.6667,0,0,66.6667,634.081,181.788)">
            </g>
            <text x="178.014px" y="181.788px" style="font-family:'MarkerFelt-Thin', 'Marker Felt';font-size:66.667px;fill:rgb(252,26,77);">TH<tspan x="245.281px 281.281px 344.681px 377.347px 394.014px 457.747px 500.547px 533.214px 565.214px 596.081px " y="181.788px 181.788px 181.788px 181.788px 181.788px 181.788px 181.788px 181.788px 181.788px 181.788px ">UMB MASTER</tspan></text>
        </g>
        <g transform="matrix(0.168485,0,0,0.168485,117.497,264.835)">
            <g transform="matrix(4.16667,0,0,4.16667,0,-5538.92)">
                <path d="M460.396,1597.52C412.233,1621.31 381.05,1581.87 375.432,1544.91C366.178,1484.04 376.362,1411.09 398.523,1379.97C436.093,1327.18 497.462,1382.98 510.873,1438.2C513.966,1450.93 515.491,1463.21 515.883,1473.06C517.502,1513.48 506.432,1574.78 460.396,1597.52ZM351.045,1544.91C345.426,1581.87 314.244,1621.31 266.081,1597.52C220.045,1574.78 208.979,1513.48 210.592,1473.06C210.991,1463.21 212.509,1450.93 215.604,1438.2C229.014,1382.98 290.383,1327.18 327.958,1379.97C350.115,1411.09 360.303,1484.04 351.045,1544.91ZM563.045,1440.36C556.606,1408.93 544.001,1381.04 525.603,1357.73C531.725,1347.53 538.307,1337.57 545.05,1327.99C552.838,1316.92 560.857,1304.67 558.086,1290.64C556.881,1284.52 549.672,1281.06 543.992,1282.64C528.37,1286.98 514.959,1294.84 501.923,1304.34C495.436,1309.07 488.716,1313.47 482.609,1318.55C476.321,1314.46 469.706,1310.67 462.74,1307.24C412.75,1282.56 353.327,1276.6 299.271,1289.41C280.65,1293.82 263.533,1301.6 248.072,1311.83C225.36,1290.92 183.856,1262.98 178.318,1293.99C175.57,1309.38 184.738,1326.42 191.221,1339.76C193.897,1345.27 196.906,1351.55 200.37,1357.59C193.769,1366.47 187.799,1375.85 182.584,1385.63C181.521,1387.82 180.458,1390.01 179.396,1392.2C179.324,1392.33 179.229,1392.42 179.158,1392.55C128.713,1488.86 174.64,1618.74 271.021,1665.63C277.029,1668.56 283.16,1671.11 289.372,1673.37C289.083,1685.31 288.959,1697.26 288.627,1709.15C287.92,1734.66 281.637,1766.87 285.547,1793.32C278.453,1794.09 271.572,1795.34 264.624,1796.97C252.979,1799.71 256.728,1815.48 267.272,1816.51C273.736,1817.15 279.943,1817.24 286.416,1816.66C293.714,1816.02 301.791,1816.68 308.14,1812.65C313.085,1809.51 314.001,1780.48 314.424,1771.76C315.296,1753.93 314.244,1735.46 314.642,1718.81C314.945,1706.21 315.373,1693.53 315.534,1680.84C337.382,1685.47 359.866,1686.4 382.038,1684C381.032,1712.2 380.965,1740.5 381.198,1768.69C381.288,1779.44 384.268,1809.76 387.818,1811.66C397.882,1820.66 423.565,1819.67 432.691,1815.32C439.325,1812.15 439.315,1800.99 432.691,1797.81C425.292,1794.27 416.936,1794.84 408.973,1793.7C408.375,1793.62 407.834,1793.52 407.312,1793.4C407.929,1755.63 408.874,1717.55 407.815,1679.67C456.599,1668.52 501.833,1641.24 532.451,1601.5C567.544,1555.96 574.287,1495.18 563.045,1440.36Z" style="fill:rgb(252,26,77);fill-rule:nonzero;"/>
            </g>
            <g transform="matrix(4.16667,0,0,4.16667,0,-5538.92)">
                <path d="M306.309,1455.28C302.304,1459.34 298.161,1463.32 294.056,1467.34C291.284,1464.36 288.471,1461.42 285.552,1458.6C276.179,1449.53 263.732,1462.86 271.562,1472.59C274.225,1475.89 276.849,1479.23 279.478,1482.56C275.985,1486.59 272.691,1490.78 269.788,1495.29C263.386,1505.24 277.58,1515.41 285.737,1507.6C288.418,1505.03 291.047,1502.4 293.657,1499.74C296.343,1502.55 299.248,1505.1 302.475,1506.95C311.187,1511.95 322.553,1501.7 316.683,1492.75C314.457,1489.36 311.699,1486.29 308.848,1483.3C312.819,1478.75 316.721,1474.14 320.455,1469.43C328.261,1459.58 315.591,1445.85 306.309,1455.28Z" style="fill:rgb(252,26,77);fill-rule:nonzero;"/>
            </g>
            <g transform="matrix(4.16667,0,0,4.16667,0,-5538.92)">
                <path d="M446.51,1455.28C442.505,1459.34 438.362,1463.32 434.257,1467.34C431.486,1464.36 428.671,1461.42 425.753,1458.6C416.381,1449.53 403.933,1462.86 411.763,1472.59C414.425,1475.89 417.05,1479.23 419.679,1482.56C416.186,1486.59 412.893,1490.78 409.989,1495.29C403.587,1505.24 417.78,1515.41 425.938,1507.6C428.619,1505.03 431.249,1502.4 433.858,1499.74C436.544,1502.55 439.448,1505.1 442.675,1506.95C451.388,1511.95 462.753,1501.7 456.884,1492.75C454.658,1489.36 451.901,1486.29 449.049,1483.3C453.021,1478.75 456.921,1474.14 460.656,1469.43C468.463,1459.58 455.792,1445.85 446.51,1455.28Z" style="fill:rgb(252,26,77);fill-rule:nonzero;"/>
            </g>
            <g transform="matrix(4.16667,0,0,4.16667,-1832.28,-4514.02)">
                <path d="M536.371,1129.41C526.946,1116.23 542.07,1101.05 555.59,1104.32C558.803,1105.1 561.237,1106.5 563.031,1108.29C564.82,1110.31 566.12,1112.81 566.751,1115.72C567.444,1119.73 566.704,1124.2 564.924,1128.25C559.178,1137.97 543.921,1139.96 536.371,1129.41ZM580.02,1111.55C579.797,1110.84 579.607,1110.11 579.332,1109.41C576.821,1101.71 571.227,1094.96 562.144,1091.53C537.083,1082.05 507.684,1108.92 521.356,1134.67C535.616,1161.54 574.501,1156.44 580.732,1126.68C581.842,1121.38 581.462,1116.31 580.063,1111.7C580.053,1111.65 580.029,1111.6 580.02,1111.55Z" style="fill:rgb(252,26,77);fill-rule:nonzero;"/>
            </g>
            <g transform="matrix(4.16667,0,0,4.16667,-77.1487,-5691.66)">
                <path d="M207.854,1749.24C198.429,1736.06 213.553,1720.88 227.073,1724.15C230.286,1724.93 232.721,1726.33 234.514,1728.12C236.303,1730.14 237.604,1732.64 238.234,1735.55C238.927,1739.56 238.187,1744.03 236.408,1748.08C230.661,1757.79 215.404,1759.79 207.854,1749.24ZM251.503,1731.38C251.28,1730.67 251.09,1729.93 250.815,1729.24C248.304,1721.53 242.709,1714.79 233.627,1711.36C208.565,1701.88 179.167,1728.75 192.839,1754.5C207.1,1781.37 245.984,1776.27 252.215,1746.51C253.326,1741.21 252.945,1736.14 251.545,1731.53C251.537,1731.48 251.513,1731.43 251.503,1731.38Z" style="fill:rgb(252,26,77);fill-rule:nonzero;"/>
            </g>
            <g transform="matrix(4.16667,0,0,4.16667,-1015.79,-4418.91)">
                <path d="M867.483,1417.83C858.059,1404.65 873.183,1389.46 886.703,1392.74C889.916,1393.52 892.35,1394.92 894.144,1396.71C895.933,1398.74 897.233,1401.23 897.864,1404.14C898.557,1408.15 897.816,1412.62 896.037,1416.67C890.29,1426.38 875.033,1428.38 867.483,1417.83ZM911.133,1399.97C910.909,1399.25 910.72,1398.52 910.444,1397.83C907.934,1390.12 902.339,1383.38 893.256,1379.95C868.195,1370.47 838.797,1397.34 852.469,1423.09C866.729,1449.96 905.613,1444.85 911.844,1415.1C912.955,1409.79 912.575,1404.73 911.175,1400.11C911.166,1400.07 911.142,1400.02 911.133,1399.97Z" style="fill:rgb(252,26,77);fill-rule:nonzero;"/>
            </g>
            <g transform="matrix(4.16667,0,0,4.16667,1934.43,-5003.45)">
                <path d="M221.378,1191.99C233.205,1208.55 214.123,1227.65 197.148,1223.53C193.394,1222.62 190.519,1221 188.307,1218.97C185.773,1216.32 183.951,1212.96 183.097,1209.01C182.195,1203.53 183.429,1197.44 186.162,1192.11C193.902,1180.93 212.172,1179.1 221.378,1191.99ZM190.101,1236.14C218.494,1246.87 252.276,1216.62 236.645,1187.21C220.287,1156.43 176.515,1162.54 169.097,1196.28C167.498,1203.53 168.31,1210.4 170.772,1216.4C173.672,1224.9 179.951,1232.31 190.101,1236.14Z" style="fill:rgb(252,26,77);fill-rule:nonzero;"/>
            </g>
        </g>
    </g>
</svg>
