<?xml version="1.0" encoding="UTF-8" standalone="no"?>
<!DOCTYPE svg PUBLIC "-//W3C//DTD SVG 1.1//EN" "http://www.w3.org/Graphics/SVG/1.1/DTD/svg11.dtd">
<svg width="100%" height="100%" viewBox="0 0 745 1040" version="1.1" xmlns="http://www.w3.org/2000/svg" xmlns:xlink="http://www.w3.org/1999/xlink" xml:space="preserve" xmlns:serif="http://www.serif.com/" style="fill-rule:evenodd;clip-rule:evenodd;stroke-linecap:round;stroke-linejoin:round;stroke-miterlimit:3;">
    <g id="Card-Body" serif:id="Card Body" transform="matrix(3.22119,0,0,3.57172,-628.132,-346.457)">
        <path d="M426,113.534L426,371.466C426,380.591 417.785,388 407.667,388L213.333,388C203.215,388 195,380.591 195,371.466L195,113.534C195,104.409 203.215,97 213.333,97L407.667,97C417.785,97 426,104.409 426,113.534Z" style="fill:rgb(242,242,242);stroke:rgb(30,30,30);stroke-width:0.25px;"/>
    </g>
    <g id="K">
        <g id="Top-L" serif:id="Top L">
            <g transform="matrix(1,0,0,1,-34,-77)">
                <g transform="matrix(83.3333,0,0,83.3333,126.286,179.483)">
                </g>
                <text x="72.202px" y="179.483px" style="font-family:'LobsterTwo-Bold', 'Lobster Two';font-weight:700;font-size:83.333px;fill:rgb(30,30,30);">K</text>
            </g>
            <g transform="matrix(2.95276,0,0,2.95276,18,118.395)">
                <path d="M29,17C28.999,20.839 25.839,23.998 22,23.998C20.801,23.998 19.621,23.689 18.575,23.103L19.958,27.712C19.985,27.806 20,27.903 20,28C20,28.548 19.548,29 19,29L13,29C12.452,29 12,28.548 12,28C12,27.903 12.015,27.806 12.043,27.712L13.425,23.103C12.379,23.689 11.199,23.998 10,23.998C6.161,23.998 3.001,20.839 3,17C3,13 5.206,9.145 9.375,5.841C11.289,4.332 13.384,3.067 15.611,2.078C15.857,1.974 16.135,1.974 16.381,2.078C18.611,3.067 20.709,4.331 22.625,5.841C26.794,9.145 29,13 29,17Z" style="fill:rgb(30,30,30);fill-rule:nonzero;"/>
            </g>
        </g>
        <g id="Bottom-R" serif:id="Bottom R">
            <g transform="matrix(1,0,0,1,579.512,820.701)">
                <g transform="matrix(83.3333,0,0,83.3333,126.286,179.483)">
                </g>
                <text x="72.202px" y="179.483px" style="font-family:'LobsterTwo-Bold', 'Lobster Two';font-weight:700;font-size:83.333px;fill:rgb(30,30,30);">K</text>
            </g>
            <g transform="matrix(2.95276,0,0,2.95276,631.512,830.071)">
                <path d="M29,17C28.999,20.839 25.839,23.998 22,23.998C20.801,23.998 19.621,23.689 18.575,23.103L19.958,27.712C19.985,27.806 20,27.903 20,28C20,28.548 19.548,29 19,29L13,29C12.452,29 12,28.548 12,28C12,27.903 12.015,27.806 12.043,27.712L13.425,23.103C12.379,23.689 11.199,23.998 10,23.998C6.161,23.998 3.001,20.839 3,17C3,13 5.206,9.145 9.375,5.841C11.289,4.332 13.384,3.067 15.611,2.078C15.857,1.974 16.135,1.974 16.381,2.078C18.611,3.067 20.709,4.331 22.625,5.841C26.794,9.145 29,13 29,17Z" style="fill:rgb(30,30,30);fill-rule:nonzero;"/>
            </g>
        </g>
        <g id="Title" transform="matrix(1,0,0,1,-33.9055,604.89)">
            <g transform="matrix(66.6667,0,0,66.6667,605.186,181.788)">
            </g>
            <text x="206.719px" y="181.788px" style="font-family:'MarkerFelt-Thin', 'Marker Felt';font-size:66.667px;fill:rgb(30,30,30);">TH<tspan x="273.719px 302.386px 319.053px 359.319px 375.319px 415.319px 445.586px 456.253px " y="181.788px 181.788px 181.788px 181.788px 181.788px 181.788px 181.788px 181.788px ">E KING&apos;S</tspan> C<tspan x="537.319px 575.186px " y="181.788px 181.788px ">UP</tspan></text>
        </g>
        <g transform="matrix(0.14023,-0.00923816,0.00923816,0.14023,156.723,279.122)">
            <g transform="matrix(1.85789,1.7934,-1.7934,1.85789,3184.26,-3541.24)">
                <path d="M848.976,1442.97C837.08,1462.83 808.996,1474.51 789.02,1483.74C759.214,1497.5 727.347,1507.06 695.585,1515.09C665.23,1522.75 634.15,1528.14 602.867,1529.78C582.094,1530.87 555.705,1532.3 542.757,1513.48C494.177,1442.87 466.781,1357.78 444.13,1275.73C449.479,1276.35 455.188,1276.01 461.195,1274.54C461.893,1274.47 462.614,1274.33 463.386,1274.03C464.179,1273.81 464.849,1273.48 465.465,1273.1C466.883,1272.48 468.257,1271.83 469.558,1271.11C491.211,1311.32 565.215,1434.87 616.485,1387.83C637.068,1368.95 636.404,1328.39 636.801,1303.2C637.324,1269.72 634.15,1236.02 629.264,1202.9C633.141,1202.92 637.185,1202.45 641.371,1201.43C642.071,1201.35 642.795,1201.22 643.571,1200.91C644.364,1200.69 645.034,1200.36 645.65,1199.98C647.988,1198.96 650.188,1197.83 652.213,1196.56C670.432,1232.53 688.385,1268.75 711.403,1301.94C722.84,1318.43 746.02,1353.4 770.642,1349.15C793.551,1345.19 798.74,1317.72 802.334,1298.57C810.066,1257.38 809.813,1214.67 811.304,1172.84C817.491,1173.99 824.207,1173.84 831.343,1172.11C831.638,1172.07 831.941,1172.02 832.251,1171.95C840.998,1221.12 848.255,1270.54 852.246,1320.34C854.087,1343.33 854.838,1366.39 854.875,1389.45C854.899,1405.8 857.69,1428.43 848.976,1442.97ZM430.825,1196.35C467.223,1170.32 500.079,1242.23 459.107,1258.5C444.656,1262.78 432.273,1258.09 422.309,1247.1C406.612,1229.78 413.099,1209.03 430.825,1196.35ZM611.013,1123.23C647.405,1097.19 680.266,1169.11 639.292,1185.39C624.841,1189.65 612.458,1184.97 602.497,1173.97C586.793,1156.66 593.29,1135.91 611.013,1123.23ZM800.979,1093.92C837.371,1067.89 870.229,1139.78 829.258,1156.07C814.808,1160.34 802.427,1155.65 792.463,1144.66C776.763,1127.34 783.253,1106.59 800.979,1093.92ZM845.634,1164.84C884.761,1135.13 855.755,1057.69 802.049,1075.17C755.852,1090.19 764.418,1149.55 797.98,1168.07C791.715,1218.94 801.535,1281.31 777.436,1327.34C762.691,1355.5 707.046,1267.9 701.829,1259.03C688.037,1235.57 676.474,1210.87 662.89,1187.3C690.625,1154.1 662.044,1088.23 612.083,1104.48C562.364,1120.65 576.069,1188.15 616.106,1200.84C616.04,1201.25 615.887,1201.59 615.905,1202.03C618.125,1253.51 628.636,1307.34 615.418,1358.11C594.702,1437.68 501.533,1293.42 480.318,1263.1C512.029,1230.93 483.227,1160.9 431.895,1177.6C384.724,1192.95 394.646,1254.53 429.98,1271.64C429.996,1271.82 429.936,1271.96 429.962,1272.15C437.439,1321.54 456,1370.05 474.627,1416.15C489.796,1453.67 507.63,1504.86 537.333,1533.57C551.949,1547.7 579.143,1547.01 597.743,1546.74C632.143,1546.22 666.736,1539.33 700.048,1531.27C752.88,1518.48 830.093,1498.87 863.462,1451.44C870.572,1441.34 870.161,1428.55 870.891,1416.78C872.669,1388.07 871.471,1359.17 869.74,1330.5C866.38,1274.87 858.847,1219 845.634,1164.84Z" style="fill:rgb(30,30,30);fill-rule:nonzero;"/>
            </g>
            <g transform="matrix(1.85789,1.7934,-1.7934,1.85789,3184.26,-3541.24)">
                <path d="M636.71,1168.1C629.559,1167.83 623.522,1168.48 616.936,1165.07C611.836,1162.43 608.503,1154.88 603.092,1153.7C602.674,1153.61 602.355,1153.83 602.206,1154.21C599.468,1161.06 609.835,1169.24 614.754,1172.38C621.902,1176.94 631.662,1177.33 638.342,1172.04C640.034,1170.7 638.517,1168.17 636.71,1168.1Z" style="fill:rgb(30,30,30);fill-rule:nonzero;"/>
            </g>
            <g transform="matrix(1.85789,1.7934,-1.7934,1.85789,3184.26,-3541.24)">
                <path d="M458.966,1248.53C459.489,1248.11 459.356,1247.06 458.743,1246.79C452.307,1243.95 445.272,1244.17 438.956,1240.86C433.457,1237.97 430.194,1232.22 424.481,1230C424.118,1229.85 423.601,1230.15 423.535,1230.53C422.309,1237.82 429.737,1243.67 435.26,1247.18C442.147,1251.55 452.157,1253.97 458.966,1248.53Z" style="fill:rgb(30,30,30);fill-rule:nonzero;"/>
            </g>
            <g transform="matrix(1.85789,1.7934,-1.7934,1.85789,3184.26,-3541.24)">
                <path d="M826.418,1142.17C820.225,1139.8 813.846,1139.65 808.046,1136.05C801.715,1132.11 800.201,1125.47 795.714,1120.21C794.945,1119.31 793.539,1119.88 793.223,1120.87C790.876,1128.2 797.716,1136.86 803.218,1140.98C809.735,1145.86 819.408,1150.04 826.761,1144.81C827.822,1144.05 827.621,1142.63 826.418,1142.17Z" style="fill:rgb(30,30,30);fill-rule:nonzero;"/>
            </g>
            <g transform="matrix(1.85789,1.7934,-1.7934,1.85789,3184.26,-3541.24)">
                <path d="M762.475,1469.63C729.385,1478.25 696.628,1487.78 663.259,1495.33C625.292,1503.93 582.899,1516.41 547.441,1495.28C546.748,1494.86 546.158,1495.77 546.627,1496.34C569.287,1523.66 604.27,1515.99 635.388,1510.73C679.13,1503.35 724.015,1492.84 763.623,1472.36C765.158,1471.56 764.079,1469.21 762.475,1469.63Z" style="fill:rgb(30,30,30);fill-rule:nonzero;"/>
            </g>
            <g transform="matrix(1.85789,1.7934,-1.7934,1.85789,3184.26,-3541.24)">
                <path d="M780.759,1460.77C778.04,1462.02 774.362,1463.3 773.006,1466.22C772.847,1466.56 772.956,1467.04 773.382,1467.13C776.48,1467.78 779.695,1466.01 782.502,1464.9C786.048,1463.51 789.212,1462.56 791.616,1459.45C792.087,1458.84 791.802,1458.05 791.003,1457.98C787.124,1457.62 784.212,1459.18 780.759,1460.77Z" style="fill:rgb(30,30,30);fill-rule:nonzero;"/>
            </g>
            <g transform="matrix(1.85789,1.7934,-1.7934,1.85789,3184.26,-3541.24)">
                <path d="M617.75,1557.33C597.875,1557.36 579.038,1560.93 559.253,1556.69C543.138,1553.24 529.956,1543.62 519.445,1531.28C506.884,1516.52 499.462,1497.37 491.184,1480.1C481.472,1459.82 473.041,1438.93 462.755,1418.95C462.628,1418.7 462.241,1418.88 462.316,1419.14C468.957,1442.55 478.978,1464.9 489.321,1486.9C498.116,1505.62 506.368,1524.53 520.395,1540.01C545.359,1567.57 584.636,1567.25 617.93,1558.65C618.669,1558.46 618.507,1557.33 617.75,1557.33Z" style="fill:rgb(30,30,30);fill-rule:nonzero;"/>
            </g>
            <g transform="matrix(1.85789,1.7934,-1.7934,1.85789,3184.26,-3541.24)">
                <path d="M637.807,1552.18C633.753,1553.5 629.475,1554.03 625.592,1555.82C625.235,1555.99 625.334,1556.58 625.704,1556.65C633.072,1558.25 643.132,1554.5 649.184,1550.36C649.563,1550.1 649.47,1549.38 648.929,1549.42C645.025,1549.74 641.506,1550.98 637.807,1552.18Z" style="fill:rgb(30,30,30);fill-rule:nonzero;"/>
            </g>
            <g transform="matrix(1.85789,1.7934,-1.7934,1.85789,3184.26,-3541.24)">
                <path d="M883.199,1340.87C880.882,1298.79 878.006,1255.15 868.282,1214.02C868.141,1213.41 867.138,1213.53 867.198,1214.16C875.058,1295.18 884.56,1375.57 879.434,1457.18C879.41,1457.58 880.074,1457.68 880.143,1457.27C886.51,1419 885.323,1379.47 883.199,1340.87Z" style="fill:rgb(30,30,30);fill-rule:nonzero;"/>
            </g>
            <g transform="matrix(1.85789,1.7934,-1.7934,1.85789,3184.26,-3541.24)">
                <path d="M767.36,1308.78C768.04,1308.73 768.391,1307.8 767.724,1307.43C749.042,1297.15 736.65,1287.35 725.301,1268.72C716.196,1253.76 710.163,1236.02 698.891,1222.53C698.62,1222.2 698.001,1222.55 698.167,1222.95C709.03,1249.27 730.575,1311.36 767.36,1308.78Z" style="fill:rgb(30,30,30);fill-rule:nonzero;"/>
            </g>
            <g transform="matrix(1.85789,1.7934,-1.7934,1.85789,3184.26,-3541.24)">
                <path d="M591.087,1362.41C591.908,1362.35 592.058,1361.26 591.28,1360.99C569.106,1353.26 554.981,1341.27 540.924,1322.63C530.966,1309.44 522.62,1293.22 509.664,1282.66C509.484,1282.51 509.183,1282.69 509.325,1282.92C520.375,1300.39 532.234,1318 545.143,1334.15C555.933,1347.66 572.367,1363.7 591.087,1362.41Z" style="fill:rgb(30,30,30);fill-rule:nonzero;"/>
            </g>
            <g transform="matrix(1.85789,1.7934,-1.7934,1.85789,3184.26,-3541.24)">
                <path d="M495.319,1196.65C495.592,1197.12 496.337,1196.8 496.196,1196.28C488.435,1167.38 453.362,1150.43 426.128,1164.58C425.689,1164.81 426.014,1165.4 426.444,1165.33C456.964,1160.03 479.516,1169.43 495.319,1196.65Z" style="fill:rgb(30,30,30);fill-rule:nonzero;"/>
            </g>
            <g transform="matrix(1.85789,1.7934,-1.7934,1.85789,3184.26,-3541.24)">
                <path d="M408.949,1270.75C403.58,1267.42 399.55,1262.16 396.179,1256.95C390.589,1248.31 388.318,1238.16 386.437,1228.2C386.341,1227.7 385.505,1227.69 385.415,1228.2C383.402,1239.85 387.579,1251.54 393.664,1261.35C398.718,1269.49 409.163,1279.92 419.575,1278.34C420.022,1278.27 420.197,1277.57 419.851,1277.29C416.513,1274.58 412.594,1273.01 408.949,1270.75Z" style="fill:rgb(30,30,30);fill-rule:nonzero;"/>
            </g>
            <g transform="matrix(1.85789,1.7934,-1.7934,1.85789,3184.26,-3541.24)">
                <path d="M679.822,1126.9C685.973,1143.53 684.587,1161.7 681.354,1178.76C681.226,1179.44 682.195,1179.96 682.538,1179.26C696.785,1150.4 682.796,1085.95 640.773,1090.63C640.256,1090.69 640.091,1091.41 640.644,1091.57C660.678,1097.33 672.439,1106.94 679.822,1126.9Z" style="fill:rgb(30,30,30);fill-rule:nonzero;"/>
            </g>
            <g transform="matrix(1.85789,1.7934,-1.7934,1.85789,3184.26,-3541.24)">
                <path d="M865.626,1157.29C865.311,1158.05 866.44,1158.37 866.855,1157.81C881.314,1138.44 878.772,1112.41 868.075,1091.91C859.814,1076.08 840.142,1059.41 821.118,1063.88C820.691,1063.99 820.667,1064.68 821.118,1064.77C866.879,1073.02 882.405,1116.56 865.626,1157.29Z" style="fill:rgb(30,30,30);fill-rule:nonzero;"/>
            </g>
            <g transform="matrix(1.85789,1.7934,-1.7934,1.85789,3184.26,-3541.24)">
                <path d="M584.603,1196.83C585,1197.09 585.534,1196.58 585.261,1196.18C579.428,1187.68 573.332,1180.08 569.933,1170.19C566.634,1160.59 567.562,1150.12 564.443,1140.59C564.359,1140.34 563.95,1140.3 563.884,1140.59C559.623,1160.04 567.673,1185.83 584.603,1196.83Z" style="fill:rgb(30,30,30);fill-rule:nonzero;"/>
            </g>
            <g transform="matrix(1.85789,1.7934,-1.7934,1.85789,3101.07,-3569.92)">
                <path d="M761.053,1134.65C757.129,1114.64 761.618,1098.94 772.403,1082.28C772.703,1081.81 772.135,1081.39 771.711,1081.58C754.013,1089.66 752.192,1120.17 760.176,1135.03C760.446,1135.53 761.155,1135.17 761.053,1134.65Z" style="fill:rgb(30,30,30);fill-rule:nonzero;"/>
            </g>
            <g transform="matrix(1.85789,1.7934,-1.7934,1.85789,3363.86,-3748.54)">
                <path d="M919.666,1469.05C914.584,1471.8 912.084,1477.72 911.535,1483.17C910.886,1489.62 914.624,1495.17 920.513,1497.48C926.863,1499.97 936.911,1496.85 939.732,1490.43C939.976,1489.88 940.084,1489.31 940.261,1488.75C943.33,1483.33 940.625,1476.91 937.019,1472.49C932.746,1467.26 925.552,1465.88 919.666,1469.05Z" style="fill:rgb(30,30,30);fill-rule:nonzero;"/>
            </g>
            <g transform="matrix(1.85789,1.7934,-1.7934,1.85789,3381.57,-3835.87)">
                <path d="M939.654,1442.66C940.82,1443.81 942.067,1444.85 943.375,1445.75C954.261,1453.25 968.688,1451.19 977.173,1441.37C995.768,1419.83 972.756,1384.18 945.67,1397.69C934.285,1403.37 927.752,1413.91 929.513,1426.59C930.42,1433.13 934.501,1438.61 939.654,1442.66Z" style="fill:rgb(30,30,30);fill-rule:nonzero;"/>
                <clipPath id="_clip1">
                    <path d="M939.654,1442.66C940.82,1443.81 942.067,1444.85 943.375,1445.75C954.261,1453.25 968.688,1451.19 977.173,1441.37C995.768,1419.83 972.756,1384.18 945.67,1397.69C934.285,1403.37 927.752,1413.91 929.513,1426.59C930.42,1433.13 934.501,1438.61 939.654,1442.66Z" clip-rule="nonzero"/>
                </clipPath>
                <g clip-path="url(#_clip1)">
                    <path d="M477.764,1059.83C456.342,1070.18 454.981,1094.21 466.658,1110C469.263,1114.04 472.812,1117.66 476.598,1120.34C491.442,1130.84 510.701,1126.98 521.419,1112.87C531.26,1099.92 531.353,1081.79 521.939,1068.56C511.308,1053.62 493.327,1052.3 477.764,1059.83Z" style="fill:rgb(44,45,44);fill-rule:nonzero;"/>
                </g>
            </g>
            <g transform="matrix(4.16667,0,0,4.16667,0,0)">
                <path d="M118.038,515.421C126.722,526.057 139.686,533.167 153.646,531.196C170.221,528.852 183.676,512.692 186.447,496.814C189.686,478.269 178.689,459.585 162.036,451.587C144.475,443.149 122.972,450.095 111.626,465.48C104.477,475.171 104.156,486.069 108.05,495.558C109.766,502.522 113.132,509.412 118.038,515.421Z" style="fill:rgb(30,30,30);fill-rule:nonzero;"/>
            </g>
            <g transform="matrix(-2.46659,3.35813,-3.35813,-2.46659,5477.83,1828.04)">
                <path d="M504.323,602.064C506.246,604.396 508.861,606.126 511.964,606.94C518.125,608.563 525.048,605.02 529.249,600.654C533.077,596.685 534.333,591.069 533.065,585.787C531.154,577.811 522.554,571.613 514.471,571.82C509.164,571.955 504.548,574.789 501.832,579.302C498.701,584.512 499.188,590.787 500.017,596.516C500.378,599.012 502.121,600.926 504.323,602.064Z" style="fill:rgb(30,30,30);fill-rule:nonzero;"/>
            </g>
            <g transform="matrix(-2.46659,3.35813,-3.35813,-2.46659,5477.83,1828.04)">
                <path d="M504.14,495.366C482.353,505.899 481.254,530.609 493.584,546.384C496.129,550.08 499.454,553.384 502.974,555.874C517.818,566.373 537.08,562.514 547.795,548.407C557.639,535.454 557.735,517.329 548.318,504.101C537.687,489.161 519.705,487.843 504.14,495.366Z" style="fill:rgb(30,30,30);fill-rule:nonzero;"/>
            </g>
            <g transform="matrix(4.16667,0,0,4.16667,0,0)">
                <path d="M441.924,478.497C440.954,506.133 383.579,505.053 364.188,506.833C342.012,508.87 319.752,509.699 297.522,510.871C273.661,512.13 253.053,513.419 244.216,485.751C237.184,463.741 236.379,439.57 233.113,416.8C232.756,414.318 231.189,412.921 229.278,412.399C229.072,412.308 228.859,412.221 228.635,412.145C157.601,387.843 120.568,332.052 130.938,257.02C141.068,183.723 189.773,136.831 258.146,112.793C339.789,84.085 437.428,94.734 502.442,154.379C579.625,225.187 548.236,366.95 446.215,394.979C446.166,394.993 446.123,395.01 446.075,395.025C445.082,395.277 444.151,395.754 443.372,396.486C443.127,396.707 442.906,396.939 442.713,397.187C442.708,397.192 442.705,397.198 442.702,397.203C442.467,397.506 442.267,397.825 442.104,398.159C442.027,398.306 441.967,398.472 441.899,398.63C441.896,398.639 441.892,398.648 441.889,398.657C441.77,398.936 441.644,399.208 441.555,399.519C434.472,424.095 442.813,453.152 441.924,478.497ZM454.8,406.567C552.643,385.111 587.557,256.864 541.136,176.176C488.403,84.518 363.71,68.524 270.628,91.883C188.205,112.567 129.241,168.592 115.598,252.793C102.83,331.608 143.746,401.416 220.434,423.598C220.666,458.93 223.222,512.531 261.079,525.105C289.295,534.477 335.089,524.594 364.188,522.202C390.886,520.006 428.763,519.864 450.265,501.541C459.4,493.756 457.657,474.636 457.543,464.392C457.326,445.146 455.626,425.83 454.8,406.567Z" style="fill:rgb(30,30,30);fill-rule:nonzero;"/>
            </g>
            <g transform="matrix(4.16667,0,0,4.16667,0,0)">
                <path d="M323.219,351.584C322.664,351.867 322.13,352.207 321.613,352.588C315.667,355.111 310.837,364.079 308.418,369.48C305.355,376.319 306.053,385.562 313.418,389.393C320.671,393.165 328.171,386.134 330.476,379.684C333.313,371.749 330.945,362.32 329.782,354.255C329.343,351.223 325.512,350.418 323.219,351.584Z" style="fill:rgb(30,30,30);fill-rule:nonzero;"/>
            </g>
            <g transform="matrix(4.16667,0,0,4.16667,0,0)">
                <path d="M347.129,351.725C339.959,361.782 338.487,382.359 352.52,387.002C354.265,387.579 355.7,387.429 356.868,386.837C360.081,387.363 363.381,386.786 365.651,384.622C370.21,380.277 367.547,371.722 365.661,366.827C363.329,360.772 359.035,353.269 353.037,350.175C350.798,349.02 348.551,349.73 347.129,351.725Z" style="fill:rgb(30,30,30);fill-rule:nonzero;"/>
            </g>
            <g transform="matrix(4.16667,0,0,4.16667,0,0)">
                <path d="M420.86,433.257C416.591,433.611 412.321,434.012 408.052,434.4C407.602,429.138 406.978,423.988 406.235,419.119C405.289,412.921 394.889,413.013 393.855,419.119C392.955,424.442 392.408,430.118 392.165,435.915C383.621,436.766 375.079,437.666 366.539,438.616C365.981,433.003 365.152,427.37 363.518,422.178C361.228,414.897 351.444,416.746 350.768,423.903C350.257,429.313 350.868,434.837 351.521,440.325C343.218,441.293 334.917,442.285 326.621,443.304C325.88,436.038 324.701,428.61 321.296,422.215C318.289,416.559 309.277,419.188 309.382,425.441C309.491,432.013 310.759,438.583 311.661,445.158C302.913,446.254 294.169,447.358 285.431,448.467C284.793,441.685 284.191,434.796 282.387,428.275C280.292,420.7 269.721,422.689 269.213,430.056C268.75,436.769 269.51,443.622 270.257,450.384C266.867,450.812 263.476,451.243 260.087,451.668C251.497,452.743 251.238,466.295 260.087,465.369C263.926,464.968 267.773,464.585 271.624,464.21C272.19,469.883 272.929,475.526 274.472,481.033C276.56,488.479 286.783,486.46 287.363,479.288C287.809,473.769 287.472,468.267 286.932,462.773C295.554,461.987 304.193,461.225 312.841,460.454C313.073,466.051 313.314,471.629 314.304,477.193C315.425,483.482 325.927,483.527 327.009,477.193C328.04,471.147 328.145,465.127 327.868,459.086C336.127,458.317 344.385,457.511 352.629,456.629C352.593,462.671 352.283,468.728 352.992,474.673C353.848,481.853 363.917,484.204 366.165,476.454C368.169,469.55 368.21,462.144 367.799,454.897C375.968,453.911 384.117,452.838 392.231,451.616C392.57,458.6 393.3,465.473 394.369,471.844C395.445,478.272 406.326,478.326 407.35,471.844C408.493,464.623 408.904,456.795 408.795,448.891C413.417,448.074 418.031,447.221 422.624,446.289C429.923,444.807 428.324,432.637 420.86,433.257Z" style="fill:rgb(30,30,30);fill-rule:nonzero;"/>
            </g>
            <g transform="matrix(4.16667,0,0,4.16667,0,0)">
                <path d="M354.927,108.616C356.024,108.481 356.057,106.987 354.927,106.885C289.087,100.993 181.753,139.024 157.315,206.083C157.114,206.633 157.898,206.867 158.192,206.455C204.984,140.989 278.171,118.088 354.927,108.616Z" style="fill:rgb(30,30,30);fill-rule:nonzero;"/>
            </g>
            <g transform="matrix(4.16667,0,0,4.16667,0,0)">
                <path d="M370.384,109.587C371.255,109.364 371.375,108.351 370.871,107.739C368.813,105.223 364.768,104.752 362.105,106.483C361.718,106.735 361.754,107.221 362.105,107.48C364.344,109.133 367.602,110.293 370.384,109.587Z" style="fill:rgb(30,30,30);fill-rule:nonzero;"/>
            </g>
            <g transform="matrix(4.16667,0,0,4.16667,0,0)">
                <path d="M508.533,330.036C525.964,307.825 544.312,266.314 532.004,238.301C531.815,237.864 531.232,238.14 531.199,238.519C529.834,253.519 530.141,267.612 526.181,282.449C521.866,298.606 513.719,313.585 506.871,328.754C506.417,329.757 507.734,331.054 508.533,330.036Z" style="fill:rgb(30,30,30);fill-rule:nonzero;"/>
            </g>
            <g transform="matrix(4.16667,0,0,4.16667,0,0)">
                <path d="M425.557,339.973C405.559,353.639 379.062,340.911 371.658,319.216C365.011,299.742 365.531,262.795 383.425,248.778C383.903,248.405 384.642,248.606 384.657,249.289C385.06,268.742 374.96,286.704 379.597,307.01C381.715,316.283 385.649,326.478 394.826,330.959C404.321,335.593 415,334.703 425.154,336.896C426.684,337.226 426.671,339.21 425.557,339.973ZM387.881,234.866C389.393,232.447 390.875,230.19 393.937,229.866C394.333,229.824 394.79,230.187 394.865,230.572C395.478,233.709 393.594,235.926 391.944,238.372C390.595,240.371 389.447,242.038 387.013,242.221C386.797,242.236 386.581,242.09 386.472,241.912C385.024,239.529 386.508,237.059 387.881,234.866ZM497.899,277.338C496.988,210.938 426.963,169.535 378.759,221.864C342.481,261.242 342.917,359.667 413.149,362.05C421.335,362.326 428.82,361.338 435.674,359.396C470.212,352.491 498.46,318.269 497.899,277.338Z" style="fill:rgb(30,30,30);fill-rule:nonzero;"/>
            </g>
            <g transform="matrix(4.16667,0,0,4.16667,0,0)">
                <path d="M245.919,353.988C190.66,366.368 157.102,272.53 188.704,235.598C189.211,235.007 190.182,235.5 190.182,236.212C190.197,259.95 183.063,281.012 192.111,304.594C202.646,332.058 221.484,339.558 246.322,350.911C247.653,351.52 247.269,353.684 245.919,353.988ZM194.308,221.563C196.141,218.994 197.589,216.278 201.111,216.822C201.94,216.951 202.333,218.577 202.333,219.217C202.333,220.98 201.132,222.336 200.083,223.613C198.707,225.286 196.543,228.952 193.875,228.014C190.87,226.957 193.202,223.114 194.308,221.563ZM320.578,320.28C334.782,284.306 319.211,242.269 296.491,213.823C242.188,145.837 166.429,208.567 160.908,276.953C157.264,322.134 187.706,358.095 225.186,368.158C234.666,371.827 245.364,373.759 257.353,373.353C288.063,372.314 310.161,346.665 320.578,320.28Z" style="fill:rgb(30,30,30);fill-rule:nonzero;"/>
            </g>
            <g transform="matrix(4.16667,0,0,4.16667,0,0)">
                <path d="M567.822,198.862C567.639,198.535 567.074,198.759 567.207,199.124C583.612,243.926 586.016,291.064 566.521,335.334C548.597,376.022 513.287,403.426 471.931,417.569C470.734,417.977 471.209,419.768 472.454,419.468C563.814,397.569 613.766,281.397 567.822,198.862Z" style="fill:rgb(30,30,30);fill-rule:nonzero;"/>
            </g>
            <g transform="matrix(4.16667,0,0,4.16667,0,0)">
                <path d="M95.084,304.489C90.877,283.994 91.06,262.669 94.606,242.113C98.251,220.98 108.134,203.676 117.512,184.817C117.654,184.532 117.299,184.228 117.059,184.468C89.738,211.596 84.642,261.556 90.186,297.599C96.409,338.047 116.188,380.805 152.997,401.782C153.55,402.097 154.22,401.295 153.697,400.874C122.605,375.934 103.098,343.528 95.084,304.489Z" style="fill:rgb(30,30,30);fill-rule:nonzero;"/>
            </g>
            <g transform="matrix(4.16667,0,0,4.16667,0,0)">
                <path d="M357.063,533.675C309.442,541.009 261.114,549.029 223.281,512.506C222.857,512.094 222.124,512.626 222.451,513.145C248.834,554.984 317.348,546.369 357.472,535.159C358.452,534.884 358.019,533.527 357.063,533.675Z" style="fill:rgb(30,30,30);fill-rule:nonzero;"/>
            </g>
            <g transform="matrix(4.16667,0,0,4.16667,0,0)">
                <path d="M383.789,527.731C380.525,528.17 377.446,529.504 374.23,530.21C370.964,530.928 367.596,531.202 364.365,532.064C364.071,532.142 364.065,532.59 364.365,532.665C370.51,534.182 379.576,533.197 384.327,528.653C384.771,528.23 384.291,527.662 383.789,527.731Z" style="fill:rgb(30,30,30);fill-rule:nonzero;"/>
            </g>
            <g transform="matrix(4.16667,0,0,4.16667,0,0)">
                <path d="M562.783,191.203C563.144,191.78 564.262,191.608 564.171,190.827C563.682,186.596 561.758,182.179 558.877,178.97C558.291,178.315 557.365,179.018 557.513,179.763C558.315,183.823 560.617,187.754 562.783,191.203Z" style="fill:rgb(30,30,30);fill-rule:nonzero;"/>
            </g>
        </g>
    </g>
</svg>
