<?xml version="1.0" encoding="UTF-8" standalone="no"?>
<!DOCTYPE svg PUBLIC "-//W3C//DTD SVG 1.1//EN" "http://www.w3.org/Graphics/SVG/1.1/DTD/svg11.dtd">
<svg width="100%" height="100%" viewBox="0 0 745 1040" version="1.1" xmlns="http://www.w3.org/2000/svg" xmlns:xlink="http://www.w3.org/1999/xlink" xml:space="preserve" xmlns:serif="http://www.serif.com/" style="fill-rule:evenodd;clip-rule:evenodd;stroke-linecap:round;stroke-linejoin:round;stroke-miterlimit:3;">
    <g id="Card-Body" serif:id="Card Body" transform="matrix(3.22119,0,0,3.57172,-628.132,-346.457)">
        <path d="M426,113.534L426,371.466C426,380.591 417.785,388 407.667,388L213.333,388C203.215,388 195,380.591 195,371.466L195,113.534C195,104.409 203.215,97 213.333,97L407.667,97C417.785,97 426,104.409 426,113.534Z" style="fill:rgb(242,242,242);stroke:rgb(30,30,30);stroke-width:0.25px;"/>
    </g>
    <g id="_4" serif:id="4">
        <g id="Top-L" serif:id="Top L">
            <g transform="matrix(1,0,0,1,-34,-77)">
                <g transform="matrix(83.3333,0,0,83.3333,120.619,179.483)">
                </g>
                <text x="77.869px" y="179.483px" style="font-family:'LobsterTwo-Bold', 'Lobster Two';font-weight:700;font-size:83.333px;fill:rgb(30,30,30);">4</text>
            </g>
            <g transform="matrix(2.95276,0,0,2.95276,18,118.395)">
                <path d="M29,17C28.999,20.839 25.839,23.998 22,23.998C20.801,23.998 19.621,23.689 18.575,23.103L19.958,27.712C19.985,27.806 20,27.903 20,28C20,28.548 19.548,29 19,29L13,29C12.452,29 12,28.548 12,28C12,27.903 12.015,27.806 12.043,27.712L13.425,23.103C12.379,23.689 11.199,23.998 10,23.998C6.161,23.998 3.001,20.839 3,17C3,13 5.206,9.145 9.375,5.841C11.289,4.332 13.384,3.067 15.611,2.078C15.857,1.974 16.135,1.974 16.381,2.078C18.611,3.067 20.709,4.331 22.625,5.841C26.794,9.145 29,13 29,17Z" style="fill:rgb(30,30,30);fill-rule:nonzero;"/>
            </g>
        </g>
        <g id="Bottom-R" serif:id="Bottom R">
            <g transform="matrix(1,0,0,1,579.512,820.701)">
                <g transform="matrix(83.3333,0,0,83.3333,120.619,179.483)">
                </g>
                <text x="77.869px" y="179.483px" style="font-family:'LobsterTwo-Bold', 'Lobster Two';font-weight:700;font-size:83.333px;fill:rgb(30,30,30);">4</text>
            </g>
            <g transform="matrix(2.95276,0,0,2.95276,631.512,830.071)">
                <path d="M29,17C28.999,20.839 25.839,23.998 22,23.998C20.801,23.998 19.621,23.689 18.575,23.103L19.958,27.712C19.985,27.806 20,27.903 20,28C20,28.548 19.548,29 19,29L13,29C12.452,29 12,28.548 12,28C12,27.903 12.015,27.806 12.043,27.712L13.425,23.103C12.379,23.689 11.199,23.998 10,23.998C6.161,23.998 3.001,20.839 3,17C3,13 5.206,9.145 9.375,5.841C11.289,4.332 13.384,3.067 15.611,2.078C15.857,1.974 16.135,1.974 16.381,2.078C18.611,3.067 20.709,4.331 22.625,5.841C26.794,9.145 29,13 29,17Z" style="fill:rgb(30,30,30);fill-rule:nonzero;"/>
            </g>
        </g>
        <g id="Title" transform="matrix(1,0,0,1,-34,604.89)">
            <g transform="matrix(66.6667,0,0,66.6667,672.586,181.788)">
            </g>
            <text x="139.319px" y="181.788px" style="font-family:'MarkerFelt-Thin', 'Marker Felt';font-size:66.667px;fill:rgb(30,30,30);">D<tspan x="173.519px 215.186px 231.186px 273.319px 310.653px " y="181.788px 181.788px 181.788px 181.788px 181.788px ">RINK </tspan>SOM<tspan x="459.386px 488.053px " y="181.788px 181.788px ">E </tspan>MOR<tspan x="643.919px " y="181.788px ">E</tspan></text>
        </g>
        <g transform="matrix(12.8835,0,0,12.8835,165.817,226.056)">
            <path d="M21.566,6.133C20.035,4.364 18.313,2.771 16.43,1.382C16.172,1.202 15.828,1.202 15.57,1.383C13.687,2.771 11.965,4.364 10.434,6.133C7.043,10.033 5.25,14.136 5.25,18C5.25,23.897 10.103,28.75 16,28.75C21.897,28.75 26.75,23.897 26.75,18C26.75,14.136 24.958,10.033 21.566,6.133ZM16,27.25C10.928,27.244 6.756,23.072 6.75,18C6.75,10.548 14.125,4.384 16,2.936C17.875,4.384 25.25,10.548 25.25,18C25.244,23.072 21.072,27.244 16,27.25ZM22.74,19.125C22.229,21.981 19.981,24.229 17.125,24.74C17.084,24.746 17.042,24.75 17,24.75C16.999,24.75 16.998,24.75 16.997,24.75C16.586,24.75 16.247,24.411 16.247,24C16.247,23.634 16.514,23.319 16.875,23.26C19.048,22.895 20.891,21.05 21.26,18.875C21.321,18.515 21.635,18.25 22,18.25C22.412,18.25 22.75,18.588 22.75,19C22.75,19.042 22.747,19.084 22.74,19.125Z" style="fill:rgb(30,30,30);fill-rule:nonzero;"/>
        </g>
    </g>
</svg>
