<?xml version="1.0" encoding="UTF-8" standalone="no"?>
<!DOCTYPE svg PUBLIC "-//W3C//DTD SVG 1.1//EN" "http://www.w3.org/Graphics/SVG/1.1/DTD/svg11.dtd">
<svg width="100%" height="100%" viewBox="0 0 745 1040" version="1.1" xmlns="http://www.w3.org/2000/svg" xmlns:xlink="http://www.w3.org/1999/xlink" xml:space="preserve" xmlns:serif="http://www.serif.com/" style="fill-rule:evenodd;clip-rule:evenodd;stroke-linecap:round;stroke-linejoin:round;stroke-miterlimit:3;">
    <g id="Card-Body" serif:id="Card Body" transform="matrix(3.22119,0,0,3.57172,-628.132,-346.457)">
        <path d="M426,113.534L426,371.466C426,380.591 417.785,388 407.667,388L213.333,388C203.215,388 195,380.591 195,371.466L195,113.534C195,104.409 203.215,97 213.333,97L407.667,97C417.785,97 426,104.409 426,113.534Z" style="fill:rgb(242,242,242);stroke:rgb(30,30,30);stroke-width:0.25px;"/>
    </g>
    <g id="Q">
        <g id="Top-L" serif:id="Top L">
            <g transform="matrix(1,0,0,1,-34,-77)">
                <g transform="matrix(83.3333,0,0,83.3333,128.286,179.483)">
                </g>
                <text x="70.202px" y="179.483px" style="font-family:'LobsterTwo-Bold', 'Lobster Two';font-weight:700;font-size:83.333px;fill:rgb(30,30,30);">Q</text>
            </g>
            <g transform="matrix(2.95276,0,0,2.95276,18,118.395)">
                <path d="M29,17C28.999,20.839 25.839,23.998 22,23.998C20.801,23.998 19.621,23.689 18.575,23.103L19.958,27.712C19.985,27.806 20,27.903 20,28C20,28.548 19.548,29 19,29L13,29C12.452,29 12,28.548 12,28C12,27.903 12.015,27.806 12.043,27.712L13.425,23.103C12.379,23.689 11.199,23.998 10,23.998C6.161,23.998 3.001,20.839 3,17C3,13 5.206,9.145 9.375,5.841C11.289,4.332 13.384,3.067 15.611,2.078C15.857,1.974 16.135,1.974 16.381,2.078C18.611,3.067 20.709,4.331 22.625,5.841C26.794,9.145 29,13 29,17Z" style="fill:rgb(30,30,30);fill-rule:nonzero;"/>
            </g>
        </g>
        <g id="Bottom-R" serif:id="Bottom R">
            <g transform="matrix(1,0,0,1,579.512,820.701)">
                <g transform="matrix(83.3333,0,0,83.3333,128.286,179.483)">
                </g>
                <text x="70.202px" y="179.483px" style="font-family:'LobsterTwo-Bold', 'Lobster Two';font-weight:700;font-size:83.333px;fill:rgb(30,30,30);">Q</text>
            </g>
            <g transform="matrix(2.95276,0,0,2.95276,631.512,830.071)">
                <path d="M29,17C28.999,20.839 25.839,23.998 22,23.998C20.801,23.998 19.621,23.689 18.575,23.103L19.958,27.712C19.985,27.806 20,27.903 20,28C20,28.548 19.548,29 19,29L13,29C12.452,29 12,28.548 12,28C12,27.903 12.015,27.806 12.043,27.712L13.425,23.103C12.379,23.689 11.199,23.998 10,23.998C6.161,23.998 3.001,20.839 3,17C3,13 5.206,9.145 9.375,5.841C11.289,4.332 13.384,3.067 15.611,2.078C15.857,1.974 16.135,1.974 16.381,2.078C18.611,3.067 20.709,4.331 22.625,5.841C26.794,9.145 29,13 29,17Z" style="fill:rgb(30,30,30);fill-rule:nonzero;"/>
            </g>
        </g>
        <g id="Title" transform="matrix(1,0,0,1,60.4882,604.89)">
            <g transform="matrix(58.3333,0,0,58.3333,538.505,178.322)">
            </g>
            <text x="84.613px" y="178.322px" style="font-family:'MarkerFelt-Thin', 'Marker Felt';font-size:58.333px;fill:rgb(30,30,30);">QUEST<tspan x="233.363px 247.363px " y="178.322px 178.322px ">IO</tspan>N M<tspan x="384.213px 421.663px 450.247px 478.247px 505.255px " y="178.322px 178.322px 178.322px 178.322px 178.322px ">ASTER</tspan></text>
        </g>
        <g id="Icon" transform="matrix(16.9463,0,0,16.9463,100.907,139.678)">
            <path d="M24,12C24,15.564 20.941,18.514 17,18.945L17,20C17,20.549 16.549,21 16,21C15.451,21 15,20.549 15,20L15,18C15,17.451 15.451,17 16,17C19.309,17 22,14.758 22,12C22,9.243 19.309,7 16,7C12.691,7 10,9.243 10,12C10,12.549 9.549,13 9,13C8.451,13 8,12.549 8,12C8,8.14 11.589,5 16,5C20.411,5 24,8.14 24,12ZM16,24C14.903,24 14,24.903 14,26C14,27.097 14.903,28 16,28C17.097,28 18,27.097 18,26C18,24.903 17.097,24 16,24Z" style="fill:rgb(30,30,30);fill-rule:nonzero;"/>
        </g>
    </g>
</svg>
