<?xml version="1.0" encoding="UTF-8" standalone="no"?>
<!DOCTYPE svg PUBLIC "-//W3C//DTD SVG 1.1//EN" "http://www.w3.org/Graphics/SVG/1.1/DTD/svg11.dtd">
<svg width="100%" height="100%" viewBox="0 0 256 256" version="1.1" xmlns="http://www.w3.org/2000/svg" xmlns:xlink="http://www.w3.org/1999/xlink" xml:space="preserve" xmlns:serif="http://www.serif.com/" style="fill-rule:evenodd;clip-rule:evenodd;stroke-miterlimit:10;">
    <g id="fem-1" transform="matrix(1,0,0,1,4.51745,8.32318)">
        <g transform="matrix(1.73769,0,0,1.73769,153.276,276.681)">
            <path d="M29.559,-34.087C26.166,-31.217 22.51,-28.649 18.632,-26.423C15.809,-24.802 12.868,-23.363 9.825,-22.121C6.149,-20.621 2.326,-19.409 -1.618,-18.514C-6.875,-17.321 -12.346,-16.691 -17.963,-16.691C-21.216,-16.691 -24.42,-16.903 -27.563,-17.312C-32.541,-17.962 -37.364,-19.109 -41.98,-20.702C-43.356,-21.177 -44.715,-21.692 -46.053,-22.245C-49.44,-23.645 -52.701,-25.291 -55.812,-27.16C-54.092,-31.904 -51.711,-36.674 -48.418,-40.966C-48.381,-41.013 -48.345,-41.06 -48.308,-41.107C-47.896,-41.64 -47.469,-42.166 -47.028,-42.683C-46.125,-43.74 -45.161,-44.762 -44.131,-45.74C-43.928,-45.934 -43.722,-46.125 -43.513,-46.315C-42.576,-47.167 -41.588,-47.983 -40.544,-48.758C-38.731,-50.103 -36.752,-51.322 -34.591,-52.386C-33.556,-52.895 -32.479,-53.369 -31.358,-53.804C-30.678,-54.068 -29.982,-54.317 -29.269,-54.551C-28.939,-54.66 -28.605,-54.765 -28.268,-54.867C-26.122,-55.515 -23.834,-56.028 -21.392,-56.386C-21.197,-56.415 -21,-56.442 -20.803,-56.469C-18.323,-56.805 -15.692,-56.986 -12.891,-56.986C-8.755,-56.986 -4.98,-56.675 -1.522,-56.108C-1.008,-56.024 -0.501,-55.934 0,-55.838C3.128,-55.241 5.98,-54.424 8.579,-53.422C8.845,-53.32 9.109,-53.215 9.37,-53.109C12.075,-52.007 14.499,-50.7 16.67,-49.233C22.737,-45.133 26.828,-39.775 29.559,-34.087Z" style="fill:rgb(28,26,25);fill-rule:nonzero;"/>
        </g>
        <g transform="matrix(1.73769,0,0,1.73769,153.276,276.681)">
            <path d="M29.559,-34.087C26.166,-31.217 22.51,-28.649 18.632,-26.423C15.809,-24.802 12.868,-23.363 9.825,-22.121C6.149,-20.621 2.326,-19.409 -1.618,-18.514C-6.875,-17.321 -12.346,-16.691 -17.963,-16.691C-21.216,-16.691 -24.42,-16.903 -27.563,-17.312C-32.541,-17.962 -37.364,-19.109 -41.98,-20.702C-43.356,-21.177 -44.715,-21.692 -46.053,-22.245C-49.44,-23.645 -52.701,-25.291 -55.812,-27.16C-54.092,-31.904 -51.711,-36.674 -48.418,-40.966C-48.381,-41.013 -48.345,-41.06 -48.308,-41.107C-47.896,-41.64 -47.469,-42.166 -47.028,-42.683C-46.125,-43.74 -45.161,-44.762 -44.131,-45.74C-43.928,-45.934 -43.722,-46.125 -43.513,-46.315C-42.576,-47.167 -41.588,-47.983 -40.544,-48.758C-38.731,-50.103 -36.752,-51.322 -34.591,-52.386C-33.556,-52.895 -32.479,-53.369 -31.358,-53.804C-30.678,-54.068 -29.982,-54.317 -29.269,-54.551C-28.939,-54.66 -28.605,-54.765 -28.268,-54.867C-26.122,-55.515 -23.834,-56.028 -21.392,-56.386C-21.197,-56.415 -21,-56.442 -20.803,-56.469C-18.323,-56.805 -15.692,-56.986 -12.891,-56.986C-8.755,-56.986 -4.98,-56.675 -1.522,-56.108C-1.008,-56.024 -0.501,-55.934 0,-55.838C3.128,-55.241 5.98,-54.424 8.579,-53.422C8.845,-53.32 9.109,-53.215 9.37,-53.109C12.075,-52.007 14.499,-50.7 16.67,-49.233C22.737,-45.133 26.828,-39.775 29.559,-34.087Z" style="fill:none;fill-rule:nonzero;stroke:rgb(28,26,25);stroke-width:2.4px;"/>
        </g>
        <g transform="matrix(1.73769,0,0,1.73769,68.9591,182.459)">
            <path d="M67.155,26.649C64.331,28.27 61.39,29.709 58.348,30.951L57.888,0.836C57.888,0.836 63.072,2.584 65.193,4.99C65.306,5.118 65.411,5.248 65.505,5.38L67.155,26.649ZM46.905,34.557C41.647,35.75 36.176,37.531 30.56,37.531C27.307,37.531 24.102,37.32 20.96,36.91C15.981,36.261 11.159,34.352 6.543,32.759C5.166,32.284 3.808,31.38 2.469,30.826L5.29,5.252C5.29,5.252 5.318,5.22 5.375,5.161C5.904,4.606 8.897,1.644 13.917,0L14.766,35.077L21.197,35.664L46.905,34.557Z" style="fill:white;fill-rule:nonzero;stroke:rgb(30,28,26);stroke-width:2.42px;"/>
        </g>
        <g transform="matrix(1.73769,0,0,1.73769,98.5993,202.194)">
            <path d="M0,-11.441C0,-11.441 3.588,8.155 20.518,8.12C40.09,8.08 40.051,-10.823 40.051,-10.823C40.051,-10.823 24.12,-19.596 0,-11.441Z" style="fill:white;fill-rule:nonzero;stroke:rgb(30,28,26);stroke-width:2.4px;"/>
        </g>
        <g transform="matrix(0.0152765,-1.73763,-1.73763,-0.0152765,140.496,157.627)">
            <path d="M-13.205,-5.942L-7.859,-5.942L-5.825,-5.951C-8.378,-0.284 -9.393,8.884 -9.751,13.363L-13.374,13.331" style="fill:white;fill-rule:nonzero;stroke:rgb(30,28,26);stroke-width:2.4px;"/>
        </g>
        <g transform="matrix(1.73769,0,0,1.73769,150.9,174.366)">
            <path d="M0,-10.542L-20.141,-8.423L-19.625,-2.257L-19.436,0C-14.953,-0.318 -5.777,-1.253 -0.088,-3.756L0,-10.542Z" style="fill:rgb(28,26,25);fill-rule:nonzero;stroke:rgb(28,26,25);stroke-width:2.4px;"/>
        </g>
        <g transform="matrix(1.73769,0,0,1.73769,157.228,23.1204)">
            <path d="M0,76.086C12.202,70.645 22.16,60.004 25.548,47.249C28.936,34.493 25.216,19.878 15.333,10.979C6.144,2.704 -7.221,0 -19.575,1.556" style="fill:none;fill-rule:nonzero;stroke:rgb(8,7,6);stroke-width:1.39px;"/>
        </g>
        <g transform="matrix(1.73769,0,0,1.73769,92.2204,221.498)">
            <path d="M0,10.522C3.933,10.464 5.941,8.59 7.156,6.142C6.62,4.71 5.803,3.408 4.655,2.398C2.353,0.376 -1.451,-0.06 -3.745,1.972L-5.538,3.643C-6.898,4.059 -7.726,5.413 -7.923,6.849C-6.541,8.69 -4.124,10.582 0,10.522" style="fill:white;fill-rule:nonzero;"/>
        </g>
        <g transform="matrix(1.73769,0,0,1.73769,92.2204,221.498)">
            <path d="M0,10.522C3.933,10.464 5.941,8.59 7.156,6.142C6.62,4.71 5.803,3.408 4.655,2.398C2.353,0.376 -1.451,-0.06 -3.745,1.972L-5.538,3.643C-6.898,4.059 -7.726,5.413 -7.923,6.849C-6.541,8.69 -4.124,10.582 0,10.522Z" style="fill:none;fill-rule:nonzero;stroke:rgb(30,28,26);stroke-width:2.11px;"/>
        </g>
        <g transform="matrix(1.73769,0,0,1.73769,92.2204,255.258)">
            <path d="M7.81,-6.23C7.749,-5.811 7.67,-5.395 7.573,-4.984C2.595,-5.633 -2.228,-6.78 -6.843,-8.373C-7.377,-9.291 -7.794,-10.26 -7.935,-11.306C-7.991,-11.723 -7.981,-12.154 -7.923,-12.579C-6.541,-10.738 -4.124,-8.846 0,-8.906C0.27,-8.91 0.531,-8.923 0.784,-8.943C4.205,-9.224 6.024,-11.006 7.156,-13.286C7.694,-11.848 7.95,-10.279 7.973,-8.745C7.986,-7.908 7.932,-7.064 7.81,-6.23Z" style="fill:rgb(28,26,25);fill-rule:nonzero;"/>
        </g>
        <g transform="matrix(1.73769,0,0,1.73769,72.2962,235.973)">
            <path d="M0,-25.097C-3.731,-15.856 -1.305,-9.442 2.759,-4.409C5.11,-1.496 8.647,1.199 12.098,0.091C14.366,-0.636 15.877,-2.812 17.135,-4.91C18.898,-7.855 20.545,-11.161 20.201,-14.641C19.708,-19.638 15.099,-23.367 10.375,-24.31C5.651,-25.253 4.645,-26.296 0,-25.097" style="fill:rgb(28,26,25);fill-rule:nonzero;"/>
        </g>
        <g transform="matrix(1.73769,0,0,1.73769,70.1326,214.943)">
            <path d="M0,-25.097C-3.731,-15.856 -1.306,-9.442 2.759,-4.409C5.11,-1.496 8.647,1.199 12.098,0.091C14.366,-0.636 15.877,-2.812 17.135,-4.91C18.898,-7.855 20.545,-11.161 20.201,-14.641C19.708,-19.638 15.098,-23.367 10.375,-24.31C5.651,-25.253 4.645,-26.296 0,-25.097" style="fill:rgb(28,26,25);fill-rule:nonzero;"/>
        </g>
        <g transform="matrix(1.73769,0,0,1.73769,64.805,198.202)">
            <path d="M0,-29.382C-1.473,-22.22 -0.939,-14.656 1.52,-7.869C2.942,-3.943 5.694,0.186 9.737,0.272C12.395,0.329 14.779,-1.418 16.868,-3.175C19.798,-5.64 22.737,-8.53 23.639,-12.326C24.934,-17.778 21.427,-23.386 16.786,-26.098C12.146,-28.809 6.621,-29.289 1.286,-29.711" style="fill:rgb(28,26,25);fill-rule:nonzero;"/>
        </g>
        <g transform="matrix(1.73769,0,0,1.73769,71.2195,178.922)">
            <path d="M0,-60.651C-8.513,-43.774 -9.933,-33.547 -6.257,-18.622C-4.603,-11.903 -1.093,-2.426 5.67,-0.963C10.117,0 16.57,-4.516 20.579,-6.667C26.203,-9.683 28.099,-8.381 30.698,-14.211C34.429,-22.583 30.143,-32.783 23.125,-38.68C16.108,-44.578 6.97,-47.164 -1.867,-49.595" style="fill:rgb(28,26,25);fill-rule:nonzero;"/>
        </g>
        <g transform="matrix(1.73769,0,0,1.73769,53.1003,118.427)">
            <path d="M0,1.703C7.824,14.192 20.465,23.954 34.94,26.724C49.414,29.495 65.498,24.616 74.82,13.202C84.142,1.788 85.404,-16 76.564,-27.792" style="fill:rgb(28,26,25);fill-rule:nonzero;"/>
        </g>
        <g transform="matrix(1.73769,0,0,1.73769,177.354,134.695)">
            <path d="M0,-41.358C0,-41.358 4.772,-28.866 4.772,-10.627C4.772,3.606 -6.59,17.536 -23.966,18.663C-40.297,19.724 -57.264,13.15 -62.354,-9.756C-67.444,-32.662 -60.233,-50.902 -39.449,-55.992C-18.664,-61.082 -4.242,-55.568 0,-41.358Z" style="fill:white;fill-rule:nonzero;stroke:rgb(30,28,26);stroke-width:2.4px;"/>
        </g>
        <g transform="matrix(1.73769,0,0,1.73769,77.2464,51.071)">
            <path d="M0,34.547C0,34.547 7.318,32.138 12.234,21.541C17.15,10.944 15.892,9.796 15.892,9.796C15.892,9.796 22.246,11.314 38.899,16.677C49.992,20.25 53.356,32.61 63.316,34.486C63.316,34.486 71.891,39.053 71.861,22.158C71.833,6.195 61.086,-12.496 42.976,-15.579C22.562,-19.054 10.259,-9.863 7.54,-3.505C7.54,-3.505 -21.264,-2.45 -17.698,37.002C-16.198,53.601 0,34.547 0,34.547" style="fill:rgb(28,26,25);fill-rule:nonzero;"/>
        </g>
        <g transform="matrix(1.73769,0,0,1.73769,96.2404,110.248)">
            <path d="M0,-25.434C10.113,-24.276 19.876,-20.201 27.811,-13.824C32.032,-10.432 35.782,-6.383 40.494,-3.715C45.206,-1.046 51.363,0 55.926,-2.916" style="fill:none;fill-rule:nonzero;stroke:rgb(8,7,6);stroke-width:1.39px;"/>
        </g>
        <g transform="matrix(1.73769,0,0,1.73769,84.5857,198.559)">
            <path d="M0,-86.562C-10.004,-85.062 -17.995,-77.955 -21.84,-68.597C-25.686,-59.241 -25.249,-47.971 -19.192,-39.87C-17.147,-37.134 -14.543,-34.59 -13.836,-31.249C-13.162,-28.061 -14.365,-24.817 -14.865,-21.596C-16.124,-13.499 -12.532,-4.833 -5.915,0" style="fill:none;fill-rule:nonzero;stroke:rgb(8,7,6);stroke-width:1.4px;"/>
        </g>
        <g transform="matrix(1.73769,0,0,1.73769,179.692,138.388)">
            <path d="M0,-15.858C0,-15.858 12.248,-20.312 12.884,-7.746C13.4,2.452 4.463,4.454 -1.007,0.725" style="fill:white;fill-rule:nonzero;stroke:rgb(30,28,26);stroke-width:2.4px;"/>
        </g>
        <g transform="matrix(1.73769,0,0,1.73769,180.521,115.989)">
            <path d="M0,11.123C0.035,11.123 0.07,11.115 0.104,11.101C0.231,11.043 0.287,10.894 0.229,10.767C0.202,10.706 -2.484,4.665 1.73,1.854C3.211,0.867 4.671,0.522 6.074,0.826C8.494,1.352 9.951,3.663 9.966,3.686C10.04,3.805 10.194,3.841 10.313,3.768C10.431,3.695 10.467,3.54 10.395,3.422C10.331,3.319 8.816,0.908 6.186,0.334C4.644,0 3.051,0.369 1.451,1.435C-3.122,4.484 -0.259,10.911 -0.229,10.976C-0.187,11.068 -0.095,11.123 0,11.123" style="fill:rgb(8,6,6);fill-rule:nonzero;"/>
        </g>
        <g transform="matrix(1.73769,0,0,1.73769,191.301,120.596)">
            <path d="M0,3.546C0.077,3.546 0.152,3.511 0.202,3.444C0.285,3.333 0.262,3.175 0.15,3.092C0.108,3.061 -4.117,-0.024 -7.252,3.115C-7.351,3.214 -7.351,3.374 -7.252,3.472C-7.154,3.57 -6.995,3.57 -6.896,3.472C-4.067,0.639 -0.189,3.468 -0.151,3.496C-0.105,3.529 -0.053,3.546 0,3.546" style="fill:rgb(8,6,6);fill-rule:nonzero;"/>
        </g>
        <g transform="matrix(1.73769,0,0,1.73769,131.956,131.676)">
            <path d="M0,3.534C-3.848,3.534 -4.293,0.335 -4.298,0.301C-4.315,0.163 -4.217,0.038 -4.08,0.02C-3.949,0 -3.816,0.099 -3.798,0.238C-3.781,0.367 -3.337,3.384 0.7,2.994C0.838,2.991 0.962,3.083 0.975,3.221C0.988,3.359 0.887,3.482 0.749,3.496C0.486,3.521 0.237,3.534 0,3.534" style="fill:rgb(8,6,6);fill-rule:nonzero;"/>
        </g>
        <g transform="matrix(1.73769,0,0,1.73769,75.2659,138.61)">
            <path d="M0,-15.986C0,-15.986 -12.248,-20.44 -12.884,-7.874C-13.417,2.653 -3.652,4.454 1.772,0.201" style="fill:white;fill-rule:nonzero;stroke:rgb(30,28,26);stroke-width:2.4px;"/>
        </g>
        <g transform="matrix(0.820517,1.53177,1.53177,-0.820517,91.0838,91.7346)">
            <path d="M5.269,-2.286C5.269,-2.286 2.123,-3.443 2.171,2.541C2.218,8.524 3.637,9.876 5.269,9.976C6.758,10.067 7.864,8.098 7.769,4.739C7.656,0.706 7.04,-1.692 5.269,-2.286" style="fill:rgb(28,26,25);fill-rule:nonzero;"/>
        </g>
        <g transform="matrix(0,-1.73769,-1.73769,0,105.124,112.024)">
            <path d="M-2.544,-2.546C-4.259,-2.546 -5.648,-1.407 -5.648,-0.001C-5.648,1.405 -4.259,2.544 -2.544,2.544C-0.831,2.544 0.558,1.405 0.558,-0.001C0.558,-1.407 -0.831,-2.546 -2.544,-2.546" style="fill:rgb(8,6,6);fill-rule:nonzero;"/>
        </g>
        <g transform="matrix(0.820517,-1.53177,-1.53177,-0.820517,167.909,91.7346)">
            <path d="M-5.269,-2.286C-5.269,-2.286 -2.123,-3.443 -2.171,2.541C-2.218,8.525 -3.637,9.876 -5.269,9.976C-6.758,10.067 -7.864,8.098 -7.769,4.739C-7.656,0.706 -7.04,-1.692 -5.269,-2.286" style="fill:rgb(28,26,25);fill-rule:nonzero;"/>
        </g>
        <g transform="matrix(0,1.73769,1.73769,0,151.925,112.024)">
            <path d="M2.544,-2.546C4.259,-2.546 5.648,-1.406 5.648,-0.001C5.648,1.405 4.259,2.544 2.544,2.544C0.831,2.544 -0.558,1.405 -0.558,-0.001C-0.558,-1.406 0.831,-2.546 2.544,-2.546" style="fill:rgb(8,6,6);fill-rule:nonzero;"/>
        </g>
        <g transform="matrix(1.73769,0,0,1.73769,74.437,115.989)">
            <path d="M0,11.123C-0.035,11.123 -0.07,11.115 -0.104,11.101C-0.231,11.043 -0.287,10.894 -0.229,10.767C-0.202,10.706 2.484,4.665 -1.73,1.854C-3.211,0.867 -4.671,0.522 -6.074,0.826C-8.494,1.352 -9.951,3.663 -9.966,3.686C-10.04,3.805 -10.194,3.841 -10.313,3.768C-10.431,3.695 -10.467,3.54 -10.395,3.422C-10.331,3.319 -8.816,0.908 -6.186,0.334C-4.644,0 -3.051,0.369 -1.451,1.435C3.122,4.484 0.259,10.911 0.229,10.976C0.187,11.068 0.095,11.123 0,11.123" style="fill:rgb(8,6,6);fill-rule:nonzero;"/>
        </g>
        <g transform="matrix(1.73769,0,0,1.73769,63.6571,120.596)">
            <path d="M0,3.546C-0.077,3.546 -0.152,3.511 -0.202,3.444C-0.285,3.333 -0.262,3.175 -0.15,3.092C-0.108,3.061 4.117,-0.024 7.252,3.115C7.351,3.214 7.351,3.374 7.252,3.472C7.154,3.57 6.995,3.57 6.896,3.472C4.067,0.639 0.189,3.468 0.151,3.496C0.105,3.529 0.053,3.546 0,3.546" style="fill:rgb(8,6,6);fill-rule:nonzero;"/>
        </g>
        <g transform="matrix(1.73769,0,0,1.73769,133.443,82.2539)">
            <path d="M0,25.893C-0.095,25.893 -0.187,25.839 -0.229,25.746C-0.287,25.619 -0.23,25.47 -0.104,25.413C-0.084,25.403 1.931,24.469 2.824,22.666C3.525,21.251 3.307,19.124 2.367,18.205C1.802,17.653 1.037,17.606 0.149,18.071C0.122,18.085 0.077,18.112 0.018,18.145C-3.082,19.945 -4.48,19.136 -5.107,18.141C-6.258,16.313 -5.263,1.881 -5.146,0.242C-5.136,0.103 -5.013,0 -4.876,0.008C-4.738,0.018 -4.633,0.138 -4.643,0.278C-4.959,4.687 -5.581,16.444 -4.682,17.872C-3.941,19.048 -2.445,18.995 -0.235,17.71C-0.167,17.67 -0.116,17.641 -0.083,17.623C0.999,17.059 1.995,17.136 2.719,17.845C3.815,18.917 4.075,21.275 3.276,22.89C2.302,24.857 0.193,25.831 0.104,25.871C0.07,25.886 0.035,25.893 0,25.893" style="fill:rgb(8,6,6);fill-rule:nonzero;"/>
        </g>
        <g transform="matrix(1.73769,0,0,1.73769,169.692,131.342)">
            <path d="M0,-19.265C-0.956,-19.265 -1.89,-19.231 -2.774,-19.164C-6.921,-18.852 -12.287,-17.666 -14.297,-13.79C-16.445,-9.654 -15.558,-6.567 -14.436,-4.705C-12.596,-1.652 -9.138,-0.035 -6.673,-0.016L-6.568,-0.015C-3.467,-0.015 0.899,-1.329 3.854,-5.017C5.792,-7.437 7.77,-11.778 6.287,-18.766C5.37,-18.943 2.945,-19.265 0,-19.265M-50.716,-18.766C-52.199,-11.778 -50.221,-7.437 -48.283,-5.017C-45.328,-1.329 -40.969,-0.015 -37.876,-0.015L-37.757,-0.016C-35.291,-0.035 -31.833,-1.652 -29.993,-4.705C-28.871,-6.567 -27.983,-9.654 -30.131,-13.79C-32.142,-17.666 -37.508,-18.852 -41.656,-19.164C-42.542,-19.231 -43.473,-19.265 -44.421,-19.265C-47.371,-19.265 -49.798,-18.943 -50.716,-18.766M-6.683,1.734C-9.638,1.712 -13.763,-0.198 -15.935,-3.802C-16.991,-5.554 -17.472,-7.549 -17.335,-9.593C-17.836,-9.825 -19.662,-10.589 -21.968,-10.589C-23.827,-10.589 -25.543,-10.094 -27.07,-9.119C-27.028,-7.227 -27.506,-5.44 -28.494,-3.802C-30.666,-0.198 -34.791,1.712 -37.742,1.734L-37.848,1.734C-42.331,1.734 -46.852,-0.434 -49.648,-3.923C-51.879,-6.708 -54.153,-11.698 -52.313,-19.654C-52.17,-20.271 -51.744,-20.438 -49.628,-20.704C-49.078,-20.773 -47.089,-20.996 -44.559,-20.996C-38.783,-20.996 -31.322,-19.886 -28.578,-14.597C-27.95,-13.386 -27.513,-12.174 -27.277,-10.983C-25.658,-11.856 -23.877,-12.297 -21.971,-12.297C-19.793,-12.297 -17.989,-11.714 -17.071,-11.348C-16.822,-12.425 -16.413,-13.516 -15.851,-14.597C-13.105,-19.889 -5.658,-20.999 0.106,-20.999C2.687,-20.999 4.691,-20.769 5.244,-20.699C7.323,-20.434 7.743,-20.267 7.883,-19.653C9.724,-11.697 7.451,-6.707 5.219,-3.923C2.423,-0.434 -2.098,1.734 -6.581,1.734L-6.683,1.734Z" style="fill:white;fill-rule:nonzero;"/>
        </g>
        <g transform="matrix(1.73769,0,0,1.73769,82.2947,129.722)">
            <path d="M0,-17.402C1.061,-17.578 3.251,-17.833 5.872,-17.833C6.809,-17.833 7.728,-17.799 8.602,-17.734C12.622,-17.431 17.815,-16.299 19.72,-12.629C21.761,-8.697 20.93,-5.783 19.874,-4.032C18.147,-1.166 14.805,0.399 12.536,0.416L12.419,0.416C9.442,0.416 5.247,-0.848 2.403,-4.398C0.562,-6.695 -1.312,-10.797 0,-17.402M43.729,0.416L43.628,0.416C41.357,0.399 38.014,-1.166 36.288,-4.031C35.231,-5.783 34.4,-8.697 36.441,-12.629C38.346,-16.298 43.539,-17.43 47.559,-17.734C48.435,-17.799 49.355,-17.834 50.295,-17.834C52.912,-17.834 55.101,-17.578 56.16,-17.402C57.474,-10.797 55.6,-6.695 53.759,-4.398C50.915,-0.848 46.713,0.416 43.729,0.416M50.402,-20.568C44.499,-20.568 36.862,-19.41 34,-13.895C33.514,-12.959 33.138,-12.015 32.877,-11.078C31.837,-11.44 30.214,-11.865 28.324,-11.865C26.56,-11.865 24.898,-11.503 23.365,-10.785C23.103,-11.816 22.7,-12.857 22.161,-13.895C19.301,-19.407 11.651,-20.564 5.737,-20.564C3.178,-20.564 1.163,-20.338 0.606,-20.268C-1.379,-20.018 -2.267,-19.864 -2.504,-18.836C-4.39,-10.684 -2.044,-5.549 0.257,-2.678C3.145,0.927 7.816,3.166 12.447,3.166L12.509,3.166L12.557,3.165C15.647,3.143 19.963,1.151 22.23,-2.612C23.201,-4.224 23.713,-6.043 23.727,-7.909C25.114,-8.737 26.659,-9.156 28.327,-9.156C30.187,-9.156 31.732,-8.631 32.442,-8.339C32.375,-6.317 32.884,-4.35 33.932,-2.612C36.199,1.151 40.514,3.143 43.605,3.165L43.714,3.166C48.346,3.165 53.017,0.926 55.905,-2.678C58.205,-5.549 60.551,-10.683 58.665,-18.835C58.431,-19.86 57.557,-20.013 55.603,-20.262C55.042,-20.334 53.012,-20.568 50.402,-20.568M12.419,1.416L12.543,1.416C15.147,1.397 18.796,-0.304 20.73,-3.515C21.919,-5.486 22.861,-8.748 20.607,-13.09C18.49,-17.17 12.951,-18.41 8.677,-18.731C7.717,-18.803 6.773,-18.833 5.872,-18.833C2.553,-18.833 -0.172,-18.43 -0.842,-18.254C-2.492,-10.894 -0.419,-6.32 1.622,-3.773C4.678,0.041 9.147,1.416 12.419,1.416M43.729,1.416C46.949,1.416 51.481,0.045 54.539,-3.773C56.58,-6.32 58.653,-10.894 57.002,-18.254C56.333,-18.43 53.612,-18.834 50.295,-18.834C49.393,-18.834 48.445,-18.803 47.483,-18.731C43.21,-18.409 37.671,-17.169 35.554,-13.09C33.3,-8.748 34.242,-5.486 35.431,-3.515C37.365,-0.304 41.014,1.397 43.618,1.416L43.729,1.416M50.402,-19.568C52.947,-19.568 54.922,-19.341 55.476,-19.271C57.599,-19 57.637,-18.844 57.69,-18.609C59.486,-10.847 57.286,-6.002 55.124,-3.303C52.416,0.077 48.052,2.166 43.714,2.166L43.612,2.166C40.8,2.145 36.865,0.32 34.788,-3.129C33.949,-4.52 33.228,-6.505 33.491,-9.004L33.49,-9.004C33.434,-9.004 33.377,-9.012 33.324,-9.04C33.29,-9.058 31.155,-10.156 28.327,-10.156C26.664,-10.156 24.762,-9.777 22.906,-8.576C22.851,-8.541 22.789,-8.521 22.727,-8.519C22.722,-8.519 22.717,-8.522 22.711,-8.522C22.841,-6.249 22.158,-4.429 21.373,-3.129C19.296,0.32 15.361,2.145 12.549,2.166L12.447,2.166C8.109,2.166 3.745,0.077 1.037,-3.303C-1.125,-6.002 -3.326,-10.847 -1.53,-18.609L-1.53,-18.61C-1.476,-18.846 -1.439,-19.003 0.729,-19.276C1.278,-19.344 3.223,-19.564 5.737,-19.564C10.943,-19.564 18.583,-18.621 21.273,-13.435C22.061,-11.917 22.478,-10.522 22.643,-9.254C24.592,-10.476 26.581,-10.865 28.324,-10.865C31.068,-10.865 33.2,-9.9 33.59,-9.711C33.791,-10.856 34.193,-12.097 34.888,-13.435C37.577,-18.618 45.188,-19.568 50.402,-19.568" style="fill:rgb(30,28,26);fill-rule:nonzero;"/>
        </g>
        <g transform="matrix(0.508094,1.66175,1.66175,-0.508094,86.3983,208.718)">
            <path d="M-7.199,-7.811C-7.199,-7.811 0.603,-12.293 11.143,-7.811" style="fill:none;fill-rule:nonzero;stroke:white;stroke-width:1.2px;stroke-linecap:round;stroke-linejoin:round;"/>
        </g>
        <g transform="matrix(1.73769,0,0,1.73769,102.071,191.425)">
            <path d="M0,20.726C0,20.726 3.953,15.766 2.944,10.177C1.936,4.587 1.023,4.105 1.023,4.105C1.023,4.105 1.667,3.297 2.306,0" style="fill:none;fill-rule:nonzero;stroke:white;stroke-width:1.2px;stroke-linecap:round;stroke-linejoin:round;"/>
        </g>
    </g>
</svg>
