<?xml version="1.0" encoding="UTF-8" standalone="no"?>
<!DOCTYPE svg PUBLIC "-//W3C//DTD SVG 1.1//EN" "http://www.w3.org/Graphics/SVG/1.1/DTD/svg11.dtd">
<svg width="100%" height="100%" viewBox="0 0 256 256" version="1.1" xmlns="http://www.w3.org/2000/svg" xmlns:xlink="http://www.w3.org/1999/xlink" xml:space="preserve" xmlns:serif="http://www.serif.com/" style="fill-rule:evenodd;clip-rule:evenodd;stroke-miterlimit:10;">
    <g id="male-1" transform="matrix(0.432399,0,0,0.432399,70.4392,103.956)">
        <g transform="matrix(4.16667,0,0,4.16667,325.005,244.673)">
            <path d="M-4.514,8.698C-5.768,9.768 -7.061,10.795 -8.388,11.777C-9.375,12.507 -10.38,13.211 -11.405,13.89C-11.812,14.16 -12.223,14.426 -12.636,14.688C-13.042,14.945 -13.451,15.198 -13.862,15.447C-14.258,15.687 -14.656,15.923 -15.057,16.155C-15.323,16.308 -15.589,16.46 -15.857,16.611C-17.922,17.77 -20.05,18.83 -22.235,19.783C-22.769,20.015 -23.306,20.242 -23.846,20.462C-24.107,20.568 -24.368,20.672 -24.63,20.775C-29.084,22.525 -33.756,23.838 -38.595,24.662C-42.49,25.324 -46.493,25.67 -50.576,25.67C-52.314,25.67 -54.037,25.607 -55.744,25.484C-57.738,25.341 -59.71,25.115 -61.655,24.809C-64.533,24.358 -67.354,23.733 -70.107,22.947C-70.181,22.926 -70.255,22.905 -70.328,22.883C-72.249,22.328 -74.136,21.693 -75.987,20.983C-76.391,20.828 -76.793,20.67 -77.194,20.507C-77.15,20.389 -77.139,20.245 -77.151,20.086L-78.788,19.428C-78.731,19.594 -78.666,19.763 -78.593,19.924C-79.221,19.653 -79.844,19.375 -80.463,19.087C-81.019,18.829 -81.571,18.563 -82.119,18.291C-84.85,16.934 -87.481,15.407 -89.999,13.723C-89.687,12.9 -89.354,12.078 -88.999,11.258C-87.965,8.868 -86.755,6.501 -85.322,4.223C-83.473,1.284 -81.271,-1.51 -78.631,-4.014C-76.486,-6.05 -74.074,-7.906 -71.324,-9.486C-67.773,-11.526 -63.688,-13.124 -58.985,-14.117C-57.454,-14.44 -55.857,-14.699 -54.192,-14.888C-52.791,-15.048 -51.341,-15.157 -49.84,-15.214C-49.05,-15.244 -48.246,-15.259 -47.428,-15.259C-42.918,-15.259 -38.829,-14.895 -35.122,-14.225C-34.609,-14.133 -34.104,-14.034 -33.605,-13.93C-32.518,-13.703 -31.465,-13.448 -30.445,-13.169C-28.47,-12.627 -26.619,-11.989 -24.884,-11.268C-19.993,-9.235 -16.036,-6.529 -12.834,-3.412C-10.936,-1.564 -9.319,0.434 -7.918,2.52C-6.581,4.511 -5.458,6.586 -4.514,8.698Z" style="fill:white;fill-rule:nonzero;"/>
        </g>
        <g transform="matrix(4.16196,0.197955,-0.192592,4.04921,334.925,252.326)">
            <path d="M-4.514,8.698C-5.458,6.586 -6.581,4.511 -7.918,2.52C-9.319,0.434 -10.936,-1.564 -12.834,-3.412C-16.036,-6.529 -19.993,-9.235 -24.884,-11.268C-26.619,-11.989 -28.47,-12.627 -30.445,-13.169C-31.465,-13.448 -32.518,-13.703 -33.605,-13.93C-34.104,-14.034 -34.609,-14.133 -35.122,-14.225C-38.829,-14.895 -42.918,-15.259 -47.428,-15.259C-48.246,-15.259 -49.05,-15.244 -49.84,-15.214C-51.341,-15.157 -52.791,-15.048 -54.192,-14.888C-55.857,-14.699 -57.454,-14.44 -58.985,-14.117C-63.688,-13.124 -67.773,-11.526 -71.324,-9.486C-74.074,-7.906 -76.486,-6.05 -78.631,-4.014C-81.271,-1.51 -83.473,1.284 -85.322,4.223C-86.755,6.501 -87.965,8.868 -88.999,11.258C-89.354,12.078 -89.687,12.9 -89.999,13.723C-87.481,15.407 -84.85,16.934 -82.119,18.291C-81.571,18.563 -81.019,18.829 -80.463,19.087C-79.444,19.561 -79.583,19.604 -75.987,20.983C-74.136,21.693 -72.249,22.328 -70.328,22.883C-70.255,22.905 -70.181,22.926 -70.107,22.947C-67.354,23.733 -64.533,24.358 -61.655,24.809C-59.71,25.115 -57.738,25.341 -55.744,25.484C-54.037,25.607 -52.314,25.67 -50.576,25.67C-46.493,25.67 -42.49,25.324 -38.595,24.662C-33.756,23.838 -29.084,22.525 -24.63,20.775C-24.368,20.672 -24.107,20.568 -23.846,20.462C-23.306,20.242 -22.769,20.015 -22.235,19.783C-20.05,18.83 -17.922,17.77 -15.857,16.611C-15.589,16.46 -15.323,16.308 -15.057,16.155C-14.656,15.923 -14.258,15.687 -13.862,15.447C-13.451,15.198 -13.042,14.945 -12.636,14.688C-12.223,14.426 -11.812,14.16 -11.405,13.89C-10.38,13.211 -9.375,12.507 -8.388,11.777C-7.061,10.795 -5.768,9.768 -4.514,8.698Z" style="fill:none;fill-rule:nonzero;stroke:rgb(30,28,26);stroke-width:2.34px;"/>
        </g>
        <g transform="matrix(4.16667,0,0,4.16667,79.1879,229.261)">
            <path d="M0,-10.648C0,-10.648 0.21,2.186 13.749,2.322C27.288,2.458 28.572,-9.628 28.572,-9.628C28.572,-9.628 13.199,-13.106 0,-10.648Z" style="fill:white;fill-rule:nonzero;stroke:rgb(30,28,26);stroke-width:2.31px;"/>
        </g>
        <g transform="matrix(4.16667,0,0,4.16667,98.4137,208.083)">
            <path d="M0,-8.371L0.596,-1.26C0.596,-1.26 1.708,3.756 9.365,3.756C17.948,3.756 19.206,-1.26 19.206,-1.26L19.32,-10.093L19.347,-12.127C13.658,-9.624 4.482,-8.689 0,-8.371Z" style="fill:white;fill-rule:nonzero;stroke:rgb(30,28,26);stroke-width:2.31px;"/>
        </g>
        <g transform="matrix(4.16667,0,0,4.16667,179.395,173.204)">
            <path d="M0,-10.542L-20.141,-8.423L-19.624,-2.257L-19.436,0C-14.953,-0.318 -5.777,-1.253 -0.089,-3.756L0,-10.542Z" style="fill:rgb(28,26,25);fill-rule:nonzero;stroke:rgb(28,26,25);stroke-width:2.31px;"/>
        </g>
        <g transform="matrix(4.16667,0,0,4.16667,262.468,77.9356)">
            <path d="M0,-17.828C0,-17.828 12.248,-22.281 12.885,-9.715C13.521,2.852 -2.917,4.453 -3.817,-4.466" style="fill:white;fill-rule:nonzero;stroke:rgb(30,28,26);stroke-width:2.31px;"/>
        </g>
        <g transform="matrix(4.16667,0,0,4.16667,264.458,16.0185)">
            <path d="M0,11.123C0.035,11.123 0.07,11.116 0.104,11.101C0.23,11.043 0.286,10.894 0.229,10.767C0.201,10.706 -2.484,4.665 1.729,1.855C3.211,0.868 4.671,0.522 6.074,0.826C8.494,1.352 9.951,3.663 9.966,3.686C10.04,3.805 10.194,3.841 10.313,3.769C10.431,3.695 10.467,3.54 10.395,3.422C10.331,3.319 8.815,0.908 6.185,0.335C4.644,0 3.051,0.369 1.45,1.436C-3.122,4.484 -0.259,10.911 -0.229,10.977C-0.187,11.068 -0.096,11.123 0,11.123" style="fill:rgb(28,26,25);fill-rule:nonzero;"/>
        </g>
        <g transform="matrix(4.16667,0,0,4.16667,290.304,27.0693)">
            <path d="M0,3.545C0.077,3.545 0.152,3.51 0.202,3.443C0.285,3.332 0.263,3.174 0.15,3.091C0.108,3.06 -4.117,-0.024 -7.252,3.115C-7.351,3.213 -7.351,3.373 -7.252,3.471C-7.153,3.569 -6.994,3.569 -6.896,3.471C-4.066,0.638 -0.189,3.467 -0.15,3.495C-0.105,3.528 -0.053,3.545 0,3.545" style="fill:rgb(28,26,25);fill-rule:nonzero;"/>
        </g>
        <g transform="matrix(4.16667,0,0,4.16667,12.0733,77.9356)">
            <path d="M0,-17.828C0,-17.828 -12.248,-22.281 -12.884,-9.715C-13.521,2.852 2.918,4.453 3.818,-4.466" style="fill:white;fill-rule:nonzero;stroke:rgb(30,28,26);stroke-width:2.31px;"/>
        </g>
        <g transform="matrix(4.16667,0,0,4.16667,10.0879,16.0185)">
            <path d="M0,11.123C-0.035,11.123 -0.07,11.116 -0.104,11.101C-0.23,11.043 -0.287,10.894 -0.229,10.767C-0.202,10.706 2.484,4.665 -1.73,1.855C-3.211,0.868 -4.672,0.522 -6.074,0.826C-8.494,1.352 -9.951,3.663 -9.967,3.686C-10.04,3.805 -10.194,3.841 -10.313,3.769C-10.432,3.695 -10.468,3.54 -10.395,3.422C-10.331,3.319 -8.816,0.908 -6.186,0.335C-4.644,0 -3.051,0.369 -1.451,1.436C3.121,4.484 0.259,10.911 0.229,10.977C0.187,11.068 0.095,11.123 0,11.123" style="fill:rgb(28,26,25);fill-rule:nonzero;"/>
        </g>
        <g transform="matrix(4.16667,0,0,4.16667,-15.7625,27.0693)">
            <path d="M0,3.545C-0.076,3.545 -0.152,3.51 -0.202,3.443C-0.285,3.332 -0.262,3.174 -0.15,3.091C-0.108,3.06 4.117,-0.024 7.253,3.115C7.351,3.213 7.351,3.373 7.253,3.471C7.154,3.569 6.995,3.569 6.896,3.471C4.067,0.638 0.189,3.467 0.15,3.495C0.105,3.528 0.053,3.545 0,3.545" style="fill:rgb(28,26,25);fill-rule:nonzero;"/>
        </g>
        <g transform="matrix(4.16667,0,0,4.16667,267.371,50.521)">
            <path d="M0,-34.102C2.35,-27.419 3.368,-23.48 2.25,-8.141C1.215,6.052 -9.113,20.02 -26.488,21.149C-42.819,22.21 -60.929,15.859 -64.877,-7.271C-68.204,-26.763 -62.756,-46.131 -41.971,-51.221C-21.186,-56.312 -4.46,-46.786 0,-34.102" style="fill:white;fill-rule:nonzero;"/>
        </g>
        <g transform="matrix(4.16667,0,0,4.16667,267.371,50.521)">
            <path d="M0,-34.102C2.35,-27.419 3.368,-23.48 2.25,-8.141C1.215,6.052 -9.113,20.02 -26.488,21.149C-42.819,22.21 -60.929,15.859 -64.877,-7.271C-68.204,-26.763 -62.756,-46.131 -41.971,-51.221C-21.186,-56.312 -4.46,-46.786 0,-34.102Z" style="fill:none;fill-rule:nonzero;stroke:rgb(30,28,26);stroke-width:2.31px;"/>
        </g>
        <g transform="matrix(4.16667,0,0,4.16667,-4.12127,144.016)">
            <path d="M0,-30.569C0,-30.569 3.568,-25.567 14.669,-22.319C25.77,-19.071 29.175,-23.041 35.122,-23.041C41.068,-23.041 40.135,-21.552 49.472,-21.154C58.808,-20.756 65.135,-28.106 67.768,-32.304C67.768,-32.304 70.104,1.735 33.619,1.735C0.743,1.735 0,-30.569 0,-30.569" style="fill:rgb(28,26,25);fill-rule:nonzero;"/>
        </g>
        <g transform="matrix(-4.1474,0.400276,0.400276,4.1474,139.777,114.254)">
            <path d="M-0.122,-12.934C-0.122,-12.934 6.799,-13.235 8.092,-6.859C9.284,-0.974 2.163,-5.253 -0.122,-5.127C-2.405,-4.999 -7.519,1.131 -8.087,-5.016C-8.611,-10.68 -2.858,-13.021 -0.122,-12.934Z" style="fill:white;fill-rule:nonzero;stroke:rgb(30,28,26);stroke-width:2.31px;"/>
        </g>
        <g transform="matrix(4.16667,0,0,4.16667,148.007,71.4918)">
            <path d="M0,3.534C-3.848,3.534 -4.293,0.335 -4.298,0.301C-4.314,0.163 -4.217,0.038 -4.079,0.02C-3.948,0 -3.816,0.099 -3.798,0.238C-3.781,0.367 -3.337,3.384 0.7,2.994C0.839,2.99 0.962,3.083 0.976,3.221C0.988,3.359 0.888,3.482 0.749,3.496C0.486,3.521 0.237,3.534 0,3.534" style="fill:rgb(28,26,25);fill-rule:nonzero;"/>
        </g>
        <g transform="matrix(1.96731,3.67298,3.67298,-1.96731,49.9973,-42.1391)">
            <path d="M5.271,-2.286C5.271,-2.286 2.124,-3.442 2.171,2.541C2.218,8.525 3.637,9.877 5.271,9.977C6.759,10.068 7.865,8.1 7.77,4.74C7.656,0.707 7.04,-1.691 5.271,-2.286" style="fill:rgb(28,26,25);fill-rule:nonzero;"/>
        </g>
        <g transform="matrix(0,-4.16667,-4.16667,0,83.6733,6.51058)">
            <path d="M-2.546,-2.544C-4.259,-2.544 -5.648,-1.404 -5.648,0.001C-5.648,1.406 -4.259,2.546 -2.546,2.546C-0.832,2.546 0.558,1.406 0.558,0.001C0.558,-1.404 -0.832,-2.544 -2.546,-2.544" style="fill:rgb(8,6,6);fill-rule:nonzero;"/>
        </g>
        <g transform="matrix(1.96745,-3.67291,-3.67291,-1.96745,234.219,-42.1347)">
            <path d="M-5.27,-2.285C-5.27,-2.285 -2.122,-3.442 -2.171,2.542C-2.218,8.526 -3.636,9.877 -5.27,9.977C-6.758,10.068 -7.864,8.1 -7.769,4.74C-7.655,0.707 -7.039,-1.69 -5.27,-2.285" style="fill:rgb(28,26,25);fill-rule:nonzero;"/>
        </g>
        <g transform="matrix(0,4.16667,4.16667,0,195.885,6.51058)">
            <path d="M2.546,-2.544C4.259,-2.544 5.648,-1.404 5.648,0.001C5.648,1.406 4.259,2.546 2.546,2.546C0.832,2.546 -0.558,1.406 -0.558,0.001C-0.558,-1.404 0.832,-2.544 2.546,-2.544" style="fill:rgb(8,6,6);fill-rule:nonzero;"/>
        </g>
        <g transform="matrix(4.16667,0,0,4.16667,151.571,-64.8673)">
            <path d="M0,25.893C-0.095,25.893 -0.187,25.838 -0.229,25.746C-0.286,25.619 -0.23,25.469 -0.104,25.412C-0.084,25.402 1.932,24.468 2.824,22.666C3.525,21.25 3.308,19.124 2.367,18.205C1.802,17.652 1.037,17.606 0.149,18.07C0.122,18.084 0.077,18.111 0.018,18.145C-3.081,19.945 -4.479,19.136 -5.107,18.14C-6.258,16.312 -5.263,1.88 -5.146,0.241C-5.136,0.102 -5.013,0 -4.876,0.007C-4.737,0.017 -4.633,0.138 -4.643,0.277C-4.959,4.686 -5.58,16.443 -4.682,17.872C-3.94,19.047 -2.445,18.995 -0.235,17.709C-0.167,17.67 -0.116,17.64 -0.083,17.623C0.999,17.058 1.995,17.136 2.72,17.844C3.815,18.916 4.076,21.274 3.276,22.89C2.302,24.856 0.193,25.83 0.104,25.87C0.07,25.885 0.035,25.893 0,25.893" style="fill:rgb(28,26,25);fill-rule:nonzero;"/>
        </g>
        <g transform="matrix(4.16667,0,0,4.16667,90.4833,158.897)">
            <path d="M0,-3.079C0,-3.079 7.895,0 22.752,-3.079" style="fill:none;fill-rule:nonzero;stroke:white;stroke-width:1.16px;stroke-linecap:round;stroke-linejoin:round;"/>
        </g>
    </g>
</svg>
