<?xml version="1.0" encoding="UTF-8" standalone="no"?>
<!DOCTYPE svg PUBLIC "-//W3C//DTD SVG 1.1//EN" "http://www.w3.org/Graphics/SVG/1.1/DTD/svg11.dtd">
<svg width="100%" height="100%" viewBox="0 0 256 256" version="1.1" xmlns="http://www.w3.org/2000/svg" xmlns:xlink="http://www.w3.org/1999/xlink" xml:space="preserve" xmlns:serif="http://www.serif.com/" style="fill-rule:evenodd;clip-rule:evenodd;stroke-miterlimit:10;">
    <g id="fem-2" transform="matrix(0.376858,0,0,0.376858,94.9291,116.233)">
        <g transform="matrix(4.16667,0,0,4.16667,-53.6606,259.884)">
            <path d="M0,-99.359C0,-99.359 -14.774,-88.102 -16.265,-52.796C-16.562,-45.768 -22.701,-35.801 -23.668,-27.64C-24.729,-18.691 -20.952,-4.216 -20.952,-4.216C-20.952,-4.216 -18.662,-3.937 -14.967,-3.537C-14.52,-8.139 -13.672,-16.552 -13.672,-16.552L-11.756,-3.197C0.612,-1.917 22.413,0 34.207,-0.964L34.009,-97.536L0,-99.359Z" style="fill:rgb(28,26,25);fill-rule:nonzero;"/>
        </g>
        <g transform="matrix(4.16667,0,0,4.16667,322.528,-34.4667)">
            <path d="M0,42.77C-1.001,34.613 -7.28,24.675 -7.507,17.645C-8.639,-17.458 -22.768,-27.858 -22.768,-27.858L-57.964,-26.888L-57.766,69.683C-45.594,70.628 -22.79,68.463 -10.672,67.138C-9.869,63.08 -8.828,55.95 -8.828,55.95L-6.335,66.65C-3.996,66.378 -2.62,66.205 -2.62,66.205C-2.62,66.205 1.097,51.715 0,42.77" style="fill:rgb(28,26,25);fill-rule:nonzero;"/>
        </g>
        <g transform="matrix(-3.71935,1.87817,1.87817,3.71935,422.379,182.841)">
            <path d="M14.587,-105.745C1.681,-92.807 -1.648,-71.325 6.737,-55.087C9.481,-49.776 13.367,-44.901 14.587,-39.049C15.431,-34.986 14.912,-30.779 15.068,-26.632C15.475,-15.836 20.746,-5.317 29.15,1.472" style="fill:none;fill-rule:nonzero;stroke:rgb(8,7,6);stroke-width:1.55px;"/>
        </g>
        <g transform="matrix(4.16667,0,0,4.16667,-18.1093,227.267)">
            <path d="M0,-96.443C-1.77,-96.043 -21.833,-85.434 -24.869,-61.061C-25.374,-57.008 -24.764,-52.891 -25.025,-48.816C-25.388,-43.17 -27.176,-37.727 -28.941,-32.352C-30.706,-26.977 -32.478,-21.526 -32.803,-15.878C-33.127,-10.23 -31.848,-4.27 -28.137,0" style="fill:none;fill-rule:nonzero;stroke:rgb(8,7,6);stroke-width:1.55px;"/>
        </g>
        <g transform="matrix(4.16667,0,0,4.16667,277.406,269.741)">
            <path d="M-85.673,-1.272C-85.61,-1.386 -85.546,-1.5 -85.481,-1.614C-85.163,-2.176 -84.832,-2.735 -84.488,-3.288C-84.17,-3.8 -83.842,-4.307 -83.502,-4.809C-77.898,-13.093 -69.249,-19.991 -55.915,-22.215C-55.27,-22.323 -54.615,-22.419 -53.948,-22.505C-51.748,-22.786 -49.426,-22.944 -46.977,-22.966C-46.825,-22.968 -46.672,-22.969 -46.519,-22.969C-46.106,-22.97 -45.696,-22.968 -45.289,-22.962C-41.443,-22.913 -37.91,-22.594 -34.664,-22.043C-30.927,-21.408 -27.571,-20.465 -24.558,-19.272C-22.508,-18.46 -20.617,-17.532 -18.873,-16.505C-17.673,-15.799 -16.543,-15.046 -15.479,-14.253C-11.915,-11.597 -9.089,-8.487 -6.855,-5.142C-4.007,-0.879 -2.12,3.764 -0.892,8.332C-4.89,11.289 -8.995,13.706 -9.461,13.878C-11.83,15.208 -18.628,18.296 -18.628,18.296C-18.927,18.418 -19.227,18.538 -19.527,18.656C-24.637,20.664 -29.998,22.171 -35.55,23.115C-40.02,23.876 -44.613,24.272 -49.298,24.272C-53.622,24.272 -57.868,23.934 -62.009,23.285C-65.311,22.767 -68.548,22.05 -71.707,21.147C-71.742,21.137 -75.101,20.227 -79.008,18.424C-84.482,15.9 -91.032,12.238 -91.032,12.238C-89.987,8.345 -88.546,4.299 -86.562,0.398C-86.277,-0.162 -85.981,-0.719 -85.673,-1.272Z" style="fill:white;fill-rule:nonzero;stroke:rgb(30,28,26);stroke-width:2.65px;"/>
        </g>
        <g transform="matrix(4.16667,0,0,4.16667,-2006.38,-531.435)">
            <clipPath id="_clip1">
                <path d="M501.59,169.313C472.704,169.372 461.436,188.269 457.076,204.52L476.142,210.497L476.177,227.501L529.516,227.391L529.481,210.387L548.108,204.464C544.924,188.23 534.247,169.314 501.761,169.313L501.59,169.313Z" clip-rule="nonzero"/>
            </clipPath>
            <g clip-path="url(#_clip1)">
                <g transform="matrix(1,0,0,1,480.328,198.394)">
                    <path d="M0,-0.437C0,-0.437 -1.64,-3.498 -0.546,-4.373C0.547,-5.247 1.202,-0.437 1.202,-0.437C1.202,-0.437 2.937,-3.936 4.365,-3.498C5.794,-3.061 2.405,0.243 2.405,0.243C2.405,0.243 5.451,1.421 4.365,2.733C3.28,4.045 1.446,1.531 1.446,1.531C1.446,1.531 1.531,4.81 0.328,4.482C-0.874,4.154 0.109,1.093 0.109,1.093C0.109,1.093 -3.936,1.579 -3.936,0.243C-3.936,-1.093 0,-0.437 0,-0.437" style="fill:rgb(28,26,25);fill-rule:nonzero;"/>
                </g>
                <g transform="matrix(1,0,0,1,528.04,190.597)">
                    <path d="M0,-0.438C0,-0.438 -1.643,-3.504 -0.548,-4.38C0.548,-5.257 1.204,-0.438 1.204,-0.438C1.204,-0.438 2.941,-3.942 4.373,-3.504C5.805,-3.066 2.409,0.243 2.409,0.243C2.409,0.243 5.461,1.424 4.373,2.738C3.285,4.052 1.449,1.533 1.449,1.533C1.449,1.533 1.533,4.819 0.329,4.49C-0.876,4.162 0.109,1.095 0.109,1.095C0.109,1.095 -3.942,1.582 -3.942,0.243C-3.942,-1.095 0,-0.438 0,-0.438" style="fill:rgb(28,26,25);fill-rule:nonzero;"/>
                </g>
                <g transform="matrix(1,0,0,1,512.92,197.478)">
                    <path d="M0,-0.437C0,-0.437 -1.643,-3.504 -0.548,-4.38C0.548,-5.256 1.204,-0.437 1.204,-0.437C1.204,-0.437 2.941,-3.942 4.373,-3.504C5.805,-3.065 2.409,0.244 2.409,0.244C2.409,0.244 5.461,1.424 4.373,2.739C3.285,4.053 1.449,1.534 1.449,1.534C1.449,1.534 1.533,4.819 0.329,4.491C-0.876,4.163 0.109,1.096 0.109,1.096C0.109,1.096 -3.942,1.582 -3.942,0.244C-3.942,-1.094 0,-0.437 0,-0.437" style="fill:rgb(28,26,25);fill-rule:nonzero;"/>
                </g>
                <g transform="matrix(1,0,0,1,462.822,191.502)">
                    <path d="M0,-0.437C0,-0.437 -1.64,-3.498 -0.546,-4.373C0.547,-5.247 1.203,-0.437 1.203,-0.437C1.203,-0.437 2.937,-3.936 4.365,-3.498C5.794,-3.061 2.405,0.243 2.405,0.243C2.405,0.243 5.451,1.421 4.365,2.733C3.28,4.045 1.446,1.531 1.446,1.531C1.446,1.531 1.531,4.81 0.328,4.482C-0.874,4.154 0.109,1.093 0.109,1.093C0.109,1.093 -3.936,1.579 -3.936,0.243C-3.936,-1.093 0,-0.437 0,-0.437" style="fill:rgb(28,26,25);fill-rule:nonzero;"/>
                </g>
                <g transform="matrix(1,0,0,1,488.383,214.6)">
                    <path d="M-2.283,0.967C-2.883,0.628 -3.362,0.191 -3.344,-0.34C-3.296,-1.74 0.783,0.893 0.783,0.893C0.783,0.893 -0.744,-2.7 0.518,-3.5C1.779,-4.3 2.082,0.423 2.082,0.423C2.082,0.423 4.959,-1.123 5.248,0.556C5.356,1.179 4.995,1.537 4.499,1.741C2.211,1.576 -0.051,1.317 -2.283,0.967Z" style="fill:rgb(28,26,25);fill-rule:nonzero;"/>
                </g>
                <g transform="matrix(1,0,0,1,524.232,205.625)">
                    <path d="M0,1.81C0,1.81 -3.397,1.061 -3.35,-0.34C-3.302,-1.742 0.783,0.895 0.783,0.895C0.783,0.895 -0.746,-2.704 0.518,-3.506C1.782,-4.308 2.085,0.424 2.085,0.424C2.085,0.424 4.967,-1.124 5.257,0.557C5.547,2.238 2.439,1.993 2.439,1.993C2.439,1.993 4.988,4.067 3.955,4.768C2.922,5.469 1.235,2.725 1.235,2.725C1.235,2.725 -1.033,6.118 -2.049,5.247C-3.065,4.375 0,1.81 0,1.81" style="fill:rgb(28,26,25);fill-rule:nonzero;"/>
                </g>
                <g transform="matrix(1,0,0,1,538.542,201.556)">
                    <path d="M0,0.109C0,0.109 -2.504,-2.306 -1.73,-3.476C-0.956,-4.646 1.146,-0.261 1.146,-0.261C1.146,-0.261 1.726,-4.129 3.223,-4.151C4.719,-4.173 2.502,0.018 2.502,0.018C2.502,0.018 5.769,0.207 5.136,1.791C4.504,3.376 1.983,1.541 1.983,1.541C1.983,1.541 3.071,4.642 1.824,4.699C0.576,4.755 0.574,1.535 0.574,1.535C0.574,1.535 -3.134,3.24 -3.544,1.966C-3.954,0.692 0,0.109 0,0.109" style="fill:rgb(28,26,25);fill-rule:nonzero;"/>
                </g>
                <g transform="matrix(1,0,0,1,497.125,203.047)">
                    <path d="M0,0.543C0,0.543 -2.874,-1.405 -2.313,-2.688C-1.751,-3.97 1.064,-0.016 1.064,-0.016C1.064,-0.016 0.975,-3.919 2.443,-4.196C3.911,-4.472 2.445,0.028 2.445,0.028C2.445,0.028 5.69,-0.344 5.339,1.322C4.986,2.988 2.195,1.614 2.195,1.614C2.195,1.614 3.794,4.479 2.576,4.747C1.359,5.015 0.808,1.848 0.808,1.848C0.808,1.848 -2.548,4.157 -3.169,2.974C-3.789,1.791 0,0.543 0,0.543" style="fill:rgb(28,26,25);fill-rule:nonzero;"/>
                </g>
                <g transform="matrix(1,0,0,1,529.809,175.023)">
                    <path d="M0,0.544C0,0.544 -2.879,-1.408 -2.316,-2.693C-1.754,-3.977 1.066,-0.016 1.066,-0.016C1.066,-0.016 0.977,-3.926 2.447,-4.203C3.919,-4.48 2.45,0.027 2.45,0.027C2.45,0.027 5.7,-0.345 5.349,1.324C4.996,2.993 2.199,1.616 2.199,1.616C2.199,1.616 3.801,4.486 2.581,4.755C1.361,5.024 0.81,1.851 0.81,1.851C0.81,1.851 -2.553,4.164 -3.175,2.979C-3.796,1.794 0,0.544 0,0.544" style="fill:rgb(28,26,25);fill-rule:nonzero;"/>
                </g>
                <g transform="matrix(1,0,0,1,492.392,187.803)">
                    <path d="M0,0.543C0,0.543 -2.874,-1.405 -2.313,-2.688C-1.751,-3.97 1.064,-0.016 1.064,-0.016C1.064,-0.016 0.975,-3.919 2.443,-4.196C3.912,-4.472 2.446,0.028 2.446,0.028C2.446,0.028 5.69,-0.344 5.339,1.322C4.987,2.988 2.195,1.614 2.195,1.614C2.195,1.614 3.794,4.479 2.576,4.747C1.359,5.015 0.809,1.848 0.809,1.848C0.809,1.848 -2.548,4.157 -3.169,2.974C-3.789,1.791 0,0.543 0,0.543" style="fill:rgb(28,26,25);fill-rule:nonzero;"/>
                </g>
                <g transform="matrix(1,0,0,1,465.291,206.231)">
                    <path d="M-2.671,1.856C-2.607,1.806 -2.539,1.755 -2.468,1.706C-1.511,1.042 0,0.544 0,0.544C0,0.544 -2.874,-1.405 -2.313,-2.687C-1.751,-3.969 1.064,-0.015 1.064,-0.015C1.064,-0.015 0.975,-3.918 2.443,-4.195C3.912,-4.472 2.446,0.028 2.446,0.028C2.446,0.028 5.69,-0.343 5.339,1.323C4.987,2.989 2.195,1.614 2.195,1.614C2.195,1.614 2.958,2.982 3.028,3.916L1.15,3.161C0.919,2.483 0.809,1.848 0.809,1.848C0.809,1.848 0.301,2.198 -0.357,2.555C-0.49,2.627 -0.629,2.7 -0.771,2.77C-1.409,2.473 -2.042,2.169 -2.671,1.856Z" style="fill:rgb(28,26,25);fill-rule:nonzero;"/>
                </g>
                <g transform="matrix(1,0,0,1,476.121,181.042)">
                    <path d="M0,0.543C0,0.543 -2.874,-1.405 -2.313,-2.688C-1.751,-3.97 1.064,-0.016 1.064,-0.016C1.064,-0.016 0.975,-3.919 2.442,-4.196C3.911,-4.472 2.445,0.028 2.445,0.028C2.445,0.028 5.689,-0.344 5.338,1.322C4.986,2.988 2.194,1.614 2.194,1.614C2.194,1.614 3.793,4.479 2.576,4.747C1.358,5.015 0.808,1.848 0.808,1.848C0.808,1.848 -2.549,4.157 -3.169,2.974C-3.79,1.791 0,0.543 0,0.543" style="fill:rgb(28,26,25);fill-rule:nonzero;"/>
                </g>
            </g>
        </g>
        <g transform="matrix(4.16667,0,0,4.16667,8.20066,234.53)">
            <path d="M0,-11.44C0,-11.44 3.588,8.155 20.518,8.121C40.089,8.08 40.051,-10.821 40.051,-10.821C40.051,-10.821 24.119,-19.595 0,-11.44Z" style="fill:white;fill-rule:nonzero;stroke:rgb(30,28,26);stroke-width:2.65px;"/>
        </g>
        <g transform="matrix(0.0374096,-4.1665,-4.1665,-0.0374096,108.664,127.675)">
            <path d="M-13.203,-5.942L-7.857,-5.942L-5.823,-5.95C-8.377,-0.285 -9.393,8.883 -9.752,13.363L-13.376,13.33" style="fill:white;fill-rule:nonzero;stroke:rgb(30,28,26);stroke-width:2.65px;"/>
        </g>
        <g transform="matrix(4.16667,0,0,4.16667,133.604,167.81)">
            <path d="M0,-10.542L-20.14,-8.424L-19.624,-2.258L-19.436,0C-14.952,-0.319 -5.776,-1.254 -0.088,-3.756L0,-10.542Z" style="fill:rgb(28,26,25);fill-rule:nonzero;stroke:rgb(28,26,25);stroke-width:2.65px;"/>
        </g>
        <g transform="matrix(4.16667,0,0,4.16667,204.225,72.6825)">
            <path d="M0,-41.357C3.198,-34.27 4.772,-28.866 4.772,-10.626C4.772,3.606 -6.591,17.536 -23.966,18.664C-40.297,19.725 -57.264,13.15 -62.354,-9.756C-67.444,-32.662 -60.233,-50.901 -39.448,-55.991C-18.664,-61.082 -3.766,-49.703 0,-41.357" style="fill:white;fill-rule:nonzero;"/>
        </g>
        <g transform="matrix(4.16667,0,0,4.16667,204.225,72.6825)">
            <path d="M0,-41.357C3.198,-34.27 4.772,-28.866 4.772,-10.626C4.772,3.606 -6.591,17.536 -23.966,18.664C-40.297,19.725 -57.264,13.15 -62.354,-9.756C-67.444,-32.662 -60.233,-50.901 -39.448,-55.991C-18.664,-61.082 -3.766,-49.703 0,-41.357Z" style="fill:none;fill-rule:nonzero;stroke:rgb(30,28,26);stroke-width:2.65px;"/>
        </g>
        <g transform="matrix(4.16667,0,0,4.16667,62.929,-0.572484)">
            <path d="M0,-44.536C0,-44.536 -47.038,-51.628 -36.251,5.925C-36.251,5.925 -33.685,2.557 -27.429,3.123C-21.173,3.688 -13.714,-16.799 -12.992,-24.163C-12.992,-24.163 16.343,3.051 38.18,3.051C41.528,3.051 44.948,4.757 45.662,5.925C46.375,7.092 54.561,-19.117 41.686,-33.704C25.865,-51.628 9.624,-48.341 0,-44.536" style="fill:rgb(28,26,25);fill-rule:nonzero;"/>
        </g>
        <g transform="matrix(4.16667,0,0,4.16667,47.4627,-226.964)">
            <path d="M0,13.418C-2.372,11.434 -4.032,8.626 -4.672,5.603C-4.856,4.73 -3.926,4.033 -3.167,4.504C-1.152,5.754 0.368,7.809 0.905,10.123C0.756,7.781 0.607,5.438 0.459,3.096C0.398,2.141 0.416,1.011 1.195,0.457C1.839,0 2.775,0.172 3.391,0.667C4.006,1.16 4.363,1.902 4.647,2.638C5.861,5.776 6.093,9.286 5.303,12.556" style="fill:rgb(28,26,25);fill-rule:nonzero;"/>
        </g>
        <g transform="matrix(4.16667,0,0,4.16667,-2.76101,3.87918)">
            <path d="M0,-26.661C7.021,-16.568 17.244,-8.739 28.817,-4.592C40.392,-0.445 53.261,0 65.094,-3.338" style="fill:none;fill-rule:nonzero;stroke:rgb(8,7,6);stroke-width:1.55px;"/>
        </g>
        <g transform="matrix(4.16667,0,0,4.16667,209.832,82.1933)">
            <path d="M0,-16.015C0,-16.015 12.248,-20.469 12.885,-7.903C13.4,2.294 4.477,4.454 -0.993,0.726" style="fill:white;fill-rule:nonzero;stroke:rgb(30,28,26);stroke-width:2.65px;"/>
        </g>
        <g transform="matrix(4.16667,0,0,4.16667,211.822,27.83)">
            <path d="M0,11.123C0.034,11.123 0.07,11.115 0.104,11.1C0.23,11.042 0.286,10.893 0.229,10.767C0.201,10.706 -2.485,4.665 1.729,1.855C3.21,0.868 4.671,0.522 6.073,0.826C8.494,1.352 9.951,3.663 9.966,3.686C10.04,3.804 10.194,3.841 10.313,3.768C10.431,3.695 10.467,3.54 10.395,3.421C10.331,3.319 8.815,0.908 6.185,0.334C4.644,0 3.051,0.369 1.45,1.435C-3.122,4.484 -0.259,10.911 -0.229,10.976C-0.187,11.068 -0.096,11.123 0,11.123" style="fill:rgb(8,6,6);fill-rule:nonzero;"/>
        </g>
        <g transform="matrix(4.16667,0,0,4.16667,237.669,38.8746)">
            <path d="M0,3.546C0.077,3.546 0.152,3.511 0.202,3.445C0.285,3.333 0.262,3.175 0.15,3.092C0.108,3.061 -4.117,-0.024 -7.252,3.116C-7.351,3.214 -7.351,3.374 -7.252,3.472C-7.154,3.57 -6.994,3.57 -6.896,3.472C-4.066,0.639 -0.189,3.468 -0.15,3.496C-0.105,3.53 -0.053,3.546 0,3.546" style="fill:rgb(8,6,6);fill-rule:nonzero;"/>
        </g>
        <g transform="matrix(4.16667,0,0,4.16667,95.3711,65.4467)">
            <path d="M0,3.533C-3.848,3.533 -4.293,0.335 -4.298,0.3C-4.314,0.162 -4.218,0.037 -4.08,0.02C-3.949,0 -3.816,0.099 -3.798,0.237C-3.781,0.366 -3.337,3.383 0.7,2.994C0.839,2.99 0.962,3.082 0.976,3.22C0.988,3.359 0.888,3.482 0.749,3.495C0.486,3.521 0.237,3.533 0,3.533" style="fill:rgb(8,6,6);fill-rule:nonzero;"/>
        </g>
        <g transform="matrix(4.16667,0,0,4.16667,-40.5623,84.7058)">
            <path d="M0,-16.618C0,-16.618 -12.248,-21.072 -12.884,-8.506C-13.417,2.021 -3.401,4.454 2.022,0.201" style="fill:white;fill-rule:nonzero;stroke:rgb(30,28,26);stroke-width:2.65px;"/>
        </g>
        <g transform="matrix(1.96745,3.67291,3.67291,-1.96745,-2.63684,-30.3278)">
            <path d="M5.27,-2.286C5.27,-2.286 2.124,-3.443 2.171,2.541C2.219,8.524 3.637,9.876 5.27,9.976C6.759,10.068 7.864,8.099 7.769,4.739C7.656,0.707 7.039,-1.691 5.27,-2.286" style="fill:rgb(28,26,25);fill-rule:nonzero;"/>
        </g>
        <g transform="matrix(0,-4.16667,-4.16667,0,31.0336,18.32)">
            <path d="M-2.546,-2.546C-4.259,-2.546 -5.648,-1.406 -5.648,-0.001C-5.648,1.405 -4.259,2.546 -2.546,2.546C-0.833,2.546 0.556,1.405 0.556,-0.001C0.556,-1.406 -0.833,-2.546 -2.546,-2.546" style="fill:rgb(8,6,6);fill-rule:nonzero;"/>
        </g>
        <g transform="matrix(1.96745,-3.67291,-3.67291,-1.96745,181.58,-30.326)">
            <path d="M-5.27,-2.286C-5.27,-2.286 -2.124,-3.442 -2.171,2.542C-2.219,8.525 -3.637,9.876 -5.27,9.976C-6.758,10.067 -7.864,8.099 -7.769,4.74C-7.655,0.706 -7.039,-1.691 -5.27,-2.286" style="fill:rgb(28,26,25);fill-rule:nonzero;"/>
        </g>
        <g transform="matrix(0,4.16667,4.16667,0,143.251,18.3221)">
            <path d="M2.545,-2.545C4.258,-2.545 5.647,-1.405 5.647,0C5.647,1.405 4.258,2.545 2.545,2.545C0.832,2.545 -0.557,1.405 -0.557,0C-0.557,-1.405 0.832,-2.545 2.545,-2.545" style="fill:rgb(8,6,6);fill-rule:nonzero;"/>
        </g>
        <g transform="matrix(4.16667,0,0,4.16667,-42.5481,27.83)">
            <path d="M0,11.123C-0.035,11.123 -0.07,11.115 -0.104,11.1C-0.231,11.042 -0.287,10.893 -0.229,10.767C-0.202,10.706 2.484,4.665 -1.73,1.855C-3.211,0.868 -4.672,0.522 -6.074,0.826C-8.495,1.352 -9.952,3.663 -9.967,3.686C-10.04,3.804 -10.194,3.841 -10.313,3.768C-10.432,3.695 -10.468,3.54 -10.395,3.421C-10.331,3.319 -8.816,0.908 -6.186,0.334C-4.645,0 -3.051,0.369 -1.451,1.435C3.121,4.484 0.259,10.911 0.229,10.976C0.187,11.068 0.095,11.123 0,11.123" style="fill:rgb(8,6,6);fill-rule:nonzero;"/>
        </g>
        <g transform="matrix(4.16667,0,0,4.16667,-68.3985,38.8746)">
            <path d="M0,3.546C-0.076,3.546 -0.152,3.511 -0.202,3.445C-0.285,3.333 -0.262,3.175 -0.15,3.092C-0.108,3.061 4.117,-0.024 7.252,3.116C7.351,3.214 7.351,3.374 7.252,3.472C7.154,3.57 6.995,3.57 6.896,3.472C4.066,0.639 0.189,3.468 0.15,3.496C0.105,3.53 0.053,3.546 0,3.546" style="fill:rgb(8,6,6);fill-rule:nonzero;"/>
        </g>
        <g transform="matrix(4.16667,0,0,4.16667,98.9357,-53.0579)">
            <path d="M0,25.893C-0.096,25.893 -0.187,25.838 -0.229,25.745C-0.287,25.618 -0.23,25.469 -0.104,25.412C-0.084,25.402 1.932,24.469 2.824,22.666C3.525,21.25 3.308,19.124 2.367,18.204C1.802,17.652 1.037,17.605 0.149,18.07C0.122,18.084 0.077,18.111 0.018,18.145C-3.082,19.945 -4.479,19.136 -5.107,18.14C-6.259,16.312 -5.263,1.88 -5.146,0.241C-5.136,0.102 -5.013,0 -4.876,0.008C-4.737,0.018 -4.633,0.138 -4.643,0.277C-4.959,4.686 -5.58,16.443 -4.682,17.872C-3.941,19.047 -2.445,18.994 -0.235,17.709C-0.167,17.67 -0.116,17.64 -0.083,17.623C0.999,17.059 1.995,17.136 2.72,17.844C3.815,18.916 4.075,21.274 3.275,22.89C2.302,24.856 0.193,25.83 0.104,25.87C0.07,25.885 0.035,25.893 0,25.893" style="fill:rgb(8,6,6);fill-rule:nonzero;"/>
        </g>
        <g transform="matrix(4.16667,0,0,4.16667,-61.1473,124.679)">
            <path d="M0,-10.546L-0.001,-10.546L0,-10.546ZM3.03,0.973C2.074,0.973 1.144,0.769 0.262,0.368C-1.361,-0.373 -2.599,-1.701 -3.223,-3.372C-4.328,-6.33 -3.188,-9.692 -0.516,-11.366C-0.335,-11.48 -0.117,-11.519 0.092,-11.469C0.303,-11.421 0.482,-11.293 0.597,-11.109C0.71,-10.928 0.746,-10.712 0.698,-10.502C0.649,-10.292 0.522,-10.113 0.34,-9.999C-1.687,-8.73 -2.55,-6.18 -1.712,-3.937C-1.238,-2.669 -0.301,-1.662 0.932,-1.1C2.163,-0.537 3.538,-0.488 4.805,-0.963C6.633,-1.646 7.886,-3.277 8.076,-5.22C8.12,-5.655 8.202,-6.151 8.529,-6.137L9.537,-4.904C9.288,-2.343 7.779,-0.353 5.37,0.548C4.614,0.83 3.827,0.973 3.03,0.973" style="fill:white;fill-rule:nonzero;"/>
        </g>
        <g transform="matrix(4.16667,0,0,4.16667,-61.1473,124.679)">
            <path d="M0,-10.546L-0.001,-10.546L0,-10.546ZM3.03,0.973C2.074,0.973 1.144,0.769 0.262,0.368C-1.361,-0.373 -2.599,-1.701 -3.223,-3.372C-4.328,-6.33 -3.188,-9.692 -0.516,-11.366C-0.335,-11.48 -0.117,-11.519 0.092,-11.469C0.303,-11.421 0.482,-11.293 0.597,-11.109C0.71,-10.928 0.746,-10.712 0.698,-10.502C0.649,-10.292 0.522,-10.113 0.34,-9.999C-1.687,-8.73 -2.55,-6.18 -1.712,-3.937C-1.238,-2.669 -0.301,-1.662 0.932,-1.1C2.163,-0.537 3.538,-0.488 4.805,-0.963C6.633,-1.646 7.886,-3.277 8.076,-5.22C8.12,-5.655 8.202,-6.151 8.529,-6.137L9.537,-4.904C9.288,-2.343 7.779,-0.353 5.37,0.548C4.614,0.83 3.827,0.973 3.03,0.973Z" style="fill:none;fill-rule:nonzero;stroke:rgb(30,28,26);stroke-width:2.65px;"/>
        </g>
        <g transform="matrix(4.16667,0,0,4.16667,235.276,124.681)">
            <path d="M0,-10.546L-0.001,-10.546L0,-10.546M-5.37,0.547C-7.78,-0.353 -9.289,-2.344 -9.538,-4.905L-8.53,-6.138C-8.203,-6.151 -8.12,-5.656 -8.076,-5.221C-7.887,-3.278 -6.634,-1.646 -4.806,-0.964C-3.539,-0.489 -2.164,-0.537 -0.932,-1.1C0.3,-1.662 1.238,-2.67 1.711,-3.937C2.549,-6.181 1.687,-8.731 -0.341,-10C-0.523,-10.114 -0.65,-10.293 -0.698,-10.503C-0.747,-10.712 -0.711,-10.928 -0.597,-11.11C-0.482,-11.294 -0.304,-11.421 -0.093,-11.47C0.117,-11.519 0.334,-11.481 0.516,-11.367C3.188,-9.692 4.327,-6.331 3.223,-3.372C2.598,-1.701 1.36,-0.373 -0.263,0.367C-1.144,0.769 -2.075,0.973 -3.03,0.973C-3.827,0.973 -4.615,0.83 -5.37,0.547" style="fill:white;fill-rule:nonzero;"/>
        </g>
        <g transform="matrix(4.16667,0,0,4.16667,235.276,124.681)">
            <path d="M0,-10.546L-0.001,-10.546L0,-10.546ZM-5.37,0.547C-7.78,-0.353 -9.289,-2.344 -9.538,-4.905L-8.53,-6.138C-8.203,-6.151 -8.12,-5.656 -8.076,-5.221C-7.887,-3.278 -6.634,-1.646 -4.806,-0.964C-3.539,-0.489 -2.164,-0.537 -0.932,-1.1C0.3,-1.662 1.238,-2.67 1.711,-3.937C2.549,-6.181 1.687,-8.731 -0.341,-10C-0.523,-10.114 -0.65,-10.293 -0.698,-10.503C-0.747,-10.712 -0.711,-10.928 -0.597,-11.11C-0.482,-11.294 -0.304,-11.421 -0.093,-11.47C0.117,-11.519 0.334,-11.481 0.516,-11.367C3.188,-9.692 4.327,-6.331 3.223,-3.372C2.598,-1.701 1.36,-0.373 -0.263,0.367C-1.144,0.769 -2.075,0.973 -3.03,0.973C-3.827,0.973 -4.615,0.83 -5.37,0.547Z" style="fill:none;fill-rule:nonzero;stroke:rgb(30,28,26);stroke-width:2.65px;"/>
        </g>
    </g>
</svg>
