<?xml version="1.0" encoding="UTF-8" standalone="no"?>
<!DOCTYPE svg PUBLIC "-//W3C//DTD SVG 1.1//EN" "http://www.w3.org/Graphics/SVG/1.1/DTD/svg11.dtd">
<svg width="100%" height="100%" viewBox="0 0 256 256" version="1.1" xmlns="http://www.w3.org/2000/svg" xmlns:xlink="http://www.w3.org/1999/xlink" xml:space="preserve" xmlns:serif="http://www.serif.com/" style="fill-rule:evenodd;clip-rule:evenodd;stroke-miterlimit:10;">
    <g id="male-3" transform="matrix(1,0,0,1,-5.02996,-1.06581e-14)">
        <g transform="matrix(1.69575,0,0,1.69575,53.4521,189.435)">
            <path d="M41.42,36.853C41.176,36.845 40.932,39.195 40.689,39.184C39.947,39.153 39.208,39.11 38.471,39.057C36.353,38.905 34.258,38.664 32.191,38.34C31.358,38.21 31.12,36.886 30.296,36.728C28.096,36.307 23.412,35.137 23.334,35.114C19.244,33.931 9.19,29.438 5.335,27.087C10.192,14.355 19.342,2.856 38.808,0L41.42,36.853Z" style="fill:rgb(30,28,26);fill-rule:nonzero;stroke:rgb(30,28,26);stroke-width:2.46px;"/>
        </g>
        <g transform="matrix(1.69575,0,0,1.69575,133.676,287)">
            <path d="M-6.516,-56.501C-5.401,-56.832 -4.294,-57.281 -3.133,-57.624C-2.14,-57.918 -1.109,-58.135 0,-58.135C0.325,-58.135 0.647,-58.133 0.967,-58.129C3.822,-58.09 6.495,-57.86 8.949,-57.083C10.075,-56.727 11.154,-56.256 12.183,-55.635C12.328,-55.548 12.471,-55.458 12.614,-55.365C12.627,-55.356 12.641,-55.347 12.655,-55.338L10.35,-19.523C10.136,-19.484 9.922,-19.445 9.708,-19.408C9.599,-19.389 9.491,-19.37 9.383,-19.352C5.244,-18.648 0.991,-18.281 -3.347,-18.281C-3.714,-18.281 -4.08,-18.284 -4.446,-18.289C-4.928,-18.296 -5.409,-18.307 -5.888,-18.323C-6.132,-18.331 -6.376,-18.34 -6.62,-18.351L-8.12,-56.135C-7.759,-56.188 -7.403,-56.263 -7.048,-56.354C-6.87,-56.4 -6.693,-56.449 -6.516,-56.501Z" style="fill:white;fill-rule:nonzero;"/>
        </g>
        <g transform="matrix(1.69575,0,0,1.69575,119.906,207.777)">
            <path d="M0,-8.399C0,-8.399 -2.577,2.348 10.962,2.484C24.501,2.62 21.011,-10.268 21.011,-10.268C21.011,-10.268 12.067,-11.019 0,-8.399Z" style="fill:white;fill-rule:nonzero;stroke:rgb(30,28,26);stroke-width:2.46px;"/>
        </g>
        <g transform="matrix(1.69575,0,0,1.69575,155.536,286.999)">
            <path d="M30.058,-34.158C29.571,-33.78 29.08,-33.407 28.585,-33.041C27.537,-32.266 26.469,-31.517 25.38,-30.796C24.947,-30.509 24.511,-30.226 24.072,-29.948C23.641,-29.675 23.206,-29.406 22.769,-29.141C22.349,-28.887 21.925,-28.636 21.5,-28.39C21.217,-28.226 20.934,-28.065 20.65,-27.905C18.456,-26.673 16.195,-25.547 13.874,-24.535C13.307,-24.288 12.736,-24.047 12.162,-23.814C11.885,-23.701 11.607,-23.59 11.329,-23.481C10.33,-23.088 9.321,-22.716 8.302,-22.366C4.811,-21.165 1.205,-20.213 -2.496,-19.531L-0,-56.986C16.629,-53.81 25.464,-44.421 30.058,-34.158Z" style="fill:rgb(30,28,26);fill-rule:nonzero;stroke:rgb(30,28,26);stroke-width:2.46px;"/>
        </g>
        <g transform="matrix(1.69575,0,0,1.69575,128.256,189.128)">
            <path d="M-1.25,39.427C-1.732,39.42 -2.213,39.409 -2.692,39.393C-2.937,39.385 -3.18,39.376 -3.424,39.365C-4.166,39.334 -4.905,39.291 -5.641,39.238C-7.76,39.086 -9.855,38.845 -11.922,38.521C-12.754,38.391 -13.583,38.246 -14.406,38.089L-12.224,34.339C-11.807,33.623 -11.924,32.716 -12.508,32.129L-20.229,24.38C-20.891,23.715 -20.964,22.666 -20.401,21.916L-3.945,0L-1.25,39.427Z" style="fill:rgb(30,28,26);fill-rule:nonzero;stroke:white;stroke-width:2.46px;"/>
        </g>
        <g transform="matrix(1.69575,0,0,1.69575,147.888,189.128)">
            <path d="M3.944,0L20.401,21.916C20.964,22.666 20.891,23.715 20.229,24.38L12.509,32.129C11.924,32.716 11.807,33.623 12.224,34.339L12.812,35.35C9.321,36.551 5.715,37.503 2.014,38.185C1.999,38.188 1.984,38.19 1.969,38.193C1.755,38.232 1.541,38.271 1.326,38.308L3.944,0Z" style="fill:rgb(30,28,26);fill-rule:nonzero;stroke:white;stroke-width:2.46px;"/>
        </g>
        <g transform="matrix(1.69575,0,0,1.69575,122.425,198.907)">
            <path d="M0,-5.37L0.595,-1.26C0.595,-1.26 1.708,3.756 9.365,3.756C17.948,3.756 19.206,-1.26 19.206,-1.26L19.321,-7.092L19.347,-9.126C13.658,-6.623 4.482,-5.689 0,-5.37Z" style="fill:white;fill-rule:nonzero;stroke:rgb(30,28,26);stroke-width:2.46px;"/>
        </g>
        <g transform="matrix(1.69575,0,0,1.69575,155.382,189.8)">
            <path d="M0,-13.542L-20.14,-11.424L-19.624,-2.257L-19.435,0C-14.953,-0.319 -5.777,-1.253 -0.088,-3.756L0,-13.542Z" style="fill:rgb(28,26,25);fill-rule:nonzero;stroke:rgb(28,26,25);stroke-width:2.46px;"/>
        </g>
        <g transform="matrix(1.69575,0,0,1.69575,202.321,49.188)">
            <path d="M0,48.171C3.997,45.156 5.117,39.431 4.023,34.546C2.929,29.661 0.035,25.402 -2.799,21.276C-0.386,21.462 1.749,19.304 2.212,16.928C2.675,14.553 1.818,12.104 0.607,10.008C-2.315,4.947 -7.45,1.216 -13.167,0" style="fill:none;fill-rule:nonzero;stroke:rgb(8,7,6);stroke-width:1.43px;"/>
        </g>
        <g transform="matrix(1.66927,-0.298522,-0.298522,-1.66927,75.2769,125.371)">
            <path d="M-3.712,0.791C-7.125,2.672 -9.38,6.489 -9.38,10.385C-9.38,14.282 -7.125,18.1 -3.712,19.98C-6.254,25.448 -4.854,32.488 -0.412,36.565C4.03,40.644 11.163,41.44 16.395,38.441" style="fill:none;fill-rule:nonzero;stroke:rgb(8,7,6);stroke-width:1.43px;"/>
        </g>
        <g transform="matrix(0.141414,1.68984,1.68984,-0.141414,141.869,156.628)">
            <path d="M6.271,-12.757L12.458,-12.757C14.685,-6.386 15.451,0.316 14.619,6.639L5.839,7.489L6.271,-12.757Z" style="fill:rgb(237,163,120);fill-rule:nonzero;"/>
        </g>
        <g transform="matrix(1.69575,0,0,1.69575,188.369,138.448)">
            <path d="M0,-34.102C2.35,-27.419 3.367,-23.48 2.249,-8.142C1.215,6.052 -9.113,20.02 -26.489,21.148C-42.819,22.209 -60.929,15.858 -64.877,-7.271C-68.204,-26.764 -62.756,-46.131 -41.971,-51.222C-21.187,-56.311 -4.461,-46.786 0,-34.102" style="fill:white;fill-rule:nonzero;"/>
        </g>
        <g transform="matrix(1.69575,0,0,1.69575,188.369,138.448)">
            <path d="M0,-34.102C2.35,-27.419 3.367,-23.48 2.249,-8.142C1.215,6.052 -9.113,20.02 -26.489,21.148C-42.819,22.209 -60.929,15.858 -64.877,-7.271C-68.204,-26.764 -62.756,-46.131 -41.971,-51.222C-21.187,-56.311 -4.461,-46.786 0,-34.102Z" style="fill:none;fill-rule:nonzero;stroke:rgb(30,28,26);stroke-width:2.46px;"/>
        </g>
        <g transform="matrix(1.69575,0,0,1.69575,178.408,129.882)">
            <path d="M0,-50.427C4.711,-47.923 9.602,-45.263 12.654,-40.888C15.707,-36.512 16.242,-29.883 12.378,-26.204L15.627,-16.303C16.43,-13.856 17.241,-11.361 17.253,-8.786C17.265,-6.211 16.346,-3.497 14.277,-1.964C11.628,0 7.66,-0.536 5.13,-2.651C2.6,-4.766 1.365,-8.117 1.12,-11.405C0.876,-14.694 1.51,-17.977 2.141,-21.213C-1.513,-25.73 -4.68,-30.641 -7.287,-35.833C-8.613,-38.474 -9.823,-41.362 -9.447,-44.293C-9.071,-47.224 -6.522,-50.067 -3.587,-49.722" style="fill:rgb(28,26,25);fill-rule:nonzero;"/>
        </g>
        <g transform="matrix(1.69575,0,0,1.69575,79.7023,35.5797)">
            <path d="M0,50.967C0,50.967 6.21,49.523 6.961,38.696C6.961,38.696 12.208,36.53 13.931,25.703C13.931,25.703 41.626,36.29 49.451,30.997C49.451,30.997 52.664,28.591 50.76,24.501C50.76,24.501 55.174,27.572 62.911,25.166C70.648,22.76 66.42,11.508 61.367,10.064C61.367,10.064 64.128,-4.649 48.374,-2.483C32.621,-0.318 30.022,-2.909 20.879,-2.428C11.736,-1.947 6.195,3.568 3.789,8.38C3.789,8.38 -17.792,20.17 -9.763,33.202C-9.763,33.202 -16.662,46.318 -7.239,50.967C2.185,55.616 0,50.967 0,50.967" style="fill:rgb(28,26,25);fill-rule:nonzero;"/>
        </g>
        <g transform="matrix(1.69575,0,0,1.69575,83.925,34.9912)">
            <path d="M0,13.461C-2.109,11.703 -3.955,9.629 -5.456,7.33C-5.797,6.808 -6.047,5.966 -5.492,5.683C-5.071,5.469 -4.595,5.824 -4.258,6.153C-3.049,7.334 -1.841,8.514 -0.633,9.693C-1.973,7.607 -2.905,5.26 -3.361,2.823C-3.529,1.925 -3.53,0.793 -2.737,0.341C-2.138,0 -1.341,0.261 -0.863,0.757C-0.385,1.253 -0.15,1.929 0.071,2.582C1.142,5.742 2.212,8.902 3.282,12.063" style="fill:rgb(28,26,25);fill-rule:nonzero;"/>
        </g>
        <g transform="matrix(1.69575,0,0,1.69575,83.2055,184.591)">
            <path d="M0,-38.381C0,-38.381 -4.211,-2.527 31.024,-0.784C63.976,0.845 64.457,-39.226 64.457,-39.226C64.457,-39.226 58.998,-38.094 49.805,-28.284C44.86,-23.006 39.186,-28.284 32.766,-27.943C26.346,-27.603 23.541,-26.411 16.421,-26.241C9.302,-26.07 10.105,-38.551 0,-38.381" style="fill:rgb(28,26,25);fill-rule:nonzero;"/>
        </g>
        <g transform="matrix(1.69575,0,0,1.69575,179.899,126.946)">
            <path d="M0,8.896C-0.349,5.439 3.818,-4.466 3.818,-4.466C3.818,-4.466 16.066,-8.919 16.702,3.647C17.339,16.213 0.9,17.815 0,8.896" style="fill:white;fill-rule:nonzero;"/>
        </g>
        <g transform="matrix(1.69575,0,0,1.69575,179.899,126.946)">
            <path d="M0,8.896C-0.349,5.439 3.818,-4.466 3.818,-4.466C3.818,-4.466 16.066,-8.919 16.702,3.647C17.339,16.213 0.9,17.815 0,8.896Z" style="fill:none;fill-rule:nonzero;stroke:rgb(30,28,26);stroke-width:2.46px;"/>
        </g>
        <g transform="matrix(1.69575,0,0,1.69575,187.182,124.406)">
            <path d="M0,11.123C0.035,11.123 0.071,11.116 0.104,11.1C0.231,11.043 0.287,10.894 0.229,10.767C0.202,10.706 -2.484,4.665 1.73,1.855C3.211,0.868 4.672,0.522 6.074,0.826C8.495,1.352 9.952,3.663 9.967,3.686C10.04,3.804 10.194,3.841 10.313,3.768C10.432,3.695 10.468,3.54 10.395,3.421C10.331,3.319 8.816,0.908 6.186,0.334C4.644,0 3.051,0.369 1.451,1.436C-3.121,4.484 -0.258,10.911 -0.229,10.976C-0.187,11.068 -0.095,11.123 0,11.123" style="fill:rgb(28,26,25);fill-rule:nonzero;"/>
        </g>
        <g transform="matrix(1.69575,0,0,1.69575,197.702,128.904)">
            <path d="M0,3.544C0.076,3.544 0.152,3.509 0.202,3.443C0.285,3.331 0.262,3.173 0.15,3.09C0.108,3.059 -4.117,-0.025 -7.252,3.114C-7.351,3.212 -7.351,3.373 -7.252,3.47C-7.154,3.569 -6.995,3.569 -6.896,3.47C-4.066,0.637 -0.189,3.466 -0.15,3.495C-0.105,3.528 -0.053,3.544 0,3.544" style="fill:rgb(28,26,25);fill-rule:nonzero;"/>
        </g>
        <g transform="matrix(1.69575,0,0,1.69575,139.79,143.591)">
            <path d="M0,3.533C-3.848,3.533 -4.293,0.335 -4.298,0.301C-4.315,0.163 -4.218,0.037 -4.08,0.02C-3.949,0 -3.817,0.099 -3.798,0.238C-3.781,0.366 -3.337,3.383 0.7,2.994C0.838,2.99 0.962,3.082 0.975,3.221C0.988,3.359 0.887,3.482 0.749,3.496C0.486,3.521 0.237,3.533 0,3.533" style="fill:white;fill-rule:nonzero;"/>
        </g>
        <g transform="matrix(1.69575,0,0,1.69575,90.9424,126.946)">
            <path d="M0,8.896C0.349,5.439 -3.818,-4.466 -3.818,-4.466C-3.818,-4.466 -16.066,-8.919 -16.702,3.647C-17.338,16.213 -0.9,17.815 0,8.896" style="fill:white;fill-rule:nonzero;"/>
        </g>
        <g transform="matrix(1.69575,0,0,1.69575,90.9424,126.946)">
            <path d="M0,8.896C0.349,5.439 -3.818,-4.466 -3.818,-4.466C-3.818,-4.466 -16.066,-8.919 -16.702,3.647C-17.338,16.213 -0.9,17.815 0,8.896Z" style="fill:none;fill-rule:nonzero;stroke:rgb(30,28,26);stroke-width:2.46px;"/>
        </g>
        <g transform="matrix(0.800711,1.4948,1.4948,-0.800711,99.9034,100.738)">
            <path d="M5.269,-2.286C5.269,-2.286 2.123,-3.443 2.17,2.541C2.218,8.525 3.637,9.876 5.269,9.976C6.757,10.067 7.863,8.099 7.769,4.739C7.656,0.706 7.04,-1.692 5.269,-2.286" style="fill:rgb(28,26,25);fill-rule:nonzero;"/>
        </g>
        <g transform="matrix(0,-1.69575,-1.69575,0,113.606,120.536)">
            <path d="M-2.545,-2.545C-4.258,-2.545 -5.647,-1.405 -5.647,0C-5.647,1.406 -4.258,2.545 -2.545,2.545C-0.832,2.545 0.557,1.406 0.557,0C0.557,-1.405 -0.832,-2.545 -2.545,-2.545" style="fill:rgb(8,6,6);fill-rule:nonzero;"/>
        </g>
        <g transform="matrix(0.800711,-1.4948,-1.4948,-0.800711,174.874,100.737)">
            <path d="M-5.269,-2.286C-5.269,-2.286 -2.123,-3.443 -2.171,2.541C-2.219,8.524 -3.637,9.876 -5.269,9.976C-6.758,10.068 -7.864,8.099 -7.77,4.738C-7.656,0.706 -7.04,-1.692 -5.269,-2.286" style="fill:rgb(28,26,25);fill-rule:nonzero;"/>
        </g>
        <g transform="matrix(0,1.69575,1.69575,0,159.276,120.535)">
            <path d="M2.546,-2.546C4.259,-2.546 5.648,-1.406 5.648,0C5.648,1.405 4.259,2.546 2.546,2.546C0.833,2.546 -0.556,1.405 -0.556,0C-0.556,-1.406 0.833,-2.546 2.546,-2.546" style="fill:rgb(8,6,6);fill-rule:nonzero;"/>
        </g>
        <g transform="matrix(1.69575,0,0,1.69575,83.6593,124.406)">
            <path d="M0,11.123C-0.035,11.123 -0.07,11.116 -0.104,11.1C-0.231,11.043 -0.287,10.894 -0.229,10.767C-0.202,10.706 2.484,4.665 -1.73,1.855C-3.211,0.868 -4.671,0.522 -6.074,0.826C-8.495,1.352 -9.952,3.663 -9.966,3.686C-10.04,3.804 -10.194,3.841 -10.313,3.768C-10.431,3.695 -10.467,3.54 -10.395,3.421C-10.331,3.319 -8.816,0.908 -6.186,0.334C-4.644,0 -3.051,0.369 -1.451,1.436C3.122,4.484 0.259,10.911 0.229,10.976C0.187,11.068 0.095,11.123 0,11.123" style="fill:rgb(28,26,25);fill-rule:nonzero;"/>
        </g>
        <g transform="matrix(1.69575,0,0,1.69575,73.1394,128.904)">
            <path d="M0,3.544C-0.077,3.544 -0.152,3.509 -0.202,3.443C-0.285,3.331 -0.262,3.173 -0.15,3.09C-0.109,3.059 4.117,-0.025 7.252,3.114C7.351,3.212 7.351,3.373 7.252,3.47C7.154,3.569 6.995,3.569 6.896,3.47C4.066,0.637 0.189,3.466 0.15,3.495C0.105,3.528 0.053,3.544 0,3.544" style="fill:rgb(28,26,25);fill-rule:nonzero;"/>
        </g>
        <g transform="matrix(1.69575,0,0,1.69575,141.241,91.4859)">
            <path d="M0,25.893C-0.096,25.893 -0.187,25.838 -0.229,25.746C-0.287,25.619 -0.231,25.47 -0.104,25.412C-0.084,25.402 1.931,24.469 2.824,22.666C3.525,21.251 3.307,19.124 2.367,18.205C1.802,17.653 1.037,17.606 0.149,18.07C0.122,18.085 0.077,18.111 0.018,18.145C-3.082,19.945 -4.48,19.136 -5.107,18.141C-6.259,16.312 -5.263,1.88 -5.146,0.241C-5.136,0.102 -5.013,0 -4.876,0.008C-4.738,0.018 -4.633,0.138 -4.643,0.277C-4.959,4.687 -5.581,16.443 -4.682,17.872C-3.941,19.047 -2.445,18.995 -0.235,17.709C-0.167,17.67 -0.116,17.64 -0.083,17.623C0.999,17.059 1.995,17.136 2.719,17.844C3.815,18.917 4.075,21.274 3.275,22.89C2.302,24.856 0.193,25.83 0.104,25.871C0.07,25.886 0.035,25.893 0,25.893" style="fill:rgb(28,26,25);fill-rule:nonzero;"/>
        </g>
        <g transform="matrix(1.69575,0,0,1.69575,119.906,185.259)">
            <path d="M0,-2.1L0.416,-2.284C0.416,-2.284 11.261,0.498 21.439,-2.598L21.956,-2.305" style="fill:none;fill-rule:nonzero;stroke:white;stroke-width:1.23px;stroke-linecap:round;stroke-linejoin:round;"/>
        </g>
        <g transform="matrix(1.69575,0,0,1.69575,91.3365,136.647)">
            <path d="M0,-20.964C-1.657,-20.964 -3.005,-19.616 -3.005,-17.959L-3.005,-3.004C-3.005,-1.347 -1.657,0.001 0,0.001L18.382,0.001C20.039,0.001 21.387,-1.347 21.387,-3.004L21.387,-17.959C21.387,-19.616 20.039,-20.964 18.382,-20.964L0,-20.964ZM36.79,-20.964C35.132,-20.964 33.785,-19.616 33.785,-17.959L33.785,-3.004C33.785,-1.347 35.132,0.001 36.79,0.001L55.171,0.001C56.829,0.001 58.176,-1.347 58.176,-3.004L58.176,-17.959C58.176,-19.616 56.829,-20.964 55.171,-20.964L36.79,-20.964ZM36.79,1.229C34.456,1.229 32.556,-0.67 32.556,-3.004L32.556,-9.578C32.276,-9.718 30.271,-10.674 27.658,-10.674C25.831,-10.674 24.136,-10.206 22.616,-9.284L22.616,-3.004C22.616,-0.67 20.717,1.229 18.382,1.229L0,1.229C-2.334,1.229 -4.233,-0.67 -4.233,-3.004L-4.233,-17.959C-4.233,-20.294 -2.334,-22.193 0,-22.193L18.382,-22.193C20.717,-22.193 22.616,-20.294 22.616,-17.959L22.616,-10.67C24.163,-11.473 25.859,-11.881 27.664,-11.881C29.87,-11.881 31.704,-11.258 32.556,-10.911L32.556,-17.959C32.556,-20.294 34.456,-22.193 36.79,-22.193L55.171,-22.193C57.505,-22.193 59.405,-20.294 59.405,-17.959L59.405,-3.004C59.405,-0.67 57.505,1.229 55.171,1.229L36.79,1.229Z" style="fill:white;fill-rule:nonzero;"/>
        </g>
        <g transform="matrix(1.69575,0,0,1.69575,91.3365,101.523)">
            <path d="M0,20.464C-1.519,20.464 -2.755,19.228 -2.755,17.709L-2.755,2.754C-2.755,1.235 -1.519,-0.001 0,-0.001L18.382,-0.001C19.901,-0.001 21.137,1.235 21.137,2.754L21.137,17.709C21.137,19.228 19.901,20.464 18.382,20.464L0,20.464ZM36.79,20.464C35.27,20.464 34.035,19.228 34.035,17.709L34.035,2.754C34.035,1.235 35.27,-0.001 36.79,-0.001L55.171,-0.001C56.691,-0.001 57.926,1.235 57.926,2.754L57.926,17.709C57.926,19.228 56.691,20.464 55.171,20.464L36.79,20.464ZM55.171,-1.729L36.79,-1.729C34.317,-1.729 32.306,0.282 32.306,2.754L32.306,9.434C31.305,9.059 29.646,8.583 27.664,8.583C25.959,8.583 24.349,8.938 22.866,9.64L22.866,2.754C22.866,0.282 20.854,-1.729 18.382,-1.729L0,-1.729C-2.472,-1.729 -4.483,0.282 -4.483,2.754L-4.483,17.709C-4.483,20.181 -2.472,22.193 0,22.193L18.382,22.193C20.854,22.193 22.866,20.181 22.866,17.709L22.866,11.571C24.315,10.72 25.926,10.289 27.658,10.289C29.939,10.289 31.762,11.042 32.306,11.293L32.306,17.709C32.306,20.181 34.317,22.193 36.79,22.193L55.171,22.193C57.644,22.193 59.655,20.181 59.655,17.709L59.655,2.754C59.655,0.282 57.644,-1.729 55.171,-1.729M0,20.964L18.382,20.964C20.177,20.964 21.637,19.504 21.637,17.709L21.637,2.754C21.637,0.959 20.177,-0.501 18.382,-0.501L0,-0.501C-1.795,-0.501 -3.255,0.959 -3.255,2.754L-3.255,17.709C-3.255,19.504 -1.795,20.964 0,20.964M36.79,20.964L55.171,20.964C56.966,20.964 58.426,19.504 58.426,17.709L58.426,2.754C58.426,0.959 56.966,-0.501 55.171,-0.501L36.79,-0.501C34.995,-0.501 33.535,0.959 33.535,2.754L33.535,17.709C33.535,19.504 34.995,20.964 36.79,20.964M55.171,-1.229C57.368,-1.229 59.155,0.558 59.155,2.754L59.155,17.709C59.155,19.905 57.368,21.693 55.171,21.693L36.79,21.693C34.593,21.693 32.806,19.905 32.806,17.709L32.806,10.961C32.772,10.954 32.739,10.948 32.707,10.931C32.673,10.913 30.516,9.789 27.658,9.789C26.033,9.789 24.181,10.153 22.366,11.29L22.366,17.709C22.366,19.905 20.579,21.693 18.382,21.693L0,21.693C-2.196,21.693 -3.983,19.905 -3.983,17.709L-3.983,2.754C-3.983,0.558 -2.196,-1.229 0,-1.229L18.382,-1.229C20.579,-1.229 22.366,0.558 22.366,2.754L22.366,10.464C24.192,9.423 26.035,9.083 27.664,9.083C30.157,9.083 32.148,9.881 32.806,10.182L32.806,2.754C32.806,0.558 34.593,-1.229 36.79,-1.229L55.171,-1.229" style="fill:rgb(30,28,26);fill-rule:nonzero;"/>
        </g>
        <g transform="matrix(1.69575,0,0,1.69575,155.536,286.999)">
            <path d="M30.058,-34.158C29.571,-33.78 29.08,-33.407 28.585,-33.041C27.537,-32.266 26.469,-31.517 25.38,-30.796C24.947,-30.509 24.511,-30.226 24.072,-29.948C23.641,-29.675 23.206,-29.406 22.769,-29.141C22.349,-28.887 21.925,-28.636 21.5,-28.39C21.217,-28.226 20.934,-28.065 20.65,-27.905C18.456,-26.673 16.195,-25.547 13.874,-24.535C13.307,-24.288 12.736,-24.047 12.162,-23.814C11.885,-23.701 11.607,-23.59 11.329,-23.481C10.33,-23.088 9.321,-22.716 8.302,-22.366C4.811,-21.165 1.205,-20.213 -2.496,-19.531L-0,-56.986C16.629,-53.81 25.464,-44.421 30.058,-34.158Z" style="fill:rgb(30,28,26);fill-rule:nonzero;stroke:rgb(30,28,26);stroke-width:2.46px;"/>
        </g>
        <g transform="matrix(1.69575,0,0,1.69575,147.888,189.128)">
            <path d="M3.944,0L20.401,21.916C20.964,22.666 20.891,23.715 20.229,24.38L12.509,32.129C11.924,32.716 11.807,33.623 12.224,34.339L12.812,35.35C9.321,36.551 5.715,37.503 2.014,38.185C1.999,38.188 1.984,38.19 1.969,38.193C1.755,38.232 1.541,38.271 1.326,38.308L3.944,0Z" style="fill:rgb(30,28,26);fill-rule:nonzero;stroke:white;stroke-width:2.46px;"/>
        </g>
    </g>
</svg>
