<?xml version="1.0" encoding="UTF-8" standalone="no"?>
<!DOCTYPE svg PUBLIC "-//W3C//DTD SVG 1.1//EN" "http://www.w3.org/Graphics/SVG/1.1/DTD/svg11.dtd">
<svg width="100%" height="100%" viewBox="0 0 256 256" version="1.1" xmlns="http://www.w3.org/2000/svg" xmlns:xlink="http://www.w3.org/1999/xlink" xml:space="preserve" xmlns:serif="http://www.serif.com/" style="fill-rule:evenodd;clip-rule:evenodd;stroke-miterlimit:10;">
    <g id="fem-3" transform="matrix(0.40483,0,0,0.40483,76.5707,111.677)">
        <g transform="matrix(4.16667,0,0,4.16667,-16.0208,48.9852)">
            <path d="M-11.961,60.433C-11.977,59.406 -12.1,55.243 -13.011,53.105L-14.153,58.864C-16.973,56.768 -19.643,54.481 -22.143,52.023C-21.771,50.454 -21.584,48.401 -21.793,45.731C-22.069,42.204 -25.069,31.344 -24.47,26.95C-22.877,15.262 -16.86,16.817 -14.478,7.52C-12.655,0.405 -14.956,-10.995 -12.943,-17.659C-9.004,-30.699 -4.089,-37.292 1.739,-42.257L33.018,-45.774L33.552,-21.526C30.05,-20.746 26.774,-18.583 24,-14.463C16,-3.004 8,5.908 0,16.093C-7.322,24.251 -0.717,34.857 1.617,45.298C2.197,47.894 2.514,50.48 2.286,53.015C2.286,56.093 1.209,59.167 -0.67,61.814C-2.765,61.852 -6.139,61.413 -8.951,61.044C-9.908,60.918 -10.799,60.801 -11.553,60.713C-11.693,60.697 -11.828,60.681 -11.958,60.667C-11.958,60.667 -11.958,60.584 -11.961,60.433Z" style="fill:rgb(28,26,25);fill-rule:nonzero;"/>
        </g>
        <g transform="matrix(4.16667,0,0,4.16667,357.842,-75.2202)">
            <path d="M0.022,75.308C0.013,75.387 0.006,75.465 0,75.54C-0.008,75.644 -0.016,75.748 -0.023,75.85C-3.981,80.668 -8.521,84.991 -13.534,88.711C-13.372,89.095 -13.215,89.481 -13.064,89.868C-12.885,90.324 -14.455,86.126 -15.148,86.169C-15.364,85.777 -15.565,90.71 -15.751,90.295C-16.086,89.546 -16.368,88.757 -16.583,87.917C-17.598,85.657 -17.937,83.271 -17.9,80.815C-17.772,72.206 -13.026,62.74 -16.583,54.814C-18.65,51.361 -23.519,48.949 -24.433,45.696C-24.53,45.351 -24.583,44.996 -24.583,44.63C-24.654,44.155 -24.708,43.67 -24.747,43.177C-24.824,42.2 -24.845,41.192 -24.835,40.166C-24.832,39.816 -24.825,39.464 -24.815,39.11C-24.769,37.413 -24.664,35.684 -24.613,33.984C-24.607,33.795 -24.602,33.606 -24.598,33.418C-24.594,33.24 -24.591,33.062 -24.588,32.885C-24.585,32.653 -24.584,32.421 -24.584,32.191C-24.584,31.713 -24.592,31.239 -24.61,30.771C-24.619,30.557 -24.629,30.344 -24.642,30.132C-24.743,28.487 -24.989,26.923 -25.501,25.506C-25.534,25.416 -25.568,25.326 -25.603,25.236C-25.731,24.908 -25.875,24.588 -26.035,24.277C-26.524,23.328 -27.168,22.465 -28.012,21.713C-30.382,19.366 -33.115,16.953 -36.045,14.816C-36.38,14.572 -36.717,14.331 -37.056,14.095C-41.08,11.292 -45.428,9.066 -49.685,8.264C-49.882,8.227 -50.08,8.193 -50.277,8.162C-51.971,7.895 -53.647,7.861 -55.28,8.114L-54.749,-15.965L-23.47,-12.447C-19.819,-9.336 -16.526,-5.587 -13.606,-0.013C-11.866,3.309 -10.259,7.28 -8.788,12.15C-7.772,15.512 -8.03,19.299 -8.3,23.14C-8.418,24.804 -8.537,26.478 -8.556,28.132C-8.581,30.228 -8.445,32.292 -7.94,34.262C-5.558,43.559 1.687,47.962 3.279,59.649C3.423,60.705 3.324,61.967 3.087,63.324C2.36,67.496 0.328,72.567 0.022,75.308Z" style="fill:rgb(28,26,25);fill-rule:nonzero;"/>
        </g>
        <g transform="matrix(4.16667,0,0,4.16667,288.746,109.969)">
            <path d="M0,10.369C-2.286,6.55 -8,4.004 -8,0.184C-9.144,-7.455 -5.715,-17.64 -11.429,-22.733C-18.706,-29.939 -29.412,-37.769 -38.697,-36.331L-39.146,-15.954L-39.592,-36.162C-43.094,-35.382 -46.37,-33.219 -49.144,-29.099C-57.144,-17.64 -65.144,-8.728 -73.144,1.457C-82.287,11.642 -69.715,25.647 -70.858,38.379C-70.858,41.457 -71.935,44.531 -73.814,47.178C-58.474,46.897 -43.45,42.306 -39.146,40.881C-34.288,42.488 -16.369,45.767 0.842,44.688C-0.948,40.625 0.334,41.813 0,43.472C-4.572,33.286 4.571,20.555 0,10.369" style="fill:rgb(28,26,25);fill-rule:nonzero;"/>
        </g>
        <g transform="matrix(4.16667,0,0,4.16667,-76.2137,193.351)">
            <path d="M41.409,39.048C40.929,39.022 40.45,38.992 39.972,38.958C37.842,38.805 35.736,38.563 33.659,38.237C32.399,38.04 31.151,37.811 29.913,37.552C28.128,37.18 26.367,36.744 24.631,36.248C24.552,36.225 24.473,36.203 24.395,36.18C21.895,35.457 19.448,34.609 17.061,33.642C17.108,33.516 15.489,32.847 15.567,33.019C14.896,32.73 14.231,32.432 13.57,32.125C12.976,31.849 12.387,31.566 11.801,31.275C9.482,30.123 7.229,28.855 5.052,27.48C5.195,27.118 5.343,26.757 5.495,26.396C7.868,20.758 11.25,15.225 16.063,10.65C21.564,5.423 28.935,1.449 38.808,0L41.409,39.048Z" style="fill:white;fill-rule:nonzero;stroke:rgb(30,28,26);stroke-width:2.47px;"/>
        </g>
        <g transform="matrix(4.16667,0,0,4.16667,-76.2137,193.351)">
            <path d="M41.409,39.048C40.929,39.022 40.45,38.992 39.972,38.958C37.842,38.805 35.736,38.563 33.659,38.237C32.399,38.04 31.151,37.811 29.913,37.552C28.128,37.18 26.367,36.744 24.631,36.248C24.552,36.225 24.473,36.203 24.395,36.18C21.895,35.457 19.448,34.609 17.061,33.642C17.108,33.516 15.489,32.847 15.567,33.019C14.896,32.73 14.231,32.432 13.57,32.125C12.976,31.849 12.387,31.566 11.801,31.275C9.482,30.123 7.229,28.855 5.052,27.48C5.195,27.118 5.343,26.757 5.495,26.396C7.868,20.758 11.25,15.225 16.063,10.65C21.564,5.423 28.935,1.449 38.808,0L41.409,39.048Z" style="fill:white;fill-rule:nonzero;stroke:rgb(30,28,26);stroke-width:2.47px;"/>
        </g>
        <g transform="matrix(4.16667,0,0,4.16667,120.905,433.077)">
            <path d="M10.384,-19.356C10.156,-19.319 9.926,-18.521 9.697,-18.486C5.942,-17.914 2.097,-18.378 -1.817,-18.378C-2.7,-18.378 -3.579,-18.393 -4.455,-18.423C-4.938,-18.44 -5.419,-18.461 -5.899,-18.486L-8.501,-57.534C-8.052,-57.6 -7.599,-57.661 -7.141,-57.716C-7.026,-57.73 -6.911,-57.744 -6.796,-57.757C-4.646,-58.004 -2.385,-58.135 0,-58.135C4.499,-58.135 8.572,-57.767 12.274,-57.101C12.277,-57.101 12.28,-57.1 12.283,-57.1C12.48,-57.064 12.675,-57.028 12.87,-56.991C12.877,-56.99 12.884,-56.988 12.891,-56.987L10.384,-19.356Z" style="fill:rgb(28,26,25);fill-rule:nonzero;"/>
        </g>
        <g transform="matrix(4.16667,0,0,4.16667,91.1529,238.414)">
            <path d="M0,-10.997C0,-10.997 -3.556,2.348 9.983,2.484C23.522,2.62 20.032,-10.268 20.032,-10.268C20.032,-10.268 12.068,-13.617 0,-10.997Z" style="fill:white;fill-rule:nonzero;stroke:rgb(30,28,26);stroke-width:2.47px;"/>
        </g>
        <g transform="matrix(4.16667,0,0,4.16667,174.618,433.075)">
            <path d="M31.032,-35.652C29.886,-38.366 27.859,-38.659 26.073,-41.176C20.884,-48.489 12.724,-54.556 0,-56.986L-2.507,-19.355C-2.308,-19.387 -2.109,-19.42 -1.91,-19.454C1.655,-20.061 5.136,-20.916 8.514,-22.003C10.032,-22.491 11.53,-23.026 13.005,-23.605C13.285,-23.715 13.564,-23.827 13.843,-23.94C14.42,-24.175 14.993,-24.417 15.563,-24.665C17.897,-25.683 20.17,-26.815 22.375,-28.053C22.661,-28.214 22.946,-28.376 23.23,-28.541C23.658,-28.788 24.083,-29.04 24.506,-29.296C24.946,-29.562 25.382,-29.833 25.816,-30.107C28.155,-31.589 31.973,-33.425 31.032,-35.652Z" style="fill:white;fill-rule:nonzero;stroke:rgb(30,28,26);stroke-width:2.47px;"/>
        </g>
        <g transform="matrix(4.16667,0,0,4.16667,91.7979,217.837)">
            <path d="M0,-8.371L0.595,-1.26C0.595,-1.26 1.708,3.756 9.365,3.756C17.947,3.756 19.205,-1.26 19.205,-1.26L19.32,-10.093L19.347,-12.127C13.658,-9.624 4.482,-8.689 0,-8.371Z" style="fill:white;fill-rule:nonzero;stroke:rgb(30,28,26);stroke-width:2.47px;"/>
        </g>
        <g transform="matrix(4.16667,0,0,4.16667,172.779,182.958)">
            <path d="M0,-10.542L-20.141,-8.423L-19.625,-2.257L-19.436,0C-14.953,-0.318 -5.777,-1.253 -0.089,-3.756L0,-10.542Z" style="fill:rgb(28,26,25);fill-rule:nonzero;"/>
        </g>
        <g transform="matrix(4.16667,0,0,4.16667,243.401,87.8352)">
            <path d="M0,-41.358C0,-41.358 4.771,-28.866 4.771,-10.627C4.771,3.606 -6.591,17.536 -23.966,18.663C-40.297,19.724 -57.265,13.15 -62.354,-9.756C-67.445,-32.662 -60.233,-50.902 -39.449,-55.992C-18.664,-61.082 -4.242,-55.568 0,-41.358Z" style="fill:white;fill-rule:nonzero;stroke:rgb(30,28,26);stroke-width:2.47px;"/>
        </g>
        <g transform="matrix(4.16667,0,0,4.16667,249.008,96.6894)">
            <path d="M0,-15.858C0,-15.858 12.248,-20.312 12.884,-7.746C13.4,2.452 4.463,4.454 -1.007,0.725" style="fill:white;fill-rule:nonzero;stroke:rgb(30,28,26);stroke-width:2.47px;"/>
        </g>
        <g transform="matrix(4.16667,0,0,4.16667,250.994,42.9806)">
            <path d="M0,11.123C0.035,11.123 0.07,11.115 0.104,11.101C0.231,11.043 0.287,10.894 0.229,10.767C0.202,10.706 -2.484,4.665 1.73,1.854C3.211,0.867 4.672,0.522 6.074,0.826C8.494,1.352 9.951,3.663 9.967,3.686C10.04,3.805 10.194,3.841 10.313,3.768C10.432,3.695 10.468,3.54 10.395,3.422C10.331,3.319 8.816,0.908 6.186,0.334C4.644,0 3.051,0.369 1.451,1.435C-3.121,4.484 -0.259,10.911 -0.229,10.976C-0.187,11.068 -0.095,11.123 0,11.123" style="fill:rgb(8,6,6);fill-rule:nonzero;"/>
        </g>
        <g transform="matrix(4.16667,0,0,4.16667,276.844,54.0273)">
            <path d="M0,3.546C0.076,3.546 0.152,3.511 0.202,3.444C0.285,3.333 0.262,3.175 0.15,3.092C0.108,3.061 -4.117,-0.024 -7.253,3.115C-7.351,3.214 -7.351,3.374 -7.253,3.472C-7.154,3.57 -6.995,3.57 -6.896,3.472C-4.066,0.639 -0.189,3.468 -0.151,3.496C-0.105,3.529 -0.053,3.546 0,3.546" style="fill:rgb(8,6,6);fill-rule:nonzero;"/>
        </g>
        <g transform="matrix(4.16667,0,0,4.16667,134.547,80.5948)">
            <path d="M0,3.534C-3.848,3.534 -4.293,0.335 -4.298,0.301C-4.315,0.163 -4.218,0.038 -4.08,0.02C-3.949,0 -3.817,0.099 -3.798,0.238C-3.781,0.367 -3.337,3.384 0.7,2.994C0.838,2.991 0.961,3.083 0.975,3.221C0.988,3.359 0.887,3.482 0.749,3.496C0.486,3.521 0.236,3.534 0,3.534" style="fill:rgb(8,6,6);fill-rule:nonzero;"/>
        </g>
        <g transform="matrix(4.16667,0,0,4.16667,-1.38664,97.2227)">
            <path d="M0,-15.986C0,-15.986 -12.248,-20.44 -12.884,-7.874C-13.417,2.653 -3.652,4.454 1.772,0.201" style="fill:white;fill-rule:nonzero;stroke:rgb(30,28,26);stroke-width:2.47px;"/>
        </g>
        <g transform="matrix(1.96745,3.67291,3.67291,-1.96745,36.5395,-15.1763)">
            <path d="M5.269,-2.286C5.269,-2.286 2.123,-3.443 2.171,2.541C2.218,8.524 3.637,9.876 5.269,9.976C6.758,10.067 7.864,8.098 7.769,4.739C7.656,0.706 7.04,-1.692 5.269,-2.286" style="fill:rgb(28,26,25);fill-rule:nonzero;"/>
        </g>
        <g transform="matrix(0,-4.16667,-4.16667,0,70.2075,33.4727)">
            <path d="M-2.544,-2.546C-4.259,-2.546 -5.648,-1.406 -5.648,-0.001C-5.648,1.405 -4.259,2.544 -2.544,2.544C-0.831,2.544 0.558,1.405 0.558,-0.001C0.558,-1.406 -0.831,-2.546 -2.544,-2.546" style="fill:rgb(8,6,6);fill-rule:nonzero;"/>
        </g>
        <g transform="matrix(1.96745,-3.67291,-3.67291,-1.96745,220.753,-15.1782)">
            <path d="M-5.269,-2.286C-5.269,-2.286 -2.123,-3.443 -2.171,2.54C-2.219,8.524 -3.637,9.876 -5.269,9.976C-6.759,10.067 -7.865,8.099 -7.77,4.738C-7.656,0.706 -7.04,-1.692 -5.269,-2.286" style="fill:rgb(28,26,25);fill-rule:nonzero;"/>
        </g>
        <g transform="matrix(0,4.16667,4.16667,0,182.428,33.4706)">
            <path d="M2.545,-2.546C4.259,-2.546 5.648,-1.406 5.648,-0C5.648,1.405 4.259,2.545 2.545,2.545C0.832,2.545 -0.557,1.405 -0.557,-0C-0.557,-1.406 0.832,-2.546 2.545,-2.546" style="fill:rgb(8,6,6);fill-rule:nonzero;"/>
        </g>
        <g transform="matrix(4.16667,0,0,4.16667,-3.37622,42.9806)">
            <path d="M0,11.123C-0.035,11.123 -0.07,11.115 -0.104,11.101C-0.23,11.043 -0.287,10.894 -0.229,10.767C-0.202,10.706 2.485,4.665 -1.73,1.854C-3.21,0.867 -4.671,0.522 -6.074,0.826C-8.494,1.352 -9.951,3.663 -9.966,3.686C-10.04,3.805 -10.194,3.841 -10.312,3.768C-10.431,3.695 -10.467,3.54 -10.394,3.422C-10.331,3.319 -8.816,0.908 -6.185,0.334C-4.644,0 -3.051,0.369 -1.451,1.435C3.122,4.484 0.259,10.911 0.229,10.976C0.187,11.068 0.096,11.123 0,11.123" style="fill:rgb(8,6,6);fill-rule:nonzero;"/>
        </g>
        <g transform="matrix(4.16667,0,0,4.16667,-29.2225,54.0273)">
            <path d="M0,3.546C-0.077,3.546 -0.152,3.511 -0.202,3.444C-0.286,3.333 -0.262,3.175 -0.151,3.092C-0.109,3.061 4.117,-0.024 7.252,3.115C7.351,3.214 7.351,3.374 7.252,3.472C7.154,3.57 6.994,3.57 6.896,3.472C4.066,0.639 0.189,3.468 0.15,3.496C0.105,3.529 0.052,3.546 0,3.546" style="fill:rgb(8,6,6);fill-rule:nonzero;"/>
        </g>
        <g transform="matrix(4.16667,0,0,4.16667,138.111,-37.9094)">
            <path d="M0,25.893C-0.096,25.893 -0.187,25.839 -0.229,25.746C-0.287,25.619 -0.231,25.47 -0.104,25.413C-0.084,25.403 1.931,24.469 2.824,22.666C3.525,21.251 3.307,19.124 2.367,18.205C1.802,17.653 1.037,17.606 0.149,18.071C0.122,18.085 0.077,18.112 0.018,18.145C-3.082,19.945 -4.48,19.136 -5.108,18.141C-6.259,16.313 -5.263,1.881 -5.146,0.242C-5.136,0.103 -5.013,0 -4.876,0.008C-4.738,0.018 -4.633,0.138 -4.644,0.278C-4.959,4.687 -5.581,16.444 -4.682,17.872C-3.941,19.048 -2.445,18.995 -0.235,17.71C-0.167,17.67 -0.116,17.641 -0.084,17.623C0.999,17.059 1.995,17.136 2.719,17.845C3.815,18.917 4.075,21.275 3.275,22.89C2.301,24.857 0.193,25.831 0.104,25.871C0.07,25.886 0.035,25.893 0,25.893" style="fill:rgb(8,6,6);fill-rule:nonzero;"/>
        </g>
        <g transform="matrix(4.16667,0,0,4.16667,104.204,15.5644)">
            <path d="M0,-41.554C0,-41.554 -47.038,-48.17 -36.251,5.526C-36.251,5.526 -33.685,2.384 -27.429,2.912C-21.173,3.439 2.125,-16.328 2.847,-23.2C2.847,-23.2 22.274,2.845 38.179,2.845C41.528,2.845 44.948,4.437 45.662,5.526C46.375,6.616 54.561,-17.837 41.686,-31.447C25.865,-48.17 9.624,-45.103 0,-41.554" style="fill:rgb(28,26,25);fill-rule:nonzero;"/>
        </g>
        <g transform="matrix(4.16667,0,0,4.16667,92.0521,-200.082)">
            <path d="M0,13.418C-2.372,11.434 -4.032,8.626 -4.671,5.603C-4.856,4.73 -3.926,4.033 -3.167,4.504C-1.152,5.754 0.369,7.809 0.905,10.123C0.757,7.78 0.608,5.438 0.459,3.096C0.398,2.141 0.417,1.011 1.196,0.457C1.839,0 2.775,0.172 3.391,0.666C4.006,1.159 4.364,1.902 4.648,2.638C5.861,5.776 6.093,9.286 5.303,12.556" style="fill:rgb(28,26,25);fill-rule:nonzero;"/>
        </g>
        <g transform="matrix(4.16667,0,0,4.16667,-92.4183,-156.47)">
            <path d="M-0.593,103.481C-1.834,99.909 -2.482,99.851 -3.723,96.278C-5.242,91.905 -6.771,87.495 -7.412,82.881C-8.054,78.268 -7.754,73.378 -5.753,69.181C-3.242,63.911 1.723,60.123 3.71,54.62C6.192,47.748 3.433,40.184 3.501,32.864C3.599,22.19 8.941,7.085 27.44,2.473C37.358,0 41.147,6.827 48.002,14.655" style="fill:none;fill-rule:nonzero;stroke:rgb(8,7,6);stroke-width:1.44px;"/>
        </g>
        <g transform="matrix(4.16667,0,0,4.16667,164.389,269.396)">
            <path d="M0,-102.416C3.796,-103.501 7.767,-103.728 11.65,-103.168C17.984,-102.254 24.086,-99.248 28.82,-94.463C36.457,-86.744 40.303,-74.63 38.72,-63.279C38.548,-62.043 38.316,-60.806 38.128,-59.568C37.877,-57.906 37.706,-56.242 37.872,-54.576C37.875,-54.544 37.879,-54.513 37.882,-54.481C38.87,-45.241 49.413,-40.456 51.166,-31.358C51.938,-27.351 50.833,-23.218 49.516,-19.384C49.49,-19.307 49.463,-19.23 49.437,-19.154C48.113,-15.336 46.574,-11.482 46.451,-7.4C46.448,-7.315 46.446,-7.229 46.445,-7.143C46.444,-7.063 46.443,-6.983 46.444,-6.903" style="fill:none;fill-rule:nonzero;stroke:rgb(8,7,6);stroke-width:1.44px;"/>
        </g>
        <g transform="matrix(4.16667,0,0,4.16667,94.2779,44.2885)">
            <path d="M0,-47.355C2.411,-35.299 8.662,-24.042 17.621,-15.622C26.58,-7.201 38.203,-1.659 50.384,0" style="fill:none;fill-rule:nonzero;stroke:rgb(8,7,6);stroke-width:1.37px;"/>
        </g>
        <g transform="matrix(-2.9459,2.94665,2.94665,2.9459,6.72054,103.565)">
            <path d="M1.972,-4.759C0.432,-4.759 -0.816,-3.511 -0.815,-1.971C-0.815,-0.431 0.433,0.817 1.972,0.816C3.512,0.816 4.76,-0.432 4.76,-1.972C4.76,-3.511 3.512,-4.759 1.972,-4.759" style="fill:white;fill-rule:nonzero;"/>
        </g>
        <g transform="matrix(-2.9459,2.94665,2.94665,2.9459,6.72054,103.565)">
            <ellipse cx="1.972" cy="-1.971" rx="2.788" ry="2.788" style="fill:none;stroke:rgb(30,28,26);stroke-width:2.47px;"/>
        </g>
        <g transform="matrix(-2.9459,2.94665,2.94665,2.9459,268.045,103.566)">
            <path d="M1.972,-4.759C0.431,-4.759 -0.816,-3.51 -0.816,-1.97C-0.816,-0.43 0.432,0.818 1.972,0.817C3.512,0.817 4.759,-0.432 4.759,-1.972C4.76,-3.511 3.512,-4.759 1.972,-4.759" style="fill:white;fill-rule:nonzero;"/>
        </g>
        <g transform="matrix(-2.9459,2.94665,2.94665,2.9459,268.045,103.566)">
            <ellipse cx="1.972" cy="-1.971" rx="2.788" ry="2.788" style="fill:none;stroke:rgb(30,28,26);stroke-width:2.47px;"/>
        </g>
        <g transform="matrix(4.16667,0,0,4.16667,152.129,37.5056)">
            <path d="M0,1.143C0.315,8.205 6.316,13.694 13.378,13.379C20.44,13.065 25.93,7.063 25.615,0.001C25.301,-7.06 19.299,-12.55 12.237,-12.236C5.175,-11.92 -0.314,-5.919 0,1.143M-0.719,1.174C-1.051,-6.284 4.746,-12.622 12.205,-12.955C19.663,-13.287 26.002,-7.489 26.334,-0.031C26.666,7.428 20.868,13.766 13.41,14.098C5.952,14.43 -0.386,8.633 -0.719,1.174" style="fill:rgb(28,26,25);fill-rule:nonzero;"/>
        </g>
        <g transform="matrix(4.16667,0,0,4.16667,-1.94997,44.3744)">
            <path d="M0,1.142C0.314,8.204 6.315,13.693 13.377,13.378C20.439,13.064 25.929,7.063 25.615,-0C25.3,-7.061 19.298,-12.551 12.236,-12.237C5.174,-11.921 -0.315,-5.92 0,1.142M-0.719,1.173C-1.051,-6.285 4.746,-12.623 12.205,-12.956C19.663,-13.288 26.001,-7.49 26.333,-0.032C26.666,7.427 20.868,13.765 13.41,14.097C5.951,14.43 -0.387,8.632 -0.719,1.173" style="fill:rgb(28,26,25);fill-rule:nonzero;"/>
        </g>
        <g transform="matrix(4.16667,0,0,4.16667,105.995,20.7673)">
            <path d="M0,4.126C0.062,4.123 0.123,4.105 0.179,4.068C5.192,0.824 10.543,3.576 10.597,3.605C10.772,3.696 10.99,3.629 11.083,3.454C11.175,3.278 11.108,3.061 10.932,2.968C10.875,2.939 5.15,-0.005 -0.212,3.464C-0.379,3.572 -0.427,3.795 -0.319,3.962C-0.247,4.073 -0.124,4.131 0,4.126" style="fill:rgb(28,26,25);fill-rule:nonzero;"/>
        </g>
        <g transform="matrix(4.16667,0,0,4.16667,107.59,192.593)">
            <path d="M-1.259,39.293C-1.742,39.277 -2.223,39.255 -2.704,39.23C-3.184,39.204 -3.663,39.174 -4.141,39.14C-6.271,38.987 -8.376,38.745 -10.454,38.419C-11.713,38.222 -12.962,37.993 -14.2,37.734L-12.224,34.339C-11.807,33.623 -11.923,32.716 -12.508,32.129L-20.229,24.379C-20.891,23.715 -20.964,22.665 -20.401,21.916L-3.945,-0L-1.259,39.293Z" style="fill:white;fill-rule:nonzero;stroke:rgb(30,28,26);stroke-width:2.47px;"/>
        </g>
        <g transform="matrix(4.16667,0,0,4.16667,155.828,192.593)">
            <path d="M13.024,35.713C9.646,36.799 6.165,37.655 2.599,38.262C2.401,38.295 2.202,38.328 2.003,38.36C1.774,38.398 1.545,38.434 1.315,38.469L3.944,0L20.401,21.916C20.965,22.665 20.891,23.715 20.229,24.379L12.509,32.129C11.924,32.716 11.807,33.623 12.224,34.339L13.024,35.713Z" style="fill:white;fill-rule:nonzero;stroke:rgb(30,28,26);stroke-width:2.47px;"/>
        </g>
    </g>
</svg>
