<?xml version="1.0" encoding="UTF-8" standalone="no"?>
<!DOCTYPE svg PUBLIC "-//W3C//DTD SVG 1.1//EN" "http://www.w3.org/Graphics/SVG/1.1/DTD/svg11.dtd">
<svg width="100%" height="100%" viewBox="0 0 256 256" version="1.1" xmlns="http://www.w3.org/2000/svg" xmlns:xlink="http://www.w3.org/1999/xlink" xml:space="preserve" xmlns:serif="http://www.serif.com/" style="fill-rule:evenodd;clip-rule:evenodd;stroke-miterlimit:10;">
    <g id="male-2" transform="matrix(0.410739,0,0,0.410739,76.1405,103.211)">
        <g transform="matrix(0.430311,-4.14439,-4.14439,-0.430311,147.207,100.067)">
            <path d="M-29.284,-32.918C-26.515,-29.411 -24.233,-25.196 -22.716,-20.121C-28.197,-5.586 -31.006,9.855 -29.284,25.886C-31.139,28.459 -33.234,30.666 -35.48,32.589C-42.161,10.816 -38.502,-12.316 -29.284,-32.918Z" style="fill:rgb(28,26,25);fill-rule:nonzero;stroke:rgb(28,26,25);stroke-width:2.43px;"/>
        </g>
        <g transform="matrix(0.383374,-4.14899,-4.14899,-0.383374,135.472,108.517)">
            <path d="M-32.831,-40.644C-30.883,-39.057 -29.042,-37.263 -27.376,-35.202C-36.36,-14.498 -39.757,8.675 -32.831,30.37C-35.568,32.769 -38.552,34.704 -41.649,36.275C-48.777,10.49 -44.53,-16.895 -32.831,-40.644Z" style="fill:white;fill-rule:nonzero;stroke:rgb(30,28,26);stroke-width:2.43px;"/>
        </g>
        <g transform="matrix(0.429971,-4.14442,-4.14442,-0.429971,145.087,150.843)">
            <path d="M-52.363,20.202C-51.923,22.556 -51.371,24.875 -50.713,27.153C-50.519,27.104 -50.278,28.704 -49.58,30.73C-49.37,31.34 -49.152,31.947 -48.927,32.551C-47.538,36.265 -45.861,39.848 -43.92,43.27C-42.475,42.932 -41.019,42.539 -39.564,42.081C-44.901,13.989 -43.384,-17.989 -31.059,-43.164C-31.936,-43.596 -32.819,-43.997 -33.705,-44.371C-33.836,-44.23 -33.966,-44.088 -34.096,-43.946C-34.967,-42.992 -35.814,-42.016 -36.636,-41.017C-36.963,-40.62 -37.286,-40.219 -37.605,-39.814C-37.919,-39.417 -38.228,-39.016 -38.534,-38.613C-38.828,-38.224 -39.118,-37.833 -39.404,-37.438C-39.594,-37.177 -39.782,-36.914 -39.969,-36.65C-41.408,-34.614 -42.748,-32.501 -43.983,-30.317C-44.285,-29.783 -44.58,-29.245 -44.869,-28.703C-45.008,-28.442 -45.146,-28.18 -45.283,-27.916C-47.416,-23.797 -49.181,-19.443 -50.531,-14.893C-52.688,-3.411 -53.229,8.486 -52.363,20.202Z" style="fill:white;fill-rule:nonzero;stroke:rgb(30,28,26);stroke-width:2.43px;"/>
        </g>
        <g transform="matrix(4.16667,0,0,4.16667,305.014,375.587)">
            <path d="M-28.784,-2.141C-29.184,-2.066 -29.586,-1.994 -29.989,-1.925C-34.09,-1.228 -38.304,-0.864 -42.603,-0.864C-44.432,-0.864 -46.246,-0.93 -48.042,-1.06C-50.142,-1.211 -52.217,-1.449 -54.265,-1.77C-57.295,-2.245 -60.265,-2.903 -63.163,-3.731C-63.241,-3.753 -63.318,-3.775 -63.396,-3.798C-63.557,-3.844 -63.719,-3.892 -63.88,-3.939C-52.316,-1.869 -40.426,-1.18 -28.784,-2.141Z" style="fill:rgb(28,26,25);fill-rule:nonzero;stroke:rgb(28,26,25);stroke-width:2.43px;"/>
        </g>
        <g transform="matrix(0.373088,-4.14993,-4.14993,-0.373088,146.91,121.482)">
            <path d="M-38.706,-42.929C-35.715,-41.506 -32.787,-39.746 -30.079,-37.55C-41.719,-13.771 -45.897,13.624 -38.706,39.391C-41.102,40.614 -43.568,41.609 -46.041,42.424C-51.762,14.409 -50.684,-17.587 -38.706,-42.929Z" style="fill:rgb(28,26,25);fill-rule:nonzero;stroke:rgb(28,26,25);stroke-width:2.43px;"/>
        </g>
        <g transform="matrix(4.16667,0,0,4.16667,220.824,207.695)">
            <path d="M0,-1.159C-6.008,-3.658 -13.413,-5.15 -22.544,-5.15C-32.427,-5.15 -40.245,-2.934 -46.44,0.623C-30.672,3.991 -15.024,2.792 0,-1.159Z" style="fill:white;fill-rule:nonzero;stroke:rgb(30,28,26);stroke-width:2.43px;"/>
        </g>
        <g transform="matrix(4.16667,0,0,4.16667,78.689,234.402)">
            <path d="M0,-10.648C0,-10.648 0.21,2.186 13.749,2.322C27.289,2.458 28.572,-9.628 28.572,-9.628C28.572,-9.628 13.2,-13.106 0,-10.648Z" style="fill:white;fill-rule:nonzero;stroke:rgb(30,28,26);stroke-width:2.43px;"/>
        </g>
        <g transform="matrix(4.16667,0,0,4.16667,97.9174,213.225)">
            <path d="M0,-6.337L0.595,-1.26C0.595,-1.26 1.708,3.756 9.365,3.756C17.948,3.756 19.206,-1.26 19.206,-1.26L19.32,-8.059L19.347,-10.093C13.658,-7.59 4.482,-6.656 0,-6.337Z" style="fill:white;fill-rule:nonzero;stroke:rgb(30,28,26);stroke-width:2.43px;"/>
        </g>
        <g transform="matrix(4.16667,0,0,4.16667,178.897,186.82)">
            <path d="M0,-12.576L-20.14,-10.457L-19.624,-4.291L-19.435,0C-14.953,-0.319 -5.777,-1.253 -0.088,-3.756L0,-12.576Z" style="fill:rgb(28,26,25);fill-rule:nonzero;stroke:rgb(28,26,25);stroke-width:2.43px;"/>
        </g>
        <g transform="matrix(4.16667,0,0,4.16667,249.52,83.2225)">
            <path d="M0,-41.358C3.198,-34.271 4.772,-28.866 4.772,-10.627C4.772,3.606 -6.591,17.536 -23.966,18.663C-40.297,19.724 -57.265,13.15 -62.354,-9.756C-67.445,-32.662 -60.234,-50.902 -39.449,-55.992C-18.664,-61.082 -3.766,-49.704 0,-41.358" style="fill:white;fill-rule:nonzero;"/>
        </g>
        <g transform="matrix(4.16667,0,0,4.16667,249.52,83.2225)">
            <path d="M0,-41.358C3.198,-34.271 4.772,-28.866 4.772,-10.627C4.772,3.606 -6.591,17.536 -23.966,18.663C-40.297,19.724 -57.265,13.15 -62.354,-9.756C-67.445,-32.662 -60.234,-50.902 -39.449,-55.992C-18.664,-61.082 -3.766,-49.704 0,-41.358Z" style="fill:none;fill-rule:nonzero;stroke:rgb(30,28,26);stroke-width:2.43px;"/>
        </g>
        <g transform="matrix(4.16667,0,0,4.16667,-3.6068,160.811)">
            <path d="M0,-29.366C0,-29.366 3.248,-24.364 13.354,-21.116C23.459,-17.868 26.558,-21.838 31.972,-21.838C37.385,-21.838 36.536,-20.349 45.035,-19.951C53.534,-19.553 59.293,-26.903 61.69,-31.101C61.69,-31.101 69.576,1.716 31.972,1.726C-2.224,1.735 0,-29.366 0,-29.366" style="fill:rgb(28,26,25);fill-rule:nonzero;"/>
        </g>
        <g transform="matrix(4.16667,0,0,4.16667,85.3399,165.773)">
            <path d="M0,0.535C0,0.535 0.762,-0.377 2.298,-0.083C5.671,0.559 12.778,1.273 23.76,-0.738" style="fill:none;fill-rule:nonzero;stroke:white;stroke-width:1.22px;stroke-linecap:round;stroke-linejoin:round;"/>
        </g>
        <g transform="matrix(-4.1474,0.400276,0.400276,4.1474,134.289,136.061)">
            <path d="M-0.12,-12.934C-0.12,-12.934 6.801,-13.236 8.093,-6.859C9.285,-0.974 2.164,-5.253 -0.12,-5.127C-2.404,-4.999 -7.518,1.131 -8.086,-5.016C-8.609,-10.68 -2.857,-13.021 -0.12,-12.934Z" style="fill:white;fill-rule:nonzero;stroke:rgb(30,28,26);stroke-width:2.43px;"/>
        </g>
        <g transform="matrix(4.16667,0,0,4.16667,235.785,48.1625)">
            <path d="M0,-50.427C23.029,-41.938 16.345,-3.497 14.276,-1.964C11.627,0 7.659,-0.536 5.129,-2.651C2.599,-4.766 6.429,-3.629 4.384,-6.217C-1.632,-13.831 -4.681,-30.641 -7.288,-35.833C-8.614,-38.474 -9.824,-41.362 -9.448,-44.293C-9.072,-47.224 -6.523,-50.067 -3.588,-49.722" style="fill:rgb(28,26,25);fill-rule:nonzero;"/>
        </g>
        <g transform="matrix(4.16667,0,0,4.16667,-6.29805,-168.845)">
            <path d="M0,47.438C0,47.438 11.04,35.123 12.761,24.295C12.761,24.295 18.863,28.673 27.388,28.494C30.972,28.418 30.972,25.418 30.972,25.418C30.972,25.418 38.138,30.326 44.217,29.05C47.347,28.394 48.583,24.787 48.583,24.787C48.583,24.787 52.822,31.26 58.664,26.497C62.417,23.436 66.419,7.979 61.367,6.536C61.367,6.536 64.128,-8.178 48.374,-6.012C32.62,-3.847 30.022,-6.438 20.879,-5.957C11.736,-5.476 3.789,4.851 3.789,4.851C-17.519,18.325 -9.763,44.31 -7.239,47.438C-0.641,55.616 0,47.438 0,47.438" style="fill:rgb(28,26,25);fill-rule:nonzero;"/>
        </g>
        <g transform="matrix(4.16667,0,0,4.16667,4.26278,45.0096)">
            <path d="M0,-45.639C-4.828,-44.439 -11.423,-37.752 -14.354,-33.014C-14.986,-31.993 -15.586,-30.911 -15.742,-29.721C-15.896,-28.531 -15.515,-27.2 -14.521,-26.526C-13.527,-25.853 -11.915,-26.149 -11.468,-27.263C-13.69,-24.68 -15.961,-22.015 -17.085,-18.797C-17.862,-16.572 -17.971,-13.999 -17.165,-11.829C-16.612,-10.343 -14.712,-9.898 -13.486,-10.903C-14.937,-8.524 -14.721,-5.243 -12.971,-3.074C-11.22,-0.905 -8.059,0 -5.427,-0.916" style="fill:rgb(28,26,25);fill-rule:nonzero;"/>
        </g>
        <g transform="matrix(4.16667,0,0,4.16667,2.61487,52.1729)">
            <path d="M0,-48.159C-5.203,-45.593 -9.832,-41.868 -13.452,-37.335C-14.789,-35.661 -16.039,-33.728 -16.027,-31.586C-16.015,-29.443 -14.194,-27.209 -12.075,-27.528C-15.853,-24.115 -17.896,-18.873 -17.425,-13.804C-17.333,-12.805 -17.113,-11.745 -16.397,-11.042C-15.682,-10.338 -14.329,-10.221 -13.754,-11.044C-14.568,-8.763 -14.327,-6.131 -13.112,-4.036C-11.897,-1.942 -9.731,-0.426 -7.348,0" style="fill:none;fill-rule:nonzero;stroke:rgb(8,7,6);stroke-width:1.42px;"/>
        </g>
        <g transform="matrix(4.16667,0,0,4.16667,243.836,45.0467)">
            <path d="M0,-48.81C4.268,-47.59 13.38,-38.366 15.972,-33.551C16.53,-32.513 17.061,-31.414 17.198,-30.205C17.335,-28.995 16.998,-27.642 16.119,-26.957C15.241,-26.273 13.815,-26.575 13.42,-27.706C15.385,-25.081 17.393,-22.373 18.386,-19.103C19.073,-16.841 19.169,-14.227 18.456,-12.021C17.967,-10.511 16.288,-10.058 15.204,-11.081C16.487,-8.662 16.296,-5.328 14.749,-3.123C13.202,-0.919 10.407,0 8.08,-0.931" style="fill:rgb(28,26,25);fill-rule:nonzero;"/>
        </g>
        <g transform="matrix(4.16667,0,0,4.16667,7.94737,-173.94)">
            <path d="M0,8.109C-1.965,7.125 -5.383,4.324 -3.671,2.945C-2.626,2.103 -1.301,4.272 -0.57,5.397C-0.83,4.171 -1.09,2.944 -1.351,1.718C-1.417,1.404 -1.484,1.079 -1.423,0.763C-1.362,0.448 -1.138,0.14 -0.821,0.084C-0.35,0 0.022,0.466 0.256,0.884C1.364,2.853 2.085,5.039 2.368,7.281" style="fill:rgb(28,26,25);fill-rule:nonzero;"/>
        </g>
        <g transform="matrix(4.16667,0,0,4.16667,255.125,92.735)">
            <path d="M0,-16.016C0,-16.016 12.248,-20.47 12.884,-7.904C13.401,2.294 4.477,4.454 -0.993,0.724" style="fill:white;fill-rule:nonzero;stroke:rgb(30,28,26);stroke-width:2.43px;"/>
        </g>
        <g transform="matrix(4.16667,0,0,4.16667,257.113,38.3679)">
            <path d="M0,11.123C0.035,11.123 0.071,11.115 0.104,11.101C0.231,11.043 0.287,10.894 0.229,10.767C0.202,10.706 -2.484,4.665 1.73,1.854C3.211,0.867 4.671,0.522 6.074,0.826C8.495,1.352 9.952,3.663 9.966,3.686C10.04,3.805 10.194,3.841 10.313,3.768C10.431,3.695 10.467,3.54 10.395,3.422C10.331,3.319 8.816,0.908 6.186,0.334C4.644,0 3.051,0.369 1.451,1.435C-3.122,4.484 -0.258,10.911 -0.229,10.976C-0.187,11.068 -0.095,11.123 0,11.123" style="fill:rgb(8,6,6);fill-rule:nonzero;"/>
        </g>
        <g transform="matrix(4.16667,0,0,4.16667,282.962,49.4146)">
            <path d="M0,3.546C0.077,3.546 0.152,3.511 0.202,3.444C0.286,3.333 0.262,3.175 0.15,3.092C0.109,3.061 -4.117,-0.024 -7.252,3.115C-7.351,3.214 -7.351,3.374 -7.252,3.472C-7.154,3.57 -6.994,3.57 -6.896,3.472C-4.066,0.639 -0.189,3.468 -0.15,3.496C-0.105,3.529 -0.052,3.546 0,3.546" style="fill:rgb(8,6,6);fill-rule:nonzero;"/>
        </g>
        <g transform="matrix(4.16667,0,0,4.16667,140.666,90.635)">
            <path d="M0,3.533C-3.848,3.533 -4.293,0.335 -4.298,0.3C-4.315,0.162 -4.218,0.037 -4.08,0.019C-3.949,0 -3.817,0.098 -3.798,0.237C-3.782,0.366 -3.338,3.383 0.699,2.994C0.838,2.99 0.961,3.082 0.975,3.22C0.988,3.359 0.887,3.481 0.749,3.496C0.486,3.521 0.236,3.533 0,3.533" style="fill:rgb(8,6,6);fill-rule:nonzero;"/>
        </g>
        <g transform="matrix(4.16667,0,0,4.16667,4.73278,95.2433)">
            <path d="M0,-16.618C0,-16.618 -12.248,-21.072 -12.885,-8.506C-13.417,2.021 -3.402,4.454 2.022,0.201" style="fill:white;fill-rule:nonzero;stroke:rgb(30,28,26);stroke-width:2.43px;"/>
        </g>
        <g transform="matrix(1.96745,3.67291,3.67291,-1.96745,42.6589,-19.7891)">
            <path d="M5.269,-2.286C5.269,-2.286 2.123,-3.443 2.171,2.541C2.218,8.524 3.637,9.876 5.269,9.976C6.758,10.067 7.864,8.098 7.769,4.739C7.656,0.706 7.04,-1.692 5.269,-2.286" style="fill:rgb(28,26,25);fill-rule:nonzero;"/>
        </g>
        <g transform="matrix(0,-4.16667,-4.16667,0,76.3265,28.86)">
            <path d="M-2.544,-2.546C-4.259,-2.546 -5.648,-1.406 -5.648,-0.001C-5.648,1.405 -4.259,2.544 -2.544,2.544C-0.831,2.544 0.558,1.405 0.558,-0.001C0.558,-1.406 -0.831,-2.546 -2.544,-2.546" style="fill:rgb(8,6,6);fill-rule:nonzero;"/>
        </g>
        <g transform="matrix(1.96745,-3.67291,-3.67291,-1.96745,226.871,-19.7891)">
            <path d="M-5.269,-2.286C-5.269,-2.286 -2.123,-3.443 -2.171,2.541C-2.218,8.524 -3.637,9.876 -5.269,9.976C-6.758,10.067 -7.864,8.098 -7.769,4.739C-7.656,0.706 -7.04,-1.692 -5.269,-2.286" style="fill:rgb(28,26,25);fill-rule:nonzero;"/>
        </g>
        <g transform="matrix(0,4.16667,4.16667,0,188.547,28.86)">
            <path d="M2.544,-2.546C4.259,-2.546 5.648,-1.407 5.648,-0.001C5.648,1.405 4.259,2.544 2.544,2.544C0.831,2.544 -0.558,1.405 -0.558,-0.001C-0.558,-1.407 0.831,-2.546 2.544,-2.546" style="fill:rgb(8,6,6);fill-rule:nonzero;"/>
        </g>
        <g transform="matrix(4.16667,0,0,4.16667,2.7432,38.3679)">
            <path d="M0,11.123C-0.035,11.123 -0.07,11.115 -0.104,11.101C-0.23,11.043 -0.287,10.894 -0.229,10.767C-0.202,10.706 2.485,4.665 -1.73,1.854C-3.21,0.867 -4.671,0.522 -6.074,0.826C-8.494,1.352 -9.951,3.663 -9.966,3.686C-10.04,3.805 -10.194,3.841 -10.312,3.768C-10.431,3.695 -10.467,3.54 -10.395,3.422C-10.331,3.319 -8.816,0.908 -6.185,0.334C-4.644,0 -3.051,0.369 -1.451,1.435C3.122,4.484 0.259,10.911 0.229,10.976C0.187,11.068 0.096,11.123 0,11.123" style="fill:rgb(8,6,6);fill-rule:nonzero;"/>
        </g>
        <g transform="matrix(4.16667,0,0,4.16667,-23.1035,49.4146)">
            <path d="M0,3.546C-0.077,3.546 -0.153,3.511 -0.203,3.444C-0.286,3.333 -0.262,3.175 -0.151,3.092C-0.109,3.061 4.117,-0.024 7.252,3.115C7.351,3.214 7.351,3.374 7.252,3.472C7.154,3.57 6.994,3.57 6.896,3.472C4.066,0.639 0.189,3.468 0.15,3.496C0.105,3.529 0.052,3.546 0,3.546" style="fill:rgb(8,6,6);fill-rule:nonzero;"/>
        </g>
        <g transform="matrix(4.16667,0,0,4.16667,144.229,-42.5221)">
            <path d="M0,25.893C-0.095,25.893 -0.187,25.839 -0.229,25.746C-0.287,25.619 -0.23,25.47 -0.104,25.413C-0.084,25.403 1.932,24.469 2.824,22.667C3.525,21.251 3.307,19.124 2.367,18.205C1.802,17.653 1.037,17.606 0.15,18.071C0.122,18.085 0.077,18.112 0.018,18.145C-3.082,19.946 -4.479,19.136 -5.107,18.141C-6.258,16.313 -5.263,1.881 -5.146,0.242C-5.135,0.103 -5.012,0 -4.876,0.008C-4.737,0.018 -4.633,0.138 -4.643,0.278C-4.958,4.687 -5.581,16.444 -4.681,17.872C-3.941,19.048 -2.445,18.995 -0.235,17.71C-0.167,17.67 -0.116,17.641 -0.083,17.623C0.999,17.059 1.995,17.136 2.72,17.845C3.815,18.917 4.076,21.275 3.276,22.89C2.302,24.857 0.193,25.831 0.104,25.871C0.071,25.886 0.035,25.893 0,25.893" style="fill:rgb(8,6,6);fill-rule:nonzero;"/>
        </g>
        <g transform="matrix(4.16667,0,0,4.16667,33.7978,-42.4617)">
            <path d="M0,-7.6C5.148,-3.247 11.939,-0.89 18.677,-1.116C20.014,-1.161 21.482,-1.37 22.365,-2.374C23.248,-3.379 22.923,-5.379 21.598,-5.558C23.885,-3.005 26.988,-1.194 30.335,-0.456C31.969,-0.096 33.736,0 35.263,-0.686C37.748,-1.801 38.975,-5.1 37.823,-7.569C38.838,-5.829 39.869,-4.068 41.298,-2.65C42.728,-1.231 44.625,-0.171 46.639,-0.175C48.653,-0.178 50.722,-1.45 51.246,-3.394" style="fill:none;fill-rule:nonzero;stroke:rgb(8,7,6);stroke-width:1.42px;"/>
        </g>
    </g>
</svg>
